<?xml version="1.0" standalone="no"?>
<!DOCTYPE svg PUBLIC "-//W3C//DTD SVG 1.1//EN" "http://www.w3.org/Graphics/SVG/1.1/DTD/svg11.dtd" >
<svg xmlns="http://www.w3.org/2000/svg" xmlns:xlink="http://www.w3.org/1999/xlink" version="1.1">
<metadata></metadata>
<defs>
<font id="comfortaaregular" horiz-adv-x="1386" >
<font-face units-per-em="2048" ascent="1638" descent="-410" />
<missing-glyph horiz-adv-x="600" />
<glyph unicode="fi" horiz-adv-x="1241" d="M45 1010q0 31 19.5 50t52.5 19h131v51q0 219 117.5 347.5t369.5 128.5q131 0 226.5 -42t95.5 -112q0 -88 -101 -88q-29 0 -54 12.5t-60 38.5q-39 31 -75 48.5t-81 17.5q-133 0 -206.5 -82t-73.5 -269v-51h247q33 0 52.5 -19.5t19.5 -49.5q0 -29 -19.5 -48.5t-52.5 -19.5 h-247v-862q0 -33 -23 -56.5t-57 -23.5q-33 0 -55.5 22.5t-22.5 57.5v862h-131q-33 0 -52.5 19.5t-19.5 48.5zM881 80v960q0 35 22.5 57.5t57.5 22.5q34 0 55.5 -22.5t21.5 -57.5v-960q0 -35 -21.5 -57.5t-55.5 -22.5q-35 0 -57.5 22.5t-22.5 57.5z" />
<glyph unicode="fl" horiz-adv-x="1314" d="M45 1010q0 31 19.5 50t52.5 19h131v76q0 127 50 227.5t149.5 158.5t240.5 58q102 0 205 -30q25 31 65 30q35 0 56.5 -21.5t21.5 -55.5v-1168q0 -88 36 -143t91 -55h51q29 0 48.5 -21.5t19.5 -56.5t-26.5 -56.5t-67.5 -21.5h-25q-82 0 -146.5 45t-101 126t-36.5 183v1071 q-94 29 -183 29q-291 0 -290 -303v-72h229q33 0 52.5 -19.5t19.5 -49.5q0 -29 -19.5 -48.5t-52.5 -19.5h-229v-862q0 -33 -23 -56.5t-57 -23.5q-33 0 -55.5 22.5t-22.5 57.5v862h-131q-33 0 -52.5 19.5t-19.5 48.5z" />
<glyph horiz-adv-x="0" />
<glyph horiz-adv-x="0" />
<glyph unicode=" "  horiz-adv-x="600" />
<glyph unicode="&#x09;" horiz-adv-x="600" />
<glyph unicode="&#xa0;" horiz-adv-x="600" />
<glyph unicode="!" horiz-adv-x="544" d="M102 119q0 51 35 86t84 35t84 -36t35 -85t-35 -84t-84 -35t-84 34t-35 85zM141 442v1078q0 35 22.5 58.5t57.5 23.5t57.5 -24t22.5 -58v-1078q0 -33 -24.5 -56.5t-55.5 -23.5q-33 0 -56.5 24t-23.5 56z" />
<glyph unicode="&#x22;" horiz-adv-x="559" d="M84 1520q0 35 23.5 57t56.5 22t55.5 -23.5t22.5 -55.5l-21 -301q0 -25 -16.5 -41.5t-40.5 -16.5q-27 0 -43.5 16.5t-18.5 41.5zM330 1520q0 35 23.5 58.5t56.5 23.5q35 0 57 -24t22 -58l-20 -301q0 -25 -17.5 -41.5t-41.5 -16.5q-23 0 -40.5 16.5t-17.5 41.5z" />
<glyph unicode="#" horiz-adv-x="1482" d="M104 559q0 37 25 56.5t64 19.5h178l59 352h-170q-74 0 -74 62q0 33 25 51t68 18h180l73 412q6 37 31 59.5t60 22.5q29 0 46 -17.5t17 -46.5l-2 -16l-74 -414h400l73 412q4 35 30 58.5t61 23.5q31 0 46 -16.5t15 -43.5q0 -14 -2 -20l-72 -414h160q33 0 51.5 -16.5 t18.5 -42.5q0 -35 -25 -53.5t-70 -18.5h-161l-62 -352h166q33 0 50.5 -17.5t17.5 -44.5q0 -29 -25 -49t-70 -20h-168l-73 -424q-8 -37 -32 -58.5t-60 -21.5q-29 0 -45.5 15.5t-16.5 43.5q0 12 2 21l72 424h-397l-74 -424q-6 -35 -32 -57.5t-58 -22.5q-29 0 -46.5 16.5 t-17.5 44.5l2 19l74 424h-172q-31 0 -48.5 15.5t-17.5 39.5zM522 635h398l61 352h-399z" />
<glyph unicode="$" horiz-adv-x="1224" d="M94 303q0 49 53 66q6 2 19 2q49 0 72 -49q37 -84 129 -135.5t215 -57.5v629q-201 35 -316.5 149.5t-115.5 284.5q0 168 119.5 272.5t312.5 120.5v98q0 27 14 42.5t39 15.5q23 0 37 -15.5t14 -42.5v-98q139 -10 244.5 -78.5t161.5 -171.5q14 -23 14 -49q0 -39 -35 -57 q-14 -8 -33 -8q-41 0 -67 39q-92 164 -285 180v-563q219 -39 334 -156t115 -299q0 -191 -125 -306.5t-324 -133.5v-127q0 -27 -14.5 -42.5t-36.5 -15.5q-25 0 -39 15.5t-14 42.5v125q-168 10 -297 86.5t-185 205.5q-6 16 -6 31zM303 1188q0 -225 279 -293v545 q-131 -10 -205 -73.5t-74 -178.5zM686 131q133 16 212 92t79 199q0 117 -73 201t-218 116v-608z" />
<glyph unicode="%" horiz-adv-x="1759" d="M74 1200q0 109 54 201t146.5 146.5t200.5 54.5q106 0 198.5 -54.5t146.5 -146.5t54 -201t-54 -200t-145 -145t-200 -54q-108 0 -200.5 54t-146.5 145.5t-54 199.5zM229 1200q0 -66 33 -121t90.5 -89t122.5 -34q66 0 122 34t89 89.5t33 120.5q0 66 -34 122t-90 90t-120 34 q-66 0 -122 -34t-90 -90t-34 -122zM248 80q0 29 18 53l1125 1436q29 33 63 33q35 0 57.5 -24t22.5 -58q0 -27 -14 -47l-1133 -1446q-27 -27 -61 -27q-33 0 -55.5 22.5t-22.5 57.5zM905 399q0 109 54.5 200t145.5 145.5t200 54.5t200.5 -53.5t146 -145.5t54.5 -201 t-54.5 -201t-146.5 -145t-200 -53q-109 0 -200 54.5t-145.5 145.5t-54.5 199zM1061 399q0 -100 71.5 -171.5t172.5 -71.5q65 0 121.5 33.5t90 90t33.5 119.5t-33.5 119.5t-90 90.5t-121.5 34q-100 0 -172 -71.5t-72 -172.5z" />
<glyph unicode="&#x26;" horiz-adv-x="1474" d="M92 367q0 127 79 238.5t251 244.5l24 20l-110 111q-141 141 -141 309q0 92 47 167t128 118t181 43q102 0 185 -45t130 -123t47 -174q-2 -113 -63.5 -204t-185.5 -189l-21 -17l393 -393l174 184q29 31 54 31q20 0 43 -20q27 -23 26 -52q0 -23 -24 -51l-176 -186l229 -229 q31 -31 31 -56q0 -20 -23 -43q-25 -25 -53 -24q-27 0 -51 24l-228 228l-41 -43q-115 -123 -227.5 -186.5t-245.5 -63.5q-199 0 -315.5 104.5t-116.5 276.5zM244 367q0 -111 74.5 -177.5t209.5 -66.5q100 0 186.5 50t184.5 155l43 47l-407 407l-41 -30 q-131 -104 -190.5 -196.5t-59.5 -188.5zM338 1292q0 -63 25.5 -116.5t78.5 -108.5l113 -113l39 31q176 139 176 293q0 88 -58.5 148.5t-160.5 60.5q-90 0 -151.5 -57.5t-61.5 -137.5z" />
<glyph unicode="'" horiz-adv-x="319" d="M84 1522q0 33 23.5 55t56.5 22t56.5 -22.5t23.5 -54.5l-21 -301q0 -27 -17.5 -43.5t-41.5 -16.5q-25 0 -42.5 16.5t-17.5 43.5z" />
<glyph unicode="(" horiz-adv-x="524" d="M109 563q0 500 239 985q25 53 76 54q33 0 55.5 -23t22.5 -55q0 -23 -13 -45q-225 -453 -225 -918q0 -459 228 -919q12 -25 12 -43q0 -33 -22.5 -55.5t-57.5 -22.5q-27 0 -44.5 12t-31.5 41q-240 492 -239 989z" />
<glyph unicode=")" horiz-adv-x="524" d="M20 -401q0 18 13 43q227 461 227 919q0 465 -225 918q-12 23 -12 45q0 33 22.5 55.5t54.5 22.5q51 0 76 -54q240 -485 240 -985q0 -498 -240 -989q-14 -29 -31.5 -41t-44.5 -12q-34 0 -57 22.5t-23 55.5z" />
<glyph unicode="*" horiz-adv-x="780" d="M92 1360q2 35 24.5 57.5t55.5 22.5q25 0 51 -19l135 -84l-34 158q-6 12 -7 27q0 35 24 57.5t56 22.5q35 0 57.5 -23t22.5 -57q0 -10 -4 -27l-37 -160l150 92q18 12 39 13q31 0 55.5 -22.5t24.5 -57.5t-21.5 -55.5t-56.5 -24.5l-166 -14l129 -107q37 -31 37 -67 q0 -33 -23.5 -56.5t-64.5 -23.5q-43 2 -68 53l-72 160l-73 -158q-18 -55 -78 -55q-35 0 -56.5 23.5t-21.5 56.5q0 37 29 57l139 117l-166 14q-37 4 -58.5 26.5t-21.5 53.5z" />
<glyph unicode="+" horiz-adv-x="1120" d="M80 801q0 35 22.5 57.5t55.5 22.5h321v321q0 33 22.5 55.5t55.5 22.5q35 0 57.5 -22.5t22.5 -55.5v-321h321q33 0 56.5 -23.5t23.5 -56.5t-23.5 -56.5t-56.5 -23.5h-321v-322q0 -35 -22.5 -57.5t-57.5 -22.5q-33 0 -55.5 23t-22.5 57v322h-321q-33 0 -55.5 22.5 t-22.5 57.5z" />
<glyph unicode="," horiz-adv-x="462" d="M102 96q0 51 34 82t85 31q64 0 101.5 -48t37.5 -134q0 -76 -28.5 -161t-74.5 -141.5t-91 -56.5q-43 0 -43 41q0 18 8 35.5t27 40.5q20 31 30.5 53.5t10.5 50.5q0 33 -12.5 55.5t-36.5 51.5q-25 29 -36.5 49.5t-11.5 50.5z" />
<glyph unicode="-" horiz-adv-x="800" d="M78 559q0 35 21.5 57.5t56.5 22.5h481q35 0 57.5 -22.5t22.5 -57.5q0 -33 -22.5 -55.5t-57.5 -22.5h-481q-33 0 -55.5 22.5t-22.5 55.5z" />
<glyph unicode="." horiz-adv-x="442" d="M102 86q0 51 36 86t83 35q49 0 84 -36t35 -85t-35 -84t-84 -35t-84 35t-35 84z" />
<glyph unicode="/" horiz-adv-x="960" d="M80 -82q0 16 6 35l643 1603q10 23 29.5 35.5t44.5 12.5q35 0 56.5 -24t21.5 -56q0 -16 -7 -33l-643 -1606q-16 -45 -73 -45q-33 0 -55.5 22.5t-22.5 55.5z" />
<glyph unicode="0" horiz-adv-x="1169" d="M102 803q0 248 56.5 428t165 276.5t260.5 96.5q154 0 262 -97.5t164.5 -277.5t56.5 -426q0 -377 -127 -590t-356 -213q-152 0 -260.5 96.5t-165 276.5t-56.5 430zM262 803q0 -293 82 -468t240 -175q159 0 241 176t82 467q0 289 -83 465t-240 176q-158 0 -240 -176 t-82 -465z" />
<glyph unicode="1" horiz-adv-x="774" d="M84 1407q0 59 51 76l316 108q31 10 41 11q33 0 55 -23t22 -57v-1442q0 -33 -22.5 -56.5t-57.5 -23.5q-32 0 -55.5 23.5t-23.5 56.5v1331l-205 -72q-20 -10 -41 -10q-35 0 -57.5 21.5t-22.5 56.5z" />
<glyph unicode="2" horiz-adv-x="1189" d="M133 1120q0 135 61.5 246t168 173.5t237.5 62.5q133 0 236.5 -61.5t162 -171t58.5 -249.5q0 -166 -160 -352l-524 -608h641q33 0 56.5 -23.5t23.5 -56.5t-22.5 -56.5t-57.5 -23.5h-789q-32 0 -56 23.5t-24 56.5t23 55l620 733q51 55 82 124t31 128q0 143 -85 235.5 t-216 92.5q-86 0 -155.5 -44t-110.5 -119t-41 -165q0 -33 -23.5 -55.5t-56.5 -22.5t-56.5 22.5t-23.5 55.5z" />
<glyph unicode="3" horiz-adv-x="1198" d="M113 469q0 35 21.5 59.5t53.5 24.5q33 0 54.5 -24.5t21.5 -59.5q0 -92 45 -168t124 -120t175 -44q158 0 249 88t91 232q0 98 -43 174t-116.5 118t-165.5 42q-33 0 -55.5 22.5t-22.5 56.5q0 35 22.5 56.5t55.5 21.5q70 0 131 36t98 96.5t37 129.5q0 109 -75 181.5 t-196 72.5q-129 0 -212.5 -71.5t-83.5 -180.5q0 -35 -21.5 -58.5t-54.5 -23.5t-54.5 24t-21.5 56q0 113 58.5 204t161 143.5t228.5 52.5q117 0 214.5 -52.5t152.5 -143.5t55 -204q0 -102 -70.5 -195t-172.5 -138q152 -45 230.5 -159t78.5 -261q0 -131 -64.5 -238.5 t-177 -168t-250.5 -60.5q-141 0 -255.5 62.5t-180 172t-65.5 244.5z" />
<glyph unicode="4" horiz-adv-x="1325" d="M29 461q0 25 16 47l811 1061q23 33 66 33q33 0 54 -24t21 -58v-994h162q78 1 78 -73q0 -27 -23.5 -48.5t-54.5 -21.5h-162v-303q0 -33 -22.5 -56.5t-56.5 -23.5q-33 0 -54.5 22.5t-21.5 57.5v303h-733q-35 0 -57.5 23.5t-22.5 54.5zM242 526h600v783z" />
<glyph unicode="5" horiz-adv-x="1284" d="M133 520q0 35 22.5 57.5t55.5 22.5q35 0 58.5 -23.5t23.5 -56.5q0 -100 47 -183t129 -130t182 -47t183.5 47t130.5 130t47 183t-47 183t-130 130.5t-184 47.5h-358q-33 0 -56.5 23.5t-23.5 56.5v561q0 35 23.5 57.5t56.5 22.5h719q33 0 56.5 -24t23.5 -56 q0 -33 -24 -56.5t-56 -23.5h-641v-402h280q145 0 265 -68.5t187.5 -187t67.5 -264.5q0 -145 -67.5 -265t-187 -187.5t-265.5 -67.5q-145 0 -264 67.5t-186.5 187.5t-67.5 265z" />
<glyph unicode="6" horiz-adv-x="1185" d="M133 481q0 133 62 246l-2 -2l505 831q29 43 72 43q35 0 58.5 -23.5t23.5 -53.5q0 -20 -12 -43l-322 -525q41 8 96 9q136 0 245.5 -62.5t172 -172.5t62.5 -247t-62.5 -246.5t-171 -172t-246.5 -62.5q-137 0 -246.5 62.5t-172 172t-62.5 246.5zM285 481q0 -94 43 -171 t117.5 -120t166.5 -43q93 0 167.5 43t117.5 120t43 171t-43 171t-117.5 121t-167.5 44q-92 0 -166.5 -44t-117.5 -121t-43 -171z" />
<glyph unicode="7" horiz-adv-x="1163" d="M94 1522q0 33 23.5 56.5t58.5 23.5h834q33 0 55 -24t22 -56q0 -14 -12 -43l-669 -1434q-10 -20 -30 -32.5t-42 -12.5q-33 0 -56.5 23.5t-23.5 56.5q0 18 16 51l611 1311h-705q-35 0 -58.5 23.5t-23.5 56.5z" />
<glyph unicode="8" horiz-adv-x="1214" d="M129 481q0 137 66.5 247t179.5 169q-76 53 -119 136t-43 184q0 109 52 197.5t143.5 139t203.5 50.5q111 0 200 -50.5t139 -137.5t50 -195q0 -100 -43 -185.5t-116 -138.5q112 -59 177.5 -166.5t65.5 -243.5q0 -139 -62 -251.5t-172 -178t-243 -65.5q-135 0 -244.5 64.5 t-172 176t-62.5 248.5zM289 477q0 -94 42 -173t114.5 -124t162.5 -45t163 46t114 127t41 177q0 93 -42 166.5t-115 116.5t-161 43q-90 0 -163.5 -44t-114.5 -120t-41 -170zM365 1214q0 -106 69.5 -178.5t173.5 -72.5t173 74.5t69 185.5q0 100 -69.5 167.5t-172.5 67.5 q-104 0 -173.5 -69.5t-69.5 -174.5z" />
<glyph unicode="9" horiz-adv-x="1185" d="M92 1120q0 137 62.5 247t171 172.5t245.5 62.5t247 -62.5t172.5 -172.5t62.5 -247q-1 -133 -62 -246l2 3l-506 -832q-27 -43 -71 -43q-35 0 -58.5 23.5t-23.5 54.5q0 23 12 43l322 524q-41 -8 -97 -8q-135 0 -244.5 62.5t-172 172t-62.5 246.5zM246 1120q0 -94 43 -171 t117.5 -121t166.5 -44t167 44t118 121t43 171t-43 171t-117.5 120t-167.5 43q-92 0 -166.5 -43t-117.5 -120t-43 -171z" />
<glyph unicode=":" horiz-adv-x="399" d="M64 987q0 51 34.5 86t86.5 35q49 0 82.5 -36t33.5 -85t-33.5 -84t-82.5 -35q-50 0 -85.5 35t-35.5 84zM69 86q0 51 36 86t83 35q49 0 84 -36t35 -85t-35 -84t-84 -35t-84 35t-35 84z" />
<glyph unicode=";" horiz-adv-x="409" d="M68 987q0 51 34.5 86t86.5 35q49 0 82.5 -36t33.5 -85t-33.5 -84t-82.5 -35q-50 0 -85.5 35t-35.5 84zM102 96q0 51 34 82t85 31q64 0 101.5 -48t37.5 -134q0 -76 -28.5 -161t-74.5 -141.5t-91 -56.5q-43 0 -43 41q0 18 8 35.5t27 40.5q20 31 30.5 53.5t10.5 50.5 q0 33 -12.5 55.5t-36.5 51.5q-25 29 -36.5 49.5t-11.5 50.5z" />
<glyph unicode="&#x3c;" horiz-adv-x="1120" d="M80 721q0 39 43 72l797 479q20 10 41 10q33 0 55 -20.5t22 -53.5q0 -47 -39 -71l-694 -414l694 -414q39 -26 39 -69q0 -35 -24.5 -57.5t-57.5 -22.5q-20 0 -36 10l-797 479q-43 25 -43 72z" />
<glyph unicode="=" horiz-adv-x="1040" d="M80 479q0 35 21.5 57.5t56.5 22.5h723q33 0 55 -23.5t22 -56.5t-22.5 -55.5t-54.5 -22.5l-723 -2q-35 2 -56.5 24.5t-21.5 55.5zM80 961q0 35 22.5 57t55.5 22h723q33 0 55 -23.5t22 -55.5q0 -33 -22.5 -56.5t-54.5 -23.5h-723q-33 0 -55.5 22.5t-22.5 57.5z" />
<glyph unicode="&#x3e;" horiz-adv-x="1120" d="M80 240q0 43 39 69l694 414l-694 414q-39 25 -39 71q0 33 22.5 53.5t55.5 20.5q20 0 41 -10l796 -479q43 -33 43 -72q0 -47 -43 -72l-796 -479q-14 -10 -37 -10q-33 0 -57.5 22.5t-24.5 57.5z" />
<glyph unicode="?" horiz-adv-x="1120" d="M80 1153q0 139 61.5 247.5t172 170t253.5 61.5q135 0 243 -58t168 -160.5t60 -231.5q0 -100 -32.5 -175t-83 -132.5t-142.5 -141.5l-37 -33q-57 -51 -80.5 -119.5t-23.5 -136.5q0 -35 -22.5 -58.5t-57.5 -23.5t-57.5 24t-22.5 58q0 84 41 178.5t111 159.5l51 47 q70 66 108.5 110t64.5 106.5t26 144.5q0 80 -39 146.5t-111 105.5t-164 39q-152 0 -240.5 -91.5t-88.5 -236.5q0 -35 -21.5 -56.5t-56.5 -21.5t-57.5 21.5t-22.5 56.5zM440 119q0 51 35 86t84 35t85 -35t36 -86q0 -49 -36 -84t-85 -35q-51 0 -85 35t-34 84z" />
<glyph unicode="@" horiz-adv-x="2240" d="M84 561q0 301 132 537.5t368.5 368.5t537.5 132t537.5 -132t369 -368.5t132.5 -537.5q0 -186 -51.5 -331.5t-141.5 -227.5t-207 -82q-104 0 -170.5 62.5t-66.5 162.5v78q-59 -96 -175 -159.5t-235 -63.5q-160 0 -284.5 71.5t-195.5 199.5t-71 290t72 290t199 199.5 t288 71.5q162 0 289 -71.5t198.5 -199.5t71.5 -290v-352q0 -63 24 -96t67 -33q66 0 118 61.5t81.5 171t29.5 248.5q0 254 -112.5 453.5t-312.5 312.5t-454 113t-454.5 -113t-312 -312.5t-111.5 -453.5q0 -256 111.5 -455.5t311 -311t455.5 -111.5q90 0 191.5 20.5 t169.5 52.5q29 14 57 15q31 0 47.5 -20.5t16.5 -57.5q0 -43 -62.5 -82t-173.5 -63.5t-246 -24.5q-301 0 -537.5 132t-368.5 368.5t-132 537.5zM723 561q0 -117 50 -208t141.5 -141t207.5 -50q115 0 206 51t142.5 141t51.5 207q0 115 -51.5 206t-142.5 142.5t-206 51.5 q-117 0 -207 -51.5t-141 -142.5t-51 -206z" />
<glyph unicode="A" horiz-adv-x="1439" d="M39 80q0 20 6 35l602 1429q23 55 78 55t76 -55l604 -1431q8 -15 8 -33q0 -33 -23.5 -56.5t-56.5 -23.5q-53 0 -76 49l-137 332h-792l-138 -332q-16 -49 -73 -49q-35 0 -56.5 23.5t-21.5 56.5zM385 518h680l-340 821z" />
<glyph unicode="B" horiz-adv-x="1423" d="M205 80v1440q0 35 22.5 57t57.5 22h497q123 0 222.5 -52t158 -144t58.5 -207q0 -109 -58.5 -195t-156.5 -133q141 -39 223 -140t82 -255q0 -137 -63.5 -244.5t-175 -168t-255.5 -60.5h-522q-41 0 -65.5 21.5t-24.5 58.5zM365 154h452q150 0 243 87t93 232q0 139 -93 222 t-243 83h-452v-624zM365 932h417q125 0 204 70.5t79 193.5q0 119 -78 184.5t-205 65.5h-417v-514z" />
<glyph unicode="C" horiz-adv-x="1579" d="M127 801q0 221 106.5 409.5t289 299t401.5 110.5q147 0 268 -43t233 -137q23 -16 23 -47q0 -16 -8 -29.5t-23 -20.5q-4 -14 -18.5 -22t-30.5 -8q-31 0 -51 18q-80 72 -174 104.5t-219 32.5q-172 0 -319.5 -91t-234.5 -244.5t-87 -331.5q0 -182 86 -336t233.5 -244 t321.5 -90q223 0 403 143q23 16 45 17q31 0 53.5 -21.5t22.5 -56.5q0 -33 -23 -57q-193 -176 -501 -176q-217 0 -399.5 110.5t-290 299t-107.5 411.5z" />
<glyph unicode="D" horiz-adv-x="1576" d="M205 80v1440q0 35 22.5 57t57.5 22h368q231 0 413.5 -102t284 -283.5t101.5 -412.5t-101.5 -413.5t-283.5 -285t-414 -102.5h-368q-35 0 -57.5 22.5t-22.5 57.5zM365 143h288q186 0 331.5 85t227.5 234.5t82 338.5q0 188 -82 337.5t-227 233.5t-332 84h-288v-1313z" />
<glyph unicode="E" horiz-adv-x="1417" d="M205 80v1440q0 35 23.5 57t56.5 22h960q35 0 57.5 -22.5t22.5 -54.5q0 -33 -22.5 -54.5t-57.5 -21.5h-880v-565h641q35 0 57 -22.5t22 -55.5t-23.5 -55.5t-55.5 -22.5h-641v-571h880q35 0 57.5 -21.5t22.5 -54.5t-22.5 -55.5t-57.5 -22.5h-960q-33 0 -56.5 23.5 t-23.5 56.5z" />
<glyph unicode="F" horiz-adv-x="1280" d="M78 80v1440q0 35 23.5 57t56.5 22h960q35 0 57.5 -22.5t22.5 -54.5q0 -33 -22.5 -54.5t-57.5 -21.5h-880v-565h641q35 0 57 -21.5t22 -56.5q0 -33 -22.5 -55.5t-56.5 -22.5h-641v-645q0 -33 -22.5 -56.5t-57.5 -23.5q-33 0 -56.5 23.5t-23.5 56.5z" />
<glyph unicode="G" horiz-adv-x="1579" d="M127 801q0 221 106.5 409.5t289 299t401.5 110.5q147 0 268 -43t233 -137q23 -16 23 -47q0 -16 -8 -29.5t-23 -20.5q-4 -14 -18.5 -23t-30.5 -9q-29 0 -51 20q-80 72 -174 104.5t-219 32.5q-172 0 -319.5 -91t-234.5 -244.5t-87 -331.5q0 -182 86 -336t233.5 -244 t321.5 -90q199 0 368 117v409h-319q-35 0 -57.5 20.5t-22.5 51.5t22.5 50.5t57.5 19.5h395q35 0 57.5 -21.5t22.5 -56.5v-508q0 -35 -23 -57q-190 -176 -501 -176q-217 0 -399.5 110.5t-290 299t-107.5 411.5z" />
<glyph unicode="H" horiz-adv-x="1728" d="M205 80v1440q0 35 23.5 57t56.5 22q35 0 57.5 -22.5t22.5 -56.5v-639h999v639q0 35 23.5 57t56.5 22q35 0 57.5 -22.5t22.5 -56.5v-1440q0 -33 -22.5 -56.5t-57.5 -23.5q-33 0 -56.5 23.5t-23.5 56.5v657h-999v-657q0 -33 -23 -56.5t-57 -23.5q-33 0 -56.5 23.5 t-23.5 56.5z" />
<glyph unicode="I" horiz-adv-x="569" d="M205 80v1440q0 35 23.5 57t56.5 22q35 0 57.5 -22.5t22.5 -56.5v-1440q0 -33 -23 -56.5t-57 -23.5q-33 0 -56.5 23.5t-23.5 56.5z" />
<glyph unicode="J" horiz-adv-x="1257" d="M92 459q0 35 22.5 57.5t57.5 22.5t57.5 -22.5t22.5 -57.5q0 -92 43 -167t116.5 -118t161.5 -43t162 44t116 119t42 165v1061q0 35 23.5 57t56.5 22q35 0 57.5 -22.5t22.5 -56.5v-1061q0 -133 -63.5 -243t-173 -173t-243.5 -63q-135 0 -244.5 63t-173 173t-63.5 243z" />
<glyph unicode="K" horiz-adv-x="1341" d="M205 80v1440q0 33 23.5 56t56.5 23q35 0 57.5 -22.5t22.5 -56.5v-697l747 748q28 28 62 28h2q35 0 54 -20t19 -51q0 -37 -26 -66l-561 -561l567 -774q16 -27 16 -49q0 -31 -21.5 -54.5t-52.5 -23.5q-45 0 -67 35l-557 753l-182 -184v-524q0 -33 -23 -56.5t-57 -23.5 q-33 0 -56.5 23.5t-23.5 56.5z" />
<glyph unicode="L" horiz-adv-x="1296" d="M205 80v1440q0 33 23.5 56t56.5 23q35 0 57.5 -22.5t22.5 -56.5v-1368h800q35 0 57.5 -21.5t22.5 -54.5t-22.5 -54.5t-57.5 -21.5h-880q-33 0 -56.5 23.5t-23.5 56.5z" />
<glyph unicode="M" horiz-adv-x="2009" d="M205 80v1440q0 35 23.5 57t56.5 22q47 0 71 -40l656 -1303l643 1303q24 40 69 40h2q33 0 55.5 -22.5t22.5 -56.5v-1440q0 -33 -22.5 -56.5t-55.5 -23.5q-35 0 -58 23.5t-23 56.5v1159l-570 -1163q-25 -39 -69 -39q-51 0 -74 49l-567 1135v-1141q0 -33 -23 -56.5 t-57 -23.5q-33 0 -56.5 23.5t-23.5 56.5z" />
<glyph unicode="N" horiz-adv-x="1689" d="M205 80v1440q0 35 22.5 57t57.5 22q37 0 61 -28l979 -1286v1235q0 35 23.5 57t56.5 22q35 0 57.5 -22.5t22.5 -56.5v-1440q0 -33 -22.5 -56.5t-57.5 -23.5q-41 0 -59 27l-981 1286v-1233q0 -33 -23 -56.5t-57 -23.5q-35 0 -57.5 22.5t-22.5 57.5z" />
<glyph unicode="O" horiz-adv-x="1886" d="M127 801q0 233 105.5 419.5t292 293t419.5 106.5q231 0 418.5 -106.5t293 -293t105.5 -419.5t-105.5 -420.5t-292.5 -294t-419 -106.5q-233 0 -419.5 106.5t-292 293.5t-105.5 421zM283 801q0 -188 86 -341t236.5 -241t338.5 -88q186 0 337 88t237 240.5t86 341.5 q0 186 -86 338.5t-237 240.5t-337 88q-188 0 -338.5 -88t-236.5 -240.5t-86 -338.5z" />
<glyph unicode="P" horiz-adv-x="1253" d="M205 80v1440q0 35 22.5 57t57.5 22h409q150 0 267.5 -66.5t183 -184t65.5 -269.5q0 -150 -65.5 -266.5t-183 -182t-267.5 -65.5h-329v-485q0 -35 -23 -57.5t-57 -22.5q-35 0 -57.5 22.5t-22.5 57.5zM365 719h329q104 0 186.5 46t128.5 128t46 186q0 106 -46 189.5 t-128 130.5t-187 47h-329v-727z" />
<glyph unicode="Q" horiz-adv-x="1886" d="M127 801q0 233 105.5 419.5t292 293t419.5 106.5q231 0 418.5 -106.5t293 -293t105.5 -419.5q0 -166 -54 -310.5t-155 -252.5l105 -105q23 -23 22 -53q0 -33 -22 -55q-25 -25 -55 -25q-31 0 -56 25l-108 108q-102 -74 -228.5 -113.5t-265.5 -39.5q-233 0 -419.5 106.5 t-292 293.5t-105.5 421zM283 801q0 -188 86 -341t236.5 -241t338.5 -88q217 0 379 115l-219 219q-25 25 -25 55q0 31 25 55q23 23 53 23q33 0 55 -23l228 -227q78 90 121 207t43 246q0 186 -86 338.5t-237 240.5t-337 88q-188 0 -338.5 -88t-236.5 -240.5t-86 -338.5z" />
<glyph unicode="R" horiz-adv-x="1265" d="M205 80v1440q0 35 22.5 57t57.5 22h383q150 0 266.5 -62t183 -175t66.5 -256q0 -158 -85 -276.5t-231 -170.5l336 -536q19 -30 19 -55q0 -31 -22.5 -49.5t-59.5 -18.5q-25 0 -41.5 10t-28.5 31l-369 586h-34h-303v-547q0 -35 -23 -57.5t-57 -22.5q-35 0 -57.5 22.5 t-22.5 57.5zM365 780h303q102 0 185 42t129 116t46 168q0 98 -46 176t-128 121t-186 43h-303v-666z" />
<glyph unicode="S" horiz-adv-x="1355" d="M127 319q0 29 21.5 48.5t58.5 19.5q25 0 46 -13.5t32 -37.5q47 -92 156.5 -148.5t254.5 -56.5q168 0 270.5 81t102.5 226q0 129 -95 217t-286 113q-238 29 -374 148.5t-136 293.5q0 123 66.5 216.5t184.5 143.5t267 50q162 0 285 -71.5t193 -186.5q14 -23 14 -49 q0 -39 -37 -62q-16 -8 -37 -8q-23 0 -42 11.5t-32 31.5q-115 180 -346 182q-166 0 -262 -69.5t-96 -198.5q0 -240 387 -291q254 -37 379 -155.5t125 -313.5q0 -143 -70 -247.5t-190.5 -158.5t-270.5 -54q-194 0 -344.5 82.5t-216.5 224.5q-8 14 -8 32z" />
<glyph unicode="T" horiz-adv-x="1341" d="M31 1526q0 33 20.5 53t52.5 20h1133q33 0 53.5 -20t20.5 -53q0 -31 -20.5 -51.5t-53.5 -20.5h-487v-1374q0 -33 -22.5 -56.5t-57.5 -23.5q-33 0 -56.5 23.5t-23.5 56.5v1374h-486q-33 0 -53 20.5t-20 51.5z" />
<glyph unicode="U" horiz-adv-x="1677" d="M205 528v992q0 35 22.5 57t57.5 22t57.5 -22.5t22.5 -56.5v-992q0 -119 60 -212t168.5 -145t248.5 -52q137 0 243.5 52t167 145.5t60.5 211.5v992q0 35 22.5 57t57.5 22t57.5 -22.5t22.5 -56.5v-992q0 -162 -81 -289.5t-224.5 -199.5t-325.5 -72q-185 0 -330 72t-226 200 t-81 289z" />
<glyph unicode="V" horiz-adv-x="1466" d="M41 1528q0 33 21.5 52t56.5 19q53 0 74 -51l542 -1298l541 1294q12 31 30.5 43t49.5 12q33 0 52 -20t19 -51q0 -20 -10 -45l-610 -1432q-23 -51 -72 -51q-27 0 -44 11.5t-29 39.5l-609 1424q-12 31 -12 53z" />
<glyph unicode="W" horiz-adv-x="1921" d="M41 1522q0 35 20.5 56t53.5 21q57 0 78 -61l354 -1235l336 1200q6 23 27.5 37t47.5 14q27 0 47.5 -14t28.5 -39l338 -1200l357 1245q16 53 77 53q33 0 51.5 -21.5t18.5 -53.5q0 -16 -6 -39l-418 -1417q-10 -33 -31.5 -50.5t-50.5 -17.5t-50.5 18.5t-29.5 47.5l-332 1210 l-329 -1208q-10 -31 -32 -49.5t-50 -18.5q-29 0 -50.5 18.5t-29.5 47.5l-420 1419q-6 23 -6 37z" />
<glyph unicode="X" horiz-adv-x="1447" d="M96 74q0 31 19 55l506 688l-474 658q-16 27 -16 49q0 31 20.5 53t53.5 22q41 0 61 -28l465 -643l471 643q22 28 59 28h3q33 0 53 -23.5t20 -53.5q0 -27 -14 -47l-483 -656l497 -690q19 -24 19 -51q0 -33 -20.5 -55.5t-55.5 -22.5q-41 0 -61 29l-490 678l-500 -682 q-20 -25 -57 -25q-35 0 -55.5 21.5t-20.5 52.5z" />
<glyph unicode="Y" horiz-adv-x="1327" d="M10 1526q0 31 22.5 52t55.5 21q23 0 38 -9t30 -29l510 -822l508 817q16 23 32.5 33t40.5 10q31 0 50.5 -21.5t19.5 -51.5q0 -29 -14 -51l-560 -883v-512q0 -33 -22.5 -56.5t-56.5 -23.5q-33 0 -56.5 23.5t-23.5 56.5v512l-557 883q-16 27 -17 51z" />
<glyph unicode="Z" horiz-adv-x="1482" d="M100 80q0 31 17 49l1059 1327h-988q-37 0 -57 18.5t-20 51.5q0 31 22.5 52t56.5 21h1110q37 0 58.5 -24.5t21.5 -56.5q0 -27 -14 -43l-1063 -1332h997q35 0 57.5 -19.5t22.5 -51.5q0 -31 -22.5 -51.5t-57.5 -20.5h-1120q-35 0 -57.5 24.5t-22.5 55.5z" />
<glyph unicode="[" horiz-adv-x="618" d="M133 -399v1921q0 35 23.5 57.5t56.5 22.5h324q35 0 58 -24t23 -56q0 -33 -23.5 -57.5t-57.5 -24.5h-244v-1757h244q35 0 58 -25t23 -57q0 -33 -23.5 -56.5t-57.5 -23.5h-324q-33 0 -56.5 22.5t-23.5 57.5z" />
<glyph unicode="\" horiz-adv-x="960" d="M80 1520q0 35 23.5 58.5t58.5 23.5q25 0 44 -12.5t27 -35.5l646 -1605q8 -14 8 -33q0 -35 -22.5 -57.5t-57.5 -22.5q-23 0 -43.5 12.5t-30.5 34.5l-647 1604q-6 16 -6 33z" />
<glyph unicode="]" horiz-adv-x="618" d="M0 -399q0 33 24.5 57.5t57.5 24.5h244v1757h-244q-33 0 -57.5 24.5t-24.5 57.5t23.5 56.5t58.5 23.5h324q35 0 57 -23t22 -57v-1921q0 -35 -22.5 -57.5t-56.5 -22.5h-324q-35 0 -58.5 23.5t-23.5 56.5z" />
<glyph unicode="^" horiz-adv-x="960" d="M86 1040q0 20 12 41l324 488q25 33 65 33q39 0 64 -33l323 -488q12 -18 13 -41q0 -33 -23.5 -55t-56.5 -22q-41 0 -64 28l-256 385l-258 -385q-23 -29 -61 -28q-35 0 -58.5 22.5t-23.5 54.5z" />
<glyph unicode="_" horiz-adv-x="960" d="M-78 -80q0 33 22.5 56.5t57.5 23.5h981q33 0 55.5 -23.5t22.5 -56.5t-22.5 -56.5t-55.5 -23.5h-981q-35 0 -57.5 22.5t-22.5 57.5z" />
<glyph unicode="`" horiz-adv-x="559" d="M88 1520q0 35 22.5 58.5t55.5 23.5t57 -25l230 -231q20 -18 20 -52q0 -35 -22.5 -58.5t-57.5 -23.5q-30 0 -53 23l-231 229q-20 20 -21 56z" />
<glyph unicode="a" d="M125 559q0 160 74.5 291t205 205.5t289.5 74.5q160 0 290 -74.5t205 -205.5t75 -291v-481q0 -33 -22.5 -55.5t-57.5 -22.5t-57.5 21.5t-22.5 56.5v123q-72 -98 -182.5 -154.5t-243.5 -56.5q-156 0 -282 74.5t-198.5 204.5t-72.5 290zM279 559q0 -121 54 -218 t149.5 -152.5t211.5 -55.5q117 0 211 55.5t148.5 152.5t54.5 218t-54.5 218t-148.5 153.5t-211 56.5t-212 -56.5t-149 -153.5t-54 -218z" />
<glyph unicode="b" horiz-adv-x="1447" d="M184 561v481q0 12 2 19v459q0 35 21.5 57t56.5 22t57.5 -22.5t22.5 -56.5v-600q72 98 182.5 154t243.5 56q156 0 282 -74.5t198.5 -204.5t72.5 -290t-74.5 -291t-205 -205.5t-289.5 -74.5q-160 0 -290 74.5t-205 205.5t-75 291zM340 561q0 -121 54.5 -218t148.5 -153.5 t211 -56.5q116 0 211.5 56.5t149.5 153.5t54 218t-54 218.5t-149.5 152.5t-211.5 55q-162 0 -275.5 -102.5t-134.5 -261.5q0 -6 -2 -11q-2 -16 -2 -51z" />
<glyph unicode="c" horiz-adv-x="1220" d="M125 559q0 164 69.5 294t192.5 203.5t277 73.5q256 0 415 -196q16 -18 17 -43q0 -33 -35 -57q-18 -12 -39 -13q-31 0 -59 31q-61 68 -135 101.5t-164 33.5q-113 0 -201 -54t-136 -152.5t-48 -221.5q0 -121 51 -218t143 -152.5t211 -55.5q164 0 264 88q27 23 56 23 q25 0 45 -17q29 -25 28 -55q0 -27 -20 -45q-147 -137 -373 -137q-160 0 -287 74.5t-199.5 204.5t-72.5 290z" />
<glyph unicode="d" horiz-adv-x="1447" d="M125 561q0 160 72.5 290t198.5 204.5t282 74.5q133 0 243.5 -56t182.5 -154v600q0 35 22.5 57t57.5 22t56.5 -22.5t21.5 -56.5v-459q2 -7 2 -19v-481q0 -160 -75 -291t-205 -205.5t-290 -74.5t-290 74.5t-204.5 205.5t-74.5 291zM279 561q0 -121 54 -218t149.5 -153.5 t211.5 -56.5q117 0 211 56.5t148.5 153.5t54.5 218q0 35 -2 51q-2 4 -2 11q-20 160 -134 262t-276 102q-117 0 -212 -55t-149 -152.5t-54 -218.5z" />
<glyph unicode="e" horiz-adv-x="1257" d="M125 559q0 166 68.5 296t190.5 202.5t278 72.5q151 0 268 -70.5t181.5 -195.5t64.5 -284q0 -33 -20.5 -52.5t-53.5 -19.5h-828q16 -168 131 -272.5t287 -104.5q74 0 148.5 25.5t120.5 64.5q27 20 55 21q23 0 45 -17q27 -25 26 -55q0 -27 -22 -47q-68 -57 -172.5 -95 t-200.5 -38q-164 0 -293 72.5t-201.5 202.5t-72.5 294zM279 639h749q-16 158 -114.5 254t-251.5 96q-156 0 -258.5 -96t-124.5 -254z" />
<glyph unicode="f" horiz-adv-x="749" d="M45 1010q0 31 19.5 50t52.5 19h131v39q0 219 112.5 350t317.5 131q35 0 57.5 -20t22.5 -51t-22.5 -51.5t-57.5 -20.5q-135 0 -203.5 -90t-68.5 -240v-47h245q33 0 52.5 -19.5t19.5 -49.5q0 -29 -19.5 -48.5t-52.5 -19.5h-245v-862q0 -37 -22 -58.5t-60 -21.5 q-33 0 -54.5 21.5t-21.5 58.5v862h-131q-33 0 -52.5 19.5t-19.5 48.5z" />
<glyph unicode="g" d="M125 559q0 166 73.5 296t203.5 202.5t292 72.5q164 0 293 -72.5t203 -202.5t74 -296v-418q0 -164 -73 -297t-202 -209.5t-291 -76.5q-158 0 -280.5 59t-206.5 166q-18 20 -18 47q0 31 28 53q20 14 45 15q18 0 37 -9.5t29 -23.5q61 -78 155.5 -121t212.5 -43 q115 0 208 56.5t146.5 157.5t53.5 232v93q-61 -117 -174 -183.5t-256 -66.5q-160 0 -286 72.5t-196.5 202.5t-70.5 294zM279 559q0 -123 53 -220t147 -151.5t215 -54.5q119 0 213 54.5t147.5 151.5t53.5 220t-53.5 220.5t-147.5 152.5t-213 55q-121 0 -215 -55t-147 -152.5 t-53 -220.5z" />
<glyph unicode="h" d="M184 78v1442q0 35 22.5 57t57.5 22t56.5 -22.5t21.5 -56.5v-549q68 76 164 119t209 43q145 0 261 -61.5t181.5 -179.5t65.5 -282v-532q0 -33 -22.5 -55.5t-55.5 -22.5q-35 0 -57.5 22.5t-22.5 55.5v532q0 182 -101.5 277.5t-265.5 95.5q-100 0 -181 -39t-128 -107.5 t-47 -152.5v-606q0 -35 -21.5 -56.5t-56.5 -21.5t-57.5 21.5t-22.5 56.5z" />
<glyph unicode="i" horiz-adv-x="591" d="M184 1446q0 49 33 79.5t80 30.5q45 0 77.5 -30.5t32.5 -79.5q0 -47 -32.5 -80t-79.5 -33t-79 33t-32 80zM217 80v960q0 35 22.5 57.5t57.5 22.5t56.5 -22.5t21.5 -57.5v-960q0 -35 -21.5 -57.5t-56.5 -22.5t-57.5 22.5t-22.5 57.5z" />
<glyph unicode="j" horiz-adv-x="583" d="M-193 -399q0 35 23 57.5t57 22.5q141 0 231.5 90t90.5 229v1040q0 35 21.5 57.5t56.5 22.5t57.5 -22.5t22.5 -57.5v-1040q0 -139 -61.5 -247.5t-170 -170t-248.5 -61.5q-34 0 -57 22.5t-23 57.5zM174 1446q0 49 33 79.5t80 30.5q45 0 77.5 -30.5t32.5 -79.5 q0 -47 -32.5 -80t-79.5 -33t-79 33t-32 80z" />
<glyph unicode="k" horiz-adv-x="1171" d="M184 78v1444q0 35 21.5 56t56.5 21t56.5 -21.5t21.5 -55.5v-932l578 522q23 20 49 21q31 0 51 -25q23 -27 22 -49q0 -29 -26 -51l-410 -371l426 -524q19 -20 19 -47q0 -31 -29 -56q-25 -18 -49 -18q-33 0 -56 28l-421 519l-154 -140v-321q0 -35 -21.5 -56.5t-56.5 -21.5 t-56.5 21.5t-21.5 56.5z" />
<glyph unicode="l" horiz-adv-x="577" d="M143 354v1168q0 35 22.5 56t55.5 21q35 0 56.5 -21.5t21.5 -55.5v-1168q0 -88 36 -143t91 -55h51q31 0 49.5 -21.5t18.5 -56.5t-25.5 -56.5t-66.5 -21.5h-27q-125 0 -204 99.5t-79 254.5z" />
<glyph unicode="m" horiz-adv-x="1939" d="M184 78v962q0 35 22.5 57.5t57.5 22.5t56.5 -22.5t21.5 -57.5v-45q57 66 136 102t171 36q113 0 203 -51.5t143 -143.5q59 92 154.5 143.5t214.5 51.5q121 0 214 -57.5t145.5 -163t52.5 -244.5v-590q0 -35 -21.5 -56.5t-56.5 -21.5t-57.5 21.5t-22.5 56.5v590 q0 145 -75 230t-195 85q-129 0 -209 -86q-78 -84 -78 -218v-7v-4v-590q0 -35 -21.5 -56.5t-56.5 -21.5t-57.5 21.5t-22.5 56.5v590q0 145 -74.5 230t-195.5 85q-127 0 -209 -84t-82 -215v-606q0 -35 -21.5 -56.5t-56.5 -21.5t-57.5 21.5t-22.5 56.5z" />
<glyph unicode="n" d="M184 78v962q0 35 22.5 57.5t57.5 22.5t56.5 -22.5t21.5 -57.5v-69q68 76 164 119t209 43q145 0 261 -61.5t181.5 -179.5t65.5 -282v-532q0 -33 -22.5 -55.5t-55.5 -22.5q-35 0 -57.5 22.5t-22.5 55.5v532q0 182 -101.5 277.5t-265.5 95.5q-100 0 -181 -39t-128 -107.5 t-47 -152.5v-606q0 -35 -21.5 -56.5t-56.5 -21.5t-57.5 21.5t-22.5 56.5z" />
<glyph unicode="o" d="M125 559q0 162 73.5 293t203.5 204.5t292 73.5t291 -73.5t204 -204.5t75 -293t-74 -292t-204 -203.5t-292 -73.5t-292 73.5t-203.5 203.5t-73.5 292zM279 559q0 -121 54 -218t149.5 -152.5t211.5 -55.5q119 0 213 55.5t147.5 152.5t53.5 218q0 123 -53.5 220.5 t-147.5 152.5t-213 55q-117 0 -212 -55t-149 -152.5t-54 -220.5z" />
<glyph unicode="p" horiz-adv-x="1447" d="M184 78v481q0 160 75 291t205 205.5t290 74.5q159 0 289.5 -74.5t205 -205.5t74.5 -291t-72.5 -290t-198.5 -204.5t-282 -74.5q-133 0 -243.5 56t-182.5 155v-600q0 -35 -22.5 -57.5t-57.5 -22.5t-56.5 22.5t-21.5 57.5v458q-2 6 -2 19zM340 559q0 -35 2 -51q2 -4 2 -10 q20 -160 134 -262.5t276 -102.5q116 0 211.5 55.5t149.5 152.5t54 218t-54 218t-149.5 153.5t-211.5 56.5q-117 0 -211 -56.5t-148.5 -153.5t-54.5 -218z" />
<glyph unicode="q" horiz-adv-x="1447" d="M125 559q0 160 74.5 291t205 205.5t289.5 74.5q160 0 290 -74.5t205 -205.5t75 -291v-481q0 -12 -2 -19v-458q0 -35 -21.5 -57.5t-56.5 -22.5t-57.5 22.5t-22.5 57.5v600q-72 -98 -182.5 -154.5t-243.5 -56.5q-156 0 -282 74.5t-198.5 204.5t-72.5 290zM279 559 q0 -121 54 -218t149.5 -152.5t211.5 -55.5q162 0 275.5 102.5t134.5 262.5q0 6 2 10q2 16 2 51q0 121 -54.5 218t-148.5 153.5t-211 56.5t-212 -56.5t-149 -153.5t-54 -218z" />
<glyph unicode="r" horiz-adv-x="937" d="M184 78v964q0 37 20.5 57.5t57.5 20.5t57.5 -20.5t20.5 -57.5v-90q59 86 151.5 133.5t198.5 47.5q86 0 136.5 -23t50.5 -63q0 -12 -3 -19q-8 -29 -25.5 -39t-47.5 -10q-18 0 -64 4q-16 2 -49 2q-154 0 -251 -82t-97 -213v-612q0 -37 -20.5 -57.5t-57.5 -20.5t-57.5 20.5 t-20.5 57.5z" />
<glyph unicode="s" horiz-adv-x="1103" d="M123 201q0 35 33 61q25 18 51 19q35 0 59 -29q49 -57 130 -88t179 -31q143 0 215 49t74 129q0 74 -71.5 123t-227.5 74q-201 33 -300 113.5t-99 195.5q0 150 115.5 231.5t289.5 81.5q135 0 235.5 -46t162.5 -128q16 -27 16 -47q0 -35 -33 -55q-14 -10 -39 -10 q-43 0 -71 30q-100 115 -275 115q-113 0 -180.5 -46t-67.5 -116q0 -74 63.5 -117.5t225.5 -70.5q219 -37 313.5 -120t94.5 -206q0 -94 -56.5 -167.5t-157 -114.5t-227.5 -41q-126 0 -243 43t-189 121q-20 25 -20 47z" />
<glyph unicode="t" horiz-adv-x="823" d="M41 1010q0 31 19.5 50t52.5 19h133v318q0 35 21.5 57.5t56.5 22.5t57 -22.5t22 -57.5v-318h232q33 0 52.5 -19.5t19.5 -49.5q0 -29 -19.5 -48.5t-52.5 -19.5h-232v-547q0 -104 61.5 -170.5t158.5 -66.5h55q33 0 53.5 -22.5t20.5 -57.5q0 -33 -25 -55.5t-61 -22.5h-43 q-109 0 -195 52t-134 141.5t-48 201.5v547h-133q-33 0 -52.5 19.5t-19.5 48.5z" />
<glyph unicode="u" d="M164 510v532q0 33 22.5 55.5t55.5 22.5q35 0 57.5 -22.5t22.5 -55.5v-532q0 -182 101 -277.5t265 -95.5q100 0 181 39t128 107.5t47 152.5v606q0 35 21.5 56.5t56.5 21.5t57.5 -21.5t22.5 -56.5v-962q0 -35 -22.5 -57.5t-57.5 -22.5t-56.5 22.5t-21.5 57.5v70 q-68 -76 -164 -119t-208 -43q-145 0 -261 61.5t-181.5 179t-65.5 281.5z" />
<glyph unicode="v" horiz-adv-x="1132" d="M33 1047q0 43 45 65q14 8 33 8q20 0 37.5 -10t25.5 -31l393 -852l389 852q8 20 26.5 31.5t41.5 11.5q18 0 33 -8q43 -20 43 -65q0 -12 -6 -29l-449 -967q-27 -53 -78 -53q-49 0 -73 53l-455 965q-6 12 -6 29z" />
<glyph unicode="w" horiz-adv-x="1515" d="M37 1053q0 67 63 67h2q57 0 78 -59l262 -799l242 797q8 29 27.5 45t50.5 16t50 -16.5t28 -44.5l235 -793l260 795q20 59 76 59q33 0 51.5 -18.5t18.5 -48.5q0 -25 -8 -43l-320 -959q-8 -23 -27.5 -37t-46.5 -14t-48 14.5t-27 36.5l-246 815l-246 -815q-8 -25 -28.5 -38 t-45.5 -13q-27 0 -46 14.5t-30 36.5l-319 959q-6 25 -6 43z" />
<glyph unicode="x" horiz-adv-x="1122" d="M84 70q0 33 20 55l355 442l-336 426q-20 23 -21 56q0 31 18.5 51t53.5 20t59 -24l330 -424l326 411q29 37 67 37q33 0 52.5 -20.5t19.5 -48.5q0 -31 -22 -60l-340 -422l348 -446q22 -28 22 -55q0 -29 -21.5 -48.5t-47.5 -19.5q-25 0 -41.5 8t-30.5 29l-336 428l-348 -440 q-18 -25 -55 -25q-33 0 -52.5 20.5t-19.5 49.5z" />
<glyph unicode="y" horiz-adv-x="1122" d="M39 1053q0 43 45 61q16 8 37 8q43 0 61 -43l400 -841l381 839q20 45 61 45q18 0 37 -8q47 -18 47 -59q0 -18 -8 -37l-664 -1458q-18 -47 -59 -47q-20 0 -37 8q-47 18 -47 61q0 18 8 37l203 449v2l-457 946q-8 16 -8 37z" />
<glyph unicode="z" horiz-adv-x="1124" d="M125 1049q0 71 70 71h2h759q72 0 72 -71q0 -33 -16 -54l-666 -852h619h2q69 0 69 -71q0 -72 -71 -72h-760q-72 0 -72 72q0 35 14 51l672 854h-622q-72 0 -72 72z" />
<glyph unicode="{" horiz-adv-x="774" d="M109 559q0 35 22.5 57.5t56.5 22.5q162 0 162 162v479q0 322 320 322q33 0 55.5 -24t22.5 -58q0 -33 -21.5 -55.5t-56.5 -22.5q-162 0 -162 -162v-479q0 -150 -80 -242q80 -90 80 -240v-479q0 -160 162 -159q33 0 55.5 -23t22.5 -57q0 -35 -23 -57.5t-55 -22.5 q-320 0 -320 319v479q0 162 -162 162q-35 0 -57 22.5t-22 55.5z" />
<glyph unicode="|" horiz-adv-x="800" d="M319 -399v1921q0 35 24 57.5t56 22.5q35 0 57.5 -23t22.5 -57v-1921q0 -35 -22.5 -57.5t-57.5 -22.5q-32 0 -56 22.5t-24 57.5z" />
<glyph unicode="}" horiz-adv-x="774" d="M27 -399q0 35 22.5 57.5t54.5 22.5q162 0 162 159v479q0 150 80 240q-80 92 -80 242v479q0 162 -162 162q-33 0 -55 22.5t-22 55.5q0 35 22.5 58.5t54.5 23.5q319 0 320 -322v-479q0 -162 162 -162q35 0 57.5 -22.5t22.5 -57.5q0 -33 -22.5 -55.5t-57.5 -22.5 q-162 0 -162 -162v-479q0 -319 -320 -319q-32 0 -54.5 22.5t-22.5 57.5z" />
<glyph unicode="~" horiz-adv-x="960" d="M80 698q0 25 14 45q51 66 119 102t141 36q55 0 96.5 -16.5t94.5 -49.5q47 -29 70.5 -39t54.5 -10q63 0 100 41q31 35 64 35q16 0 32 -11q37 -18 37 -57q0 -23 -16 -45q-82 -100 -215 -100q-58 0 -103 18.5t-96 48.5q-43 27 -69.5 37t-53.5 10q-76 0 -135 -71 q-12 -18 -30.5 -28.5t-37.5 -10.5q-18 0 -34 10q-14 8 -23.5 23.5t-9.5 31.5z" />
<glyph unicode="&#xa1;" horiz-adv-x="544" d="M205 1004q0 51 34.5 84.5t84.5 33.5q49 0 83.5 -34.5t34.5 -83.5t-34.5 -85t-83.5 -36t-84 34.5t-35 86.5zM244 -397v1077q0 33 23.5 56.5t56.5 23.5q30 0 54.5 -23.5t24.5 -56.5v-1077q0 -35 -22.5 -58.5t-56.5 -23.5q-35 0 -57.5 23.5t-22.5 58.5z" />
<glyph unicode="&#xa2;" horiz-adv-x="1220" d="M125 559q0 164 69.5 294t192.5 203.5t277 73.5q63 0 120 -12l64 170q14 43 59 43q25 0 40.5 -16.5t15.5 -38.5q0 -8 -5 -25l-63 -170q104 -49 184 -147q16 -18 17 -43q0 -33 -35 -57q-18 -12 -39 -13q-31 0 -59 31q-55 61 -119 94l-297 -790q68 -23 137 -23q164 0 264 88 q27 23 56 23q25 0 45 -17q28 -24 28 -55q0 -27 -20 -45q-147 -137 -373 -137q-98 0 -188 30l-64 -172q-18 -47 -61 -47q-25 0 -40.5 15.5t-15.5 40.5q0 14 7 32l67 181q-123 74 -193.5 202.5t-70.5 286.5zM279 559q0 -110 43 -201.5t120 -148.5l291 772q-33 6 -69 6 q-113 0 -201 -54t-136 -152.5t-48 -221.5z" />
<glyph unicode="&#xa3;" horiz-adv-x="1040" d="M80 721q0 33 22.5 55.5t57.5 22.5h106q-61 168 -82.5 244.5t-21.5 156.5q0 109 54 201t146.5 146.5t200.5 54.5q197 0 322 -144q47 -51 47 -86q0 -33 -22.5 -56.5t-57.5 -23.5t-53 23q-53 66 -107.5 98.5t-126.5 32.5q-104 0 -173.5 -73t-69.5 -177q0 -66 18 -131.5 t63 -196.5l25 -69h297q35 0 56.5 -21.5t21.5 -56.5t-22.5 -58.5t-55.5 -23.5h-285q0 -236 -84 -479h494l63 121q20 39 68 38q33 0 56.5 -23.5t23.5 -55.5q0 -23 -8 -37l-78 -156q-10 -23 -30.5 -35t-43.5 -12h-659q-37 0 -58.5 22.5t-21.5 57.5q0 10 4 31q115 268 115 528 h-121q-33 0 -56.5 23.5t-23.5 58.5z" />
<glyph unicode="&#xa4;" horiz-adv-x="1026" d="M92 420q0 37 27 63l82 78q-53 90 -54 187q0 94 52 186l-80 82q-27 27 -27 65q0 39 25.5 64.5t64.5 25.5q37 0 64 -22l80 -86q88 51 188 51q98 0 182 -47l82 80q35 25 64 24q39 0 65.5 -25.5t26.5 -64.5q0 -41 -27 -67l-80 -74q51 -92 52 -190q0 -96 -50 -183l78 -82 q27 -29 27 -65q0 -39 -25.5 -65.5t-64.5 -26.5q-35 0 -64 24l-78 84q-88 -51 -188 -51q-92 0 -182 47l-86 -80q-25 -25 -64 -24q-39 0 -64.5 26.5t-25.5 65.5zM315 750q0 -80 58.5 -139.5t140.5 -59.5q80 0 138.5 58.5t58.5 140.5t-58.5 141t-138.5 59t-139.5 -60.5 t-59.5 -139.5z" />
<glyph unicode="&#xa5;" horiz-adv-x="1327" d="M10 1526q0 31 22.5 52t55.5 21q23 0 38 -9t30 -29l510 -822l508 817q16 23 32.5 33t40.5 10q31 0 50.5 -21.5t19.5 -51.5q0 -29 -14 -51l-469 -742h157q35 0 55.5 -18.5t20.5 -50.5q0 -33 -20.5 -51.5t-55.5 -18.5h-246l-2 -2v-121h248q35 0 55.5 -18.5t20.5 -51.5 t-20.5 -51t-55.5 -18h-248v-252q0 -33 -22.5 -56.5t-56.5 -23.5q-33 0 -56.5 23.5t-23.5 56.5v252h-246q-35 0 -55.5 18.5t-20.5 50.5q0 33 20.5 51.5t55.5 18.5h246v121l-2 2h-244q-35 0 -55.5 18.5t-20.5 51.5t20.5 51t55.5 18h156l-467 742q-16 27 -17 51z" />
<glyph unicode="&#xa6;" horiz-adv-x="479" d="M160 311q0 33 22.5 55.5t57.5 22.5t57 -22.5t22 -55.5v-710q0 -35 -22.5 -57.5t-56.5 -22.5q-33 0 -56.5 22.5t-23.5 57.5v710zM160 961v718q0 35 22.5 58.5t57.5 23.5t57 -23.5t22 -58.5v-718q0 -33 -22.5 -56.5t-56.5 -23.5q-33 0 -56.5 23.5t-23.5 56.5z" />
<glyph unicode="&#xa7;" horiz-adv-x="960" d="M80 -78q0 33 23.5 56.5t58.5 23.5q33 0 55.5 -23.5t22.5 -56.5q0 -66 33.5 -121t90 -87.5t119.5 -32.5t119.5 32.5t90.5 88t34 120.5q0 63 -34 117.5t-90 87.5t-120 33q-109 0 -202 53t-147 145.5t-54 200.5q0 195 162 322q-162 123 -162 319q0 109 54 200t146.5 145 t202.5 54q109 0 202 -54t147.5 -145t54.5 -200q0 -35 -22.5 -57.5t-57.5 -22.5q-33 0 -56.5 23.5t-23.5 56.5q0 63 -34 118.5t-90 88.5t-120 33q-63 0 -119.5 -32t-90 -87t-33.5 -121q0 -100 71.5 -169.5t171.5 -69.5q109 0 202 -54.5t147.5 -146.5t54.5 -201 q0 -94 -41 -177t-121 -142q80 -59 121 -141.5t41 -176.5q0 -109 -54.5 -201t-147.5 -146t-202 -54q-110 0 -202.5 54t-146.5 146.5t-54 200.5zM240 559q0 -98 72.5 -167.5t170.5 -69.5q99 0 171.5 69.5t72.5 167.5q0 66 -34 121t-90 88t-120 33q-66 0 -121 -33t-88.5 -88 t-33.5 -121z" />
<glyph unicode="&#xa8;" horiz-adv-x="960" d="M174 1386q0 47 33 80t80 33t79.5 -32.5t32.5 -80.5q0 -47 -32.5 -79.5t-79.5 -32.5t-80 32.5t-33 79.5zM602 1386q0 47 33 80t80 33t79.5 -32.5t32.5 -80.5q0 -47 -32.5 -79.5t-79.5 -32.5t-80 32.5t-33 79.5z" />
<glyph unicode="&#xa9;" horiz-adv-x="1759" d="M92 803q0 215 107.5 399t291 292t402.5 108q215 0 399.5 -109t293 -292t108.5 -398q0 -221 -107.5 -405.5t-291 -291t-402.5 -106.5t-403.5 106.5t-291 291t-106.5 405.5zM225 803q0 -180 90.5 -333t243 -243t332.5 -90t333.5 90t244 243t90.5 333t-90.5 332.5 t-244 242.5t-333.5 90q-178 0 -331.5 -90t-244 -242.5t-90.5 -332.5zM408 805q0 145 61 262t170 183.5t246 66.5q229 0 368 -176q16 -18 17 -45q0 -35 -35 -58q-20 -14 -39 -14q-35 0 -59 31q-100 115 -252 114q-145 0 -234.5 -101t-89.5 -263q0 -106 44 -189.5t122 -130.5 t176 -47q135 0 221 76q29 23 58 23q23 0 43 -17q29 -25 28 -57q0 -29 -20 -47q-131 -125 -330 -125q-141 0 -253.5 66.5t-177 184t-64.5 263.5z" />
<glyph unicode="&#xaa;" horiz-adv-x="972" d="M82 1217q0 113 52 204.5t144.5 144t204.5 52.5q113 0 205 -52.5t144.5 -144.5t52.5 -204v-326q0 -33 -21.5 -56.5t-52.5 -23.5q-35 0 -55.5 22.5t-18.5 57.5l2 39q-102 -115 -256 -115q-113 0 -205 53.5t-144 144.5t-52 204zM233 1217q0 -106 72 -177t178 -71 q107 0 178.5 70.5t71.5 177.5q0 109 -70.5 179t-179.5 70q-106 0 -178 -70.5t-72 -178.5z" />
<glyph unicode="&#xab;" horiz-adv-x="960" d="M80 559q0 14 10 39l236 471q23 49 73 49q35 0 57.5 -22.5t22.5 -55.5q0 -18 -6 -34l-223 -447l223 -446q6 -12 6 -33q0 -33 -22.5 -56.5t-57.5 -23.5q-48 0 -73 49l-234 467q-12 25 -12 43zM487 559q0 10 9 39l237 471q23 49 74 49q35 0 57.5 -22.5t22.5 -55.5 q0 -14 -8 -34l-224 -447l224 -446q8 -16 8 -33q0 -33 -22.5 -56.5t-57.5 -23.5q-49 0 -74 49l-235 467q-10 27 -11 43z" />
<glyph unicode="&#xac;" horiz-adv-x="1120" d="M80 1040q0 35 23.5 57.5t56.5 22.5h798q35 0 57.5 -22.5t22.5 -57.5v-319q0 -33 -22.5 -56.5t-57.5 -23.5q-32 0 -54.5 23.5t-22.5 56.5v240h-721q-33 0 -56.5 23.5t-23.5 55.5z" />
<glyph unicode="&#xad;" horiz-adv-x="800" d="M78 559q0 35 21.5 57.5t56.5 22.5h481q35 0 57.5 -22.5t22.5 -57.5q0 -33 -22.5 -55.5t-57.5 -22.5h-481q-33 0 -55.5 22.5t-22.5 55.5z" />
<glyph unicode="&#xae;" horiz-adv-x="1759" d="M92 803q0 215 107.5 399t291 292t402.5 108q215 0 399.5 -109t293 -292t108.5 -398q0 -221 -107.5 -405.5t-291 -291t-402.5 -106.5t-403.5 106.5t-291 291t-106.5 405.5zM225 803q0 -180 90.5 -333t243 -243t332.5 -90t333.5 90t244 243t90.5 333t-90.5 332.5 t-244 242.5t-333.5 90q-178 0 -331.5 -90t-244 -242.5t-90.5 -332.5zM590 385v868q0 29 20.5 48.5t51.5 19.5h231q150 0 245 -87t95 -224q0 -94 -51.5 -168t-137.5 -113l191 -307q16 -29 16 -49q0 -25 -18.5 -40.5t-48.5 -15.5q-39 0 -60 33l-217 348h-14h-166v-313 q0 -29 -18.5 -48.5t-49.5 -19.5t-50 19.5t-19 48.5zM727 823h170q90 0 145.5 49.5t55.5 137.5t-55.5 138t-145.5 50h-170v-375z" />
<glyph unicode="&#xaf;" horiz-adv-x="1120" d="M215 1380q0 33 22.5 53.5t57.5 20.5h530q33 0 56.5 -20.5t23.5 -53.5t-23.5 -53t-56.5 -20h-530q-35 0 -57.5 20.5t-22.5 52.5z" />
<glyph unicode="&#xb0;" horiz-adv-x="960" d="M80 1202q0 106 53 198.5t145.5 147t200.5 54.5q109 0 201 -54.5t146.5 -146.5t54.5 -199q0 -109 -54.5 -201t-146.5 -146t-201 -54q-108 0 -199.5 54t-145.5 146.5t-54 200.5zM240 1202q0 -100 70.5 -170.5t168.5 -70.5q99 0 170.5 70.5t71.5 170.5q0 63 -34 118.5 t-89 88.5t-119 33q-63 0 -118.5 -33t-88 -88t-32.5 -119z" />
<glyph unicode="&#xb1;" horiz-adv-x="1120" d="M80 80q0 35 23.5 57.5t56.5 22.5h801q33 0 55 -22.5t22 -57.5t-21.5 -57.5t-55.5 -22.5h-801q-35 0 -57.5 22.5t-22.5 57.5zM80 801q0 35 23.5 57.5t56.5 22.5h319v321q0 33 23.5 55.5t56.5 22.5q35 0 57.5 -22.5t22.5 -55.5v-321h319q33 0 56.5 -23.5t23.5 -56.5 t-22.5 -56.5t-57.5 -23.5h-319v-322q0 -35 -22.5 -57.5t-57.5 -22.5q-33 0 -56.5 24t-23.5 56v322h-319q-33 0 -56.5 23.5t-23.5 56.5z" />
<glyph unicode="&#xb2;" horiz-adv-x="747" d="M88 1360q0 113 78 187.5t201 74.5q117 0 189.5 -70.5t72.5 -179.5q0 -57 -29 -101t-82 -100l-233 -247h295q32 0 53.5 -16.5t21.5 -49.5t-21.5 -50t-53.5 -17h-400q-33 0 -54.5 21.5t-21.5 53.5q0 35 19 54l326 352q45 47 45 102q0 51 -37 86t-92 35q-68 0 -110 -39 t-42 -96q0 -35 -15.5 -55.5t-47.5 -20.5q-29 0 -45.5 21.5t-16.5 54.5z" />
<glyph unicode="&#xb3;" horiz-adv-x="749" d="M92 1026q0 35 19.5 55.5t52.5 20.5q31 0 46 -20.5t15 -55.5q0 -53 42 -89t106 -36q57 0 96 33t39 86q0 57 -33 94t-82 37q-39 0 -60.5 17.5t-21.5 45.5q0 68 72 68q51 0 78.5 26.5t27.5 77.5q0 47 -33.5 76t-88.5 29q-61 0 -97.5 -27.5t-44.5 -72.5q-4 -25 -20.5 -43.5 t-36.5 -18.5q-29 0 -49.5 19.5t-20.5 48.5q0 94 77 159.5t190 65.5q110 0 183 -64.5t73 -164.5q0 -55 -34 -104.5t-85 -71.5q68 -23 105.5 -75t37.5 -124q0 -106 -76.5 -175t-193.5 -69q-123 0 -203 72t-80 180z" />
<glyph unicode="&#xb4;" horiz-adv-x="559" d="M94 1292q0 33 19 54l231 231q23 23 55 22q35 0 57.5 -23.5t22.5 -57.5q0 -33 -22 -54l-230 -231q-20 -20 -53 -21q-33 0 -56.5 24t-23.5 56z" />
<glyph unicode="&#xb5;" d="M164 -399v1441q0 35 21.5 56.5t56.5 21.5t57.5 -21.5t22.5 -56.5v-532q0 -106 47 -191.5t130 -133.5t189 -48q156 0 256 84t100 215v606q0 35 21.5 56.5t56.5 21.5t57.5 -21.5t22.5 -56.5v-962q0 -35 -22.5 -57.5t-57.5 -22.5t-56.5 22.5t-21.5 57.5v82 q-61 -82 -154 -128t-202 -46q-119 0 -213 51t-153 143v-581q0 -35 -23 -57.5t-57 -22.5q-35 0 -56.5 22.5t-21.5 57.5z" />
<glyph unicode="&#xb6;" horiz-adv-x="1169" d="M92 1200q0 111 53.5 203t144.5 145.5t202 53.5h505q35 0 57.5 -24t22.5 -58q0 -29 -22.5 -50.5t-57.5 -25.5v-1364q0 -33 -22.5 -56.5t-56.5 -23.5q-33 0 -56.5 23.5t-23.5 56.5v1362h-187v-1362q0 -33 -22.5 -56.5t-57.5 -23.5q-32 0 -55.5 23.5t-23.5 56.5v721 q-115 2 -206 56t-142.5 144.5t-51.5 198.5z" />
<glyph unicode="&#xb7;" horiz-adv-x="399" d="M76 760q0 51 34.5 86t86.5 35q49 0 82.5 -36t33.5 -85t-33.5 -84t-82.5 -35q-50 0 -85.5 35t-35.5 84z" />
<glyph unicode="&#xb8;" horiz-adv-x="641" d="M63 -326q0 31 23 53.5t53 22.5q39 0 72 -43q33 -49 104 -49q47 0 78 20.5t31 57.5q0 39 -24.5 61.5t-82.5 36.5q-39 8 -59 23.5t-20 42.5q0 16 10 47l33 84q20 61 90 61q31 0 49 -17.5t18 -43.5q0 -14 -6 -31l-31 -74q102 -27 146.5 -74t44.5 -116q0 -57 -37 -106.5 t-100.5 -78t-141.5 -28.5q-106 0 -178 45t-72 106z" />
<glyph unicode="&#xb9;" horiz-adv-x="561" d="M41 1444q0 45 55 65l223 78q31 10 50 10q61 0 61 -79v-648q0 -80 -70 -79q-34 0 -51.5 21.5t-17.5 57.5v566l-127 -43q-35 -10 -58 -11q-66 0 -65 62z" />
<glyph unicode="&#xba;" horiz-adv-x="966" d="M82 1217q0 113 52 204.5t144.5 144t204.5 52.5q113 0 205 -52.5t144.5 -144.5t52.5 -204q0 -113 -52.5 -204t-144.5 -144.5t-205 -53.5q-112 0 -204.5 53.5t-144.5 144.5t-52 204zM233 1217q0 -106 72 -177t178 -71q107 0 178.5 70.5t71.5 177.5q0 109 -70.5 179 t-179.5 70q-106 0 -178 -70.5t-72 -178.5z" />
<glyph unicode="&#xbb;" horiz-adv-x="960" d="M80 1040q0 33 22.5 55.5t57.5 22.5q47 0 73 -49l236 -471q10 -25 10 -39q0 -18 -12 -43l-234 -467q-25 -49 -73 -49q-33 0 -55.5 22.5t-22.5 57.5q0 18 6 33l221 446l-221 447q-8 20 -8 34zM487 80q0 18 7 33l223 446l-223 447q0 4 -3.5 14t-3.5 20q0 33 22.5 55.5 t57.5 22.5q47 0 74 -49l236 -471q10 -25 10 -39q0 -10 -13 -43l-233 -467q-27 -49 -74 -49q-32 0 -56 23.5t-24 56.5z" />
<glyph unicode="&#xbc;" horiz-adv-x="1564" d="M41 1444q0 45 55 65l223 78q31 10 50 10q61 0 61 -79v-648q0 -80 -70 -79q-34 0 -51.5 21.5t-17.5 57.5v566l-127 -43q-35 -10 -58 -11q-66 0 -65 62zM224 59q0 20 12 41l961 1473q26 39 65 39q29 0 47.5 -17.5t18.5 -44.5q0 -23 -19 -51l-960 -1458q-27 -41 -64 -41 q-27 0 -44 17.5t-17 41.5zM805 241q0 31 24 64l371 479q31 37 72 37q31 0 52 -18.5t21 -49.5v-457h72q29 0 46.5 -16t17.5 -45q0 -31 -17.5 -46t-46.5 -15h-72v-117q0 -66 -69 -66q-31 0 -49.5 18.5t-18.5 47.5v117h-327q-33 0 -54.5 19.5t-21.5 47.5zM971 296h239l2 320z " />
<glyph unicode="&#xbd;" horiz-adv-x="1662" d="M41 1444q0 45 55 65l223 78q31 10 50 10q61 0 61 -79v-648q0 -80 -70 -79q-34 0 -51.5 21.5t-17.5 57.5v566l-127 -43q-35 -10 -58 -11q-66 0 -65 62zM336 59q0 20 12 41l961 1473q26 39 65 39q29 0 47.5 -17.5t18.5 -44.5q0 -23 -19 -51l-960 -1458q-27 -41 -64 -41 q-27 0 -44 17.5t-17 41.5zM1026 569q0 113 78 187.5t201 74.5q117 0 189.5 -70.5t72.5 -179.5q0 -57 -29 -101t-82 -100l-233 -247h295q32 0 53.5 -16.5t21.5 -49.5t-21.5 -50t-53.5 -17h-400q-33 0 -54.5 21.5t-21.5 53.5q0 35 19 54l326 352q45 47 45 102q0 51 -37 86 t-92 35q-68 0 -110 -39t-42 -96q0 -35 -15.5 -55.5t-47.5 -20.5q-29 0 -45.5 21.5t-16.5 54.5z" />
<glyph unicode="&#xbe;" horiz-adv-x="1714" d="M92 1026q0 35 19.5 55.5t52.5 20.5q31 0 46 -20.5t15 -55.5q0 -53 42 -89t106 -36q57 0 96 33t39 86q0 57 -33 94t-82 37q-39 0 -60.5 17.5t-21.5 45.5q0 68 72 68q51 0 78.5 26.5t27.5 77.5q0 47 -33.5 76t-88.5 29q-61 0 -97.5 -27.5t-44.5 -72.5q-4 -25 -20.5 -43.5 t-36.5 -18.5q-29 0 -49.5 19.5t-20.5 48.5q0 94 77 159.5t190 65.5q110 0 183 -64.5t73 -164.5q0 -55 -34 -104.5t-85 -71.5q68 -23 105.5 -75t37.5 -124q0 -106 -76.5 -175t-193.5 -69q-123 0 -203 72t-80 180zM320 59q0 20 12 41l961 1473q26 39 65 39q29 0 47.5 -17.5 t18.5 -44.5q0 -23 -19 -51l-960 -1458q-27 -41 -64 -41q-27 0 -44 17.5t-17 41.5zM944 241q0 31 24 64l371 479q31 37 72 37q31 0 52 -18.5t21 -49.5v-457h72q29 0 46.5 -16t17.5 -45q0 -31 -17.5 -46t-46.5 -15h-72v-117q0 -66 -69 -66q-31 0 -49.5 18.5t-18.5 47.5v117 h-327q-33 0 -54.5 19.5t-21.5 47.5zM1110 296h239l2 320z" />
<glyph unicode="&#xbf;" horiz-adv-x="1120" d="M76 90q0 100 32.5 175t83 132.5t142.5 141.5l37 32q57 51 80.5 120t23.5 136q0 35 22.5 58.5t57.5 23.5t57.5 -23.5t22.5 -58.5q0 -84 -41 -178t-111 -160l-51 -47q-70 -66 -108.5 -109.5t-64.5 -106t-26 -144.5q0 -80 39 -146.5t111 -105.5t164 -39q152 0 241 91t89 237 q0 35 21.5 56.5t55.5 21.5q35 0 57.5 -21.5t22.5 -56.5q0 -139 -61.5 -248t-172 -170t-253.5 -61q-135 0 -242.5 58t-168 160.5t-60.5 231.5zM434 1153q0 49 36 84t85 35q51 0 85 -35t34 -84q0 -51 -35 -86t-84 -35t-85 35t-36 86z" />
<glyph unicode="&#xc0;" horiz-adv-x="1439" d="M39 80q0 20 6 35l602 1429q23 55 78 55t76 -55l604 -1431q8 -15 8 -33q0 -33 -23.5 -56.5t-56.5 -23.5q-53 0 -76 49l-137 332h-792l-138 -332q-16 -49 -73 -49q-35 0 -56.5 23.5t-21.5 56.5zM385 518h680l-340 821zM414 2089q0 35 22.5 58.5t55.5 23.5t57 -25l230 -231 q20 -18 20 -52q0 -35 -22.5 -58t-57.5 -23q-30 -1 -53 22l-232 229q-20 20 -20 56z" />
<glyph unicode="&#xc1;" horiz-adv-x="1439" d="M39 80q0 20 6 35l602 1429q23 55 78 55t76 -55l604 -1431q8 -15 8 -33q0 -33 -23.5 -56.5t-56.5 -23.5q-53 0 -76 49l-137 332h-792l-138 -332q-16 -49 -73 -49q-35 0 -56.5 23.5t-21.5 56.5zM385 518h680l-340 821zM627 1849q0 33 19 53l231 232q23 23 55 22 q35 0 57.5 -23.5t22.5 -58.5q0 -33 -22 -53l-230 -231q-20 -20 -53 -21q-35 0 -57.5 23.5t-22.5 56.5z" />
<glyph unicode="&#xc2;" horiz-adv-x="1439" d="M39 80q0 20 6 35l602 1429q23 55 78 55t76 -55l604 -1431q8 -15 8 -33q0 -33 -23.5 -56.5t-56.5 -23.5q-53 0 -76 49l-137 332h-792l-138 -332q-16 -49 -73 -49q-35 0 -56.5 23.5t-21.5 56.5zM385 518h680l-340 821zM401 1849q0 43 39 70l242 159q16 10 38 11 q20 0 41 -11l240 -159q39 -27 39 -70q0 -31 -22.5 -51.5t-57.5 -20.5q-23 0 -49 17l-191 131l-190 -131q-23 -16 -47 -17q-35 0 -58.5 19.5t-23.5 52.5z" />
<glyph unicode="&#xc3;" horiz-adv-x="1439" d="M39 80q0 20 6 35l602 1429q23 55 78 55t76 -55l604 -1431q8 -15 8 -33q0 -33 -23.5 -56.5t-56.5 -23.5q-53 0 -76 49l-137 332h-792l-138 -332q-16 -49 -73 -49q-35 0 -56.5 23.5t-21.5 56.5zM385 518h680l-340 821zM389 1870q0 18 8 34q39 80 86 116t109 36 q53 0 84.5 -19.5t76.5 -58.5q33 -29 50.5 -39t33.5 -10q14 0 26.5 11.5t25.5 37.5q10 23 30.5 36t40.5 13q8 0 21 -4q49 -20 49 -61q0 -18 -8 -33q-35 -72 -76 -103.5t-94 -31.5q-84 0 -160 76q-33 31 -52.5 43t-39.5 12q-23 0 -40 -18.5t-38 -57.5q-27 -43 -65 -43 q-31 0 -49.5 18.5t-18.5 45.5z" />
<glyph unicode="&#xc4;" horiz-adv-x="1439" d="M39 80q0 20 6 35l602 1429q23 55 78 55t76 -55l604 -1431q8 -15 8 -33q0 -33 -23.5 -56.5t-56.5 -23.5q-53 0 -76 49l-137 332h-792l-138 -332q-16 -49 -73 -49q-35 0 -56.5 23.5t-21.5 56.5zM385 518h680l-340 821zM396 1917q0 47 32.5 79.5t79.5 32.5t80 -32.5 t33 -79.5t-33 -80t-80 -33t-79.5 33t-32.5 80zM824 1917q0 47 32.5 79.5t79.5 32.5t80 -32.5t33 -79.5t-33 -80t-80 -33t-79.5 33t-32.5 80z" />
<glyph unicode="&#xc5;" horiz-adv-x="1439" d="M39 80q0 20 6 35l602 1429q23 55 78 55t76 -55l604 -1431q8 -15 8 -33q0 -33 -23.5 -56.5t-56.5 -23.5q-53 0 -76 49l-137 332h-792l-138 -332q-16 -49 -73 -49q-35 0 -56.5 23.5t-21.5 56.5zM385 518h680l-340 821zM521 1894q0 86 58 143.5t142 57.5q86 0 143.5 -57.5 t57.5 -143.5t-57.5 -143.5t-143.5 -57.5q-84 0 -142 57.5t-58 143.5zM615 1894q0 -45 30.5 -76.5t75.5 -31.5t77 31.5t32 76.5q0 47 -32 78t-77 31t-75.5 -32t-30.5 -77z" />
<glyph unicode="&#xc6;" horiz-adv-x="1966" d="M37 80q0 14 10 35l858 1423q18 33 44 47t67 14h778q35 0 57.5 -22.5t22.5 -54.5q0 -33 -22.5 -54.5t-57.5 -21.5h-727v-565h487q35 0 57.5 -22.5t22.5 -55.5t-23.5 -55.5t-56.5 -22.5h-487v-571h727q35 0 57.5 -21.5t22.5 -54.5t-22.5 -55.5t-57.5 -22.5h-807 q-33 0 -56.5 23.5t-23.5 56.5v301h-516l-198 -332q-25 -49 -74 -49q-35 0 -58.5 24.5t-23.5 55.5zM473 518h434v731z" />
<glyph unicode="&#xc7;" horiz-adv-x="1579" d="M127 801q0 221 106.5 409.5t289 299t401.5 110.5q147 0 268 -43t233 -137q23 -16 23 -47q0 -16 -8 -29.5t-23 -20.5q-4 -14 -18.5 -22t-30.5 -8q-31 0 -51 18q-80 72 -174 104.5t-219 32.5q-172 0 -319.5 -91t-234.5 -244.5t-87 -331.5q0 -182 86 -336t233.5 -244 t321.5 -90q223 0 403 143q22 17 45 17q31 0 53.5 -21.5t22.5 -56.5q0 -33 -23 -57q-170 -152 -415 -172l-25 -58q102 -27 146.5 -74t44.5 -116q0 -57 -37 -106.5t-100.5 -78t-141.5 -28.5q-106 0 -178 45t-72 106q0 31 22.5 53.5t53.5 22.5q39 0 72 -43q33 -49 104 -49 q47 0 78 20.5t31 57.5q0 39 -25 61.5t-82 36.5q-39 8 -59.5 23.5t-20.5 42.5q0 16 10 47l15 37q-199 20 -364 133.5t-260 294t-95 389.5z" />
<glyph unicode="&#xc8;" horiz-adv-x="1417" d="M205 80v1440q0 35 23.5 57t56.5 22h960q35 0 57.5 -22.5t22.5 -54.5q0 -33 -22.5 -54.5t-57.5 -21.5h-880v-565h641q35 0 57 -22.5t22 -55.5t-23.5 -55.5t-55.5 -22.5h-641v-571h880q35 0 57.5 -21.5t22.5 -54.5t-22.5 -55.5t-57.5 -22.5h-960q-33 0 -56.5 23.5 t-23.5 56.5zM473 2089q0 35 22.5 58.5t55.5 23.5t57 -25l230 -231q20 -18 20 -52q0 -35 -22.5 -58t-57.5 -23q-30 -1 -53 22l-232 229q-20 20 -20 56z" />
<glyph unicode="&#xc9;" horiz-adv-x="1417" d="M205 80v1440q0 35 23.5 57t56.5 22h960q35 0 57.5 -22.5t22.5 -54.5q0 -33 -22.5 -54.5t-57.5 -21.5h-880v-565h641q35 0 57 -22.5t22 -55.5t-23.5 -55.5t-55.5 -22.5h-641v-571h880q35 0 57.5 -21.5t22.5 -54.5t-22.5 -55.5t-57.5 -22.5h-960q-33 0 -56.5 23.5 t-23.5 56.5zM686 1849q0 33 19 53l231 232q23 23 55 22q35 0 57.5 -23.5t22.5 -58.5q0 -33 -22 -53l-230 -231q-20 -20 -53 -21q-35 0 -57.5 23.5t-22.5 56.5z" />
<glyph unicode="&#xca;" horiz-adv-x="1417" d="M205 80v1440q0 35 23.5 57t56.5 22h960q35 0 57.5 -22.5t22.5 -54.5q0 -33 -22.5 -54.5t-57.5 -21.5h-880v-565h641q35 0 57 -22.5t22 -55.5t-23.5 -55.5t-55.5 -22.5h-641v-571h880q35 0 57.5 -21.5t22.5 -54.5t-22.5 -55.5t-57.5 -22.5h-960q-33 0 -56.5 23.5 t-23.5 56.5zM461 1849q0 43 39 70l242 159q16 10 38 11q20 0 41 -11l240 -159q39 -27 39 -70q0 -31 -22.5 -51.5t-57.5 -20.5q-23 0 -49 17l-191 131l-190 -131q-23 -16 -47 -17q-35 0 -58.5 19.5t-23.5 52.5z" />
<glyph unicode="&#xcb;" horiz-adv-x="1417" d="M205 80v1440q0 35 23.5 57t56.5 22h960q35 0 57.5 -22.5t22.5 -54.5q0 -33 -22.5 -54.5t-57.5 -21.5h-880v-565h641q35 0 57 -22.5t22 -55.5t-23.5 -55.5t-55.5 -22.5h-641v-571h880q35 0 57.5 -21.5t22.5 -54.5t-22.5 -55.5t-57.5 -22.5h-960q-33 0 -56.5 23.5 t-23.5 56.5zM455 1917q0 47 32.5 79.5t79.5 32.5t80 -32.5t33 -79.5t-33 -80t-80 -33t-79.5 33t-32.5 80zM883 1917q0 47 32.5 79.5t79.5 32.5t80 -32.5t33 -79.5t-33 -80t-80 -33t-79.5 33t-32.5 80z" />
<glyph unicode="&#xcc;" horiz-adv-x="569" d="M-22 2089q0 35 22.5 58.5t55.5 23.5t57 -25l230 -231q20 -18 20 -52q0 -35 -22.5 -58t-57.5 -23q-30 -1 -53 22l-232 229q-20 20 -20 56zM205 80v1440q0 35 23.5 57t56.5 22q35 0 57.5 -22.5t22.5 -56.5v-1440q0 -33 -23 -56.5t-57 -23.5q-33 0 -56.5 23.5t-23.5 56.5z " />
<glyph unicode="&#xcd;" horiz-adv-x="569" d="M190 1849q0 33 19 53l231 232q23 23 55 22q35 0 57.5 -23.5t22.5 -58.5q0 -33 -22 -53l-230 -231q-20 -20 -53 -21q-35 0 -57.5 23.5t-22.5 56.5zM205 80v1440q0 35 23.5 57t56.5 22q35 0 57.5 -22.5t22.5 -56.5v-1440q0 -33 -23 -56.5t-57 -23.5q-33 0 -56.5 23.5 t-23.5 56.5z" />
<glyph unicode="&#xce;" horiz-adv-x="569" d="M-35 1849q0 43 39 70l242 159q16 10 38 11q20 0 41 -11l240 -159q39 -27 39 -70q0 -31 -22.5 -51.5t-57.5 -20.5q-23 0 -49 17l-191 131l-190 -131q-23 -16 -47 -17q-35 0 -58.5 19.5t-23.5 52.5zM205 80v1440q0 35 23.5 57t56.5 22q35 0 57.5 -22.5t22.5 -56.5v-1440 q0 -33 -23 -56.5t-57 -23.5q-33 0 -56.5 23.5t-23.5 56.5z" />
<glyph unicode="&#xcf;" horiz-adv-x="569" d="M-41 1917q0 47 32.5 79.5t79.5 32.5t80 -32.5t33 -79.5t-33 -80t-80 -33t-79.5 33t-32.5 80zM205 80v1440q0 35 23.5 57t56.5 22q35 0 57.5 -22.5t22.5 -56.5v-1440q0 -33 -23 -56.5t-57 -23.5q-33 0 -56.5 23.5t-23.5 56.5zM387 1917q0 47 32.5 79.5t79.5 32.5t80 -32.5 t33 -79.5t-33 -80t-80 -33t-79.5 33t-32.5 80z" />
<glyph unicode="&#xd0;" horiz-adv-x="1576" d="M0 801q0 33 20.5 51t53.5 18h131v650q0 35 22.5 57t57.5 22h368q232 0 414 -102t283.5 -283.5t101.5 -412.5t-101.5 -413.5t-283.5 -285t-414 -102.5h-368q-35 0 -57.5 22.5t-22.5 57.5v651h-131q-33 0 -53.5 18.5t-20.5 51.5zM365 143h288q187 0 332 85t227 234.5 t82 338.5q0 188 -82 337.5t-227 233.5t-332 84h-288v-586h307q35 0 55.5 -18t20.5 -51t-20.5 -51.5t-55.5 -18.5h-307v-588z" />
<glyph unicode="&#xd1;" horiz-adv-x="1689" d="M205 80v1440q0 35 22.5 57t57.5 22q37 0 61 -28l979 -1286v1235q0 35 23.5 57t56.5 22q35 0 57.5 -22.5t22.5 -56.5v-1440q0 -33 -22.5 -56.5t-57.5 -23.5q-41 0 -59 27l-981 1286v-1233q0 -33 -23 -56.5t-57 -23.5q-35 0 -57.5 22.5t-22.5 57.5zM469 1833q0 25 15 45 q51 66 118.5 101.5t141.5 35.5q55 0 96 -16.5t94 -49.5q47 -29 70.5 -39t54.5 -10q63 0 101 41q31 35 63 35q16 0 33 -10q37 -18 37 -57q0 -23 -17 -46q-82 -100 -215 -100q-57 0 -102 18.5t-96 49.5q-43 27 -70 37t-53 10q-76 0 -135 -72q-12 -18 -31 -28.5t-37 -10.5 t-35 10q-14 8 -23.5 23.5t-9.5 32.5z" />
<glyph unicode="&#xd2;" horiz-adv-x="1886" d="M127 801q0 233 105.5 419.5t292 293t419.5 106.5q231 0 418.5 -106.5t293 -293t105.5 -419.5t-105.5 -420.5t-292.5 -294t-419 -106.5q-233 0 -419.5 106.5t-292 293.5t-105.5 421zM283 801q0 -188 86 -341t236.5 -241t338.5 -88q186 0 337 88t237 240.5t86 341.5 q0 186 -86 338.5t-237 240.5t-337 88q-188 0 -338.5 -88t-236.5 -240.5t-86 -338.5zM637 2089q0 35 22.5 58.5t55.5 23.5t57 -25l230 -231q20 -18 20 -52q0 -35 -22.5 -58t-57.5 -23q-30 -1 -53 22l-232 229q-20 20 -20 56z" />
<glyph unicode="&#xd3;" horiz-adv-x="1886" d="M127 801q0 233 105.5 419.5t292 293t419.5 106.5q231 0 418.5 -106.5t293 -293t105.5 -419.5t-105.5 -420.5t-292.5 -294t-419 -106.5q-233 0 -419.5 106.5t-292 293.5t-105.5 421zM283 801q0 -188 86 -341t236.5 -241t338.5 -88q186 0 337 88t237 240.5t86 341.5 q0 186 -86 338.5t-237 240.5t-337 88q-188 0 -338.5 -88t-236.5 -240.5t-86 -338.5zM850 1849q0 33 19 53l231 232q23 23 55 22q35 0 57.5 -23.5t22.5 -58.5q0 -33 -22 -53l-230 -231q-20 -20 -53 -21q-35 0 -57.5 23.5t-22.5 56.5z" />
<glyph unicode="&#xd4;" horiz-adv-x="1886" d="M127 801q0 233 105.5 419.5t292 293t419.5 106.5q231 0 418.5 -106.5t293 -293t105.5 -419.5t-105.5 -420.5t-292.5 -294t-419 -106.5q-233 0 -419.5 106.5t-292 293.5t-105.5 421zM283 801q0 -188 86 -341t236.5 -241t338.5 -88q186 0 337 88t237 240.5t86 341.5 q0 186 -86 338.5t-237 240.5t-337 88q-188 0 -338.5 -88t-236.5 -240.5t-86 -338.5zM625 1849q0 43 39 70l242 159q16 10 38 11q20 0 41 -11l240 -159q39 -27 39 -70q0 -31 -22.5 -51.5t-57.5 -20.5q-23 0 -49 17l-191 131l-190 -131q-23 -16 -47 -17q-35 0 -58.5 19.5 t-23.5 52.5z" />
<glyph unicode="&#xd5;" horiz-adv-x="1886" d="M127 801q0 233 105.5 419.5t292 293t419.5 106.5q231 0 418.5 -106.5t293 -293t105.5 -419.5t-105.5 -420.5t-292.5 -294t-419 -106.5q-233 0 -419.5 106.5t-292 293.5t-105.5 421zM283 801q0 -188 86 -341t236.5 -241t338.5 -88q186 0 337 88t237 240.5t86 341.5 q0 186 -86 338.5t-237 240.5t-337 88q-188 0 -338.5 -88t-236.5 -240.5t-86 -338.5zM567 1833q0 25 15 45q51 66 118.5 101.5t141.5 35.5q55 0 96 -16.5t94 -49.5q47 -29 70.5 -39t54.5 -10q63 0 101 41q31 35 63 35q16 0 33 -10q37 -18 37 -57q0 -23 -17 -46 q-82 -100 -215 -100q-57 0 -102 18.5t-96 49.5q-43 27 -70 37t-53 10q-76 0 -135 -72q-12 -18 -31 -28.5t-37 -10.5t-35 10q-14 8 -23.5 23.5t-9.5 32.5z" />
<glyph unicode="&#xd6;" horiz-adv-x="1886" d="M127 801q0 233 105.5 419.5t292 293t419.5 106.5q231 0 418.5 -106.5t293 -293t105.5 -419.5t-105.5 -420.5t-292.5 -294t-419 -106.5q-233 0 -419.5 106.5t-292 293.5t-105.5 421zM283 801q0 -188 86 -341t236.5 -241t338.5 -88q186 0 337 88t237 240.5t86 341.5 q0 186 -86 338.5t-237 240.5t-337 88q-188 0 -338.5 -88t-236.5 -240.5t-86 -338.5zM619 1917q0 47 32.5 79.5t79.5 32.5t80 -32.5t33 -79.5t-33 -80t-80 -33t-79.5 33t-32.5 80zM1047 1917q0 47 32.5 79.5t79.5 32.5t80 -32.5t33 -79.5t-33 -80t-80 -33t-79.5 33t-32.5 80z " />
<glyph unicode="&#xd7;" horiz-adv-x="960" d="M80 399q0 31 20 58l267 264l-267 264q-20 25 -20 53q0 35 22.5 58.5t57.5 23.5q31 0 57 -22l262 -264l264 264q23 23 58 22q33 0 56.5 -23.5t23.5 -56.5t-23 -55l-264 -264l264 -264q23 -27 23 -58q0 -33 -23.5 -56.5t-56.5 -23.5q-35 0 -56 21l-266 266l-264 -266 q-23 -20 -55 -21q-33 0 -56.5 24t-23.5 56z" />
<glyph unicode="&#xd8;" horiz-adv-x="1810" d="M119 63q0 25 16 41l168 168q-84 109 -130 243t-46 286q0 233 105.5 419.5t292 293t419.5 106.5q158 0 297 -50t246 -145l160 158q16 16 43 16t46 -18t19 -43q0 -23 -18 -41l-162 -162q90 -104 138 -241.5t48 -292.5q0 -233 -105.5 -420.5t-292.5 -294t-419 -106.5 q-162 0 -303 53t-250 149l-166 -166q-16 -16 -43 -16q-29 0 -46 18.5t-17 44.5zM283 801q0 -244 141 -424l944 944q-86 70 -194.5 108.5t-229.5 38.5q-188 0 -338.5 -88t-236.5 -240.5t-86 -338.5zM510 285q88 -74 198.5 -114t235.5 -40q186 0 337 88t237 240.5t86 341.5 q0 123 -38 233.5t-110 196.5z" />
<glyph unicode="&#xd9;" horiz-adv-x="1677" d="M205 528v992q0 35 22.5 57t57.5 22t57.5 -22.5t22.5 -56.5v-992q0 -119 60 -212t168.5 -145t248.5 -52q137 0 243.5 52t167 145.5t60.5 211.5v992q0 35 22.5 57t57.5 22t57.5 -22.5t22.5 -56.5v-992q0 -162 -81 -289.5t-224.5 -199.5t-325.5 -72q-185 0 -330 72t-226 200 t-81 289zM533 2089q0 35 22.5 58.5t55.5 23.5t57 -25l230 -231q20 -18 20 -52q0 -35 -22.5 -58t-57.5 -23q-30 -1 -53 22l-232 229q-20 20 -20 56z" />
<glyph unicode="&#xda;" horiz-adv-x="1677" d="M205 528v992q0 35 22.5 57t57.5 22t57.5 -22.5t22.5 -56.5v-992q0 -119 60 -212t168.5 -145t248.5 -52q137 0 243.5 52t167 145.5t60.5 211.5v992q0 35 22.5 57t57.5 22t57.5 -22.5t22.5 -56.5v-992q0 -162 -81 -289.5t-224.5 -199.5t-325.5 -72q-185 0 -330 72t-226 200 t-81 289zM745 1849q0 33 19 53l231 232q23 23 55 22q35 0 57.5 -23.5t22.5 -58.5q0 -33 -22 -53l-230 -231q-20 -20 -53 -21q-35 0 -57.5 23.5t-22.5 56.5z" />
<glyph unicode="&#xdb;" horiz-adv-x="1677" d="M205 528v992q0 35 22.5 57t57.5 22t57.5 -22.5t22.5 -56.5v-992q0 -119 60 -212t168.5 -145t248.5 -52q137 0 243.5 52t167 145.5t60.5 211.5v992q0 35 22.5 57t57.5 22t57.5 -22.5t22.5 -56.5v-992q0 -162 -81 -289.5t-224.5 -199.5t-325.5 -72q-185 0 -330 72t-226 200 t-81 289zM520 1849q0 43 39 70l242 159q16 10 38 11q20 0 41 -11l240 -159q39 -27 39 -70q0 -31 -22.5 -51.5t-57.5 -20.5q-23 0 -49 17l-191 131l-190 -131q-23 -16 -47 -17q-35 0 -58.5 19.5t-23.5 52.5z" />
<glyph unicode="&#xdc;" horiz-adv-x="1677" d="M205 528v992q0 35 22.5 57t57.5 22t57.5 -22.5t22.5 -56.5v-992q0 -119 60 -212t168.5 -145t248.5 -52q137 0 243.5 52t167 145.5t60.5 211.5v992q0 35 22.5 57t57.5 22t57.5 -22.5t22.5 -56.5v-992q0 -162 -81 -289.5t-224.5 -199.5t-325.5 -72q-185 0 -330 72t-226 200 t-81 289zM514 1917q0 47 32.5 79.5t79.5 32.5t80 -32.5t33 -79.5t-33 -80t-80 -33t-79.5 33t-32.5 80zM942 1917q0 47 32.5 79.5t79.5 32.5t80 -32.5t33 -79.5t-33 -80t-80 -33t-79.5 33t-32.5 80z" />
<glyph unicode="&#xdd;" horiz-adv-x="1327" d="M10 1526q0 31 22.5 52t55.5 21q23 0 38 -9t30 -29l510 -822l508 817q16 23 32.5 33t40.5 10q31 0 50.5 -21.5t19.5 -51.5q0 -29 -14 -51l-560 -883v-512q0 -33 -22.5 -56.5t-56.5 -23.5q-33 0 -56.5 23.5t-23.5 56.5v512l-557 883q-16 27 -17 51zM569 1849q0 33 19 53 l231 232q23 23 55 22q35 0 57.5 -23.5t22.5 -58.5q0 -33 -22 -53l-230 -231q-20 -20 -53 -21q-35 0 -57.5 23.5t-22.5 56.5z" />
<glyph unicode="&#xde;" horiz-adv-x="1253" d="M205 80v1440q0 35 23.5 57t56.5 22q35 0 57.5 -22.5t22.5 -56.5v-201h329q150 0 267.5 -59.5t183 -167t65.5 -246.5q0 -137 -65.5 -242.5t-183 -165t-267.5 -59.5h-329v-299q0 -35 -23 -57.5t-57 -22.5q-35 0 -57.5 22.5t-22.5 57.5zM365 518h329q105 0 187 43t128 118 t46 167q0 94 -46 170t-128 120t-187 44h-329v-662z" />
<glyph unicode="&#xdf;" horiz-adv-x="1120" d="M106 78v1106q0 113 54.5 204t153 144t223.5 53q113 0 201.5 -46t139 -128t50.5 -186q0 -72 -28 -124t-79 -112q-39 -45 -58.5 -77.5t-19.5 -71.5q0 -43 28 -78t93 -98q88 -78 138.5 -150t50.5 -172q0 -98 -51.5 -178t-141.5 -126t-203 -46q-72 0 -143.5 25.5t-117.5 66.5 t-46 84q0 31 17.5 50.5t48.5 19.5q23 0 37 -8.5t34 -26.5q31 -29 68 -45.5t111 -16.5q109 0 170 52.5t61 148.5q0 70 -37 121t-115 125t-114.5 125t-36.5 123q0 59 23.5 99t70.5 91q47 53 69.5 92t22.5 99q0 106 -66.5 163.5t-181.5 57.5t-190.5 -75t-75.5 -192v-1093 q0 -35 -22.5 -56.5t-59.5 -21.5q-32 0 -55 22.5t-23 55.5z" />
<glyph unicode="&#xe0;" d="M125 559q0 160 74.5 291t205 205.5t289.5 74.5q160 0 290 -74.5t205 -205.5t75 -291v-481q0 -33 -22.5 -55.5t-57.5 -22.5t-57.5 21.5t-22.5 56.5v123q-72 -98 -182.5 -154.5t-243.5 -56.5q-156 0 -282 74.5t-198.5 204.5t-72.5 290zM279 559q0 -121 54 -218 t149.5 -152.5t211.5 -55.5q117 0 211 55.5t148.5 152.5t54.5 218t-54.5 218t-148.5 153.5t-211 56.5t-212 -56.5t-149 -153.5t-54 -218zM387 1610q0 35 22.5 58.5t55.5 23.5t57 -25l230 -231q20 -18 20 -52q0 -35 -22.5 -58t-57.5 -23q-30 -1 -53 22l-232 229q-20 20 -20 56 z" />
<glyph unicode="&#xe1;" d="M125 559q0 160 74.5 291t205 205.5t289.5 74.5q160 0 290 -74.5t205 -205.5t75 -291v-481q0 -33 -22.5 -55.5t-57.5 -22.5t-57.5 21.5t-22.5 56.5v123q-72 -98 -182.5 -154.5t-243.5 -56.5q-156 0 -282 74.5t-198.5 204.5t-72.5 290zM279 559q0 -121 54 -218 t149.5 -152.5t211.5 -55.5q117 0 211 55.5t148.5 152.5t54.5 218t-54.5 218t-148.5 153.5t-211 56.5t-212 -56.5t-149 -153.5t-54 -218zM600 1370q0 33 19 53l231 232q23 23 55 22q35 0 57.5 -23.5t22.5 -58.5q0 -33 -22 -53l-230 -231q-20 -20 -53 -21q-35 0 -57.5 23.5 t-22.5 56.5z" />
<glyph unicode="&#xe2;" d="M125 559q0 160 74.5 291t205 205.5t289.5 74.5q160 0 290 -74.5t205 -205.5t75 -291v-481q0 -33 -22.5 -55.5t-57.5 -22.5t-57.5 21.5t-22.5 56.5v123q-72 -98 -182.5 -154.5t-243.5 -56.5q-156 0 -282 74.5t-198.5 204.5t-72.5 290zM279 559q0 -121 54 -218 t149.5 -152.5t211.5 -55.5q117 0 211 55.5t148.5 152.5t54.5 218t-54.5 218t-148.5 153.5t-211 56.5t-212 -56.5t-149 -153.5t-54 -218zM375 1370q0 43 39 70l242 159q16 10 38 11q20 0 41 -11l240 -159q39 -27 39 -70q0 -31 -22.5 -51.5t-57.5 -20.5q-23 0 -49 17l-191 131 l-190 -131q-23 -16 -47 -17q-35 0 -58.5 19.5t-23.5 52.5z" />
<glyph unicode="&#xe3;" d="M125 559q0 160 74.5 291t205 205.5t289.5 74.5q160 0 290 -74.5t205 -205.5t75 -291v-481q0 -33 -22.5 -55.5t-57.5 -22.5t-57.5 21.5t-22.5 56.5v123q-72 -98 -182.5 -154.5t-243.5 -56.5q-156 0 -282 74.5t-198.5 204.5t-72.5 290zM279 559q0 -121 54 -218 t149.5 -152.5t211.5 -55.5q117 0 211 55.5t148.5 152.5t54.5 218t-54.5 218t-148.5 153.5t-211 56.5t-212 -56.5t-149 -153.5t-54 -218zM317 1354q0 25 15 45q51 66 118.5 101.5t141.5 35.5q55 0 96 -16.5t94 -49.5q47 -29 70.5 -39t54.5 -10q63 0 101 41q31 35 63 35 q16 0 33 -10q37 -18 37 -57q0 -23 -17 -46q-82 -100 -215 -100q-57 0 -102 18.5t-96 49.5q-43 27 -70 37t-53 10q-76 0 -135 -72q-12 -18 -31 -28.5t-37 -10.5t-35 10q-14 8 -23.5 23.5t-9.5 32.5z" />
<glyph unicode="&#xe4;" d="M125 559q0 160 74.5 291t205 205.5t289.5 74.5q160 0 290 -74.5t205 -205.5t75 -291v-481q0 -33 -22.5 -55.5t-57.5 -22.5t-57.5 21.5t-22.5 56.5v123q-72 -98 -182.5 -154.5t-243.5 -56.5q-156 0 -282 74.5t-198.5 204.5t-72.5 290zM279 559q0 -121 54 -218 t149.5 -152.5t211.5 -55.5q117 0 211 55.5t148.5 152.5t54.5 218t-54.5 218t-148.5 153.5t-211 56.5t-212 -56.5t-149 -153.5t-54 -218zM369 1438q0 47 32.5 79.5t79.5 32.5t80 -32.5t33 -79.5t-33 -80t-80 -33t-79.5 33t-32.5 80zM797 1438q0 47 32.5 79.5t79.5 32.5 t80 -32.5t33 -79.5t-33 -80t-80 -33t-79.5 33t-32.5 80z" />
<glyph unicode="&#xe5;" d="M125 559q0 160 74.5 291t205 205.5t289.5 74.5q160 0 290 -74.5t205 -205.5t75 -291v-481q0 -33 -22.5 -55.5t-57.5 -22.5t-57.5 21.5t-22.5 56.5v123q-72 -98 -182.5 -154.5t-243.5 -56.5q-156 0 -282 74.5t-198.5 204.5t-72.5 290zM279 559q0 -121 54 -218 t149.5 -152.5t211.5 -55.5q117 0 211 55.5t148.5 152.5t54.5 218t-54.5 218t-148.5 153.5t-211 56.5t-212 -56.5t-149 -153.5t-54 -218zM494 1415q0 86 58 143.5t142 57.5q86 0 143.5 -57.5t57.5 -143.5t-57.5 -143.5t-143.5 -57.5q-84 0 -142 57.5t-58 143.5zM588 1415 q0 -45 30.5 -76.5t75.5 -31.5t77 31.5t32 76.5q0 47 -32 78t-77 31t-75.5 -32t-30.5 -77z" />
<glyph unicode="&#xe6;" horiz-adv-x="2244" d="M125 559q0 160 74.5 291t205 205.5t289.5 74.5q162 0 294 -77.5t204 -210.5q63 135 183 211.5t274 76.5q153 0 270 -70.5t180.5 -195.5t63.5 -284q0 -33 -20.5 -52.5t-53.5 -19.5h-825v-14q20 -162 134.5 -262.5t280.5 -100.5q80 0 151 24.5t118 65.5q27 20 55 21 q29 0 45 -17q29 -25 29 -55q0 -25 -25 -47q-68 -57 -172 -95t-201 -38q-127 0 -233.5 48t-181.5 136v-96q0 -33 -22.5 -55.5t-57.5 -22.5t-57.5 21.5t-22.5 56.5v123q-72 -98 -182.5 -154.5t-243.5 -56.5q-156 0 -282 74.5t-198.5 204.5t-72.5 290zM279 559q0 -121 54 -218 t149.5 -152.5t211.5 -55.5q117 0 211 55.5t148.5 152.5t54.5 218t-54.5 218t-148.5 153.5t-211 56.5t-212 -56.5t-149 -153.5t-54 -218zM1266 639h751q-16 158 -115.5 254t-252.5 96q-156 0 -258.5 -96t-124.5 -254z" />
<glyph unicode="&#xe7;" horiz-adv-x="1220" d="M125 559q0 164 69.5 294t192.5 203.5t277 73.5q256 0 415 -196q16 -18 17 -43q0 -33 -35 -57q-18 -12 -39 -13q-31 0 -59 31q-61 68 -135 101.5t-164 33.5q-113 0 -201 -54t-136 -152.5t-48 -221.5q0 -121 51 -218t143 -152.5t211 -55.5q164 0 264 88q27 23 56 23 q25 0 45 -17q28 -24 28 -55q0 -27 -20 -45q-123 -115 -305 -133l-29 -68q102 -27 146 -74t44 -116q0 -57 -36.5 -106.5t-100 -78t-141.5 -28.5q-106 0 -178 45t-72 106q0 31 22.5 53.5t53.5 22.5q39 0 71 -43q33 -49 105 -49q47 0 77.5 20.5t30.5 57.5q0 39 -24.5 61.5 t-81.5 36.5q-39 8 -59.5 23.5t-20.5 42.5q0 16 10 47l21 51q-135 20 -241.5 99t-165 199t-58.5 263z" />
<glyph unicode="&#xe8;" horiz-adv-x="1257" d="M125 559q0 166 68.5 296t190.5 202.5t278 72.5q151 0 268 -70.5t181.5 -195.5t64.5 -284q0 -33 -20.5 -52.5t-53.5 -19.5h-828q16 -168 131 -272.5t287 -104.5q74 0 148.5 25.5t120.5 64.5q27 20 55 21q23 0 45 -17q27 -25 26 -55q0 -27 -22 -47q-68 -57 -172.5 -95 t-200.5 -38q-164 0 -293 72.5t-201.5 202.5t-72.5 294zM279 639h749q-16 158 -114.5 254t-251.5 96q-156 0 -258.5 -96t-124.5 -254zM344 1610q0 35 22.5 58.5t55.5 23.5t57 -25l230 -231q20 -18 20 -52q0 -35 -22.5 -58t-57.5 -23q-30 -1 -53 22l-232 229q-20 20 -20 56z " />
<glyph unicode="&#xe9;" horiz-adv-x="1257" d="M125 559q0 166 68.5 296t190.5 202.5t278 72.5q151 0 268 -70.5t181.5 -195.5t64.5 -284q0 -33 -20.5 -52.5t-53.5 -19.5h-828q16 -168 131 -272.5t287 -104.5q74 0 148.5 25.5t120.5 64.5q27 20 55 21q23 0 45 -17q27 -25 26 -55q0 -27 -22 -47q-68 -57 -172.5 -95 t-200.5 -38q-164 0 -293 72.5t-201.5 202.5t-72.5 294zM279 639h749q-16 158 -114.5 254t-251.5 96q-156 0 -258.5 -96t-124.5 -254zM557 1370q0 33 19 53l231 232q23 23 55 22q35 0 57.5 -23.5t22.5 -58.5q0 -33 -22 -53l-230 -231q-20 -20 -53 -21q-35 0 -57.5 23.5 t-22.5 56.5z" />
<glyph unicode="&#xea;" horiz-adv-x="1257" d="M125 559q0 166 68.5 296t190.5 202.5t278 72.5q151 0 268 -70.5t181.5 -195.5t64.5 -284q0 -33 -20.5 -52.5t-53.5 -19.5h-828q16 -168 131 -272.5t287 -104.5q74 0 148.5 25.5t120.5 64.5q27 20 55 21q23 0 45 -17q27 -25 26 -55q0 -27 -22 -47q-68 -57 -172.5 -95 t-200.5 -38q-164 0 -293 72.5t-201.5 202.5t-72.5 294zM279 639h749q-16 158 -114.5 254t-251.5 96q-156 0 -258.5 -96t-124.5 -254zM332 1370q0 43 39 70l242 159q16 10 38 11q20 0 41 -11l240 -159q39 -27 39 -70q0 -31 -22.5 -51.5t-57.5 -20.5q-23 0 -49 17l-191 131 l-190 -131q-23 -16 -47 -17q-35 0 -58.5 19.5t-23.5 52.5z" />
<glyph unicode="&#xeb;" horiz-adv-x="1257" d="M125 559q0 166 68.5 296t190.5 202.5t278 72.5q151 0 268 -70.5t181.5 -195.5t64.5 -284q0 -33 -20.5 -52.5t-53.5 -19.5h-828q16 -168 131 -272.5t287 -104.5q74 0 148.5 25.5t120.5 64.5q27 20 55 21q23 0 45 -17q27 -25 26 -55q0 -27 -22 -47q-68 -57 -172.5 -95 t-200.5 -38q-164 0 -293 72.5t-201.5 202.5t-72.5 294zM279 639h749q-16 158 -114.5 254t-251.5 96q-156 0 -258.5 -96t-124.5 -254zM326 1438q0 47 32.5 79.5t79.5 32.5t80 -32.5t33 -79.5t-33 -80t-80 -33t-79.5 33t-32.5 80zM754 1438q0 47 32.5 79.5t79.5 32.5t80 -32.5 t33 -79.5t-33 -80t-80 -33t-79.5 33t-32.5 80z" />
<glyph unicode="&#xec;" horiz-adv-x="591" d="M-10 1610q0 35 22.5 58.5t55.5 23.5t57 -25l230 -231q20 -18 20 -52q0 -35 -22.5 -58t-57.5 -23q-30 -1 -53 22l-232 229q-20 20 -20 56zM217 80v960q0 35 22.5 57.5t57.5 22.5t56.5 -22.5t21.5 -57.5v-960q0 -35 -21.5 -57.5t-56.5 -22.5t-57.5 22.5t-22.5 57.5z" />
<glyph unicode="&#xed;" horiz-adv-x="591" d="M203 1370q0 33 19 53l231 232q23 23 55 22q35 0 57.5 -23.5t22.5 -58.5q0 -33 -22 -53l-230 -231q-20 -20 -53 -21q-35 0 -57.5 23.5t-22.5 56.5zM217 80v960q0 35 22.5 57.5t57.5 22.5t56.5 -22.5t21.5 -57.5v-960q0 -35 -21.5 -57.5t-56.5 -22.5t-57.5 22.5t-22.5 57.5 z" />
<glyph unicode="&#xee;" horiz-adv-x="591" d="M8 1370q0 41 35 70l219 159q14 10 35 11q16 0 37 -11l215 -159q35 -27 35 -70q0 -31 -19.5 -51.5t-52.5 -20.5q-18 0 -45 17l-170 131l-172 -131q-20 -16 -43 -17q-31 0 -52.5 20.5t-21.5 51.5zM217 80v960q0 35 22.5 57.5t57.5 22.5t56.5 -22.5t21.5 -57.5v-960 q0 -35 -21.5 -57.5t-56.5 -22.5t-57.5 22.5t-22.5 57.5z" />
<glyph unicode="&#xef;" horiz-adv-x="591" d="M-12 1487q0 45 33.5 77.5t80.5 32.5q45 0 79 -32.5t34 -77.5q0 -47 -32.5 -81t-80.5 -34q-47 0 -80.5 34t-33.5 81zM217 80v960q0 35 22.5 57.5t57.5 22.5t56.5 -22.5t21.5 -57.5v-960q0 -35 -21.5 -57.5t-56.5 -22.5t-57.5 22.5t-22.5 57.5zM377 1487q0 45 32.5 77.5 t79.5 32.5q45 0 79 -32.5t34 -77.5q0 -47 -32.5 -81t-80.5 -34q-47 0 -79.5 34t-32.5 81z" />
<glyph unicode="&#xf0;" horiz-adv-x="1366" d="M125 528q0 154 67.5 276t187.5 189.5t273 67.5q156 0 273.5 -78t173.5 -211q-12 248 -109.5 393.5t-318.5 247.5l-72 -141q-14 -31 -47 -31q-16 0 -31 8q-31 16 -30 45q0 14 8 29l67 133q-33 14 -106 39q-68 25 -68 68q0 6 4 22q14 41 60 41q14 0 43 -8q45 -14 127 -47 l57 115q14 33 45 32q16 0 31 -8q33 -18 33 -47q0 -8 -9 -29l-55 -108q182 -86 288.5 -194.5t155 -255t50.5 -349.5v-168q0 -164 -72 -294t-197 -202.5t-284 -72.5q-158 0 -282 68.5t-193.5 191.5t-69.5 278zM279 528q0 -115 50 -205t139 -140t202 -50q114 0 205.5 50 t142.5 140.5t51 204.5q0 113 -51 202t-142.5 138.5t-205.5 49.5q-113 0 -202 -49.5t-139 -138.5t-50 -202z" />
<glyph unicode="&#xf1;" d="M184 78v962q0 35 22.5 57.5t57.5 22.5t56.5 -22.5t21.5 -57.5v-69q68 76 164 119t209 43q145 0 261 -61.5t181.5 -179.5t65.5 -282v-532q0 -33 -22.5 -55.5t-55.5 -22.5q-35 0 -57.5 22.5t-22.5 55.5v532q0 182 -101.5 277.5t-265.5 95.5q-100 0 -181 -39t-128 -107.5 t-47 -152.5v-606q0 -35 -21.5 -56.5t-56.5 -21.5t-57.5 21.5t-22.5 56.5zM317 1354q0 25 15 45q51 66 118.5 101.5t141.5 35.5q55 0 96 -16.5t94 -49.5q47 -29 70.5 -39t54.5 -10q63 0 101 41q31 35 63 35q16 0 33 -10q37 -18 37 -57q0 -23 -17 -46q-82 -100 -215 -100 q-57 0 -102 18.5t-96 49.5q-43 27 -70 37t-53 10q-76 0 -135 -72q-12 -18 -31 -28.5t-37 -10.5t-35 10q-14 8 -23.5 23.5t-9.5 32.5z" />
<glyph unicode="&#xf2;" d="M125 559q0 162 73.5 293t203.5 204.5t292 73.5t291 -73.5t204 -204.5t75 -293t-74 -292t-204 -203.5t-292 -73.5t-292 73.5t-203.5 203.5t-73.5 292zM279 559q0 -121 54 -218t149.5 -152.5t211.5 -55.5q119 0 213 55.5t147.5 152.5t53.5 218q0 123 -53.5 220.5 t-147.5 152.5t-213 55q-117 0 -212 -55t-149 -152.5t-54 -220.5zM387 1610q0 35 22.5 58.5t55.5 23.5t57 -25l230 -231q20 -18 20 -52q0 -35 -22.5 -58t-57.5 -23q-30 -1 -53 22l-232 229q-20 20 -20 56z" />
<glyph unicode="&#xf3;" d="M125 559q0 162 73.5 293t203.5 204.5t292 73.5t291 -73.5t204 -204.5t75 -293t-74 -292t-204 -203.5t-292 -73.5t-292 73.5t-203.5 203.5t-73.5 292zM279 559q0 -121 54 -218t149.5 -152.5t211.5 -55.5q119 0 213 55.5t147.5 152.5t53.5 218q0 123 -53.5 220.5 t-147.5 152.5t-213 55q-117 0 -212 -55t-149 -152.5t-54 -220.5zM600 1370q0 33 19 53l231 232q23 23 55 22q35 0 57.5 -23.5t22.5 -58.5q0 -33 -22 -53l-230 -231q-20 -20 -53 -21q-35 0 -57.5 23.5t-22.5 56.5z" />
<glyph unicode="&#xf4;" d="M125 559q0 162 73.5 293t203.5 204.5t292 73.5t291 -73.5t204 -204.5t75 -293t-74 -292t-204 -203.5t-292 -73.5t-292 73.5t-203.5 203.5t-73.5 292zM279 559q0 -121 54 -218t149.5 -152.5t211.5 -55.5q119 0 213 55.5t147.5 152.5t53.5 218q0 123 -53.5 220.5 t-147.5 152.5t-213 55q-117 0 -212 -55t-149 -152.5t-54 -220.5zM375 1370q0 43 39 70l242 159q16 10 38 11q20 0 41 -11l240 -159q39 -27 39 -70q0 -31 -22.5 -51.5t-57.5 -20.5q-23 0 -49 17l-191 131l-190 -131q-23 -16 -47 -17q-35 0 -58.5 19.5t-23.5 52.5z" />
<glyph unicode="&#xf5;" d="M125 559q0 162 73.5 293t203.5 204.5t292 73.5t291 -73.5t204 -204.5t75 -293t-74 -292t-204 -203.5t-292 -73.5t-292 73.5t-203.5 203.5t-73.5 292zM279 559q0 -121 54 -218t149.5 -152.5t211.5 -55.5q119 0 213 55.5t147.5 152.5t53.5 218q0 123 -53.5 220.5 t-147.5 152.5t-213 55q-117 0 -212 -55t-149 -152.5t-54 -220.5zM317 1354q0 25 15 45q51 66 118.5 101.5t141.5 35.5q55 0 96 -16.5t94 -49.5q47 -29 70.5 -39t54.5 -10q63 0 101 41q31 35 63 35q16 0 33 -10q37 -18 37 -57q0 -23 -17 -46q-82 -100 -215 -100 q-57 0 -102 18.5t-96 49.5q-43 27 -70 37t-53 10q-76 0 -135 -72q-12 -18 -31 -28.5t-37 -10.5t-35 10q-14 8 -23.5 23.5t-9.5 32.5z" />
<glyph unicode="&#xf6;" d="M125 559q0 162 73.5 293t203.5 204.5t292 73.5t291 -73.5t204 -204.5t75 -293t-74 -292t-204 -203.5t-292 -73.5t-292 73.5t-203.5 203.5t-73.5 292zM279 559q0 -121 54 -218t149.5 -152.5t211.5 -55.5q119 0 213 55.5t147.5 152.5t53.5 218q0 123 -53.5 220.5 t-147.5 152.5t-213 55q-117 0 -212 -55t-149 -152.5t-54 -220.5zM369 1438q0 47 32.5 79.5t79.5 32.5t80 -32.5t33 -79.5t-33 -80t-80 -33t-79.5 33t-32.5 80zM797 1438q0 47 32.5 79.5t79.5 32.5t80 -32.5t33 -79.5t-33 -80t-80 -33t-79.5 33t-32.5 80z" />
<glyph unicode="&#xf7;" horiz-adv-x="960" d="M80 721q0 33 22.5 55.5t57.5 22.5h641q35 0 57.5 -22.5t22.5 -55.5q0 -35 -22.5 -57.5t-57.5 -22.5h-641q-35 0 -57.5 22.5t-22.5 57.5zM379 420q0 41 29.5 70.5t70.5 29.5t70 -29.5t29 -70.5q0 -43 -28 -72t-71 -29q-41 0 -70.5 30t-29.5 71zM379 1020q0 41 29.5 70.5 t70.5 29.5t70 -29.5t29 -70.5t-28 -69.5t-71 -28.5q-41 0 -70.5 28.5t-29.5 69.5z" />
<glyph unicode="&#xf8;" horiz-adv-x="1433" d="M125 25q0 25 18 43l131 131q-115 154 -114 356q0 162 73.5 293t203.5 204.5t292 73.5q106 0 199.5 -31.5t167.5 -93.5l104 103q16 20 47 20q29 0 44.5 -19.5t15.5 -45.5q0 -27 -15 -41l-108 -109q55 -72 84.5 -163t29.5 -191q0 -162 -73.5 -292t-203.5 -203.5t-292 -73.5 q-211 0 -367 123l-129 -129q-18 -18 -45 -19q-27 0 -45 19.5t-18 44.5zM313 555q0 -150 80 -258l598 596q-109 90 -262 90q-117 0 -212 -55.5t-149.5 -152.5t-54.5 -220zM477 211q111 -82 252 -82q119 0 213 55.5t147.5 152.5t53.5 218q0 139 -70 248z" />
<glyph unicode="&#xf9;" d="M164 510v532q0 33 22.5 55.5t55.5 22.5q35 0 57.5 -22.5t22.5 -55.5v-532q0 -182 101 -277.5t265 -95.5q100 0 181 39t128 107.5t47 152.5v606q0 35 21.5 56.5t56.5 21.5t57.5 -21.5t22.5 -56.5v-962q0 -35 -22.5 -57.5t-57.5 -22.5t-56.5 22.5t-21.5 57.5v70 q-68 -76 -164 -119t-208 -43q-145 0 -261 61.5t-181.5 179t-65.5 281.5zM387 1610q0 35 22.5 58.5t55.5 23.5t57 -25l230 -231q20 -18 20 -52q0 -35 -22.5 -58t-57.5 -23q-30 -1 -53 22l-232 229q-20 20 -20 56z" />
<glyph unicode="&#xfa;" d="M164 510v532q0 33 22.5 55.5t55.5 22.5q35 0 57.5 -22.5t22.5 -55.5v-532q0 -182 101 -277.5t265 -95.5q100 0 181 39t128 107.5t47 152.5v606q0 35 21.5 56.5t56.5 21.5t57.5 -21.5t22.5 -56.5v-962q0 -35 -22.5 -57.5t-57.5 -22.5t-56.5 22.5t-21.5 57.5v70 q-68 -76 -164 -119t-208 -43q-145 0 -261 61.5t-181.5 179t-65.5 281.5zM600 1370q0 33 19 53l231 232q23 23 55 22q35 0 57.5 -23.5t22.5 -58.5q0 -33 -22 -53l-230 -231q-20 -20 -53 -21q-35 0 -57.5 23.5t-22.5 56.5z" />
<glyph unicode="&#xfb;" d="M164 510v532q0 33 22.5 55.5t55.5 22.5q35 0 57.5 -22.5t22.5 -55.5v-532q0 -182 101 -277.5t265 -95.5q100 0 181 39t128 107.5t47 152.5v606q0 35 21.5 56.5t56.5 21.5t57.5 -21.5t22.5 -56.5v-962q0 -35 -22.5 -57.5t-57.5 -22.5t-56.5 22.5t-21.5 57.5v70 q-68 -76 -164 -119t-208 -43q-145 0 -261 61.5t-181.5 179t-65.5 281.5zM375 1370q0 43 39 70l242 159q16 10 38 11q20 0 41 -11l240 -159q39 -27 39 -70q0 -31 -22.5 -51.5t-57.5 -20.5q-23 0 -49 17l-191 131l-190 -131q-23 -16 -47 -17q-35 0 -58.5 19.5t-23.5 52.5z" />
<glyph unicode="&#xfc;" d="M164 510v532q0 33 22.5 55.5t55.5 22.5q35 0 57.5 -22.5t22.5 -55.5v-532q0 -182 101 -277.5t265 -95.5q100 0 181 39t128 107.5t47 152.5v606q0 35 21.5 56.5t56.5 21.5t57.5 -21.5t22.5 -56.5v-962q0 -35 -22.5 -57.5t-57.5 -22.5t-56.5 22.5t-21.5 57.5v70 q-68 -76 -164 -119t-208 -43q-145 0 -261 61.5t-181.5 179t-65.5 281.5zM369 1438q0 47 32.5 79.5t79.5 32.5t80 -32.5t33 -79.5t-33 -80t-80 -33t-79.5 33t-32.5 80zM797 1438q0 47 32.5 79.5t79.5 32.5t80 -32.5t33 -79.5t-33 -80t-80 -33t-79.5 33t-32.5 80z" />
<glyph unicode="&#xfd;" horiz-adv-x="1122" d="M39 1053q0 43 45 61q16 8 37 8q43 0 61 -43l400 -841l381 839q20 45 61 45q18 0 37 -8q47 -18 47 -59q0 -18 -8 -37l-664 -1458q-18 -47 -59 -47q-20 0 -37 8q-47 18 -47 61q0 18 8 37l203 449v2l-457 946q-8 16 -8 37zM481 1370q0 33 19 53l231 232q23 23 55 22 q35 0 57.5 -23.5t22.5 -58.5q0 -33 -22 -53l-230 -231q-20 -20 -53 -21q-35 0 -57.5 23.5t-22.5 56.5z" />
<glyph unicode="&#xfe;" horiz-adv-x="1447" d="M184 -399v1919q0 35 22.5 57t57.5 22t57.5 -22.5t20.5 -56.5l-8 -643q66 123 184.5 188t251.5 65q158 0 284 -72.5t197.5 -202.5t71.5 -296q0 -164 -70.5 -294t-196.5 -202.5t-286 -72.5q-143 0 -255 65.5t-173 180.5v-635q2 -35 -20.5 -57.5t-57.5 -22.5t-57.5 22.5 t-22.5 57.5zM340 559q0 -123 52 -220t146.5 -151.5t213.5 -54.5q120 0 214.5 54.5t147.5 151.5t53 220t-53 220.5t-147.5 152.5t-214.5 55q-119 0 -213.5 -55t-146.5 -152.5t-52 -220.5z" />
<glyph unicode="&#xff;" horiz-adv-x="1122" d="M39 1053q0 43 45 61q16 8 37 8q43 0 61 -43l400 -841l381 839q20 45 61 45q18 0 37 -8q47 -18 47 -59q0 -18 -8 -37l-664 -1458q-18 -47 -59 -47q-20 0 -37 8q-47 18 -47 61q0 18 8 37l203 449v2l-457 946q-8 16 -8 37zM250 1438q0 47 32.5 79.5t79.5 32.5t80 -32.5 t33 -79.5t-33 -80t-80 -33t-79.5 33t-32.5 80zM678 1438q0 47 32.5 79.5t79.5 32.5t80 -32.5t33 -79.5t-33 -80t-80 -33t-79.5 33t-32.5 80z" />
<glyph unicode="&#x100;" horiz-adv-x="1439" d="M39 80q0 20 6 35l602 1429q23 55 78 55t76 -55l604 -1431q8 -15 8 -33q0 -33 -23.5 -56.5t-56.5 -23.5q-53 0 -76 49l-137 332h-792l-138 -332q-16 -49 -73 -49q-35 0 -56.5 23.5t-21.5 56.5zM375 1896q0 33 22.5 53.5t57.5 20.5h530q33 0 56.5 -20.5t23.5 -53.5 t-23.5 -53.5t-56.5 -20.5h-530q-35 0 -57.5 20.5t-22.5 53.5zM385 518h680l-340 821z" />
<glyph unicode="&#x101;" d="M125 559q0 160 74.5 291t205 205.5t289.5 74.5q160 0 290 -74.5t205 -205.5t75 -291v-481q0 -33 -22.5 -55.5t-57.5 -22.5t-57.5 21.5t-22.5 56.5v123q-72 -98 -182.5 -154.5t-243.5 -56.5q-156 0 -282 74.5t-198.5 204.5t-72.5 290zM279 559q0 -121 54 -218 t149.5 -152.5t211.5 -55.5q117 0 211 55.5t148.5 152.5t54.5 218t-54.5 218t-148.5 153.5t-211 56.5t-212 -56.5t-149 -153.5t-54 -218zM348 1417q0 33 22.5 53.5t57.5 20.5h530q33 0 56.5 -20.5t23.5 -53.5t-23.5 -53.5t-56.5 -20.5h-530q-35 0 -57.5 20.5t-22.5 53.5z" />
<glyph unicode="&#x102;" horiz-adv-x="1439" d="M39 80q0 20 6 35l602 1429q23 55 78 55t76 -55l604 -1431q8 -15 8 -33q0 -33 -23.5 -56.5t-56.5 -23.5q-53 0 -76 49l-137 332h-792l-138 -332q-16 -49 -73 -49q-35 0 -56.5 23.5t-21.5 56.5zM385 518h680l-340 821zM399 2009q0 35 22.5 58.5t55.5 23.5q31 0 53.5 -21.5 t22.5 -52.5q0 -47 47 -80t118 -33q76 0 122 32t46 81q0 33 22.5 53.5t55.5 20.5t54.5 -23.5t21.5 -56.5q-4 -104 -97 -172t-225 -68q-86 0 -159.5 32t-116.5 86t-43 120z" />
<glyph unicode="&#x103;" d="M125 559q0 160 74.5 291t205 205.5t289.5 74.5q160 0 290 -74.5t205 -205.5t75 -291v-481q0 -33 -22.5 -55.5t-57.5 -22.5t-57.5 21.5t-22.5 56.5v123q-72 -98 -182.5 -154.5t-243.5 -56.5q-156 0 -282 74.5t-198.5 204.5t-72.5 290zM279 559q0 -121 54 -218 t149.5 -152.5t211.5 -55.5q117 0 211 55.5t148.5 152.5t54.5 218t-54.5 218t-148.5 153.5t-211 56.5t-212 -56.5t-149 -153.5t-54 -218zM373 1530q0 35 22.5 58.5t55.5 23.5q31 0 53.5 -21.5t22.5 -52.5q0 -47 47 -80t118 -33q76 0 122 32t46 81q0 33 22.5 53.5t55.5 20.5 t54.5 -23.5t21.5 -56.5q-4 -104 -97 -172t-225 -68q-86 0 -159.5 32t-116.5 86t-43 120z" />
<glyph unicode="&#x104;" horiz-adv-x="1439" d="M39 80q0 20 6 35l602 1429q23 55 78 55t76 -55l604 -1431q8 -14 8 -33q0 -27 -16 -49q10 -16 10 -39q0 -82 -127 -174q-33 -25 -33 -66q0 -35 23.5 -57.5t56.5 -22.5q25 0 43 13l70 51q23 16 47 16q35 0 57.5 -23.5t22.5 -56.5q0 -37 -27 -63l-82 -53q-61 -43 -131 -43 q-98 0 -169 70.5t-71 168.5q0 113 101 197q53 39 69 80l7 8l-7 12l-137 332h-792l-138 -332q-16 -49 -73 -49q-35 0 -56.5 23.5t-21.5 56.5zM385 518h680l-340 821z" />
<glyph unicode="&#x105;" d="M125 559q0 160 74.5 291t205 205.5t289.5 74.5q160 0 290 -74.5t205 -205.5t75 -291v-481q0 -33 -25 -58h8q33 0 55.5 -21.5t24.5 -55.5q0 -82 -127 -174q-33 -25 -33 -66q0 -35 23.5 -57.5t56.5 -22.5q25 0 43 12l70 52q23 16 47 16q35 0 57.5 -23.5t22.5 -56.5 q0 -37 -27 -63l-82 -54q-61 -43 -131 -43q-98 0 -168.5 71t-70.5 169q0 113 100 197q53 39 70 80q4 8 16 20h-10q-35 0 -57.5 21.5t-22.5 56.5v123q-72 -98 -182.5 -154.5t-243.5 -56.5q-156 0 -282 74.5t-198.5 204.5t-72.5 290zM279 559q0 -121 54 -218t149.5 -152.5 t211.5 -55.5q117 0 211 55.5t148.5 152.5t54.5 218t-54.5 218t-148.5 153.5t-211 56.5t-212 -56.5t-149 -153.5t-54 -218z" />
<glyph unicode="&#x106;" horiz-adv-x="1579" d="M127 801q0 221 106.5 409.5t289 299t401.5 110.5q147 0 268 -43t233 -137q23 -16 23 -47q0 -16 -8 -29.5t-23 -20.5q-4 -14 -18.5 -22t-30.5 -8q-31 0 -51 18q-80 72 -174 104.5t-219 32.5q-172 0 -319.5 -91t-234.5 -244.5t-87 -331.5q0 -182 86 -336t233.5 -244 t321.5 -90q223 0 403 143q23 16 45 17q31 0 53.5 -21.5t22.5 -56.5q0 -33 -23 -57q-193 -176 -501 -176q-217 0 -399.5 110.5t-290 299t-107.5 411.5zM819 1849q0 33 19 53l231 232q23 23 55 22q35 0 57.5 -23.5t22.5 -58.5q0 -33 -22 -53l-230 -231q-20 -20 -53 -21 q-35 0 -57.5 23.5t-22.5 56.5z" />
<glyph unicode="&#x107;" horiz-adv-x="1220" d="M125 559q0 164 69.5 294t192.5 203.5t277 73.5q256 0 415 -196q16 -18 17 -43q0 -33 -35 -57q-18 -12 -39 -13q-31 0 -59 31q-61 68 -135 101.5t-164 33.5q-113 0 -201 -54t-136 -152.5t-48 -221.5q0 -121 51 -218t143 -152.5t211 -55.5q164 0 264 88q27 23 56 23 q25 0 45 -17q29 -25 28 -55q0 -27 -20 -45q-147 -137 -373 -137q-160 0 -287 74.5t-199.5 204.5t-72.5 290zM569 1370q0 33 19 53l231 232q23 23 55 22q35 0 57.5 -23.5t22.5 -58.5q0 -33 -22 -53l-230 -231q-20 -20 -53 -21q-35 0 -57.5 23.5t-22.5 56.5z" />
<glyph unicode="&#x108;" horiz-adv-x="1579" d="M127 801q0 221 106.5 409.5t289 299t401.5 110.5q147 0 268 -43t233 -137q23 -16 23 -47q0 -16 -8 -29.5t-23 -20.5q-4 -14 -18.5 -22t-30.5 -8q-31 0 -51 18q-80 72 -174 104.5t-219 32.5q-172 0 -319.5 -91t-234.5 -244.5t-87 -331.5q0 -182 86 -336t233.5 -244 t321.5 -90q223 0 403 143q23 16 45 17q31 0 53.5 -21.5t22.5 -56.5q0 -33 -23 -57q-193 -176 -501 -176q-217 0 -399.5 110.5t-290 299t-107.5 411.5zM594 1849q0 43 39 70l242 159q16 10 38 11q20 0 41 -11l240 -159q39 -27 39 -70q0 -31 -22.5 -51.5t-57.5 -20.5 q-23 0 -49 17l-191 131l-190 -131q-23 -16 -47 -17q-35 0 -58.5 19.5t-23.5 52.5z" />
<glyph unicode="&#x109;" horiz-adv-x="1220" d="M125 559q0 164 69.5 294t192.5 203.5t277 73.5q256 0 415 -196q16 -18 17 -43q0 -33 -35 -57q-18 -12 -39 -13q-31 0 -59 31q-61 68 -135 101.5t-164 33.5q-113 0 -201 -54t-136 -152.5t-48 -221.5q0 -121 51 -218t143 -152.5t211 -55.5q164 0 264 88q27 23 56 23 q25 0 45 -17q29 -25 28 -55q0 -27 -20 -45q-147 -137 -373 -137q-160 0 -287 74.5t-199.5 204.5t-72.5 290zM344 1370q0 43 39 70l242 159q16 10 38 11q20 0 41 -11l240 -159q39 -27 39 -70q0 -31 -22.5 -51.5t-57.5 -20.5q-23 0 -49 17l-191 131l-190 -131q-23 -16 -47 -17 q-35 0 -58.5 19.5t-23.5 52.5z" />
<glyph unicode="&#x10a;" horiz-adv-x="1579" d="M127 801q0 221 106.5 409.5t289 299t401.5 110.5q147 0 268 -43t233 -137q23 -16 23 -47q0 -16 -8 -29.5t-23 -20.5q-4 -14 -18.5 -22t-30.5 -8q-31 0 -51 18q-80 72 -174 104.5t-219 32.5q-172 0 -319.5 -91t-234.5 -244.5t-87 -331.5q0 -182 86 -336t233.5 -244 t321.5 -90q223 0 403 143q23 16 45 17q31 0 53.5 -21.5t22.5 -56.5q0 -33 -23 -57q-193 -176 -501 -176q-217 0 -399.5 110.5t-290 299t-107.5 411.5zM801 1925q0 49 33 79.5t80 30.5q45 0 77.5 -30.5t32.5 -79.5q0 -47 -32.5 -80t-79.5 -33t-79 33t-32 80z" />
<glyph unicode="&#x10b;" horiz-adv-x="1220" d="M125 559q0 164 69.5 294t192.5 203.5t277 73.5q256 0 415 -196q16 -18 17 -43q0 -33 -35 -57q-18 -12 -39 -13q-31 0 -59 31q-61 68 -135 101.5t-164 33.5q-113 0 -201 -54t-136 -152.5t-48 -221.5q0 -121 51 -218t143 -152.5t211 -55.5q164 0 264 88q27 23 56 23 q25 0 45 -17q29 -25 28 -55q0 -27 -20 -45q-147 -137 -373 -137q-160 0 -287 74.5t-199.5 204.5t-72.5 290zM551 1446q0 49 33 79.5t80 30.5q45 0 77.5 -30.5t32.5 -79.5q0 -47 -32.5 -80t-79.5 -33t-79 33t-32 80z" />
<glyph unicode="&#x10c;" horiz-adv-x="1579" d="M127 801q0 221 106.5 409.5t289 299t401.5 110.5q147 0 268 -43t233 -137q23 -16 23 -47q0 -16 -8 -29.5t-23 -20.5q-4 -14 -18.5 -22t-30.5 -8q-31 0 -51 18q-80 72 -174 104.5t-219 32.5q-172 0 -319.5 -91t-234.5 -244.5t-87 -331.5q0 -182 86 -336t233.5 -244 t321.5 -90q223 0 403 143q23 16 45 17q31 0 53.5 -21.5t22.5 -56.5q0 -33 -23 -57q-193 -176 -501 -176q-217 0 -399.5 110.5t-290 299t-107.5 411.5zM594 2025q0 27 17.5 43.5t45.5 16.5q31 0 66 -23l190 -129l191 127q35 25 68 25q29 0 45 -17.5t16 -42.5q0 -41 -39 -67 l-240 -160q-14 -10 -41 -10q-26 0 -38 10l-242 160q-39 27 -39 67z" />
<glyph unicode="&#x10d;" horiz-adv-x="1220" d="M125 559q0 164 69.5 294t192.5 203.5t277 73.5q256 0 415 -196q16 -18 17 -43q0 -33 -35 -57q-18 -12 -39 -13q-31 0 -59 31q-61 68 -135 101.5t-164 33.5q-113 0 -201 -54t-136 -152.5t-48 -221.5q0 -121 51 -218t143 -152.5t211 -55.5q164 0 264 88q27 23 56 23 q25 0 45 -17q29 -25 28 -55q0 -27 -20 -45q-147 -137 -373 -137q-160 0 -287 74.5t-199.5 204.5t-72.5 290zM344 1546q0 27 17.5 43.5t45.5 16.5q31 0 66 -23l190 -129l191 127q35 25 68 25q29 0 45 -17.5t16 -42.5q0 -41 -39 -67l-240 -160q-14 -10 -41 -10q-26 0 -38 10 l-242 160q-39 27 -39 67z" />
<glyph unicode="&#x10e;" horiz-adv-x="1576" d="M205 80v1440q0 35 22.5 57t57.5 22h368q231 0 413.5 -102t284 -283.5t101.5 -412.5t-101.5 -413.5t-283.5 -285t-414 -102.5h-368q-35 0 -57.5 22.5t-22.5 57.5zM365 143h288q186 0 331.5 85t227.5 234.5t82 338.5q0 188 -82 337.5t-227 233.5t-332 84h-288v-1313z M471 2025q0 27 17.5 43.5t45.5 16.5q31 0 66 -23l190 -129l191 127q35 25 68 25q29 0 45 -17.5t16 -42.5q0 -41 -39 -67l-240 -160q-14 -10 -41 -10q-26 0 -38 10l-242 160q-39 27 -39 67z" />
<glyph unicode="&#x10f;" horiz-adv-x="1617" d="M125 561q0 160 72.5 290t198.5 204.5t282 74.5q133 0 243.5 -56t182.5 -154v600q0 35 22.5 57t57.5 22t56.5 -22.5t21.5 -56.5v-459q2 -7 2 -19v-481q0 -160 -75 -291t-205 -205.5t-290 -74.5t-290 74.5t-204.5 205.5t-74.5 291zM279 561q0 -121 54 -218t149.5 -153.5 t211.5 -56.5q117 0 211 56.5t148.5 153.5t54.5 218q0 35 -2 51q-2 4 -2 11q-20 160 -134 262t-276 102q-117 0 -212 -55t-149 -152.5t-54 -218.5zM1374 1116q0 25 33 76q27 39 43.5 75t20.5 81q2 27 -2 46t-15 46q-6 16 -12 38.5t-6 47.5q0 41 25.5 60.5t68.5 19.5 q51 0 80 -43t29 -111q0 -14 -4 -47q-10 -70 -49.5 -147.5t-86.5 -131t-80 -53.5q-20 0 -32.5 11.5t-12.5 31.5z" />
<glyph unicode="&#x110;" horiz-adv-x="1576" d="M0 801q0 33 20.5 51t53.5 18h131v650q0 35 22.5 57t57.5 22h368q232 0 414 -102t283.5 -283.5t101.5 -412.5t-101.5 -413.5t-283.5 -285t-414 -102.5h-368q-35 0 -57.5 22.5t-22.5 57.5v651h-131q-33 0 -53.5 18.5t-20.5 51.5zM365 143h288q187 0 332 85t227 234.5 t82 338.5q0 188 -82 337.5t-227 233.5t-332 84h-288v-586h307q35 0 55.5 -18t20.5 -51t-20.5 -51.5t-55.5 -18.5h-307v-588z" />
<glyph unicode="&#x111;" horiz-adv-x="1447" d="M125 561q0 160 72.5 290t198.5 204.5t282 74.5q133 0 243.5 -56t182.5 -154v352h-330q-33 0 -54.5 19.5t-21.5 47.5q0 31 20.5 48.5t55.5 17.5h330v115q0 35 22.5 57t57.5 22t56.5 -22.5t21.5 -56.5v-115h108q35 0 56.5 -17.5t21.5 -48.5q0 -29 -22.5 -48t-55.5 -19h-108 v-211q2 -6 2 -19v-481q0 -160 -75 -291t-205 -205.5t-290 -74.5t-290 74.5t-204.5 205.5t-74.5 291zM279 561q0 -121 54 -218t149.5 -153.5t211.5 -56.5q117 0 211 56.5t148.5 153.5t54.5 218q0 35 -2 51q-2 4 -2 11q-20 160 -134 262t-276 102q-117 0 -212 -55t-149 -152.5 t-54 -218.5z" />
<glyph unicode="&#x112;" horiz-adv-x="1417" d="M205 80v1440q0 35 23.5 57t56.5 22h960q35 0 57.5 -22.5t22.5 -54.5q0 -33 -22.5 -54.5t-57.5 -21.5h-880v-565h641q35 0 57 -22.5t22 -55.5t-23.5 -55.5t-55.5 -22.5h-641v-571h880q35 0 57.5 -21.5t22.5 -54.5t-22.5 -55.5t-57.5 -22.5h-960q-33 0 -56.5 23.5 t-23.5 56.5zM434 1896q0 33 22.5 53.5t57.5 20.5h530q33 0 56.5 -20.5t23.5 -53.5t-23.5 -53.5t-56.5 -20.5h-530q-35 0 -57.5 20.5t-22.5 53.5z" />
<glyph unicode="&#x113;" horiz-adv-x="1257" d="M125 559q0 166 68.5 296t190.5 202.5t278 72.5q151 0 268 -70.5t181.5 -195.5t64.5 -284q0 -33 -20.5 -52.5t-53.5 -19.5h-828q16 -168 131 -272.5t287 -104.5q74 0 148.5 25.5t120.5 64.5q27 20 55 21q23 0 45 -17q27 -25 26 -55q0 -27 -22 -47q-68 -57 -172.5 -95 t-200.5 -38q-164 0 -293 72.5t-201.5 202.5t-72.5 294zM279 639h749q-16 158 -114.5 254t-251.5 96q-156 0 -258.5 -96t-124.5 -254zM305 1417q0 33 22.5 53.5t57.5 20.5h530q33 0 56.5 -20.5t23.5 -53.5t-23.5 -53.5t-56.5 -20.5h-530q-35 0 -57.5 20.5t-22.5 53.5z" />
<glyph unicode="&#x114;" horiz-adv-x="1417" d="M205 80v1440q0 35 23.5 57t56.5 22h960q35 0 57.5 -22.5t22.5 -54.5q0 -33 -22.5 -54.5t-57.5 -21.5h-880v-565h641q35 0 57 -22.5t22 -55.5t-23.5 -55.5t-55.5 -22.5h-641v-571h880q35 0 57.5 -21.5t22.5 -54.5t-22.5 -55.5t-57.5 -22.5h-960q-33 0 -56.5 23.5 t-23.5 56.5zM459 2009q0 35 22.5 58.5t55.5 23.5q31 0 53.5 -21.5t22.5 -52.5q0 -47 47 -80t118 -33q76 0 122 32t46 81q0 33 22.5 53.5t55.5 20.5t54.5 -23.5t21.5 -56.5q-4 -104 -97 -172t-225 -68q-86 0 -159.5 32t-116.5 86t-43 120z" />
<glyph unicode="&#x115;" horiz-adv-x="1257" d="M125 559q0 166 68.5 296t190.5 202.5t278 72.5q151 0 268 -70.5t181.5 -195.5t64.5 -284q0 -33 -20.5 -52.5t-53.5 -19.5h-828q16 -168 131 -272.5t287 -104.5q74 0 148.5 25.5t120.5 64.5q27 20 55 21q23 0 45 -17q27 -25 26 -55q0 -27 -22 -47q-68 -57 -172.5 -95 t-200.5 -38q-164 0 -293 72.5t-201.5 202.5t-72.5 294zM279 639h749q-16 158 -114.5 254t-251.5 96q-156 0 -258.5 -96t-124.5 -254zM330 1530q0 35 22.5 58.5t55.5 23.5q31 0 53.5 -21.5t22.5 -52.5q0 -47 47 -80t118 -33q76 0 122 32t46 81q0 33 22.5 53.5t55.5 20.5 t54.5 -23.5t21.5 -56.5q-4 -104 -97 -172t-225 -68q-86 0 -159.5 32t-116.5 86t-43 120z" />
<glyph unicode="&#x116;" horiz-adv-x="1417" d="M205 80v1440q0 35 23.5 57t56.5 22h960q35 0 57.5 -22.5t22.5 -54.5q0 -33 -22.5 -54.5t-57.5 -21.5h-880v-565h641q35 0 57 -22.5t22 -55.5t-23.5 -55.5t-55.5 -22.5h-641v-571h880q35 0 57.5 -21.5t22.5 -54.5t-22.5 -55.5t-57.5 -22.5h-960q-33 0 -56.5 23.5 t-23.5 56.5zM667 1925q0 49 33 79.5t80 30.5q45 0 77.5 -30.5t32.5 -79.5q0 -47 -32.5 -80t-79.5 -33t-79 33t-32 80z" />
<glyph unicode="&#x117;" horiz-adv-x="1257" d="M125 559q0 166 68.5 296t190.5 202.5t278 72.5q151 0 268 -70.5t181.5 -195.5t64.5 -284q0 -33 -20.5 -52.5t-53.5 -19.5h-828q16 -168 131 -272.5t287 -104.5q74 0 148.5 25.5t120.5 64.5q27 20 55 21q23 0 45 -17q27 -25 26 -55q0 -27 -22 -47q-68 -57 -172.5 -95 t-200.5 -38q-164 0 -293 72.5t-201.5 202.5t-72.5 294zM279 639h749q-16 158 -114.5 254t-251.5 96q-156 0 -258.5 -96t-124.5 -254zM538 1446q0 49 33 79.5t80 30.5q45 0 77.5 -30.5t32.5 -79.5q0 -47 -32.5 -80t-79.5 -33t-79 33t-32 80z" />
<glyph unicode="&#x118;" horiz-adv-x="1417" d="M205 80v1440q0 35 23.5 57t56.5 22h960q35 0 57.5 -22.5t22.5 -54.5q0 -33 -22.5 -54.5t-57.5 -21.5h-880v-565h641q35 0 57 -22.5t22 -55.5t-23.5 -55.5t-55.5 -22.5h-641v-571h880q35 0 57.5 -21.5t22.5 -54.5q0 -37 -27 -60q27 -4 44.5 -25.5t19.5 -49.5 q0 -82 -127 -174q-33 -25 -33 -66q0 -35 23.5 -57.5t56.5 -22.5q25 0 43 12l70 52q23 16 47 16q35 0 57.5 -23.5t22.5 -56.5q0 -37 -27 -63l-82 -54q-61 -43 -131 -43q-98 0 -169 71t-71 169q0 113 101 197q53 39 69 80q4 8 17 20h-944q-33 0 -56.5 23.5t-23.5 56.5z" />
<glyph unicode="&#x119;" horiz-adv-x="1257" d="M125 559q0 166 68.5 296t190.5 202.5t278 72.5q151 0 268 -70.5t181.5 -195.5t64.5 -284q0 -33 -20.5 -52.5t-53.5 -19.5h-828q16 -168 131 -272.5t287 -104.5q47 0 109 14l20 7q90 27 140 69q27 20 55 21q23 0 45 -17q27 -25 26 -55q0 -27 -22 -47q-63 -55 -160 -90 q-20 -59 -119 -133q-33 -25 -32 -66q0 -35 23.5 -57.5t56.5 -22.5q25 0 43 13l69 51q23 16 47 16q35 0 57.5 -23.5t22.5 -56.5q0 -37 -26 -63l-82 -53q-61 -43 -131 -44q-98 0 -169 71t-71 169q0 86 59 158q-154 8 -274.5 81.5t-187 199.5t-66.5 286zM279 639h749 q-16 158 -114.5 254t-251.5 96q-156 0 -258.5 -96t-124.5 -254z" />
<glyph unicode="&#x11a;" horiz-adv-x="1417" d="M205 80v1440q0 35 23.5 57t56.5 22h960q35 0 57.5 -22.5t22.5 -54.5q0 -33 -22.5 -54.5t-57.5 -21.5h-880v-565h641q35 0 57 -22.5t22 -55.5t-23.5 -55.5t-55.5 -22.5h-641v-571h880q35 0 57.5 -21.5t22.5 -54.5t-22.5 -55.5t-57.5 -22.5h-960q-33 0 -56.5 23.5 t-23.5 56.5zM461 2025q0 27 17.5 43.5t45.5 16.5q31 0 66 -23l190 -129l191 127q35 25 68 25q29 0 45 -17.5t16 -42.5q0 -41 -39 -67l-240 -160q-14 -10 -41 -10q-26 0 -38 10l-242 160q-39 27 -39 67z" />
<glyph unicode="&#x11b;" horiz-adv-x="1257" d="M125 559q0 166 68.5 296t190.5 202.5t278 72.5q151 0 268 -70.5t181.5 -195.5t64.5 -284q0 -33 -20.5 -52.5t-53.5 -19.5h-828q16 -168 131 -272.5t287 -104.5q74 0 148.5 25.5t120.5 64.5q27 20 55 21q23 0 45 -17q27 -25 26 -55q0 -27 -22 -47q-68 -57 -172.5 -95 t-200.5 -38q-164 0 -293 72.5t-201.5 202.5t-72.5 294zM279 639h749q-16 158 -114.5 254t-251.5 96q-156 0 -258.5 -96t-124.5 -254zM332 1546q0 27 17.5 43.5t45.5 16.5q31 0 66 -23l190 -129l191 127q35 25 68 25q29 0 45 -17.5t16 -42.5q0 -41 -39 -67l-240 -160 q-14 -10 -41 -10q-26 0 -38 10l-242 160q-39 27 -39 67z" />
<glyph unicode="&#x11c;" horiz-adv-x="1579" d="M127 801q0 221 106.5 409.5t289 299t401.5 110.5q147 0 268 -43t233 -137q23 -16 23 -47q0 -16 -8 -29.5t-23 -20.5q-4 -14 -18.5 -23t-30.5 -9q-29 0 -51 20q-80 72 -174 104.5t-219 32.5q-172 0 -319.5 -91t-234.5 -244.5t-87 -331.5q0 -182 86 -336t233.5 -244 t321.5 -90q199 0 368 117v409h-319q-35 0 -57.5 20.5t-22.5 51.5t22.5 50.5t57.5 19.5h395q35 0 57.5 -21.5t22.5 -56.5v-508q0 -35 -23 -57q-190 -176 -501 -176q-217 0 -399.5 110.5t-290 299t-107.5 411.5zM582 1849q0 43 39 70l242 159q16 10 38 11q20 0 41 -11 l240 -159q39 -27 39 -70q0 -31 -22.5 -51.5t-57.5 -20.5q-23 0 -49 17l-191 131l-190 -131q-23 -16 -47 -17q-35 0 -58.5 19.5t-23.5 52.5z" />
<glyph unicode="&#x11d;" d="M125 559q0 166 73.5 296t203.5 202.5t292 72.5q164 0 293 -72.5t203 -202.5t74 -296v-418q0 -164 -73 -297t-202 -209.5t-291 -76.5q-158 0 -280.5 59t-206.5 166q-18 20 -18 47q0 31 28 53q20 14 45 15q18 0 37 -9.5t29 -23.5q61 -78 155.5 -121t212.5 -43 q115 0 208 56.5t146.5 157.5t53.5 232v93q-61 -117 -174 -183.5t-256 -66.5q-160 0 -286 72.5t-196.5 202.5t-70.5 294zM279 559q0 -123 53 -220t147 -151.5t215 -54.5q119 0 213 54.5t147.5 151.5t53.5 220t-53.5 220.5t-147.5 152.5t-213 55q-121 0 -215 -55t-147 -152.5 t-53 -220.5zM375 1370q0 43 39 70l242 159q16 10 38 11q20 0 41 -11l240 -159q39 -27 39 -70q0 -31 -22.5 -51.5t-57.5 -20.5q-23 0 -49 17l-191 131l-190 -131q-23 -16 -47 -17q-35 0 -58.5 19.5t-23.5 52.5z" />
<glyph unicode="&#x11e;" horiz-adv-x="1579" d="M127 801q0 221 106.5 409.5t289 299t401.5 110.5q147 0 268 -43t233 -137q23 -16 23 -47q0 -16 -8 -29.5t-23 -20.5q-4 -14 -18.5 -23t-30.5 -9q-29 0 -51 20q-80 72 -174 104.5t-219 32.5q-172 0 -319.5 -91t-234.5 -244.5t-87 -331.5q0 -182 86 -336t233.5 -244 t321.5 -90q199 0 368 117v409h-319q-35 0 -57.5 20.5t-22.5 51.5t22.5 50.5t57.5 19.5h395q35 0 57.5 -21.5t22.5 -56.5v-508q0 -35 -23 -57q-190 -176 -501 -176q-217 0 -399.5 110.5t-290 299t-107.5 411.5zM580 2009q0 35 22.5 58.5t55.5 23.5q31 0 53.5 -21.5 t22.5 -52.5q0 -47 47 -80t118 -33q76 0 122 32t46 81q0 33 22.5 53.5t55.5 20.5t54.5 -23.5t21.5 -56.5q-4 -104 -97 -172t-225 -68q-86 0 -159.5 32t-116.5 86t-43 120z" />
<glyph unicode="&#x11f;" d="M125 559q0 166 73.5 296t203.5 202.5t292 72.5q164 0 293 -72.5t203 -202.5t74 -296v-418q0 -164 -73 -297t-202 -209.5t-291 -76.5q-158 0 -280.5 59t-206.5 166q-18 20 -18 47q0 31 28 53q20 14 45 15q18 0 37 -9.5t29 -23.5q61 -78 155.5 -121t212.5 -43 q115 0 208 56.5t146.5 157.5t53.5 232v93q-61 -117 -174 -183.5t-256 -66.5q-160 0 -286 72.5t-196.5 202.5t-70.5 294zM279 559q0 -123 53 -220t147 -151.5t215 -54.5q119 0 213 54.5t147.5 151.5t53.5 220t-53.5 220.5t-147.5 152.5t-213 55q-121 0 -215 -55t-147 -152.5 t-53 -220.5zM373 1530q0 35 22.5 58.5t55.5 23.5q31 0 53.5 -21.5t22.5 -52.5q0 -47 47 -80t118 -33q76 0 122 32t46 81q0 33 22.5 53.5t55.5 20.5t54.5 -23.5t21.5 -56.5q-4 -104 -97 -172t-225 -68q-86 0 -159.5 32t-116.5 86t-43 120z" />
<glyph unicode="&#x120;" horiz-adv-x="1579" d="M127 801q0 221 106.5 409.5t289 299t401.5 110.5q147 0 268 -43t233 -137q23 -16 23 -47q0 -16 -8 -29.5t-23 -20.5q-4 -14 -18.5 -23t-30.5 -9q-29 0 -51 20q-80 72 -174 104.5t-219 32.5q-172 0 -319.5 -91t-234.5 -244.5t-87 -331.5q0 -182 86 -336t233.5 -244 t321.5 -90q199 0 368 117v409h-319q-35 0 -57.5 20.5t-22.5 51.5t22.5 50.5t57.5 19.5h395q35 0 57.5 -21.5t22.5 -56.5v-508q0 -35 -23 -57q-190 -176 -501 -176q-217 0 -399.5 110.5t-290 299t-107.5 411.5zM788 1925q0 49 33 79.5t80 30.5q45 0 77.5 -30.5t32.5 -79.5 q0 -47 -32.5 -80t-79.5 -33t-79 33t-32 80z" />
<glyph unicode="&#x121;" d="M125 559q0 166 73.5 296t203.5 202.5t292 72.5q164 0 293 -72.5t203 -202.5t74 -296v-418q0 -164 -73 -297t-202 -209.5t-291 -76.5q-158 0 -280.5 59t-206.5 166q-18 20 -18 47q0 31 28 53q20 14 45 15q18 0 37 -9.5t29 -23.5q61 -78 155.5 -121t212.5 -43 q115 0 208 56.5t146.5 157.5t53.5 232v93q-61 -117 -174 -183.5t-256 -66.5q-160 0 -286 72.5t-196.5 202.5t-70.5 294zM279 559q0 -123 53 -220t147 -151.5t215 -54.5q119 0 213 54.5t147.5 151.5t53.5 220t-53.5 220.5t-147.5 152.5t-213 55q-121 0 -215 -55t-147 -152.5 t-53 -220.5zM581 1446q0 49 33 79.5t80 30.5q45 0 77.5 -30.5t32.5 -79.5q0 -47 -32.5 -80t-79.5 -33t-79 33t-32 80z" />
<glyph unicode="&#x122;" horiz-adv-x="1579" d="M127 801q0 221 106.5 409.5t289 299t401.5 110.5q147 0 268 -43t233 -137q23 -16 23 -47q0 -16 -8 -29.5t-23 -20.5q-4 -14 -18.5 -23t-30.5 -9q-29 0 -51 20q-80 72 -174 104.5t-219 32.5q-172 0 -319.5 -91t-234.5 -244.5t-87 -331.5q0 -182 86 -336t233.5 -244 t321.5 -90q199 0 368 117v409h-319q-35 0 -57.5 20.5t-22.5 51.5t22.5 50.5t57.5 19.5h395q35 0 57.5 -21.5t22.5 -56.5v-508q0 -35 -23 -57q-190 -176 -501 -176q-217 0 -399.5 110.5t-290 299t-107.5 411.5zM649 -342q0 27 16.5 42t42.5 15q23 0 39.5 -8t38.5 -26 q25 -23 51.5 -36.5t69.5 -13.5q119 0 119 88q0 39 -35 61.5t-107 22.5q-43 0 -67.5 14.5t-24.5 41.5q0 29 24.5 45t72.5 16q113 0 185.5 -56.5t72.5 -144.5q0 -94 -72 -150t-178 -56q-90 0 -169 40.5t-79 104.5z" />
<glyph unicode="&#x123;" d="M125 559q0 166 73.5 296t203.5 202.5t292 72.5q164 0 293 -72.5t203 -202.5t74 -296v-418q0 -164 -73 -297t-202 -209.5t-291 -76.5q-158 0 -280.5 59t-206.5 166q-18 20 -18 47q0 31 28 53q20 14 45 15q18 0 37 -9.5t29 -23.5q61 -78 155.5 -121t212.5 -43 q115 0 208 56.5t146.5 157.5t53.5 232v93q-61 -117 -174 -183.5t-256 -66.5q-160 0 -286 72.5t-196.5 202.5t-70.5 294zM279 559q0 -123 53 -220t147 -151.5t215 -54.5q119 0 213 54.5t147.5 151.5t53.5 220t-53.5 220.5t-147.5 152.5t-213 55q-121 0 -215 -55t-147 -152.5 t-53 -220.5zM566 1513q0 76 28.5 160t74.5 139.5t91 55.5q43 0 43 -41q0 -18 -8 -35.5t-27 -40.5q-20 -31 -30.5 -53.5t-10.5 -50.5q0 -33 12.5 -55.5t36.5 -51.5q25 -29 36.5 -49.5t11.5 -50.5q0 -51 -34 -82t-85 -31q-66 0 -102.5 49t-36.5 137z" />
<glyph unicode="&#x124;" horiz-adv-x="1728" d="M205 80v1440q0 35 23.5 57t56.5 22q35 0 57.5 -22.5t22.5 -56.5v-639h999v639q0 35 23.5 57t56.5 22q35 0 57.5 -22.5t22.5 -56.5v-1440q0 -33 -22.5 -56.5t-57.5 -23.5q-33 0 -56.5 23.5t-23.5 56.5v657h-999v-657q0 -33 -23 -56.5t-57 -23.5q-33 0 -56.5 23.5 t-23.5 56.5zM545 1849q0 43 39 70l242 159q16 10 38 11q20 0 41 -11l240 -159q39 -27 39 -70q0 -31 -22.5 -51.5t-57.5 -20.5q-23 0 -49 17l-191 131l-190 -131q-23 -16 -47 -17q-35 0 -58.5 19.5t-23.5 52.5z" />
<glyph unicode="&#x125;" d="M-55 1849q0 43 39 70l242 159q16 10 38 11q20 0 41 -11l240 -159q39 -27 39 -70q0 -31 -22.5 -51.5t-57.5 -20.5q-23 0 -49 17l-191 131l-190 -131q-23 -16 -47 -17q-35 0 -58.5 19.5t-23.5 52.5zM184 78v1442q0 35 22.5 57t57.5 22t56.5 -22.5t21.5 -56.5v-549 q68 76 164 119t209 43q145 0 261 -61.5t181.5 -179.5t65.5 -282v-532q0 -33 -22.5 -55.5t-55.5 -22.5q-35 0 -57.5 22.5t-22.5 55.5v532q0 182 -101.5 277.5t-265.5 95.5q-100 0 -181 -39t-128 -107.5t-47 -152.5v-606q0 -35 -21.5 -56.5t-56.5 -21.5t-57.5 21.5t-22.5 56.5 z" />
<glyph unicode="&#x126;" horiz-adv-x="1728" d="M45 1268q0 61 76 61h84v191q0 35 23.5 57t56.5 22q35 0 57.5 -22.5t22.5 -56.5v-191h999v191q0 35 23.5 57t56.5 22q35 0 57.5 -22.5t22.5 -56.5v-191h94q35 0 56.5 -15.5t21.5 -45.5q0 -31 -21.5 -46.5t-56.5 -15.5h-94v-1126q0 -33 -22.5 -56.5t-57.5 -23.5 q-33 0 -56.5 23.5t-23.5 56.5v657h-999v-657q0 -33 -23 -56.5t-57 -23.5q-33 0 -56.5 23.5t-23.5 56.5v1126h-84q-76 0 -76 62zM365 881h999v325h-999v-325z" />
<glyph unicode="&#x127;" d="M-6 1325q0 33 20.5 51.5t55.5 18.5h114v125q0 35 22.5 57t57.5 22t56.5 -22.5t21.5 -56.5v-125h383q33 0 54.5 -19.5t21.5 -50.5t-21.5 -50.5t-54.5 -19.5h-383v-284q68 76 164 119t209 43q145 0 261 -61.5t181.5 -179.5t65.5 -282v-532q0 -33 -22.5 -55.5t-55.5 -22.5 q-35 0 -57.5 22.5t-22.5 55.5v532q0 182 -101.5 277.5t-265.5 95.5q-100 0 -181 -39t-128 -107.5t-47 -152.5v-606q0 -35 -21.5 -56.5t-56.5 -21.5t-57.5 21.5t-22.5 56.5v1177h-114q-35 0 -55.5 18.5t-20.5 51.5z" />
<glyph unicode="&#x128;" horiz-adv-x="569" d="M-47 1870q0 18 8 34q39 80 86 116t109 36q53 0 84.5 -19.5t76.5 -58.5q33 -29 50.5 -39t33.5 -10q14 0 26.5 11.5t25.5 37.5q10 23 30.5 36t40.5 13q8 0 21 -4q49 -20 49 -61q0 -18 -8 -33q-35 -72 -76 -103.5t-94 -31.5q-84 0 -160 76q-33 31 -52.5 43t-39.5 12 q-23 0 -40 -18.5t-38 -57.5q-27 -43 -65 -43q-31 0 -49.5 18.5t-18.5 45.5zM205 80v1440q0 35 23.5 57t56.5 22q35 0 57.5 -22.5t22.5 -56.5v-1440q0 -33 -23 -56.5t-57 -23.5q-33 0 -56.5 23.5t-23.5 56.5z" />
<glyph unicode="&#x129;" horiz-adv-x="591" d="M-35 1391q0 18 8 34q39 80 86 116t109 36q53 0 84.5 -19.5t76.5 -58.5q33 -29 50.5 -39t33.5 -10q14 0 26.5 11.5t25.5 37.5q10 23 30.5 36t40.5 13q8 0 21 -4q49 -20 49 -61q0 -18 -8 -33q-35 -72 -76 -103.5t-94 -31.5q-84 0 -160 76q-33 31 -52.5 43t-39.5 12 q-23 0 -40 -18.5t-38 -57.5q-27 -43 -65 -43q-31 0 -49.5 18.5t-18.5 45.5zM217 80v960q0 35 22.5 57.5t57.5 22.5t56.5 -22.5t21.5 -57.5v-960q0 -35 -21.5 -57.5t-56.5 -22.5t-57.5 22.5t-22.5 57.5z" />
<glyph unicode="&#x12a;" horiz-adv-x="569" d="M-61 1896q0 33 22.5 53.5t57.5 20.5h530q33 0 56.5 -20.5t23.5 -53.5t-23.5 -53.5t-56.5 -20.5h-530q-35 0 -57.5 20.5t-22.5 53.5zM205 80v1440q0 35 23.5 57t56.5 22q35 0 57.5 -22.5t22.5 -56.5v-1440q0 -33 -23 -56.5t-57 -23.5q-33 0 -56.5 23.5t-23.5 56.5z" />
<glyph unicode="&#x12b;" horiz-adv-x="591" d="M20 1417q0 33 18.5 53.5t45.5 20.5h424q27 0 46 -20.5t19 -53.5t-19 -53.5t-46 -20.5h-424q-27 0 -45.5 20.5t-18.5 53.5zM217 80v960q0 35 22.5 57.5t57.5 22.5t56.5 -22.5t21.5 -57.5v-960q0 -35 -21.5 -57.5t-56.5 -22.5t-57.5 22.5t-22.5 57.5z" />
<glyph unicode="&#x12c;" horiz-adv-x="569" d="M-37 2009q0 35 22.5 58.5t55.5 23.5q31 0 53.5 -21.5t22.5 -52.5q0 -47 47 -80t118 -33q76 0 122 32t46 81q0 33 22.5 53.5t55.5 20.5t54.5 -23.5t21.5 -56.5q-4 -104 -97 -172t-225 -68q-86 0 -159.5 32t-116.5 86t-43 120zM205 80v1440q0 35 23.5 57t56.5 22 q35 0 57.5 -22.5t22.5 -56.5v-1440q0 -33 -23 -56.5t-57 -23.5q-33 0 -56.5 23.5t-23.5 56.5z" />
<glyph unicode="&#x12d;" horiz-adv-x="591" d="M6 1530q0 35 20.5 58.5t49.5 23.5t49 -21.5t20 -52.5q0 -47 42 -80t108 -33q70 0 109.5 32t39.5 81q0 33 21.5 53.5t50.5 20.5t48.5 -23.5t19.5 -56.5q-4 -104 -88 -172t-201 -68q-78 0 -144.5 32t-105.5 86t-39 120zM217 80v960q0 35 22.5 57.5t57.5 22.5t56.5 -22.5 t21.5 -57.5v-960q0 -35 -21.5 -57.5t-56.5 -22.5t-57.5 22.5t-22.5 57.5z" />
<glyph unicode="&#x12e;" horiz-adv-x="569" d="M45 -297q0 113 100 197q53 39 70 80q14 20 29 30q-39 25 -39 70v1440q0 35 23.5 57t56.5 22q35 0 57.5 -22.5t22.5 -56.5v-1440q0 -45 -39 -70q35 -20 39 -67q0 -82 -127 -174q-33 -25 -33 -66q0 -35 23.5 -57.5t56.5 -22.5q25 0 43 12l69 52q23 16 47 16 q35 0 57.5 -23.5t22.5 -56.5q0 -37 -26 -63l-82 -54q-61 -43 -131 -43q-98 0 -169 71t-71 169z" />
<glyph unicode="&#x12f;" horiz-adv-x="591" d="M57 -297q0 113 101 197q53 39 69 80q14 20 29 30q-39 20 -39 70v960q0 35 22.5 57.5t57.5 22.5t56.5 -22.5t21.5 -57.5v-960q0 -23 -10.5 -41.5t-26.5 -28.5q35 -20 39 -67q0 -82 -127 -174q-33 -25 -33 -66q0 -35 23.5 -57.5t56.5 -22.5q25 0 43 12l70 52q23 16 47 16 q35 0 57.5 -23.5t22.5 -56.5q0 -37 -27 -63l-82 -54q-61 -43 -131 -43q-98 0 -169 71t-71 169zM184 1446q0 49 33 79.5t80 30.5q45 0 78 -30.5t33 -79.5q0 -47 -33 -80t-80 -33t-79 33t-32 80z" />
<glyph unicode="&#x130;" horiz-adv-x="569" d="M172 1925q0 49 33 79.5t80 30.5q45 0 77.5 -30.5t32.5 -79.5q0 -47 -32.5 -80t-79.5 -33t-79 33t-32 80zM205 80v1440q0 35 23.5 57t56.5 22q35 0 57.5 -22.5t22.5 -56.5v-1440q0 -33 -23 -56.5t-57 -23.5q-33 0 -56.5 23.5t-23.5 56.5z" />
<glyph unicode="&#x131;" horiz-adv-x="591" d="M217 80v960q0 35 22.5 57.5t57.5 22.5t56.5 -22.5t21.5 -57.5v-960q0 -35 -21.5 -57.5t-56.5 -22.5t-57.5 22.5t-22.5 57.5z" />
<glyph unicode="&#x132;" horiz-adv-x="1308" d="M205 360q0 35 22.5 57.5t57.5 22.5t57.5 -22.5t22.5 -57.5q0 -113 78.5 -171t205.5 -58q82 0 149.5 44t106.5 119t39 165v1061q0 35 23.5 57t56.5 22q35 0 57.5 -22.5t22.5 -56.5v-1061q0 -133 -60.5 -243t-164 -173t-230.5 -63t-228.5 46t-158.5 132t-57 202zM205 674 v846q0 35 23.5 57t56.5 22q35 0 57.5 -22.5t22.5 -56.5v-846q0 -33 -23 -56.5t-57 -23.5q-33 0 -56.5 23.5t-23.5 56.5z" />
<glyph unicode="&#x133;" horiz-adv-x="1175" d="M184 1446q0 49 33 79.5t80 30.5q45 0 77.5 -30.5t32.5 -79.5q0 -47 -32.5 -80t-79.5 -33t-79 33t-32 80zM217 80v960q0 35 22.5 57.5t57.5 22.5t56.5 -22.5t21.5 -57.5v-960q0 -35 -21.5 -57.5t-56.5 -22.5t-57.5 22.5t-22.5 57.5zM399 -399q0 35 23 57.5t57 22.5 q141 0 231.5 90t90.5 229v1040q0 35 21.5 57.5t56.5 22.5t57.5 -22.5t22.5 -57.5v-1040q0 -139 -61.5 -247.5t-170 -170t-248.5 -61.5q-34 0 -57 22.5t-23 57.5zM766 1446q0 49 33 79.5t80 30.5q45 0 77.5 -30.5t32.5 -79.5q0 -47 -32.5 -80t-79.5 -33t-79 33t-32 80z" />
<glyph unicode="&#x134;" horiz-adv-x="1257" d="M92 459q0 35 22.5 57.5t57.5 22.5t57.5 -22.5t22.5 -57.5q0 -92 43 -167t116.5 -118t161.5 -43t162 44t116 119t42 165v1061q0 35 23.5 57t56.5 22q35 0 57.5 -22.5t22.5 -56.5v-1061q0 -133 -63.5 -243t-173 -173t-243.5 -63q-135 0 -244.5 63t-173 173t-63.5 243z M653 1849q0 43 39 70l242 159q16 10 38 11q20 0 41 -11l240 -159q39 -27 39 -70q0 -31 -22.5 -51.5t-57.5 -20.5q-23 0 -49 17l-191 131l-190 -131q-23 -16 -47 -17q-35 0 -58.5 19.5t-23.5 52.5z" />
<glyph unicode="&#x135;" horiz-adv-x="583" d="M-193 -399q0 35 23 57.5t57 22.5q141 0 231.5 90t90.5 229v1040q0 35 21.5 57.5t56.5 22.5t57.5 -22.5t22.5 -57.5v-1040q0 -139 -61.5 -247.5t-170 -170t-248.5 -61.5q-34 0 -57 22.5t-23 57.5zM-2 1370q0 41 35 70l219 159q14 10 35 11q16 0 37 -11l215 -159 q35 -27 34 -70q0 -31 -19 -51.5t-52 -20.5q-18 0 -45 17l-170 131l-172 -131q-20 -16 -43 -17q-31 0 -52.5 20.5t-21.5 51.5z" />
<glyph unicode="&#x136;" horiz-adv-x="1341" d="M205 80v1440q0 33 23.5 56t56.5 23q35 0 57.5 -22.5t22.5 -56.5v-697l747 748q29 29 64 28q35 0 54 -20t19 -51q0 -37 -26 -66l-561 -561l567 -774q16 -27 16 -49q0 -31 -21.5 -54.5t-52.5 -23.5q-45 0 -67 35l-557 753l-182 -184v-524q0 -33 -23 -56.5t-57 -23.5 q-33 0 -56.5 23.5t-23.5 56.5zM436 -342q0 27 16.5 42t42.5 15q23 0 39.5 -8t38.5 -26q25 -23 51.5 -36.5t69.5 -13.5q119 0 119 88q0 39 -35 61.5t-107 22.5q-43 0 -67.5 14.5t-24.5 41.5q0 29 24.5 45t72.5 16q113 0 185.5 -56.5t72.5 -144.5q0 -94 -72 -150t-178 -56 q-90 0 -169 40.5t-79 104.5z" />
<glyph unicode="&#x137;" horiz-adv-x="1171" d="M184 78v1444q0 35 21.5 56t56.5 21t56.5 -21.5t21.5 -55.5v-932l578 522q23 20 49 21q31 0 51 -25q23 -27 22 -49q0 -29 -26 -51l-410 -371l426 -524q19 -20 19 -47q0 -31 -29 -56q-25 -18 -49 -18q-33 0 -56 28l-421 519l-154 -140v-321q0 -35 -21.5 -56.5t-56.5 -21.5 t-56.5 21.5t-21.5 56.5zM342 -342q0 27 16.5 42t42.5 15q23 0 39.5 -8t38.5 -26q25 -23 51.5 -36.5t69.5 -13.5q119 0 119 88q0 39 -35 61.5t-107 22.5q-43 0 -67.5 14.5t-24.5 41.5q0 29 24.5 45t72.5 16q113 0 185.5 -56.5t72.5 -144.5q0 -94 -72 -150t-178 -56 q-90 0 -169 40.5t-79 104.5z" />
<glyph unicode="&#x138;" horiz-adv-x="1171" d="M184 78v964q0 35 21.5 56.5t56.5 21.5t56.5 -21.5t21.5 -56.5v-452l578 522q23 20 49 21q31 0 51 -25q23 -27 22 -49q0 -29 -26 -51l-410 -371l426 -524q19 -20 19 -47q0 -31 -29 -56q-25 -18 -49 -18q-33 0 -56 28l-421 519l-154 -140v-321q0 -35 -21.5 -56.5 t-56.5 -21.5t-56.5 21.5t-21.5 56.5z" />
<glyph unicode="&#x139;" horiz-adv-x="1296" d="M190 1849q0 33 19 53l231 232q23 23 55 22q35 0 57.5 -23.5t22.5 -58.5q0 -33 -22 -53l-230 -231q-20 -20 -53 -21q-35 0 -57.5 23.5t-22.5 56.5zM205 80v1440q0 33 23.5 56t56.5 23q35 0 57.5 -22.5t22.5 -56.5v-1368h800q35 0 57.5 -21.5t22.5 -54.5t-22.5 -54.5 t-57.5 -21.5h-880q-33 0 -56.5 23.5t-23.5 56.5z" />
<glyph unicode="&#x13a;" horiz-adv-x="577" d="M127 1628q0 33 18 53l232 232q23 23 55 22q35 0 58.5 -23.5t23.5 -58.5q0 -31 -25 -53l-229 -231q-20 -20 -53 -21q-33 0 -56.5 23.5t-23.5 56.5zM143 354v963q0 35 22.5 56.5t55.5 21.5q35 0 56.5 -21.5t21.5 -56.5v-963q0 -88 36 -143t91 -55h51q31 0 49.5 -21.5 t18.5 -56.5t-25.5 -56.5t-66.5 -21.5h-27q-125 0 -204 99.5t-79 254.5z" />
<glyph unicode="&#x13b;" horiz-adv-x="1296" d="M205 80v1440q0 33 23.5 56t56.5 23q35 0 57.5 -22.5t22.5 -56.5v-1368h800q35 0 57.5 -21.5t22.5 -54.5t-22.5 -54.5t-57.5 -21.5h-880q-33 0 -56.5 23.5t-23.5 56.5zM432 -342q0 27 16.5 42t42.5 15q23 0 39.5 -8t38.5 -26q25 -23 51.5 -36.5t69.5 -13.5q119 0 119 88 q0 39 -35 61.5t-107 22.5q-43 0 -67.5 14.5t-24.5 41.5q0 29 24.5 45t72.5 16q113 0 185.5 -56.5t72.5 -144.5q0 -94 -72 -150t-178 -56q-90 0 -169 40.5t-79 104.5z" />
<glyph unicode="&#x13c;" horiz-adv-x="577" d="M143 354v1168q0 35 22.5 56t55.5 21q35 0 56.5 -21.5t21.5 -55.5v-1168q0 -88 36 -143t91 -55h51q31 0 49.5 -21.5t18.5 -56.5t-25.5 -56.5t-66.5 -21.5h-27q-125 0 -204 99.5t-79 254.5zM193 -342q0 27 16.5 42t42.5 15q23 0 39.5 -8t38.5 -26q25 -23 51.5 -36.5 t69.5 -13.5q119 0 119 88q0 39 -35 61.5t-107 22.5q-43 0 -67.5 14.5t-24.5 41.5q0 29 24.5 45t72.5 16q113 0 185.5 -56.5t72.5 -144.5q0 -94 -72 -150t-178 -56q-90 0 -169 40.5t-79 104.5z" />
<glyph unicode="&#x13d;" horiz-adv-x="1296" d="M205 80v1440q0 33 23.5 56t56.5 23q35 0 57.5 -22.5t22.5 -56.5v-1368h800q35 0 57.5 -21.5t22.5 -54.5t-22.5 -54.5t-57.5 -21.5h-880q-33 0 -56.5 23.5t-23.5 56.5zM743 1116q0 25 33 76q27 39 43.5 75t20.5 81q2 27 -2 46t-15 46q-6 16 -12 38.5t-6 47.5 q0 41 25.5 60.5t68.5 19.5q51 0 80 -43t29 -111q0 -14 -4 -47q-10 -70 -49.5 -147.5t-86.5 -131t-80 -53.5q-20 0 -32.5 11.5t-12.5 31.5z" />
<glyph unicode="&#x13e;" horiz-adv-x="737" d="M143 354v1168q0 35 22.5 56t55.5 21q35 0 56.5 -21.5t21.5 -55.5v-1168q0 -88 36 -143t91 -55h51q31 0 49.5 -21.5t18.5 -56.5t-25.5 -56.5t-66.5 -21.5h-27q-125 0 -204 99.5t-79 254.5zM497 1116q0 25 33 76q27 39 43.5 75t20.5 81q2 27 -2 46t-15 46q-6 16 -12 38.5 t-6 47.5q0 41 25.5 60.5t68.5 19.5q51 0 80 -43t29 -111q0 -14 -4 -47q-10 -70 -49.5 -147.5t-86.5 -131t-80 -53.5q-20 0 -32.5 11.5t-12.5 31.5z" />
<glyph unicode="&#x13f;" horiz-adv-x="1200" d="M205 80v1440q0 33 23.5 56t56.5 23q35 0 57.5 -22.5t22.5 -56.5v-1368h800q35 0 57.5 -21.5t22.5 -54.5t-22.5 -54.5t-57.5 -21.5h-880q-33 0 -56.5 23.5t-23.5 56.5zM781 760q0 51 34.5 86t86.5 35q49 0 82.5 -36t33.5 -85t-33.5 -84t-82.5 -35q-50 0 -85.5 35t-35.5 84 z" />
<glyph unicode="&#x140;" horiz-adv-x="720" d="M143 354v1168q0 35 22.5 56t55.5 21q35 0 56.5 -21.5t21.5 -55.5v-1168q0 -88 36 -143t91 -55h51q31 0 49.5 -21.5t18.5 -56.5t-25.5 -56.5t-66.5 -21.5h-27q-125 0 -204 99.5t-79 254.5zM477 760q0 51 34.5 86t86.5 35q49 0 82.5 -36t33.5 -85t-33.5 -84t-82.5 -35 q-50 0 -85.5 35t-35.5 84z" />
<glyph unicode="&#x141;" horiz-adv-x="1359" d="M25 590q0 31 22 57l193 191v682q0 35 23.5 57t55.5 22q35 0 57.5 -22.5t22.5 -56.5v-527l236 232q29 25 57 24q33 0 56.5 -24.5t23.5 -57.5q0 -31 -24 -55l-349 -342v-610h801q33 0 56.5 -23.5t23.5 -56.5t-22.5 -56.5t-57.5 -23.5h-881q-32 0 -55.5 23.5t-23.5 56.5v532 l-80 -80q-23 -23 -56 -22q-33 0 -56 23.5t-23 56.5z" />
<glyph unicode="&#x142;" horiz-adv-x="720" d="M25 590q0 33 22 55l193 191v686q0 35 23.5 57.5t55.5 22.5q33 0 56.5 -24t23.5 -56v-529l105 105q27 23 55 22q33 0 56.5 -23.5t23.5 -56.5t-23 -55l-217 -215v-610h80q35 0 57.5 -22.5t22.5 -57.5q0 -33 -22.5 -56.5t-57.5 -23.5h-160q-32 0 -55.5 23.5t-23.5 56.5v532 l-80 -80q-23 -23 -54 -22q-33 0 -57 22.5t-24 57.5z" />
<glyph unicode="&#x143;" horiz-adv-x="1689" d="M205 80v1440q0 35 22.5 57t57.5 22q37 0 61 -28l979 -1286v1235q0 35 23.5 57t56.5 22q35 0 57.5 -22.5t22.5 -56.5v-1440q0 -33 -22.5 -56.5t-57.5 -23.5q-41 0 -59 27l-981 1286v-1233q0 -33 -23 -56.5t-57 -23.5q-35 0 -57.5 22.5t-22.5 57.5zM752 1849q0 33 19 53 l231 232q23 23 55 22q35 0 57.5 -23.5t22.5 -58.5q0 -33 -22 -53l-230 -231q-20 -20 -53 -21q-35 0 -57.5 23.5t-22.5 56.5z" />
<glyph unicode="&#x144;" d="M184 78v962q0 35 22.5 57.5t57.5 22.5t56.5 -22.5t21.5 -57.5v-69q68 76 164 119t209 43q145 0 261 -61.5t181.5 -179.5t65.5 -282v-532q0 -33 -22.5 -55.5t-55.5 -22.5q-35 0 -57.5 22.5t-22.5 55.5v532q0 182 -101.5 277.5t-265.5 95.5q-100 0 -181 -39t-128 -107.5 t-47 -152.5v-606q0 -35 -21.5 -56.5t-56.5 -21.5t-57.5 21.5t-22.5 56.5zM600 1370q0 33 19 53l231 232q23 23 55 22q35 0 57.5 -23.5t22.5 -58.5q0 -33 -22 -53l-230 -231q-20 -20 -53 -21q-35 0 -57.5 23.5t-22.5 56.5z" />
<glyph unicode="&#x145;" horiz-adv-x="1689" d="M205 80v1440q0 35 22.5 57t57.5 22q37 0 61 -28l979 -1286v1235q0 35 23.5 57t56.5 22q35 0 57.5 -22.5t22.5 -56.5v-1440q0 -33 -22.5 -56.5t-57.5 -23.5q-41 0 -59 27l-981 1286v-1233q0 -33 -23 -56.5t-57 -23.5q-35 0 -57.5 22.5t-22.5 57.5zM610 -342q0 27 16.5 42 t42.5 15q23 0 39.5 -8t38.5 -26q25 -23 51.5 -36.5t69.5 -13.5q119 0 119 88q0 39 -35 61.5t-107 22.5q-43 0 -67.5 14.5t-24.5 41.5q0 29 24.5 45t72.5 16q113 0 185.5 -56.5t72.5 -144.5q0 -94 -72 -150t-178 -56q-90 0 -169 40.5t-79 104.5z" />
<glyph unicode="&#x146;" d="M184 78v962q0 35 22.5 57.5t57.5 22.5t56.5 -22.5t21.5 -57.5v-69q68 76 164 119t209 43q145 0 261 -61.5t181.5 -179.5t65.5 -282v-532q0 -33 -22.5 -55.5t-55.5 -22.5q-35 0 -57.5 22.5t-22.5 55.5v532q0 182 -101.5 277.5t-265.5 95.5q-100 0 -181 -39t-128 -107.5 t-47 -152.5v-606q0 -35 -21.5 -56.5t-56.5 -21.5t-57.5 21.5t-22.5 56.5zM459 -342q0 27 16.5 42t42.5 15q23 0 39.5 -8t38.5 -26q25 -23 51.5 -36.5t69.5 -13.5q119 0 119 88q0 39 -35 61.5t-107 22.5q-43 0 -67.5 14.5t-24.5 41.5q0 29 24.5 45t72.5 16q113 0 185.5 -56.5 t72.5 -144.5q0 -94 -72 -150t-178 -56q-90 0 -169 40.5t-79 104.5z" />
<glyph unicode="&#x147;" horiz-adv-x="1689" d="M205 80v1440q0 35 22.5 57t57.5 22q37 0 61 -28l979 -1286v1235q0 35 23.5 57t56.5 22q35 0 57.5 -22.5t22.5 -56.5v-1440q0 -33 -22.5 -56.5t-57.5 -23.5q-41 0 -59 27l-981 1286v-1233q0 -33 -23 -56.5t-57 -23.5q-35 0 -57.5 22.5t-22.5 57.5zM526 2025 q0 27 17.5 43.5t45.5 16.5q31 0 66 -23l190 -129l191 127q35 25 68 25q29 0 45 -17.5t16 -42.5q0 -41 -39 -67l-240 -160q-14 -10 -41 -10q-26 0 -38 10l-242 160q-39 27 -39 67z" />
<glyph unicode="&#x148;" d="M184 78v962q0 35 22.5 57.5t57.5 22.5t56.5 -22.5t21.5 -57.5v-69q68 76 164 119t209 43q145 0 261 -61.5t181.5 -179.5t65.5 -282v-532q0 -33 -22.5 -55.5t-55.5 -22.5q-35 0 -57.5 22.5t-22.5 55.5v532q0 182 -101.5 277.5t-265.5 95.5q-100 0 -181 -39t-128 -107.5 t-47 -152.5v-606q0 -35 -21.5 -56.5t-56.5 -21.5t-57.5 21.5t-22.5 56.5zM375 1546q0 27 17.5 43.5t45.5 16.5q31 0 66 -23l190 -129l191 127q35 25 68 25q29 0 45 -17.5t16 -42.5q0 -41 -39 -67l-240 -160q-14 -10 -41 -10q-26 0 -38 10l-242 160q-39 27 -39 67z" />
<glyph unicode="&#x14a;" horiz-adv-x="1466" d="M205 80v1440q0 35 23.5 57t56.5 22q35 0 57.5 -22.5t22.5 -56.5v-121q70 96 171 148t230 52q160 0 287 -77.5t198.5 -218t71.5 -320.5v-283q0 -352 -118 -535t-339 -183q-127 0 -229 60t-133 163q-4 16 -4 24q0 23 14 40.5t39 19.5q25 6 49.5 -9.5t38.5 -46.5 q23 -47 86.5 -74.5t134.5 -27.5q156 0 228.5 139.5t72.5 429.5v271q0 219 -105.5 347t-297.5 128q-117 0 -206 -41t-139 -114.5t-50 -168.5v-1042q0 -33 -23 -56.5t-57 -23.5q-33 0 -56.5 23.5t-23.5 56.5z" />
<glyph unicode="&#x14b;" horiz-adv-x="1378" d="M184 78v962q0 35 22.5 57.5t57.5 22.5t56.5 -22.5t21.5 -57.5v-82q63 82 159.5 128.5t213.5 46.5q147 0 263 -67t180.5 -185.5t64.5 -270.5v-350q0 -215 -55.5 -366.5t-155 -228.5t-228.5 -77q-137 0 -233 58.5t-129 160.5q-2 6 -2 21q0 23 12 38t37 17q23 4 46.5 -10 t35.5 -41q23 -49 81 -76.5t144 -27.5q135 0 212 133t77 399v350q0 106 -47 191.5t-130 133.5t-190 48q-158 0 -257 -84t-99 -215v-606q0 -35 -21.5 -56.5t-56.5 -21.5t-57.5 21.5t-22.5 56.5z" />
<glyph unicode="&#x14c;" horiz-adv-x="1886" d="M127 801q0 233 105.5 419.5t292 293t419.5 106.5q231 0 418.5 -106.5t293 -293t105.5 -419.5t-105.5 -420.5t-292.5 -294t-419 -106.5q-233 0 -419.5 106.5t-292 293.5t-105.5 421zM283 801q0 -188 86 -341t236.5 -241t338.5 -88q186 0 337 88t237 240.5t86 341.5 q0 186 -86 338.5t-237 240.5t-337 88q-188 0 -338.5 -88t-236.5 -240.5t-86 -338.5zM598 1896q0 33 22.5 53.5t57.5 20.5h530q33 0 56.5 -20.5t23.5 -53.5t-23.5 -53.5t-56.5 -20.5h-530q-35 0 -57.5 20.5t-22.5 53.5z" />
<glyph unicode="&#x14d;" d="M125 559q0 162 73.5 293t203.5 204.5t292 73.5t291 -73.5t204 -204.5t75 -293t-74 -292t-204 -203.5t-292 -73.5t-292 73.5t-203.5 203.5t-73.5 292zM279 559q0 -121 54 -218t149.5 -152.5t211.5 -55.5q119 0 213 55.5t147.5 152.5t53.5 218q0 123 -53.5 220.5 t-147.5 152.5t-213 55q-117 0 -212 -55t-149 -152.5t-54 -220.5zM348 1417q0 33 22.5 53.5t57.5 20.5h530q33 0 56.5 -20.5t23.5 -53.5t-23.5 -53.5t-56.5 -20.5h-530q-35 0 -57.5 20.5t-22.5 53.5z" />
<glyph unicode="&#x14e;" horiz-adv-x="1886" d="M127 801q0 233 105.5 419.5t292 293t419.5 106.5q231 0 418.5 -106.5t293 -293t105.5 -419.5t-105.5 -420.5t-292.5 -294t-419 -106.5q-233 0 -419.5 106.5t-292 293.5t-105.5 421zM283 801q0 -188 86 -341t236.5 -241t338.5 -88q186 0 337 88t237 240.5t86 341.5 q0 186 -86 338.5t-237 240.5t-337 88q-188 0 -338.5 -88t-236.5 -240.5t-86 -338.5zM623 2009q0 35 22.5 58.5t55.5 23.5q31 0 53.5 -21.5t22.5 -52.5q0 -47 47 -80t118 -33q76 0 122 32t46 81q0 33 22.5 53.5t55.5 20.5t54.5 -23.5t21.5 -56.5q-4 -104 -97 -172t-225 -68 q-86 0 -159.5 32t-116.5 86t-43 120z" />
<glyph unicode="&#x14f;" d="M125 559q0 162 73.5 293t203.5 204.5t292 73.5t291 -73.5t204 -204.5t75 -293t-74 -292t-204 -203.5t-292 -73.5t-292 73.5t-203.5 203.5t-73.5 292zM279 559q0 -121 54 -218t149.5 -152.5t211.5 -55.5q119 0 213 55.5t147.5 152.5t53.5 218q0 123 -53.5 220.5 t-147.5 152.5t-213 55q-117 0 -212 -55t-149 -152.5t-54 -220.5zM373 1530q0 35 22.5 58.5t55.5 23.5q31 0 53.5 -21.5t22.5 -52.5q0 -47 47 -80t118 -33q76 0 122 32t46 81q0 33 22.5 53.5t55.5 20.5t54.5 -23.5t21.5 -56.5q-4 -104 -97 -172t-225 -68q-86 0 -159.5 32 t-116.5 86t-43 120z" />
<glyph unicode="&#x150;" horiz-adv-x="1886" d="M127 801q0 233 105.5 419.5t292 293t419.5 106.5q231 0 418.5 -106.5t293 -293t105.5 -419.5t-105.5 -420.5t-292.5 -294t-419 -106.5q-233 0 -419.5 106.5t-292 293.5t-105.5 421zM283 801q0 -188 86 -341t236.5 -241t338.5 -88q186 0 337 88t237 240.5t86 341.5 q0 186 -86 338.5t-237 240.5t-337 88q-188 0 -338.5 -88t-236.5 -240.5t-86 -338.5zM727 1816q0 16 4 25l86 278q8 23 28.5 36.5t45.5 13.5q35 0 58.5 -24t23.5 -56q0 -12 -6 -29l-125 -264q-20 -39 -58 -39q-22 0 -39.5 16.5t-17.5 42.5zM1036 1816q0 8 4 25l91 278 q6 20 26.5 35t44.5 15q35 0 57.5 -24t22.5 -56q0 -12 -6 -29l-125 -264q-20 -39 -57 -39q-23 0 -40.5 16.5t-17.5 42.5z" />
<glyph unicode="&#x151;" d="M125 559q0 162 73.5 293t203.5 204.5t292 73.5t291 -73.5t204 -204.5t75 -293t-74 -292t-204 -203.5t-292 -73.5t-292 73.5t-203.5 203.5t-73.5 292zM279 559q0 -121 54 -218t149.5 -152.5t211.5 -55.5q119 0 213 55.5t147.5 152.5t53.5 218q0 123 -53.5 220.5 t-147.5 152.5t-213 55q-117 0 -212 -55t-149 -152.5t-54 -220.5zM477 1337q0 16 4 25l86 278q8 23 28.5 36.5t45.5 13.5q35 0 58.5 -24t23.5 -56q0 -12 -6 -29l-125 -264q-20 -39 -58 -39q-22 0 -39.5 16.5t-17.5 42.5zM786 1337q0 8 4 25l91 278q6 20 26.5 35t44.5 15 q35 0 57.5 -24t22.5 -56q0 -12 -6 -29l-125 -264q-20 -39 -57 -39q-23 0 -40.5 16.5t-17.5 42.5z" />
<glyph unicode="&#x152;" horiz-adv-x="2361" d="M127 801q0 233 105.5 419.5t292 293t419.5 106.5q45 0 219 -10q102 -10 176 -11h850q35 0 57.5 -22.5t22.5 -54.5q0 -33 -22.5 -54.5t-57.5 -21.5h-807v-565h568q35 0 57.5 -22.5t22.5 -55.5t-24 -55.5t-56 -22.5h-568v-571h807q35 0 57.5 -21.5t22.5 -54.5t-22.5 -55.5 t-57.5 -22.5h-886h-13l-129 -8q-135 -12 -217 -12q-233 0 -419.5 106.5t-292 293.5t-105.5 421zM283 801q0 -189 86 -341.5t236.5 -240.5t338.5 -88q147 0 279 23v1292q-129 23 -279 22q-188 0 -338.5 -88t-236.5 -240.5t-86 -338.5z" />
<glyph unicode="&#x153;" horiz-adv-x="2240" d="M125 559q0 166 72.5 296t201.5 202.5t295 72.5t293 -76.5t195 -211.5q63 135 185 211.5t278 76.5q153 0 270 -70.5t180.5 -195.5t63.5 -284q0 -33 -20.5 -52.5t-53.5 -19.5h-828q16 -168 131 -272.5t287 -104.5q74 0 148.5 25.5t120.5 64.5q27 20 55 21q23 0 45 -17 q29 -25 29 -55q0 -25 -25 -47q-68 -59 -172 -96t-201 -37q-166 0 -294 77.5t-197 213.5q-68 -135 -196 -213t-294 -78t-295 72.5t-201.5 201.5t-72.5 295zM279 559q0 -123 53 -220t147 -151.5t215 -54.5q119 0 213 54.5t147.5 151.5t53.5 220t-53.5 220.5t-147.5 152.5 t-213 55q-121 0 -215 -55t-147 -152.5t-53 -220.5zM1262 639h751q-16 158 -115.5 254t-252.5 96q-156 0 -258.5 -96t-124.5 -254z" />
<glyph unicode="&#x154;" horiz-adv-x="1265" d="M205 80v1440q0 35 22.5 57t57.5 22h383q150 0 266.5 -62t183 -175t66.5 -256q0 -158 -85 -276.5t-231 -170.5l336 -536q19 -30 19 -55q0 -31 -22.5 -49.5t-59.5 -18.5q-25 0 -41.5 10t-28.5 31l-369 586h-34h-303v-547q0 -35 -23 -57.5t-57 -22.5q-35 0 -57.5 22.5 t-22.5 57.5zM365 780h303q102 0 185 42t129 116t46 168q0 98 -46 176t-128 121t-186 43h-303v-666zM565 1849q0 33 19 53l231 232q23 23 55 22q35 0 57.5 -23.5t22.5 -58.5q0 -33 -22 -53l-230 -231q-20 -20 -53 -21q-35 0 -57.5 23.5t-22.5 56.5z" />
<glyph unicode="&#x155;" horiz-adv-x="937" d="M184 78v964q0 37 20.5 57.5t57.5 20.5t57.5 -20.5t20.5 -57.5v-90q59 86 151.5 133.5t198.5 47.5q86 0 136.5 -23t50.5 -63q0 -12 -3 -19q-8 -29 -25.5 -39t-47.5 -10q-18 0 -64 4q-16 2 -49 2q-154 0 -251 -82t-97 -213v-612q0 -37 -20.5 -57.5t-57.5 -20.5t-57.5 20.5 t-20.5 57.5zM432 1370q0 33 19 53l231 232q23 23 55 22q35 0 57.5 -23.5t22.5 -58.5q0 -33 -22 -53l-230 -231q-20 -20 -53 -21q-35 0 -57.5 23.5t-22.5 56.5z" />
<glyph unicode="&#x156;" horiz-adv-x="1265" d="M205 80v1440q0 35 22.5 57t57.5 22h383q150 0 266.5 -62t183 -175t66.5 -256q0 -158 -85 -276.5t-231 -170.5l336 -536q19 -30 19 -55q0 -31 -22.5 -49.5t-59.5 -18.5q-25 0 -41.5 10t-28.5 31l-369 586h-34h-303v-547q0 -35 -23 -57.5t-57 -22.5q-35 0 -57.5 22.5 t-22.5 57.5zM365 780h303q102 0 185 42t129 116t46 168q0 98 -46 176t-128 121t-186 43h-303v-666zM424 -342q0 27 16.5 42t42.5 15q23 0 39.5 -8t38.5 -26q25 -23 51.5 -36.5t69.5 -13.5q119 0 119 88q0 39 -35 61.5t-107 22.5q-43 0 -67.5 14.5t-24.5 41.5q0 29 24.5 45 t72.5 16q113 0 185.5 -56.5t72.5 -144.5q0 -94 -72 -150t-178 -56q-90 0 -169 40.5t-79 104.5z" />
<glyph unicode="&#x157;" horiz-adv-x="937" d="M27 -342q0 27 16.5 42t42.5 15q23 0 39.5 -8t38.5 -26q25 -23 51.5 -36.5t69.5 -13.5q119 0 119 88q0 39 -35 61.5t-107 22.5q-43 0 -67.5 14.5t-24.5 41.5q0 29 24.5 45t72.5 16q113 0 185.5 -56.5t72.5 -144.5q0 -94 -72 -150t-178 -56q-90 0 -169 40.5t-79 104.5z M184 78v964q0 37 20.5 57.5t57.5 20.5t57.5 -20.5t20.5 -57.5v-90q59 86 151.5 133.5t198.5 47.5q86 0 136.5 -23t50.5 -63q0 -12 -3 -19q-8 -29 -25.5 -39t-47.5 -10q-18 0 -64 4q-16 2 -49 2q-154 0 -251 -82t-97 -213v-612q0 -37 -20.5 -57.5t-57.5 -20.5t-57.5 20.5 t-20.5 57.5z" />
<glyph unicode="&#x158;" horiz-adv-x="1265" d="M205 80v1440q0 35 22.5 57t57.5 22h383q150 0 266.5 -62t183 -175t66.5 -256q0 -158 -85 -276.5t-231 -170.5l336 -536q19 -30 19 -55q0 -31 -22.5 -49.5t-59.5 -18.5q-25 0 -41.5 10t-28.5 31l-369 586h-34h-303v-547q0 -35 -23 -57.5t-57 -22.5q-35 0 -57.5 22.5 t-22.5 57.5zM340 2025q0 27 17.5 43.5t45.5 16.5q31 0 66 -23l190 -129l191 127q35 25 68 25q29 0 45 -17.5t16 -42.5q0 -41 -39 -67l-240 -160q-14 -10 -41 -10q-26 0 -38 10l-242 160q-39 27 -39 67zM365 780h303q102 0 185 42t129 116t46 168q0 98 -46 176t-128 121 t-186 43h-303v-666z" />
<glyph unicode="&#x159;" horiz-adv-x="937" d="M184 78v964q0 37 20.5 57.5t57.5 20.5t57.5 -20.5t20.5 -57.5v-90q59 86 151.5 133.5t198.5 47.5q86 0 136.5 -23t50.5 -63q0 -12 -3 -19q-8 -29 -25.5 -39t-47.5 -10q-18 0 -64 4q-16 2 -49 2q-154 0 -251 -82t-97 -213v-612q0 -37 -20.5 -57.5t-57.5 -20.5t-57.5 20.5 t-20.5 57.5zM207 1546q0 27 17.5 43.5t45.5 16.5q31 0 66 -23l190 -129l191 127q35 25 68 25q29 0 45 -17.5t16 -42.5q0 -41 -39 -67l-240 -160q-14 -10 -41 -10q-26 0 -38 10l-242 160q-39 27 -39 67z" />
<glyph unicode="&#x15a;" horiz-adv-x="1355" d="M127 319q0 29 21.5 48.5t58.5 19.5q25 0 46 -13.5t32 -37.5q47 -92 156.5 -148.5t254.5 -56.5q168 0 270.5 81t102.5 226q0 129 -95 217t-286 113q-238 29 -374 148.5t-136 293.5q0 123 66.5 216.5t184.5 143.5t267 50q162 0 285 -71.5t193 -186.5q14 -23 14 -49 q0 -39 -37 -62q-16 -8 -37 -8q-23 0 -42 11.5t-32 31.5q-115 180 -346 182q-166 0 -262 -69.5t-96 -198.5q0 -240 387 -291q254 -37 379 -155.5t125 -313.5q0 -143 -70 -247.5t-190.5 -158.5t-270.5 -54q-194 0 -344.5 82.5t-216.5 224.5q-8 14 -8 32zM584 1849q0 33 19 53 l231 232q23 23 55 22q35 0 57.5 -23.5t22.5 -58.5q0 -33 -22 -53l-230 -231q-20 -20 -53 -21q-35 0 -57.5 23.5t-22.5 56.5z" />
<glyph unicode="&#x15b;" horiz-adv-x="1103" d="M123 201q0 35 33 61q25 18 51 19q35 0 59 -29q49 -57 130 -88t179 -31q143 0 215 49t74 129q0 74 -71.5 123t-227.5 74q-201 33 -300 113.5t-99 195.5q0 150 115.5 231.5t289.5 81.5q135 0 235.5 -46t162.5 -128q16 -27 16 -47q0 -35 -33 -55q-14 -10 -39 -10 q-43 0 -71 30q-100 115 -275 115q-113 0 -180.5 -46t-67.5 -116q0 -74 63.5 -117.5t225.5 -70.5q219 -37 313.5 -120t94.5 -206q0 -94 -56.5 -167.5t-157 -114.5t-227.5 -41q-126 0 -243 43t-189 121q-20 25 -20 47zM475 1370q0 33 19 53l231 232q23 23 55 22 q35 0 57.5 -23.5t22.5 -58.5q0 -33 -22 -53l-230 -231q-20 -20 -53 -21q-35 0 -57.5 23.5t-22.5 56.5z" />
<glyph unicode="&#x15c;" horiz-adv-x="1355" d="M127 319q0 29 21.5 48.5t58.5 19.5q25 0 46 -13.5t32 -37.5q47 -92 156.5 -148.5t254.5 -56.5q168 0 270.5 81t102.5 226q0 129 -95 217t-286 113q-238 29 -374 148.5t-136 293.5q0 123 66.5 216.5t184.5 143.5t267 50q162 0 285 -71.5t193 -186.5q14 -23 14 -49 q0 -39 -37 -62q-16 -8 -37 -8q-23 0 -42 11.5t-32 31.5q-115 180 -346 182q-166 0 -262 -69.5t-96 -198.5q0 -240 387 -291q254 -37 379 -155.5t125 -313.5q0 -143 -70 -247.5t-190.5 -158.5t-270.5 -54q-194 0 -344.5 82.5t-216.5 224.5q-8 14 -8 32zM358 1849q0 43 39 70 l242 159q16 10 38 11q20 0 41 -11l240 -159q39 -27 39 -70q0 -31 -22.5 -51.5t-57.5 -20.5q-23 0 -49 17l-191 131l-190 -131q-23 -16 -47 -17q-35 0 -58.5 19.5t-23.5 52.5z" />
<glyph unicode="&#x15d;" horiz-adv-x="1103" d="M123 201q0 35 33 61q25 18 51 19q35 0 59 -29q49 -57 130 -88t179 -31q143 0 215 49t74 129q0 74 -71.5 123t-227.5 74q-201 33 -300 113.5t-99 195.5q0 150 115.5 231.5t289.5 81.5q135 0 235.5 -46t162.5 -128q16 -27 16 -47q0 -35 -33 -55q-14 -10 -39 -10 q-43 0 -71 30q-100 115 -275 115q-113 0 -180.5 -46t-67.5 -116q0 -74 63.5 -117.5t225.5 -70.5q219 -37 313.5 -120t94.5 -206q0 -94 -56.5 -167.5t-157 -114.5t-227.5 -41q-126 0 -243 43t-189 121q-20 25 -20 47zM250 1370q0 43 39 70l242 159q16 10 38 11q20 0 41 -11 l240 -159q39 -27 39 -70q0 -31 -22.5 -51.5t-57.5 -20.5q-23 0 -49 17l-191 131l-190 -131q-23 -16 -47 -17q-35 0 -58.5 19.5t-23.5 52.5z" />
<glyph unicode="&#x15e;" horiz-adv-x="1355" d="M127 319q0 29 21.5 48.5t58.5 19.5q25 0 46 -13.5t32 -37.5q47 -92 156.5 -148.5t254.5 -56.5q168 0 270.5 81t102.5 226q0 129 -95 217t-286 113q-238 29 -374 148.5t-136 293.5q0 123 66.5 216.5t184.5 143.5t267 50q162 0 285 -71.5t193 -186.5q14 -23 14 -49 q0 -39 -37 -62q-16 -8 -37 -8q-23 0 -42 11.5t-32 31.5q-115 180 -346 182q-166 0 -262 -69.5t-96 -198.5q0 -240 387 -291q254 -37 379 -155.5t125 -313.5q0 -192 -123 -312t-320 -144l-24 -58q102 -27 146 -74t44 -116q0 -57 -36.5 -106.5t-100 -78t-141.5 -28.5 q-106 0 -178 45t-72 106q0 31 22.5 53.5t53.5 22.5q39 0 71 -43q33 -49 105 -49q47 0 77.5 20.5t30.5 57.5q0 39 -24.5 61.5t-81.5 36.5q-39 8 -59.5 23.5t-20.5 42.5q0 16 10 47l15 37q-170 14 -298 95t-188 208q-8 14 -8 32z" />
<glyph unicode="&#x15f;" horiz-adv-x="1103" d="M123 201q0 35 33 61q25 18 51 19q35 0 59 -29q49 -57 130 -88t179 -31q143 0 215 49t74 129q0 74 -71.5 123t-227.5 74q-201 33 -300 113.5t-99 195.5q0 150 115.5 231.5t289.5 81.5q135 0 235.5 -46t162.5 -128q16 -27 16 -47q0 -35 -33 -55q-14 -10 -39 -10 q-43 0 -71 30q-100 115 -275 115q-113 0 -180.5 -46t-67.5 -116q0 -74 63.5 -117.5t225.5 -70.5q219 -37 313.5 -120t94.5 -206q0 -120 -91 -206.5t-243 -108.5l-31 -72q102 -27 146.5 -74t44.5 -116q0 -57 -37 -106.5t-100.5 -78t-141.5 -28.5q-106 0 -178 45t-72 106 q0 31 22.5 53.5t53.5 22.5q39 0 72 -43q33 -49 104 -49q47 0 78 20.5t31 57.5q0 39 -24.5 61.5t-82.5 36.5q-39 8 -59.5 23.5t-20.5 42.5q0 16 11 47l18 45q-111 10 -210 51t-163 111q-20 25 -20 47z" />
<glyph unicode="&#x160;" horiz-adv-x="1355" d="M127 319q0 29 21.5 48.5t58.5 19.5q25 0 46 -13.5t32 -37.5q47 -92 156.5 -148.5t254.5 -56.5q168 0 270.5 81t102.5 226q0 129 -95 217t-286 113q-238 29 -374 148.5t-136 293.5q0 123 66.5 216.5t184.5 143.5t267 50q162 0 285 -71.5t193 -186.5q14 -23 14 -49 q0 -39 -37 -62q-16 -8 -37 -8q-23 0 -42 11.5t-32 31.5q-115 180 -346 182q-166 0 -262 -69.5t-96 -198.5q0 -240 387 -291q254 -37 379 -155.5t125 -313.5q0 -143 -70 -247.5t-190.5 -158.5t-270.5 -54q-194 0 -344.5 82.5t-216.5 224.5q-8 14 -8 32zM358 2025 q0 27 17.5 43.5t45.5 16.5q31 0 66 -23l190 -129l191 127q35 25 68 25q29 0 45 -17.5t16 -42.5q0 -41 -39 -67l-240 -160q-14 -10 -41 -10q-26 0 -38 10l-242 160q-39 27 -39 67z" />
<glyph unicode="&#x161;" horiz-adv-x="1103" d="M123 201q0 35 33 61q25 18 51 19q35 0 59 -29q49 -57 130 -88t179 -31q143 0 215 49t74 129q0 74 -71.5 123t-227.5 74q-201 33 -300 113.5t-99 195.5q0 150 115.5 231.5t289.5 81.5q135 0 235.5 -46t162.5 -128q16 -27 16 -47q0 -35 -33 -55q-14 -10 -39 -10 q-43 0 -71 30q-100 115 -275 115q-113 0 -180.5 -46t-67.5 -116q0 -74 63.5 -117.5t225.5 -70.5q219 -37 313.5 -120t94.5 -206q0 -94 -56.5 -167.5t-157 -114.5t-227.5 -41q-126 0 -243 43t-189 121q-20 25 -20 47zM250 1546q0 27 17.5 43.5t45.5 16.5q31 0 66 -23 l190 -129l191 127q35 25 68 25q29 0 45 -17.5t16 -42.5q0 -41 -39 -67l-240 -160q-14 -10 -41 -10q-26 0 -38 10l-242 160q-39 27 -39 67z" />
<glyph unicode="&#x162;" horiz-adv-x="1341" d="M31 1526q0 33 20.5 53t52.5 20h1133q33 0 53.5 -20t20.5 -53q0 -31 -20.5 -51.5t-53.5 -20.5h-487v-1366q18 -8 28 -23.5t10 -33.5q0 -14 -6 -31l-30 -74q102 -27 146 -74t44 -116q0 -57 -37 -106.5t-100.5 -78t-140.5 -28.5q-106 0 -178 45t-72 106q0 31 22.5 53.5 t52.5 22.5q39 0 72 -43q33 -49 105 -49q47 0 77.5 20.5t30.5 57.5q0 39 -24.5 61.5t-81.5 36.5q-39 8 -59.5 23.5t-20.5 42.5q0 16 10 47l27 67q-35 25 -35 66v1374h-486q-33 0 -53 20.5t-20 51.5z" />
<glyph unicode="&#x163;" horiz-adv-x="823" d="M41 1010q0 31 19.5 50t52.5 19h133v318q0 35 21.5 57.5t56.5 22.5t57 -22.5t22 -57.5v-318h232q33 0 52.5 -19.5t19.5 -49.5q0 -29 -19.5 -48.5t-52.5 -19.5h-232v-547q0 -104 61.5 -170.5t158.5 -66.5h55q33 0 53.5 -22.5t20.5 -57.5q0 -33 -25 -55.5t-61 -22.5h-43 q-20 0 -54 4l-2 -4l-30 -74q102 -27 146 -74t44 -116q0 -57 -37 -106.5t-100.5 -78t-140.5 -28.5q-106 0 -178 45t-72 106q0 31 22.5 53.5t52.5 22.5q39 0 72 -43q33 -49 105 -49q47 0 77.5 20.5t30.5 57.5q0 39 -24.5 61.5t-81.5 36.5q-39 8 -59.5 23.5t-20.5 42.5 q0 16 10 47l33 84q2 12 10 22q-84 51 -132 140.5t-48 201.5v547h-133q-33 0 -52.5 19.5t-19.5 48.5z" />
<glyph unicode="&#x164;" horiz-adv-x="1341" d="M31 1526q0 33 20.5 53t52.5 20h1133q33 0 53.5 -20t20.5 -53q0 -31 -20.5 -51.5t-53.5 -20.5h-487v-1374q0 -33 -22.5 -56.5t-57.5 -23.5q-33 0 -56.5 23.5t-23.5 56.5v1374h-486q-33 0 -53 20.5t-20 51.5zM350 2025q0 27 17.5 43.5t45.5 16.5q31 0 66 -23l190 -129 l191 127q35 25 68 25q29 0 45 -17.5t16 -42.5q0 -41 -39 -67l-240 -160q-14 -10 -41 -10q-26 0 -38 10l-242 160q-39 27 -39 67z" />
<glyph unicode="&#x165;" horiz-adv-x="823" d="M41 1010q0 31 19.5 50t52.5 19h133v318q0 35 21.5 57.5t56.5 22.5t57 -22.5t22 -57.5v-318h232q33 0 52.5 -19.5t19.5 -49.5q0 -29 -19.5 -48.5t-52.5 -19.5h-232v-547q0 -104 61.5 -170.5t158.5 -66.5h55q33 0 53.5 -22.5t20.5 -57.5q0 -33 -25 -55.5t-61 -22.5h-43 q-109 0 -195 52t-134 141.5t-48 201.5v547h-133q-33 0 -52.5 19.5t-19.5 48.5zM495 1292q0 25 33 76q27 39 43.5 75t20.5 81q2 27 -2 46t-15 46q-6 16 -12 38.5t-6 47.5q0 41 25.5 60.5t68.5 19.5q51 0 80 -43t29 -111q0 -14 -4 -47q-10 -70 -49.5 -147.5t-86.5 -131 t-80 -53.5q-20 0 -32.5 11.5t-12.5 31.5z" />
<glyph unicode="&#x166;" horiz-adv-x="1341" d="M31 1526q0 33 20.5 53t52.5 20h1133q33 0 53.5 -20t20.5 -53q0 -31 -20.5 -51.5t-53.5 -20.5h-487v-584h254q33 0 54 -19.5t21 -49.5q0 -31 -21.5 -50.5t-53.5 -19.5h-254v-651q0 -33 -22.5 -56.5t-57.5 -23.5q-33 0 -56.5 23.5t-23.5 56.5v651h-242q-35 0 -55.5 18.5 t-20.5 51.5t20.5 51t55.5 18h242v584h-486q-33 0 -53 20.5t-20 51.5z" />
<glyph unicode="&#x167;" horiz-adv-x="823" d="M41 649q0 31 19.5 50.5t52.5 19.5h133v223h-133q-33 0 -52.5 19.5t-19.5 48.5q0 31 19.5 50t52.5 19h133v318q0 35 21.5 57.5t56.5 22.5t57 -22.5t22 -57.5v-318h232q33 0 52.5 -19.5t19.5 -49.5q0 -29 -19.5 -48.5t-52.5 -19.5h-232v-223h207q33 0 52.5 -19.5 t19.5 -50.5q0 -29 -19.5 -48t-52.5 -19h-207v-187q0 -104 61.5 -170.5t158.5 -66.5h55q33 0 53.5 -22.5t20.5 -57.5q0 -33 -25 -55.5t-61 -22.5h-43q-109 0 -195 52t-134 141.5t-48 201.5v187h-133q-33 0 -52.5 19.5t-19.5 47.5z" />
<glyph unicode="&#x168;" horiz-adv-x="1677" d="M205 528v992q0 35 22.5 57t57.5 22t57.5 -22.5t22.5 -56.5v-992q0 -119 60 -212t168.5 -145t248.5 -52q137 0 243.5 52t167 145.5t60.5 211.5v992q0 35 22.5 57t57.5 22t57.5 -22.5t22.5 -56.5v-992q0 -162 -81 -289.5t-224.5 -199.5t-325.5 -72q-185 0 -330 72t-226 200 t-81 289zM462 1833q0 25 15 45q51 66 118.5 101.5t141.5 35.5q55 0 96 -16.5t94 -49.5q47 -29 70.5 -39t54.5 -10q63 0 101 41q31 35 63 35q16 0 33 -10q37 -18 37 -57q0 -23 -17 -46q-82 -100 -215 -100q-57 0 -102 18.5t-96 49.5q-43 27 -70 37t-53 10q-76 0 -135 -72 q-12 -18 -31 -28.5t-37 -10.5t-35 10q-14 8 -23.5 23.5t-9.5 32.5z" />
<glyph unicode="&#x169;" d="M164 510v532q0 33 22.5 55.5t55.5 22.5q35 0 57.5 -22.5t22.5 -55.5v-532q0 -182 101 -277.5t265 -95.5q100 0 181 39t128 107.5t47 152.5v606q0 35 21.5 56.5t56.5 21.5t57.5 -21.5t22.5 -56.5v-962q0 -35 -22.5 -57.5t-57.5 -22.5t-56.5 22.5t-21.5 57.5v70 q-68 -76 -164 -119t-208 -43q-145 0 -261 61.5t-181.5 179t-65.5 281.5zM317 1354q0 25 15 45q51 66 118.5 101.5t141.5 35.5q55 0 96 -16.5t94 -49.5q47 -29 70.5 -39t54.5 -10q63 0 101 41q31 35 63 35q16 0 33 -10q37 -18 37 -57q0 -23 -17 -46q-82 -100 -215 -100 q-57 0 -102 18.5t-96 49.5q-43 27 -70 37t-53 10q-76 0 -135 -72q-12 -18 -31 -28.5t-37 -10.5t-35 10q-14 8 -23.5 23.5t-9.5 32.5z" />
<glyph unicode="&#x16a;" horiz-adv-x="1677" d="M205 528v992q0 35 22.5 57t57.5 22t57.5 -22.5t22.5 -56.5v-992q0 -119 60 -212t168.5 -145t248.5 -52q137 0 243.5 52t167 145.5t60.5 211.5v992q0 35 22.5 57t57.5 22t57.5 -22.5t22.5 -56.5v-992q0 -162 -81 -289.5t-224.5 -199.5t-325.5 -72q-185 0 -330 72t-226 200 t-81 289zM494 1896q0 33 22.5 53.5t57.5 20.5h530q33 0 56.5 -20.5t23.5 -53.5t-23.5 -53.5t-56.5 -20.5h-530q-35 0 -57.5 20.5t-22.5 53.5z" />
<glyph unicode="&#x16b;" d="M164 510v532q0 33 22.5 55.5t55.5 22.5q35 0 57.5 -22.5t22.5 -55.5v-532q0 -182 101 -277.5t265 -95.5q100 0 181 39t128 107.5t47 152.5v606q0 35 21.5 56.5t56.5 21.5t57.5 -21.5t22.5 -56.5v-962q0 -35 -22.5 -57.5t-57.5 -22.5t-56.5 22.5t-21.5 57.5v70 q-68 -76 -164 -119t-208 -43q-145 0 -261 61.5t-181.5 179t-65.5 281.5zM348 1417q0 33 22.5 53.5t57.5 20.5h530q33 0 56.5 -20.5t23.5 -53.5t-23.5 -53.5t-56.5 -20.5h-530q-35 0 -57.5 20.5t-22.5 53.5z" />
<glyph unicode="&#x16c;" horiz-adv-x="1677" d="M205 528v992q0 35 22.5 57t57.5 22t57.5 -22.5t22.5 -56.5v-992q0 -119 60 -212t168.5 -145t248.5 -52q137 0 243.5 52t167 145.5t60.5 211.5v992q0 35 22.5 57t57.5 22t57.5 -22.5t22.5 -56.5v-992q0 -162 -81 -289.5t-224.5 -199.5t-325.5 -72q-185 0 -330 72t-226 200 t-81 289zM518 2009q0 35 22.5 58.5t55.5 23.5q31 0 53.5 -21.5t22.5 -52.5q0 -47 47 -80t118 -33q76 0 122 32t46 81q0 33 22.5 53.5t55.5 20.5t54.5 -23.5t21.5 -56.5q-4 -104 -97 -172t-225 -68q-86 0 -159.5 32t-116.5 86t-43 120z" />
<glyph unicode="&#x16d;" d="M164 510v532q0 33 22.5 55.5t55.5 22.5q35 0 57.5 -22.5t22.5 -55.5v-532q0 -182 101 -277.5t265 -95.5q100 0 181 39t128 107.5t47 152.5v606q0 35 21.5 56.5t56.5 21.5t57.5 -21.5t22.5 -56.5v-962q0 -35 -22.5 -57.5t-57.5 -22.5t-56.5 22.5t-21.5 57.5v70 q-68 -76 -164 -119t-208 -43q-145 0 -261 61.5t-181.5 179t-65.5 281.5zM373 1530q0 35 22.5 58.5t55.5 23.5q31 0 53.5 -21.5t22.5 -52.5q0 -47 47 -80t118 -33q76 0 122 32t46 81q0 33 22.5 53.5t55.5 20.5t54.5 -23.5t21.5 -56.5q-4 -104 -97 -172t-225 -68 q-86 0 -159.5 32t-116.5 86t-43 120z" />
<glyph unicode="&#x16e;" horiz-adv-x="1677" d="M205 528v992q0 35 22.5 57t57.5 22t57.5 -22.5t22.5 -56.5v-992q0 -119 60 -212t168.5 -145t248.5 -52q137 0 243.5 52t167 145.5t60.5 211.5v992q0 35 22.5 57t57.5 22t57.5 -22.5t22.5 -56.5v-992q0 -162 -81 -289.5t-224.5 -199.5t-325.5 -72q-185 0 -330 72t-226 200 t-81 289zM639 1894q0 86 58 143.5t142 57.5q86 0 143.5 -57.5t57.5 -143.5t-57.5 -143.5t-143.5 -57.5q-84 0 -142 57.5t-58 143.5zM733 1894q0 -45 30.5 -76.5t75.5 -31.5t77 31.5t32 76.5q0 47 -32 78t-77 31t-75.5 -32t-30.5 -77z" />
<glyph unicode="&#x16f;" d="M164 510v532q0 33 22.5 55.5t55.5 22.5q35 0 57.5 -22.5t22.5 -55.5v-532q0 -182 101 -277.5t265 -95.5q100 0 181 39t128 107.5t47 152.5v606q0 35 21.5 56.5t56.5 21.5t57.5 -21.5t22.5 -56.5v-962q0 -35 -22.5 -57.5t-57.5 -22.5t-56.5 22.5t-21.5 57.5v70 q-68 -76 -164 -119t-208 -43q-145 0 -261 61.5t-181.5 179t-65.5 281.5zM494 1415q0 86 58 143.5t142 57.5q86 0 143.5 -57.5t57.5 -143.5t-57.5 -143.5t-143.5 -57.5q-84 0 -142 57.5t-58 143.5zM588 1415q0 -45 30.5 -76.5t75.5 -31.5t77 31.5t32 76.5q0 47 -32 78t-77 31 t-75.5 -32t-30.5 -77z" />
<glyph unicode="&#x170;" horiz-adv-x="1677" d="M205 528v992q0 35 22.5 57t57.5 22t57.5 -22.5t22.5 -56.5v-992q0 -119 60 -212t168.5 -145t248.5 -52q137 0 243.5 52t167 145.5t60.5 211.5v992q0 35 22.5 57t57.5 22t57.5 -22.5t22.5 -56.5v-992q0 -162 -81 -289.5t-224.5 -199.5t-325.5 -72q-185 0 -330 72t-226 200 t-81 289zM623 1816q0 16 4 25l86 278q8 23 28.5 36.5t45.5 13.5q35 0 58.5 -24t23.5 -56q0 -12 -6 -29l-125 -264q-20 -39 -58 -39q-22 0 -39.5 16.5t-17.5 42.5zM932 1816q0 8 4 25l91 278q6 20 26.5 35t44.5 15q35 0 57.5 -24t22.5 -56q0 -12 -6 -29l-125 -264 q-20 -39 -57 -39q-23 0 -40.5 16.5t-17.5 42.5z" />
<glyph unicode="&#x171;" d="M164 510v532q0 33 22.5 55.5t55.5 22.5q35 0 57.5 -22.5t22.5 -55.5v-532q0 -182 101 -277.5t265 -95.5q100 0 181 39t128 107.5t47 152.5v606q0 35 21.5 56.5t56.5 21.5t57.5 -21.5t22.5 -56.5v-962q0 -35 -22.5 -57.5t-57.5 -22.5t-56.5 22.5t-21.5 57.5v70 q-68 -76 -164 -119t-208 -43q-145 0 -261 61.5t-181.5 179t-65.5 281.5zM477 1337q0 16 4 25l86 278q8 23 28.5 36.5t45.5 13.5q35 0 58.5 -24t23.5 -56q0 -12 -6 -29l-125 -264q-20 -39 -58 -39q-22 0 -39.5 16.5t-17.5 42.5zM786 1337q0 8 4 25l91 278q6 20 26.5 35 t44.5 15q35 0 57.5 -24t22.5 -56q0 -12 -6 -29l-125 -264q-20 -39 -57 -39q-23 0 -40.5 16.5t-17.5 42.5z" />
<glyph unicode="&#x172;" horiz-adv-x="1677" d="M205 528v992q0 35 22.5 57t57.5 22t57.5 -22.5t22.5 -56.5v-992q0 -119 60 -212t168.5 -145t248.5 -52q137 0 243.5 52t167 145.5t60.5 211.5v992q0 35 22.5 57t57.5 22q34 0 57 -22.5t23 -56.5v-992q0 -176 -94.5 -311t-258.5 -199q-14 -70 -125 -151q-33 -25 -32 -66 q0 -35 23.5 -57.5t55.5 -22.5q25 0 43 13l70 51q23 16 47 16q35 0 57.5 -23.5t22.5 -56.5q0 -37 -27 -63l-81 -53q-61 -43 -132 -43q-98 0 -168.5 70.5t-70.5 168.5q0 92 67 166h-28q-184 0 -329.5 72t-226.5 200t-81 289z" />
<glyph unicode="&#x173;" d="M164 510v532q0 33 22.5 55.5t55.5 22.5q35 0 57.5 -22.5t22.5 -55.5v-532q0 -182 101 -277.5t265 -95.5q100 0 181 39t128 107.5t47 152.5v606q0 35 21.5 56.5t56.5 21.5t57.5 -21.5t22.5 -56.5v-962q0 -25 -11 -43.5t-32 -28.5q33 -20 37 -65q0 -82 -127 -174 q-33 -25 -33 -66q0 -35 23.5 -57.5t56.5 -22.5q25 0 43 12l70 52q23 16 47 16q35 0 57.5 -23.5t22.5 -56.5q0 -37 -27 -63l-82 -54q-61 -43 -131 -43q-98 0 -168.5 71t-70.5 169q0 113 100 197q53 39 70 80q12 20 32 32q-35 18 -35 68v70q-68 -76 -164 -119t-208 -43 q-145 0 -261 61.5t-181.5 179t-65.5 281.5z" />
<glyph unicode="&#x174;" horiz-adv-x="1921" d="M41 1522q0 35 20.5 56t53.5 21q57 0 78 -61l354 -1235l336 1200q6 23 27.5 37t47.5 14q27 0 47.5 -14t28.5 -39l338 -1200l357 1245q16 53 77 53q33 0 51.5 -21.5t18.5 -53.5q0 -16 -6 -39l-418 -1417q-10 -33 -31.5 -50.5t-50.5 -17.5t-50.5 18.5t-29.5 47.5l-332 1210 l-329 -1208q-10 -31 -32 -49.5t-50 -18.5q-29 0 -50.5 18.5t-29.5 47.5l-420 1419q-6 23 -6 37zM641 1849q0 43 39 70l242 159q16 10 38 11q20 0 41 -11l240 -159q39 -27 39 -70q0 -31 -22.5 -51.5t-57.5 -20.5q-23 0 -49 17l-191 131l-190 -131q-23 -16 -47 -17 q-35 0 -58.5 19.5t-23.5 52.5z" />
<glyph unicode="&#x175;" horiz-adv-x="1515" d="M37 1053q0 68 65 67q57 0 78 -59l262 -799l242 797q8 29 27.5 45t50.5 16t50 -16.5t28 -44.5l235 -793l260 795q20 59 76 59q33 0 51.5 -18.5t18.5 -48.5q0 -25 -8 -43l-320 -959q-8 -23 -27.5 -37t-46.5 -14t-48 14.5t-27 36.5l-246 815l-246 -815q-8 -25 -28.5 -38 t-45.5 -13q-27 0 -46 14.5t-30 36.5l-319 959q-6 25 -6 43zM440 1370q0 43 39 70l242 159q16 10 38 11q20 0 41 -11l240 -159q39 -27 39 -70q0 -31 -22.5 -51.5t-57.5 -20.5q-23 0 -49 17l-191 131l-190 -131q-23 -16 -47 -17q-35 0 -58.5 19.5t-23.5 52.5z" />
<glyph unicode="&#x176;" horiz-adv-x="1327" d="M10 1526q0 31 22.5 52t55.5 21q23 0 38 -9t30 -29l510 -822l508 817q16 23 32.5 33t40.5 10q31 0 50.5 -21.5t19.5 -51.5q0 -29 -14 -51l-560 -883v-512q0 -33 -22.5 -56.5t-56.5 -23.5q-33 0 -56.5 23.5t-23.5 56.5v512l-557 883q-16 27 -17 51zM344 1849q0 43 39 70 l242 159q16 10 38 11q20 0 41 -11l240 -159q39 -27 39 -70q0 -31 -22.5 -51.5t-57.5 -20.5q-23 0 -49 17l-191 131l-190 -131q-23 -16 -47 -17q-35 0 -58.5 19.5t-23.5 52.5z" />
<glyph unicode="&#x177;" horiz-adv-x="1122" d="M39 1053q0 43 45 61q16 8 37 8q43 0 61 -43l400 -841l381 839q20 45 61 45q18 0 37 -8q47 -18 47 -59q0 -18 -8 -37l-664 -1458q-18 -47 -59 -47q-20 0 -37 8q-47 18 -47 61q0 18 8 37l203 449v2l-457 946q-8 16 -8 37zM256 1370q0 43 39 70l242 159q16 10 38 11 q20 0 41 -11l240 -159q39 -27 39 -70q0 -31 -22.5 -51.5t-57.5 -20.5q-23 0 -49 17l-191 131l-190 -131q-23 -16 -47 -17q-35 0 -58.5 19.5t-23.5 52.5z" />
<glyph unicode="&#x178;" horiz-adv-x="1327" d="M10 1526q0 31 22.5 52t55.5 21q23 0 38 -9t30 -29l510 -822l508 817q16 23 32.5 33t40.5 10q31 0 50.5 -21.5t19.5 -51.5q0 -29 -14 -51l-560 -883v-512q0 -33 -22.5 -56.5t-56.5 -23.5q-33 0 -56.5 23.5t-23.5 56.5v512l-557 883q-16 27 -17 51zM338 1917 q0 47 32.5 79.5t79.5 32.5t80 -32.5t33 -79.5t-33 -80t-80 -33t-79.5 33t-32.5 80zM766 1917q0 47 32.5 79.5t79.5 32.5t80 -32.5t33 -79.5t-33 -80t-80 -33t-79.5 33t-32.5 80z" />
<glyph unicode="&#x179;" horiz-adv-x="1482" d="M100 80q0 31 17 49l1059 1327h-988q-37 0 -57 18.5t-20 51.5q0 31 22.5 52t56.5 21h1110q37 0 58.5 -24.5t21.5 -56.5q0 -27 -14 -43l-1063 -1332h997q35 0 57.5 -19.5t22.5 -51.5q0 -31 -22.5 -51.5t-57.5 -20.5h-1120q-35 0 -57.5 24.5t-22.5 55.5zM647 1849 q0 33 19 53l231 232q23 23 55 22q35 0 57.5 -23.5t22.5 -58.5q0 -33 -22 -53l-230 -231q-20 -20 -53 -21q-35 0 -57.5 23.5t-22.5 56.5z" />
<glyph unicode="&#x17a;" horiz-adv-x="1124" d="M125 1049q0 72 72 71h759q72 0 72 -71q0 -33 -16 -54l-666 -852h619q71 1 71 -71t-71 -72h-760q-72 0 -72 72q0 35 14 51l672 854h-622q-72 0 -72 72zM487 1370q0 33 19 53l231 232q23 23 55 22q35 0 57.5 -23.5t22.5 -58.5q0 -33 -22 -53l-230 -231q-20 -20 -53 -21 q-35 0 -57.5 23.5t-22.5 56.5z" />
<glyph unicode="&#x17b;" horiz-adv-x="1482" d="M100 80q0 31 17 49l1059 1327h-988q-37 0 -57 18.5t-20 51.5q0 31 22.5 52t56.5 21h1110q37 0 58.5 -24.5t21.5 -56.5q0 -27 -14 -43l-1063 -1332h997q35 0 57.5 -19.5t22.5 -51.5q0 -31 -22.5 -51.5t-57.5 -20.5h-1120q-35 0 -57.5 24.5t-22.5 55.5zM628 1925 q0 49 33 79.5t80 30.5q45 0 77.5 -30.5t32.5 -79.5q0 -47 -32.5 -80t-79.5 -33t-79 33t-32 80z" />
<glyph unicode="&#x17c;" horiz-adv-x="1124" d="M125 1049q0 72 72 71h759q72 0 72 -71q0 -33 -16 -54l-666 -852h619q71 1 71 -71t-71 -72h-760q-72 0 -72 72q0 35 14 51l672 854h-622q-72 0 -72 72zM469 1446q0 49 33 79.5t80 30.5q45 0 77.5 -30.5t32.5 -79.5q0 -47 -32.5 -80t-79.5 -33t-79 33t-32 80z" />
<glyph unicode="&#x17d;" horiz-adv-x="1482" d="M100 80q0 31 17 49l1059 1327h-988q-37 0 -57 18.5t-20 51.5q0 31 22.5 52t56.5 21h1110q37 0 58.5 -24.5t21.5 -56.5q0 -27 -14 -43l-1063 -1332h997q35 0 57.5 -19.5t22.5 -51.5q0 -31 -22.5 -51.5t-57.5 -20.5h-1120q-35 0 -57.5 24.5t-22.5 55.5zM422 2025 q0 27 17.5 43.5t45.5 16.5q31 0 66 -23l190 -129l191 127q35 25 68 25q29 0 45 -17.5t16 -42.5q0 -41 -39 -67l-240 -160q-14 -10 -41 -10q-26 0 -38 10l-242 160q-39 27 -39 67z" />
<glyph unicode="&#x17e;" horiz-adv-x="1124" d="M125 1049q0 72 72 71h759q72 0 72 -71q0 -33 -16 -54l-666 -852h619q71 1 71 -71t-71 -72h-760q-72 0 -72 72q0 35 14 51l672 854h-622q-72 0 -72 72zM262 1546q0 27 17.5 43.5t45.5 16.5q31 0 66 -23l190 -129l191 127q35 25 68 25q29 0 45 -17.5t16 -42.5 q0 -41 -39 -67l-240 -160q-14 -10 -41 -10q-26 0 -38 10l-242 160q-39 27 -39 67z" />
<glyph unicode="&#x17f;" horiz-adv-x="632" d="M123 80v1038q0 219 112.5 350t319.5 131q33 0 55.5 -20t22.5 -51t-22.5 -51.5t-55.5 -20.5q-135 0 -203.5 -90t-68.5 -240v-1046q0 -37 -22.5 -58.5t-59.5 -21.5q-33 0 -55.5 21.5t-22.5 58.5z" />
<glyph unicode="&#x18f;" horiz-adv-x="1716" d="M127 774q0 45 29.5 72.5t76.5 27.5h1199q-16 174 -104.5 309.5t-230 210t-317.5 74.5q-111 0 -211 -32.5t-184 -94.5q-25 -18 -53 -18q-33 0 -53 23q-18 23 -19 49q0 33 23 51q98 82 226 128t279 46q230 0 413 -106.5t286.5 -295t103.5 -425.5q0 -233 -94 -419t-260 -290 t-375 -104q-217 0 -384 102t-259 283.5t-92 408.5zM283 733q6 -172 82.5 -309t206.5 -215t290 -78q156 0 282 78t202.5 215t87.5 309h-1151z" />
<glyph unicode="&#x192;" horiz-adv-x="960" d="M0 -399q0 35 22.5 57.5t57.5 22.5q322 0 321 319v901h-82q-33 0 -55 22.5t-22 57.5t22.5 57.5t54.5 22.5h82v57q0 481 480 481q35 0 57.5 -22.5t22.5 -56.5q0 -33 -23 -56.5t-57 -23.5q-322 0 -322 -322v-57h244q33 0 55.5 -23.5t22.5 -56.5t-22.5 -56.5t-55.5 -23.5 h-244v-901q0 -479 -479 -479q-35 0 -57.5 22.5t-22.5 57.5z" />
<glyph unicode="&#x1a0;" horiz-adv-x="1886" d="M127 801q0 233 105.5 419.5t292 293t419.5 106.5q215 0 393 -92h82q37 0 62.5 31.5t25.5 80.5v43q0 35 19.5 56.5t52.5 21.5q35 0 54.5 -25.5t19.5 -64.5v-31q0 -82 -38 -145t-102 -92q119 -113 183.5 -267.5t64.5 -334.5q0 -233 -105.5 -420.5t-292.5 -294t-419 -106.5 q-233 0 -419.5 106.5t-292 293.5t-105.5 421zM283 801q0 -188 86 -341t236.5 -241t338.5 -88q186 0 337 88t237 240.5t86 341.5q0 186 -86 338.5t-237 240.5t-337 88q-188 0 -338.5 -88t-236.5 -240.5t-86 -338.5z" />
<glyph unicode="&#x1a1;" d="M125 559q0 162 73.5 293t203.5 204.5t292 73.5q139 0 260 -57h84q37 0 62.5 32t25.5 81v43q0 35 19.5 56.5t52.5 21.5q35 0 54.5 -26t19.5 -64v-31q0 -84 -40 -148.5t-108 -93.5q66 -78 103 -176t37 -209q0 -162 -74 -292t-204 -203.5t-292 -73.5t-292 73.5t-203.5 203.5 t-73.5 292zM279 559q0 -121 54 -218t149.5 -152.5t211.5 -55.5q119 0 213 55.5t147.5 152.5t53.5 218q0 123 -53.5 220.5t-147.5 152.5t-213 55q-117 0 -212 -55t-149 -152.5t-54 -220.5z" />
<glyph unicode="&#x1af;" horiz-adv-x="1677" d="M205 528v992q0 35 22.5 57t57.5 22t57.5 -22.5t22.5 -56.5v-992q0 -119 60 -212t168.5 -145t248.5 -52q137 0 243.5 52t167 145.5t60.5 211.5v992q0 35 22.5 57t57.5 22h90q37 0 62.5 32t25.5 81v43q0 35 19.5 56.5t51.5 21.5q35 0 54.5 -25.5t19.5 -64.5v-31 q0 -111 -66.5 -184.5t-166.5 -73.5h-10v-926q0 -162 -81 -289.5t-224.5 -199.5t-325.5 -72q-184 0 -329.5 72t-226.5 200t-81 289z" />
<glyph unicode="&#x1b0;" d="M164 510v532q0 33 22.5 55.5t55.5 22.5q35 0 57.5 -22.5t22.5 -55.5v-532q0 -182 101 -277.5t265 -95.5q100 0 181 39t128 107.5t47 152.5v606q0 35 20.5 56.5t55.5 21.5h90q37 0 62.5 32t25.5 81v43q0 35 19.5 56.5t52.5 21.5q35 0 54.5 -25.5t19.5 -64.5v-31 q0 -111 -66.5 -184.5t-167.5 -73.5h-8v-895q0 -35 -22.5 -57.5t-57.5 -22.5t-56.5 22.5t-21.5 57.5v70q-68 -76 -164 -119t-208 -43q-145 0 -261 61.5t-181.5 179t-65.5 281.5z" />
<glyph unicode="&#x1e6;" horiz-adv-x="1579" d="M127 801q0 221 106.5 409.5t289 299t401.5 110.5q147 0 268 -43t233 -137q23 -16 23 -47q0 -16 -8 -29.5t-23 -20.5q-4 -14 -18.5 -23t-30.5 -9q-29 0 -51 20q-80 72 -174 104.5t-219 32.5q-172 0 -319.5 -91t-234.5 -244.5t-87 -331.5q0 -182 86 -336t233.5 -244 t321.5 -90q199 0 368 117v409h-319q-35 0 -57.5 20.5t-22.5 51.5t22.5 50.5t57.5 19.5h395q35 0 57.5 -21.5t22.5 -56.5v-508q0 -35 -23 -57q-190 -176 -501 -176q-217 0 -399.5 110.5t-290 299t-107.5 411.5zM582 2025q0 27 17.5 43.5t45.5 16.5q31 0 66 -23l190 -129 l191 127q35 25 68 25q29 0 45 -17.5t16 -42.5q0 -41 -39 -67l-240 -160q-14 -10 -41 -10q-26 0 -38 10l-242 160q-39 27 -39 67z" />
<glyph unicode="&#x1e7;" d="M125 559q0 166 73.5 296t203.5 202.5t292 72.5q164 0 293 -72.5t203 -202.5t74 -296v-418q0 -164 -73 -297t-202 -209.5t-291 -76.5q-158 0 -280.5 59t-206.5 166q-18 20 -18 47q0 31 28 53q20 14 45 15q18 0 37 -9.5t29 -23.5q61 -78 155.5 -121t212.5 -43 q115 0 208 56.5t146.5 157.5t53.5 232v93q-61 -117 -174 -183.5t-256 -66.5q-160 0 -286 72.5t-196.5 202.5t-70.5 294zM279 559q0 -123 53 -220t147 -151.5t215 -54.5q119 0 213 54.5t147.5 151.5t53.5 220t-53.5 220.5t-147.5 152.5t-213 55q-121 0 -215 -55t-147 -152.5 t-53 -220.5zM375 1546q0 27 17.5 43.5t45.5 16.5q31 0 66 -23l190 -129l191 127q35 25 68 25q29 0 45 -17.5t16 -42.5q0 -41 -39 -67l-240 -160q-14 -10 -41 -10q-26 0 -38 10l-242 160q-39 27 -39 67z" />
<glyph unicode="&#x1ea;" horiz-adv-x="1886" d="M127 801q0 233 105.5 419.5t292 293t419.5 106.5q231 0 418.5 -106.5t293 -293t105.5 -419.5q0 -223 -96 -404.5t-267 -291t-386 -123.5q10 -16 10 -39q0 -82 -127 -174q-33 -25 -33 -66q0 -35 23.5 -57.5t56.5 -22.5q25 0 43 12l70 52q23 16 47 16q35 0 57.5 -23.5 t22.5 -56.5q0 -37 -27 -63l-82 -54q-61 -43 -131 -43q-98 0 -169 71t-71 169q0 113 101 197q53 39 69 80l2 2q-215 16 -386 125.5t-266 291t-95 402.5zM283 801q0 -188 86 -341t236.5 -241t338.5 -88q186 0 337 88t237 240.5t86 341.5q0 186 -86 338.5t-237 240.5t-337 88 q-188 0 -338.5 -88t-236.5 -240.5t-86 -338.5z" />
<glyph unicode="&#x1eb;" d="M125 559q0 162 73.5 293t203.5 204.5t292 73.5t291 -73.5t204 -204.5t75 -293q0 -172 -84 -308t-228 -204q8 -20 9 -35q0 -82 -127 -174q-33 -25 -33 -65q0 -35 23.5 -57.5t56.5 -22.5q25 0 43 12l69 51q23 16 47 17q35 0 57.5 -23.5t22.5 -56.5q0 -37 -26 -64l-82 -53 q-61 -43 -131 -43q-98 0 -169 70.5t-71 169.5q0 113 100 196q18 12 31 25q-49 -4 -78 -4q-162 0 -292 73.5t-203.5 203.5t-73.5 292zM279 559q0 -121 54 -218t149.5 -152.5t211.5 -55.5q119 0 213 55.5t147.5 152.5t53.5 218q0 123 -53.5 220.5t-147.5 152.5t-213 55 q-117 0 -212 -55t-149 -152.5t-54 -220.5z" />
<glyph unicode="&#x1fa;" horiz-adv-x="1439" d="M39 80q0 20 6 35l602 1429q23 55 78 55t76 -55l604 -1431q8 -15 8 -33q0 -33 -23.5 -56.5t-56.5 -23.5q-53 0 -76 49l-137 332h-792l-138 -332q-16 -49 -73 -49q-35 0 -56.5 23.5t-21.5 56.5zM385 518h680l-340 821zM521 1894q0 86 58 143.5t142 57.5q86 0 143.5 -57.5 t57.5 -143.5t-57.5 -143.5t-143.5 -57.5q-84 0 -142 57.5t-58 143.5zM615 1894q0 -45 30.5 -76.5t75.5 -31.5t77 31.5t32 76.5q0 47 -32 78t-77 31t-75.5 -32t-30.5 -77zM627 2255q0 33 19 53l231 232q23 23 55 22q35 0 57.5 -23.5t22.5 -58.5q0 -33 -22 -53l-230 -231 q-20 -20 -53 -21q-35 0 -57.5 23.5t-22.5 56.5z" />
<glyph unicode="&#x1fb;" d="M125 559q0 160 74.5 291t205 205.5t289.5 74.5q160 0 290 -74.5t205 -205.5t75 -291v-481q0 -33 -22.5 -55.5t-57.5 -22.5t-57.5 21.5t-22.5 56.5v123q-72 -98 -182.5 -154.5t-243.5 -56.5q-156 0 -282 74.5t-198.5 204.5t-72.5 290zM279 559q0 -121 54 -218 t149.5 -152.5t211.5 -55.5q117 0 211 55.5t148.5 152.5t54.5 218t-54.5 218t-148.5 153.5t-211 56.5t-212 -56.5t-149 -153.5t-54 -218zM494 1415q0 86 58 143.5t142 57.5q86 0 143.5 -57.5t57.5 -143.5t-57.5 -143.5t-143.5 -57.5q-84 0 -142 57.5t-58 143.5zM588 1415 q0 -45 30.5 -76.5t75.5 -31.5t77 31.5t32 76.5q0 47 -32 78t-77 31t-75.5 -32t-30.5 -77zM600 1776q0 33 19 53l231 232q23 23 55 22q35 0 57.5 -23.5t22.5 -58.5q0 -33 -22 -53l-230 -231q-20 -20 -53 -21q-35 0 -57.5 23.5t-22.5 56.5z" />
<glyph unicode="&#x1fc;" horiz-adv-x="1966" d="M37 80q0 14 10 35l858 1423q18 33 44 47t67 14h778q35 0 57.5 -22.5t22.5 -54.5q0 -33 -22.5 -54.5t-57.5 -21.5h-727v-565h487q35 0 57.5 -22.5t22.5 -55.5t-23.5 -55.5t-56.5 -22.5h-487v-571h727q35 0 57.5 -21.5t22.5 -54.5t-22.5 -55.5t-57.5 -22.5h-807 q-33 0 -56.5 23.5t-23.5 56.5v301h-516l-198 -332q-25 -49 -74 -49q-35 0 -58.5 24.5t-23.5 55.5zM473 518h434v731zM1128 1849q0 33 19 53l231 232q23 23 55 22q35 0 57.5 -23.5t22.5 -58.5q0 -33 -22 -53l-230 -231q-20 -20 -53 -21q-35 0 -57.5 23.5t-22.5 56.5z" />
<glyph unicode="&#x1fd;" horiz-adv-x="2244" d="M125 559q0 160 74.5 291t205 205.5t289.5 74.5q162 0 294 -77.5t204 -210.5q63 135 183 211.5t274 76.5q153 0 270 -70.5t180.5 -195.5t63.5 -284q0 -33 -20.5 -52.5t-53.5 -19.5h-825v-14q20 -162 134.5 -262.5t280.5 -100.5q80 0 151 24.5t118 65.5q27 20 55 21 q29 0 45 -17q29 -25 29 -55q0 -25 -25 -47q-68 -57 -172 -95t-201 -38q-127 0 -233.5 48t-181.5 136v-96q0 -33 -22.5 -55.5t-57.5 -22.5t-57.5 21.5t-22.5 56.5v123q-72 -98 -182.5 -154.5t-243.5 -56.5q-156 0 -282 74.5t-198.5 204.5t-72.5 290zM279 559q0 -121 54 -218 t149.5 -152.5t211.5 -55.5q117 0 211 55.5t148.5 152.5t54.5 218t-54.5 218t-148.5 153.5t-211 56.5t-212 -56.5t-149 -153.5t-54 -218zM1051 1370q0 33 19 53l231 232q23 23 55 22q35 0 57.5 -23.5t22.5 -58.5q0 -33 -22 -53l-230 -231q-20 -20 -53 -21q-35 0 -57.5 23.5 t-22.5 56.5zM1266 639h751q-16 158 -115.5 254t-252.5 96q-156 0 -258.5 -96t-124.5 -254z" />
<glyph unicode="&#x1fe;" horiz-adv-x="1810" d="M119 63q0 25 16 41l168 168q-84 109 -130 243t-46 286q0 233 105.5 419.5t292 293t419.5 106.5q158 0 297 -50t246 -145l160 158q16 16 43 16t46 -18t19 -43q0 -23 -18 -41l-162 -162q90 -104 138 -241.5t48 -292.5q0 -233 -105.5 -420.5t-292.5 -294t-419 -106.5 q-162 0 -303 53t-250 149l-166 -166q-16 -16 -43 -16q-29 0 -46 18.5t-17 44.5zM283 801q0 -244 141 -424l944 944q-86 70 -194.5 108.5t-229.5 38.5q-188 0 -338.5 -88t-236.5 -240.5t-86 -338.5zM510 285q88 -74 198.5 -114t235.5 -40q186 0 337 88t237 240.5t86 341.5 q0 123 -38 233.5t-110 196.5zM850 1849q0 33 19 53l231 232q23 23 55 22q35 0 57.5 -23.5t22.5 -58.5q0 -33 -22 -53l-230 -231q-20 -20 -53 -21q-35 0 -57.5 23.5t-22.5 56.5z" />
<glyph unicode="&#x1ff;" horiz-adv-x="1433" d="M125 25q0 25 18 43l131 131q-115 154 -114 356q0 162 73.5 293t203.5 204.5t292 73.5q106 0 199.5 -31.5t167.5 -93.5l104 103q16 20 47 20q29 0 44.5 -19.5t15.5 -45.5q0 -27 -15 -41l-108 -109q55 -72 84.5 -163t29.5 -191q0 -162 -73.5 -292t-203.5 -203.5t-292 -73.5 q-211 0 -367 123l-129 -129q-18 -18 -45 -19q-27 0 -45 19.5t-18 44.5zM313 555q0 -150 80 -258l598 596q-109 90 -262 90q-117 0 -212 -55.5t-149.5 -152.5t-54.5 -220zM477 211q111 -82 252 -82q119 0 213 55.5t147.5 152.5t53.5 218q0 139 -70 248zM635 1366q0 33 19 53 l231 232q23 23 55 22q35 0 57.5 -23.5t22.5 -58.5q0 -33 -22 -53l-230 -231q-20 -20 -53 -21q-35 0 -57.5 23.5t-22.5 56.5z" />
<glyph unicode="&#x200;" horiz-adv-x="1439" d="M39 80q0 20 6 35l602 1429q23 55 78 55t76 -55l604 -1431q8 -15 8 -33q0 -33 -23.5 -56.5t-56.5 -23.5q-53 0 -76 49l-137 332h-792l-138 -332q-16 -49 -73 -49q-35 0 -56.5 23.5t-21.5 56.5zM385 518h680l-340 821zM442 2089q0 33 22.5 56.5t57.5 23.5q25 0 45.5 -14.5 t26.5 -35.5l90 -278q4 -16 4 -25q0 -27 -17.5 -43t-39.5 -16q-40 0 -58 39l-125 264q-6 16 -6 29zM751 2089q0 33 24 56.5t58 23.5q25 0 45.5 -14.5t28.5 -35.5l86 -278q4 -8 4 -25q0 -27 -17.5 -43t-39.5 -16q-40 0 -58 39l-124 264q-6 16 -7 29z" />
<glyph unicode="&#x201;" d="M125 559q0 160 74.5 291t205 205.5t289.5 74.5q160 0 290 -74.5t205 -205.5t75 -291v-481q0 -33 -22.5 -55.5t-57.5 -22.5t-57.5 21.5t-22.5 56.5v123q-72 -98 -182.5 -154.5t-243.5 -56.5q-156 0 -282 74.5t-198.5 204.5t-72.5 290zM279 559q0 -121 54 -218 t149.5 -152.5t211.5 -55.5q117 0 211 55.5t148.5 152.5t54.5 218t-54.5 218t-148.5 153.5t-211 56.5t-212 -56.5t-149 -153.5t-54 -218zM416 1610q0 33 22.5 56.5t57.5 23.5q25 0 45.5 -14.5t26.5 -35.5l90 -278q4 -16 4 -25q0 -27 -17.5 -43t-39.5 -16q-40 0 -58 39 l-125 264q-6 16 -6 29zM725 1610q0 33 24 56.5t58 23.5q25 0 45.5 -14.5t28.5 -35.5l86 -278q4 -8 4 -25q0 -27 -17.5 -43t-39.5 -16q-40 0 -58 39l-124 264q-6 16 -7 29z" />
<glyph unicode="&#x202;" horiz-adv-x="1439" d="M39 80q0 20 6 35l602 1429q23 55 78 55t76 -55l604 -1431q8 -15 8 -33q0 -33 -23.5 -56.5t-56.5 -23.5q-53 0 -76 49l-137 332h-792l-138 -332q-16 -49 -73 -49q-35 0 -56.5 23.5t-21.5 56.5zM385 518h680l-340 821zM400 1851q0 66 43 120t116.5 86t159.5 32 q131 0 224.5 -67.5t97.5 -172.5q0 -33 -21.5 -56.5t-54.5 -23.5t-55.5 20.5t-22.5 53.5q0 49 -46 81t-122 32q-72 0 -119 -33t-47 -80q0 -31 -22.5 -52.5t-53.5 -21.5q-33 0 -55 23.5t-22 58.5z" />
<glyph unicode="&#x203;" d="M125 559q0 160 74.5 291t205 205.5t289.5 74.5q160 0 290 -74.5t205 -205.5t75 -291v-481q0 -33 -22.5 -55.5t-57.5 -22.5t-57.5 21.5t-22.5 56.5v123q-72 -98 -182.5 -154.5t-243.5 -56.5q-156 0 -282 74.5t-198.5 204.5t-72.5 290zM279 559q0 -121 54 -218 t149.5 -152.5t211.5 -55.5q117 0 211 55.5t148.5 152.5t54.5 218t-54.5 218t-148.5 153.5t-211 56.5t-212 -56.5t-149 -153.5t-54 -218zM373 1372q0 66 43 120t116.5 86t159.5 32q131 0 224.5 -67.5t97.5 -172.5q0 -33 -21.5 -56.5t-54.5 -23.5t-55.5 20.5t-22.5 53.5 q0 49 -46 81t-122 32q-72 0 -119 -33t-47 -80q0 -31 -22.5 -52.5t-53.5 -21.5q-33 0 -55 23.5t-22 58.5z" />
<glyph unicode="&#x204;" horiz-adv-x="1417" d="M205 80v1440q0 35 23.5 57t56.5 22h960q35 0 57.5 -22.5t22.5 -54.5q0 -33 -22.5 -54.5t-57.5 -21.5h-880v-565h641q35 0 57 -22.5t22 -55.5t-23.5 -55.5t-55.5 -22.5h-641v-571h880q35 0 57.5 -21.5t22.5 -54.5t-22.5 -55.5t-57.5 -22.5h-960q-33 0 -56.5 23.5 t-23.5 56.5zM502 2089q0 33 22.5 56.5t57.5 23.5q25 0 45.5 -14.5t26.5 -35.5l90 -278q4 -16 4 -25q0 -27 -17.5 -43t-39.5 -16q-40 0 -58 39l-125 264q-6 16 -6 29zM811 2089q0 33 24 56.5t58 23.5q25 0 45.5 -14.5t28.5 -35.5l86 -278q4 -8 4 -25q0 -27 -17.5 -43 t-39.5 -16q-40 0 -58 39l-124 264q-6 16 -7 29z" />
<glyph unicode="&#x205;" horiz-adv-x="1257" d="M125 559q0 166 68.5 296t190.5 202.5t278 72.5q151 0 268 -70.5t181.5 -195.5t64.5 -284q0 -33 -20.5 -52.5t-53.5 -19.5h-828q16 -168 131 -272.5t287 -104.5q74 0 148.5 25.5t120.5 64.5q27 20 55 21q23 0 45 -17q27 -25 26 -55q0 -27 -22 -47q-68 -57 -172.5 -95 t-200.5 -38q-164 0 -293 72.5t-201.5 202.5t-72.5 294zM279 639h749q-16 158 -114.5 254t-251.5 96q-156 0 -258.5 -96t-124.5 -254zM373 1610q0 33 22.5 56.5t57.5 23.5q25 0 45.5 -14.5t26.5 -35.5l90 -278q4 -16 4 -25q0 -27 -17.5 -43t-39.5 -16q-40 0 -58 39l-125 264 q-6 16 -6 29zM682 1610q0 33 24 56.5t58 23.5q25 0 45.5 -14.5t28.5 -35.5l86 -278q4 -8 4 -25q0 -27 -17.5 -43t-39.5 -16q-40 0 -58 39l-124 264q-6 16 -7 29z" />
<glyph unicode="&#x206;" horiz-adv-x="1417" d="M205 80v1440q0 35 23.5 57t56.5 22h960q35 0 57.5 -22.5t22.5 -54.5q0 -33 -22.5 -54.5t-57.5 -21.5h-880v-565h641q35 0 57 -22.5t22 -55.5t-23.5 -55.5t-55.5 -22.5h-641v-571h880q35 0 57.5 -21.5t22.5 -54.5t-22.5 -55.5t-57.5 -22.5h-960q-33 0 -56.5 23.5 t-23.5 56.5zM459 1851q0 66 43 120t116.5 86t159.5 32q131 0 224.5 -67.5t97.5 -172.5q0 -33 -21.5 -56.5t-54.5 -23.5t-55.5 20.5t-22.5 53.5q0 49 -46 81t-122 32q-72 0 -119 -33t-47 -80q0 -31 -22.5 -52.5t-53.5 -21.5q-33 0 -55 23.5t-22 58.5z" />
<glyph unicode="&#x207;" horiz-adv-x="1257" d="M125 559q0 166 68.5 296t190.5 202.5t278 72.5q151 0 268 -70.5t181.5 -195.5t64.5 -284q0 -33 -20.5 -52.5t-53.5 -19.5h-828q16 -168 131 -272.5t287 -104.5q74 0 148.5 25.5t120.5 64.5q27 20 55 21q23 0 45 -17q27 -25 26 -55q0 -27 -22 -47q-68 -57 -172.5 -95 t-200.5 -38q-164 0 -293 72.5t-201.5 202.5t-72.5 294zM279 639h749q-16 158 -114.5 254t-251.5 96q-156 0 -258.5 -96t-124.5 -254zM330 1372q0 66 43 120t116.5 86t159.5 32q131 0 224.5 -67.5t97.5 -172.5q0 -33 -21.5 -56.5t-54.5 -23.5t-55.5 20.5t-22.5 53.5 q0 49 -46 81t-122 32q-72 0 -119 -33t-47 -80q0 -31 -22.5 -52.5t-53.5 -21.5q-33 0 -55 23.5t-22 58.5z" />
<glyph unicode="&#x208;" horiz-adv-x="569" d="M6 2089q0 33 22.5 56.5t57.5 23.5q25 0 45.5 -14.5t26.5 -35.5l90 -278q4 -16 4 -25q0 -27 -17.5 -43t-39.5 -16q-40 0 -58 39l-125 264q-6 16 -6 29zM205 80v1440q0 35 23.5 57t56.5 22q35 0 57.5 -22.5t22.5 -56.5v-1440q0 -33 -23 -56.5t-57 -23.5q-33 0 -56.5 23.5 t-23.5 56.5zM315 2089q0 33 24 56.5t58 23.5q25 0 45.5 -14.5t28.5 -35.5l86 -278q4 -8 4 -25q0 -27 -17.5 -43t-39.5 -16q-40 0 -58 39l-124 264q-6 16 -7 29z" />
<glyph unicode="&#x209;" horiz-adv-x="591" d="M18 1610q0 33 22.5 56.5t57.5 23.5q25 0 45.5 -14.5t26.5 -35.5l90 -278q4 -16 4 -25q0 -27 -17.5 -43t-39.5 -16q-40 0 -58 39l-125 264q-6 16 -6 29zM217 80v960q0 35 22.5 57.5t57.5 22.5t56.5 -22.5t21.5 -57.5v-960q0 -35 -21.5 -57.5t-56.5 -22.5t-57.5 22.5 t-22.5 57.5zM327 1610q0 33 24 56.5t58 23.5q25 0 45.5 -14.5t28.5 -35.5l86 -278q4 -8 4 -25q0 -27 -17.5 -43t-39.5 -16q-40 0 -58 39l-124 264q-6 16 -7 29z" />
<glyph unicode="&#x20a;" horiz-adv-x="569" d="M-36 1851q0 66 43 120t116.5 86t159.5 32q131 0 224.5 -67.5t97.5 -172.5q0 -33 -21.5 -56.5t-54.5 -23.5t-55.5 20.5t-22.5 53.5q0 49 -46 81t-122 32q-72 0 -119 -33t-47 -80q0 -31 -22.5 -52.5t-53.5 -21.5q-33 0 -55 23.5t-22 58.5zM205 80v1440q0 35 23.5 57 t56.5 22q35 0 57.5 -22.5t22.5 -56.5v-1440q0 -33 -23 -56.5t-57 -23.5q-33 0 -56.5 23.5t-23.5 56.5z" />
<glyph unicode="&#x20b;" horiz-adv-x="591" d="M8 1372q0 66 39 120t104.5 86t143.5 32q117 0 202 -67.5t89 -172.5q0 -33 -20.5 -56.5t-49.5 -23.5t-49.5 20.5t-20.5 53.5q0 49 -40.5 81t-110.5 32q-63 0 -106.5 -33t-43.5 -80q0 -33 -19.5 -53.5t-47.5 -20.5q-31 0 -50.5 23.5t-19.5 58.5zM217 80v960q0 35 22.5 57.5 t57.5 22.5t56.5 -22.5t21.5 -57.5v-960q0 -35 -21.5 -57.5t-56.5 -22.5t-57.5 22.5t-22.5 57.5z" />
<glyph unicode="&#x20c;" horiz-adv-x="1886" d="M127 801q0 233 105.5 419.5t292 293t419.5 106.5q231 0 418.5 -106.5t293 -293t105.5 -419.5t-105.5 -420.5t-292.5 -294t-419 -106.5q-233 0 -419.5 106.5t-292 293.5t-105.5 421zM283 801q0 -188 86 -341t236.5 -241t338.5 -88q186 0 337 88t237 240.5t86 341.5 q0 186 -86 338.5t-237 240.5t-337 88q-188 0 -338.5 -88t-236.5 -240.5t-86 -338.5zM665 2089q0 33 22.5 56.5t57.5 23.5q25 0 45.5 -14.5t26.5 -35.5l90 -278q4 -16 4 -25q0 -27 -17.5 -43t-39.5 -16q-40 0 -58 39l-125 264q-6 16 -6 29zM974 2089q0 33 24 56.5t58 23.5 q25 0 45.5 -14.5t28.5 -35.5l86 -278q4 -8 4 -25q0 -27 -17.5 -43t-39.5 -16q-40 0 -58 39l-124 264q-6 16 -7 29z" />
<glyph unicode="&#x20d;" d="M125 559q0 162 73.5 293t203.5 204.5t292 73.5t291 -73.5t204 -204.5t75 -293t-74 -292t-204 -203.5t-292 -73.5t-292 73.5t-203.5 203.5t-73.5 292zM279 559q0 -121 54 -218t149.5 -152.5t211.5 -55.5q119 0 213 55.5t147.5 152.5t53.5 218q0 123 -53.5 220.5 t-147.5 152.5t-213 55q-117 0 -212 -55t-149 -152.5t-54 -220.5zM416 1610q0 33 22.5 56.5t57.5 23.5q25 0 45.5 -14.5t26.5 -35.5l90 -278q4 -16 4 -25q0 -27 -17.5 -43t-39.5 -16q-40 0 -58 39l-125 264q-6 16 -6 29zM725 1610q0 33 24 56.5t58 23.5q25 0 45.5 -14.5 t28.5 -35.5l86 -278q4 -8 4 -25q0 -27 -17.5 -43t-39.5 -16q-40 0 -58 39l-124 264q-6 16 -7 29z" />
<glyph unicode="&#x20e;" horiz-adv-x="1886" d="M127 801q0 233 105.5 419.5t292 293t419.5 106.5q231 0 418.5 -106.5t293 -293t105.5 -419.5t-105.5 -420.5t-292.5 -294t-419 -106.5q-233 0 -419.5 106.5t-292 293.5t-105.5 421zM283 801q0 -188 86 -341t236.5 -241t338.5 -88q186 0 337 88t237 240.5t86 341.5 q0 186 -86 338.5t-237 240.5t-337 88q-188 0 -338.5 -88t-236.5 -240.5t-86 -338.5zM623 1851q0 66 43 120t116.5 86t159.5 32q131 0 224.5 -67.5t97.5 -172.5q0 -33 -21.5 -56.5t-54.5 -23.5t-55.5 20.5t-22.5 53.5q0 49 -46 81t-122 32q-72 0 -119 -33t-47 -80 q0 -31 -22.5 -52.5t-53.5 -21.5q-33 0 -55 23.5t-22 58.5z" />
<glyph unicode="&#x20f;" d="M125 559q0 162 73.5 293t203.5 204.5t292 73.5t291 -73.5t204 -204.5t75 -293t-74 -292t-204 -203.5t-292 -73.5t-292 73.5t-203.5 203.5t-73.5 292zM279 559q0 -121 54 -218t149.5 -152.5t211.5 -55.5q119 0 213 55.5t147.5 152.5t53.5 218q0 123 -53.5 220.5 t-147.5 152.5t-213 55q-117 0 -212 -55t-149 -152.5t-54 -220.5zM373 1372q0 66 43 120t116.5 86t159.5 32q131 0 224.5 -67.5t97.5 -172.5q0 -33 -21.5 -56.5t-54.5 -23.5t-55.5 20.5t-22.5 53.5q0 49 -46 81t-122 32q-72 0 -119 -33t-47 -80q0 -31 -22.5 -52.5 t-53.5 -21.5q-33 0 -55 23.5t-22 58.5z" />
<glyph unicode="&#x210;" horiz-adv-x="1265" d="M205 80v1440q0 35 22.5 57t57.5 22h383q150 0 266.5 -62t183 -175t66.5 -256q0 -158 -85 -276.5t-231 -170.5l336 -536q19 -30 19 -55q0 -31 -22.5 -49.5t-59.5 -18.5q-25 0 -41.5 10t-28.5 31l-369 586h-34h-303v-547q0 -35 -23 -57.5t-57 -22.5q-35 0 -57.5 22.5 t-22.5 57.5zM365 780h303q102 0 185 42t129 116t46 168q0 98 -46 176t-128 121t-186 43h-303v-666zM381 2089q0 33 22.5 56.5t57.5 23.5q25 0 45.5 -14.5t26.5 -35.5l90 -278q4 -16 4 -25q0 -27 -17.5 -43t-39.5 -16q-40 0 -58 39l-125 264q-6 16 -6 29zM690 2089 q0 33 24 56.5t58 23.5q25 0 45.5 -14.5t28.5 -35.5l86 -278q4 -8 4 -25q0 -27 -17.5 -43t-39.5 -16q-40 0 -58 39l-124 264q-6 16 -7 29z" />
<glyph unicode="&#x211;" horiz-adv-x="937" d="M184 78v964q0 37 20.5 57.5t57.5 20.5t57.5 -20.5t20.5 -57.5v-90q59 86 151.5 133.5t198.5 47.5q86 0 136.5 -23t50.5 -63q0 -12 -3 -19q-8 -29 -25.5 -39t-47.5 -10q-18 0 -64 4q-16 2 -49 2q-154 0 -251 -82t-97 -213v-612q0 -37 -20.5 -57.5t-57.5 -20.5t-57.5 20.5 t-20.5 57.5zM248 1610q0 33 22.5 56.5t57.5 23.5q25 0 45.5 -14.5t26.5 -35.5l90 -278q4 -16 4 -25q0 -27 -17.5 -43t-39.5 -16q-40 0 -58 39l-125 264q-6 16 -6 29zM557 1610q0 33 24 56.5t58 23.5q25 0 45.5 -14.5t28.5 -35.5l86 -278q4 -8 4 -25q0 -27 -17.5 -43 t-39.5 -16q-40 0 -58 39l-124 264q-6 16 -7 29z" />
<glyph unicode="&#x212;" horiz-adv-x="1265" d="M205 80v1440q0 35 22.5 57t57.5 22h383q150 0 266.5 -62t183 -175t66.5 -256q0 -158 -85 -276.5t-231 -170.5l336 -536q19 -30 19 -55q0 -31 -22.5 -49.5t-59.5 -18.5q-25 0 -41.5 10t-28.5 31l-369 586h-34h-303v-547q0 -35 -23 -57.5t-57 -22.5q-35 0 -57.5 22.5 t-22.5 57.5zM338 1851q0 66 43 120t116.5 86t159.5 32q131 0 224.5 -67.5t97.5 -172.5q0 -33 -21.5 -56.5t-54.5 -23.5t-55.5 20.5t-22.5 53.5q0 49 -46 81t-122 32q-72 0 -119 -33t-47 -80q0 -31 -22.5 -52.5t-53.5 -21.5q-33 0 -55 23.5t-22 58.5zM365 780h303 q102 0 185 42t129 116t46 168q0 98 -46 176t-128 121t-186 43h-303v-666z" />
<glyph unicode="&#x213;" horiz-adv-x="937" d="M184 78v964q0 37 20.5 57.5t57.5 20.5t57.5 -20.5t20.5 -57.5v-90q59 86 151.5 133.5t198.5 47.5q86 0 136.5 -23t50.5 -63q0 -12 -3 -19q-8 -29 -25.5 -39t-47.5 -10q-18 0 -64 4q-16 2 -49 2q-154 0 -251 -82t-97 -213v-612q0 -37 -20.5 -57.5t-57.5 -20.5t-57.5 20.5 t-20.5 57.5zM205 1372q0 66 43 120t116.5 86t159.5 32q131 0 224.5 -67.5t97.5 -172.5q0 -33 -21.5 -56.5t-54.5 -23.5t-55.5 20.5t-22.5 53.5q0 49 -46 81t-122 32q-72 0 -119 -33t-47 -80q0 -31 -22.5 -52.5t-53.5 -21.5q-33 0 -55 23.5t-22 58.5z" />
<glyph unicode="&#x214;" horiz-adv-x="1677" d="M205 528v992q0 35 22.5 57t57.5 22t57.5 -22.5t22.5 -56.5v-992q0 -119 60 -212t168.5 -145t248.5 -52q137 0 243.5 52t167 145.5t60.5 211.5v992q0 35 22.5 57t57.5 22t57.5 -22.5t22.5 -56.5v-992q0 -162 -81 -289.5t-224.5 -199.5t-325.5 -72q-185 0 -330 72t-226 200 t-81 289zM561 2089q0 33 22.5 56.5t57.5 23.5q25 0 45.5 -14.5t26.5 -35.5l90 -278q4 -16 4 -25q0 -27 -17.5 -43t-39.5 -16q-40 0 -58 39l-125 264q-6 16 -6 29zM870 2089q0 33 24 56.5t58 23.5q25 0 45.5 -14.5t28.5 -35.5l86 -278q4 -8 4 -25q0 -27 -17.5 -43t-39.5 -16 q-40 0 -58 39l-124 264q-6 16 -7 29z" />
<glyph unicode="&#x215;" d="M164 510v532q0 33 22.5 55.5t55.5 22.5q35 0 57.5 -22.5t22.5 -55.5v-532q0 -182 101 -277.5t265 -95.5q100 0 181 39t128 107.5t47 152.5v606q0 35 21.5 56.5t56.5 21.5t57.5 -21.5t22.5 -56.5v-962q0 -35 -22.5 -57.5t-57.5 -22.5t-56.5 22.5t-21.5 57.5v70 q-68 -76 -164 -119t-208 -43q-145 0 -261 61.5t-181.5 179t-65.5 281.5zM416 1610q0 33 22.5 56.5t57.5 23.5q25 0 45.5 -14.5t26.5 -35.5l90 -278q4 -16 4 -25q0 -27 -17.5 -43t-39.5 -16q-40 0 -58 39l-125 264q-6 16 -6 29zM725 1610q0 33 24 56.5t58 23.5 q25 0 45.5 -14.5t28.5 -35.5l86 -278q4 -8 4 -25q0 -27 -17.5 -43t-39.5 -16q-40 0 -58 39l-124 264q-6 16 -7 29z" />
<glyph unicode="&#x216;" horiz-adv-x="1677" d="M205 528v992q0 35 22.5 57t57.5 22t57.5 -22.5t22.5 -56.5v-992q0 -119 60 -212t168.5 -145t248.5 -52q137 0 243.5 52t167 145.5t60.5 211.5v992q0 35 22.5 57t57.5 22t57.5 -22.5t22.5 -56.5v-992q0 -162 -81 -289.5t-224.5 -199.5t-325.5 -72q-185 0 -330 72t-226 200 t-81 289zM519 1851q0 66 43 120t116.5 86t159.5 32q131 0 224.5 -67.5t97.5 -172.5q0 -33 -21.5 -56.5t-54.5 -23.5t-55.5 20.5t-22.5 53.5q0 49 -46 81t-122 32q-72 0 -119 -33t-47 -80q0 -31 -22.5 -52.5t-53.5 -21.5q-33 0 -55 23.5t-22 58.5z" />
<glyph unicode="&#x217;" d="M164 510v532q0 33 22.5 55.5t55.5 22.5q35 0 57.5 -22.5t22.5 -55.5v-532q0 -182 101 -277.5t265 -95.5q100 0 181 39t128 107.5t47 152.5v606q0 35 21.5 56.5t56.5 21.5t57.5 -21.5t22.5 -56.5v-962q0 -35 -22.5 -57.5t-57.5 -22.5t-56.5 22.5t-21.5 57.5v70 q-68 -76 -164 -119t-208 -43q-145 0 -261 61.5t-181.5 179t-65.5 281.5zM373 1372q0 66 43 120t116.5 86t159.5 32q131 0 224.5 -67.5t97.5 -172.5q0 -33 -21.5 -56.5t-54.5 -23.5t-55.5 20.5t-22.5 53.5q0 49 -46 81t-122 32q-72 0 -119 -33t-47 -80q0 -31 -22.5 -52.5 t-53.5 -21.5q-33 0 -55 23.5t-22 58.5z" />
<glyph unicode="&#x218;" horiz-adv-x="1355" d="M127 319q0 29 21.5 48.5t58.5 19.5q25 0 46 -13.5t32 -37.5q47 -92 156.5 -148.5t254.5 -56.5q168 0 270.5 81t102.5 226q0 129 -95 217t-286 113q-238 29 -374 148.5t-136 293.5q0 123 66.5 216.5t184.5 143.5t267 50q162 0 285 -71.5t193 -186.5q14 -23 14 -49 q0 -39 -37 -62q-16 -8 -37 -8q-23 0 -42 11.5t-32 31.5q-115 180 -346 182q-166 0 -262 -69.5t-96 -198.5q0 -240 387 -291q254 -37 379 -155.5t125 -313.5q0 -143 -70 -247.5t-190.5 -158.5t-270.5 -54q-194 0 -344.5 82.5t-216.5 224.5q-8 14 -8 32zM442 -342 q0 27 16.5 42t42.5 15q23 0 39.5 -8t38.5 -26q25 -23 51.5 -36.5t69.5 -13.5q119 0 119 88q0 39 -35 61.5t-107 22.5q-43 0 -67.5 14.5t-24.5 41.5q0 29 24.5 45t72.5 16q113 0 185.5 -56.5t72.5 -144.5q0 -94 -72 -150t-178 -56q-90 0 -169 40.5t-79 104.5z" />
<glyph unicode="&#x219;" horiz-adv-x="1103" d="M123 201q0 35 33 61q25 18 51 19q35 0 59 -29q49 -57 130 -88t179 -31q143 0 215 49t74 129q0 74 -71.5 123t-227.5 74q-201 33 -300 113.5t-99 195.5q0 150 115.5 231.5t289.5 81.5q135 0 235.5 -46t162.5 -128q16 -27 16 -47q0 -35 -33 -55q-14 -10 -39 -10 q-43 0 -71 30q-100 115 -275 115q-113 0 -180.5 -46t-67.5 -116q0 -74 63.5 -117.5t225.5 -70.5q219 -37 313.5 -120t94.5 -206q0 -94 -56.5 -167.5t-157 -114.5t-227.5 -41q-126 0 -243 43t-189 121q-20 25 -20 47zM334 -342q0 27 16.5 42t42.5 15q23 0 39.5 -8t38.5 -26 q25 -23 51.5 -36.5t69.5 -13.5q119 0 119 88q0 39 -35 61.5t-107 22.5q-43 0 -67.5 14.5t-24.5 41.5q0 29 24.5 45t72.5 16q113 0 185.5 -56.5t72.5 -144.5q0 -94 -72 -150t-178 -56q-90 0 -169 40.5t-79 104.5z" />
<glyph unicode="&#x21a;" horiz-adv-x="1341" d="M31 1526q0 33 20.5 53t52.5 20h1133q33 0 53.5 -20t20.5 -53q0 -31 -20.5 -51.5t-53.5 -20.5h-487v-1374q0 -33 -22.5 -56.5t-57.5 -23.5q-33 0 -56.5 23.5t-23.5 56.5v1374h-486q-33 0 -53 20.5t-20 51.5zM434 -342q0 27 16.5 42t42.5 15q23 0 39.5 -8t38.5 -26 q25 -23 51.5 -36.5t69.5 -13.5q119 0 119 88q0 39 -35 61.5t-107 22.5q-43 0 -67.5 14.5t-24.5 41.5q0 29 24.5 45t72.5 16q113 0 185.5 -56.5t72.5 -144.5q0 -94 -72 -150t-178 -56q-90 0 -169 40.5t-79 104.5z" />
<glyph unicode="&#x21b;" horiz-adv-x="823" d="M41 1010q0 31 19.5 50t52.5 19h133v318q0 35 21.5 57.5t56.5 22.5t57 -22.5t22 -57.5v-318h232q33 0 52.5 -19.5t19.5 -49.5q0 -29 -19.5 -48.5t-52.5 -19.5h-232v-547q0 -104 61.5 -170.5t158.5 -66.5h55q33 0 53.5 -22.5t20.5 -57.5q0 -33 -25 -55.5t-61 -22.5h-43 q-109 0 -195 52t-134 141.5t-48 201.5v547h-133q-33 0 -52.5 19.5t-19.5 48.5zM219 -342q0 27 16.5 42t42.5 15q23 0 39.5 -8t38.5 -26q25 -23 51.5 -36.5t69.5 -13.5q119 0 119 88q0 39 -35 61.5t-107 22.5q-43 0 -67.5 14.5t-24.5 41.5q0 29 24.5 45t72.5 16 q113 0 185.5 -56.5t72.5 -144.5q0 -94 -72 -150t-178 -56q-90 0 -169 40.5t-79 104.5z" />
<glyph unicode="&#x22a;" horiz-adv-x="1886" d="M127 801q0 233 105.5 419.5t292 293t419.5 106.5q231 0 418.5 -106.5t293 -293t105.5 -419.5t-105.5 -420.5t-292.5 -294t-419 -106.5q-233 0 -419.5 106.5t-292 293.5t-105.5 421zM283 801q0 -188 86 -341t236.5 -241t338.5 -88q186 0 337 88t237 240.5t86 341.5 q0 186 -86 338.5t-237 240.5t-337 88q-188 0 -338.5 -88t-236.5 -240.5t-86 -338.5zM598 2289q0 33 22.5 53.5t57.5 20.5h530q33 0 56.5 -20.5t23.5 -53.5t-23.5 -53.5t-56.5 -20.5h-530q-35 0 -57.5 20.5t-22.5 53.5zM619 1917q0 47 32.5 79.5t79.5 32.5t80 -32.5t33 -79.5 t-33 -80t-80 -33t-79.5 33t-32.5 80zM1047 1917q0 47 32.5 79.5t79.5 32.5t80 -32.5t33 -79.5t-33 -80t-80 -33t-79.5 33t-32.5 80z" />
<glyph unicode="&#x22b;" d="M125 559q0 162 73.5 293t203.5 204.5t292 73.5t291 -73.5t204 -204.5t75 -293t-74 -292t-204 -203.5t-292 -73.5t-292 73.5t-203.5 203.5t-73.5 292zM279 559q0 -121 54 -218t149.5 -152.5t211.5 -55.5q119 0 213 55.5t147.5 152.5t53.5 218q0 123 -53.5 220.5 t-147.5 152.5t-213 55q-117 0 -212 -55t-149 -152.5t-54 -220.5zM348 1810q0 33 22.5 53.5t57.5 20.5h530q33 0 56.5 -20.5t23.5 -53.5t-23.5 -53.5t-56.5 -20.5h-530q-35 0 -57.5 20.5t-22.5 53.5zM369 1438q0 47 32.5 79.5t79.5 32.5t80 -32.5t33 -79.5t-33 -80t-80 -33 t-79.5 33t-32.5 80zM797 1438q0 47 32.5 79.5t79.5 32.5t80 -32.5t33 -79.5t-33 -80t-80 -33t-79.5 33t-32.5 80z" />
<glyph unicode="&#x22c;" horiz-adv-x="1886" d="M127 801q0 233 105.5 419.5t292 293t419.5 106.5q231 0 418.5 -106.5t293 -293t105.5 -419.5t-105.5 -420.5t-292.5 -294t-419 -106.5q-233 0 -419.5 106.5t-292 293.5t-105.5 421zM283 801q0 -188 86 -341t236.5 -241t338.5 -88q186 0 337 88t237 240.5t86 341.5 q0 186 -86 338.5t-237 240.5t-337 88q-188 0 -338.5 -88t-236.5 -240.5t-86 -338.5zM567 1833q0 25 15 45q51 66 118.5 101.5t141.5 35.5q55 0 96 -16.5t94 -49.5q47 -29 70.5 -39t54.5 -10q63 0 101 41q31 35 63 35q16 0 33 -10q37 -18 37 -57q0 -23 -17 -46 q-82 -100 -215 -100q-57 0 -102 18.5t-96 49.5q-43 27 -70 37t-53 10q-76 0 -135 -72q-12 -18 -31 -28.5t-37 -10.5t-35 10q-14 8 -23.5 23.5t-9.5 32.5zM619 2224q0 33 22.5 53.5t57.5 20.5h530q33 0 56.5 -20.5t23.5 -53.5t-23.5 -53.5t-56.5 -20.5h-530q-35 0 -57.5 20.5 t-22.5 53.5z" />
<glyph unicode="&#x22d;" d="M125 559q0 162 73.5 293t203.5 204.5t292 73.5t291 -73.5t204 -204.5t75 -293t-74 -292t-204 -203.5t-292 -73.5t-292 73.5t-203.5 203.5t-73.5 292zM279 559q0 -121 54 -218t149.5 -152.5t211.5 -55.5q119 0 213 55.5t147.5 152.5t53.5 218q0 123 -53.5 220.5 t-147.5 152.5t-213 55q-117 0 -212 -55t-149 -152.5t-54 -220.5zM317 1354q0 25 15 45q51 66 118.5 101.5t141.5 35.5q55 0 96 -16.5t94 -49.5q47 -29 70.5 -39t54.5 -10q63 0 101 41q31 35 63 35q16 0 33 -10q37 -18 37 -57q0 -23 -17 -46q-82 -100 -215 -100 q-57 0 -102 18.5t-96 49.5q-43 27 -70 37t-53 10q-76 0 -135 -72q-12 -18 -31 -28.5t-37 -10.5t-35 10q-14 8 -23.5 23.5t-9.5 32.5zM369 1745q0 33 22.5 53.5t57.5 20.5h530q33 0 56.5 -20.5t23.5 -53.5t-23.5 -53.5t-56.5 -20.5h-530q-35 0 -57.5 20.5t-22.5 53.5z" />
<glyph unicode="&#x230;" horiz-adv-x="1886" d="M127 801q0 233 105.5 419.5t292 293t419.5 106.5q231 0 418.5 -106.5t293 -293t105.5 -419.5t-105.5 -420.5t-292.5 -294t-419 -106.5q-233 0 -419.5 106.5t-292 293.5t-105.5 421zM283 801q0 -188 86 -341t236.5 -241t338.5 -88q186 0 337 88t237 240.5t86 341.5 q0 186 -86 338.5t-237 240.5t-337 88q-188 0 -338.5 -88t-236.5 -240.5t-86 -338.5zM598 2240q0 33 22.5 53.5t57.5 20.5h530q33 0 56.5 -20.5t23.5 -53.5t-23.5 -53.5t-56.5 -20.5h-530q-35 0 -57.5 20.5t-22.5 53.5zM831 1925q0 49 33 79.5t80 30.5q45 0 77.5 -30.5 t32.5 -79.5q0 -47 -32.5 -80t-79.5 -33t-79 33t-32 80z" />
<glyph unicode="&#x231;" d="M125 559q0 162 73.5 293t203.5 204.5t292 73.5t291 -73.5t204 -204.5t75 -293t-74 -292t-204 -203.5t-292 -73.5t-292 73.5t-203.5 203.5t-73.5 292zM279 559q0 -121 54 -218t149.5 -152.5t211.5 -55.5q119 0 213 55.5t147.5 152.5t53.5 218q0 123 -53.5 220.5 t-147.5 152.5t-213 55q-117 0 -212 -55t-149 -152.5t-54 -220.5zM348 1761q0 33 22.5 53.5t57.5 20.5h530q33 0 56.5 -20.5t23.5 -53.5t-23.5 -53.5t-56.5 -20.5h-530q-35 0 -57.5 20.5t-22.5 53.5zM581 1446q0 49 33 79.5t80 30.5q45 0 77.5 -30.5t32.5 -79.5 q0 -47 -32.5 -80t-79.5 -33t-79 33t-32 80z" />
<glyph unicode="&#x232;" horiz-adv-x="1327" d="M10 1526q0 31 22.5 52t55.5 21q23 0 38 -9t30 -29l510 -822l508 817q16 23 32.5 33t40.5 10q31 0 50.5 -21.5t19.5 -51.5q0 -29 -14 -51l-560 -883v-512q0 -33 -22.5 -56.5t-56.5 -23.5q-33 0 -56.5 23.5t-23.5 56.5v512l-557 883q-16 27 -17 51zM318 1896 q0 33 22.5 53.5t57.5 20.5h530q33 0 56.5 -20.5t23.5 -53.5t-23.5 -53.5t-56.5 -20.5h-530q-35 0 -57.5 20.5t-22.5 53.5z" />
<glyph unicode="&#x233;" horiz-adv-x="1122" d="M39 1053q0 43 45 61q16 8 37 8q43 0 61 -43l400 -841l381 839q20 45 61 45q18 0 37 -8q47 -18 47 -59q0 -18 -8 -37l-664 -1458q-18 -47 -59 -47q-20 0 -37 8q-47 18 -47 61q0 18 8 37l203 449v2l-457 946q-8 16 -8 37zM230 1417q0 33 22.5 53.5t57.5 20.5h530 q33 0 56.5 -20.5t23.5 -53.5t-23.5 -53.5t-56.5 -20.5h-530q-35 0 -57.5 20.5t-22.5 53.5z" />
<glyph unicode="&#x237;" horiz-adv-x="583" d="M-193 -399q0 35 23 57.5t57 22.5q141 0 231.5 90t90.5 229v1040q0 35 21.5 57.5t56.5 22.5t57.5 -22.5t22.5 -57.5v-1040q0 -139 -61.5 -247.5t-170 -170t-248.5 -61.5q-34 0 -57 22.5t-23 57.5z" />
<glyph unicode="&#x259;" horiz-adv-x="1257" d="M82 541q0 33 20.5 52t53.5 19h827q-16 168 -131 272.5t-287 104.5q-74 0 -148.5 -25.5t-119.5 -64.5q-27 -20 -55 -20q-23 0 -45 16q-27 25 -27 55q0 27 23 47q68 57 172 95t200 38q164 0 293 -72.5t202 -202.5t73 -294q0 -166 -69 -296t-190.5 -202.5t-277.5 -72.5 q-152 0 -268.5 70.5t-181 195.5t-64.5 285zM229 481q16 -158 114.5 -254t252.5 -96q156 0 258 96.5t125 253.5h-750z" />
<glyph unicode="&#x2bc;" horiz-adv-x="354" d="M-121 1139q0 14 4 22q41 100 41 172q0 33 -12 90q-2 8 -6 35t-4 51q0 49 30.5 79t75.5 30q51 0 82 -44t31 -120q0 -59 -32 -148t-77 -154t-82 -65q-20 0 -35.5 15.5t-15.5 36.5z" />
<glyph unicode="&#x2c6;" horiz-adv-x="800" d="M76 1321q0 43 39 70l241 159q16 10 39 11q20 0 41 -11l240 -159q39 -27 39 -70q0 -31 -22.5 -51.5t-57.5 -20.5q-23 0 -49 17l-191 131l-190 -131q-23 -16 -47 -17q-35 0 -58.5 19.5t-23.5 52.5z" />
<glyph unicode="&#x2c7;" horiz-adv-x="800" d="M76 1505q0 27 17.5 43.5t45.5 16.5q31 0 66 -23l190 -129l191 127q35 25 67 25q29 0 45.5 -17.5t16.5 -42.5q0 -41 -39 -67l-240 -160q-14 -10 -41 -10t-39 10l-241 160q-39 27 -39 67z" />
<glyph unicode="&#x2c9;" horiz-adv-x="800" d="M76 1348q0 35 23.5 58.5t56.5 23.5h479q35 0 57.5 -24t22.5 -58q0 -35 -22.5 -57.5t-57.5 -22.5h-479q-33 0 -56.5 23.5t-23.5 56.5z" />
<glyph unicode="&#x2d8;" horiz-adv-x="800" d="M76 1505q0 35 22.5 58.5t55.5 23.5q31 0 53 -21.5t22 -52.5q0 -47 47.5 -79.5t118.5 -32.5q76 0 122 31.5t46 80.5q0 33 22.5 53.5t55.5 20.5t54.5 -23.5t21.5 -56.5q-4 -104 -97.5 -171.5t-224.5 -67.5q-86 0 -159.5 31.5t-116.5 86t-43 119.5z" />
<glyph unicode="&#x2d9;" horiz-adv-x="399" d="M76 1386q0 49 35.5 84t85.5 35q49 0 82.5 -34.5t33.5 -84.5q0 -49 -33.5 -84.5t-82.5 -35.5q-52 0 -86.5 34.5t-34.5 85.5z" />
<glyph unicode="&#x2da;" horiz-adv-x="559" d="M76 1415q0 86 58.5 143.5t141.5 57.5q86 0 143.5 -57.5t57.5 -143.5t-57.5 -143.5t-143.5 -57.5q-83 0 -141.5 57.5t-58.5 143.5zM170 1415q0 -45 30.5 -76.5t75.5 -31.5q48 0 78.5 31.5t30.5 76.5q0 47 -30.5 78t-78.5 31q-45 0 -75.5 -32t-30.5 -77z" />
<glyph unicode="&#x2db;" horiz-adv-x="641" d="M80 -236q0 113 100 197q53 39 70 80q25 41 69 41q33 0 55.5 -21.5t24.5 -56.5q0 -82 -127 -174q-33 -25 -32 -66q0 -35 23.5 -57t55.5 -22q25 0 43 12l70 51q23 16 47 16q35 0 57.5 -23.5t22.5 -55.5q0 -37 -27 -64l-81 -53q-61 -43 -132 -43q-98 0 -168.5 70.5 t-70.5 168.5z" />
<glyph unicode="&#x2dc;" horiz-adv-x="960" d="M80 1354q0 25 14 45q51 66 119 101.5t141 35.5q55 0 96.5 -16.5t94.5 -49.5q47 -29 70.5 -39t54.5 -10q63 0 100 41q31 35 64 35q16 0 32 -10q37 -18 37 -57q0 -23 -16 -46q-82 -100 -215 -100q-58 0 -103 18.5t-96 49.5q-43 27 -69.5 37t-53.5 10q-76 0 -135 -72 q-12 -18 -30.5 -28.5t-37.5 -10.5q-18 0 -34 10q-14 8 -23.5 23.5t-9.5 32.5z" />
<glyph unicode="&#x2dd;" horiz-adv-x="720" d="M84 1247q0 16 4 25l86 278q8 23 28.5 36t45.5 13q35 0 58.5 -23.5t23.5 -55.5q0 -12 -6 -29l-125 -264q-18 -39 -58 -39q-22 0 -39.5 16.5t-17.5 42.5zM393 1247q0 8 4 25l90 278q6 20 27 34.5t45 14.5q35 0 57.5 -23.5t22.5 -55.5q0 -12 -6 -29l-125 -264 q-18 -39 -57 -39q-23 0 -40.5 16.5t-17.5 42.5z" />
<glyph unicode="&#x300;" horiz-adv-x="0" d="M-471 1610q0 35 22.5 58.5t55.5 23.5t57 -25l230 -231q20 -18 20 -52q0 -35 -22.5 -58t-57.5 -23q-30 -1 -53 22l-232 229q-20 20 -20 56z" />
<glyph unicode="&#x301;" horiz-adv-x="0" d="M-465 1370q0 33 19 53l231 232q23 23 55 22q35 0 57.5 -23.5t22.5 -58.5q0 -33 -22 -53l-230 -231q-20 -20 -53 -21q-35 0 -57.5 23.5t-22.5 56.5z" />
<glyph unicode="&#x302;" horiz-adv-x="0" d="M-725 1370q0 43 39 70l242 159q16 10 38 11q20 0 41 -11l240 -159q39 -27 39 -70q0 -31 -22.5 -51.5t-57.5 -20.5q-23 0 -49 17l-191 131l-190 -131q-23 -16 -47 -17q-35 0 -58.5 19.5t-23.5 52.5z" />
<glyph unicode="&#x303;" horiz-adv-x="0" d="M-881 1354q0 25 15 45q51 66 118.5 101.5t141.5 35.5q55 0 96 -16.5t94 -49.5q47 -29 70.5 -39t54.5 -10q63 0 101 41q31 35 63 35q16 0 33 -10q37 -18 37 -57q0 -23 -17 -46q-82 -100 -215 -100q-57 0 -102 18.5t-96 49.5q-43 27 -70 37t-53 10q-76 0 -135 -72 q-12 -18 -31 -28.5t-37 -10.5t-35 10q-14 8 -23.5 23.5t-9.5 32.5z" />
<glyph unicode="&#x304;" horiz-adv-x="0" d="M-905 1417q0 33 22.5 53.5t57.5 20.5h530q33 0 56.5 -20.5t23.5 -53.5t-23.5 -53.5t-56.5 -20.5h-530q-35 0 -57.5 20.5t-22.5 53.5z" />
<glyph unicode="&#x306;" horiz-adv-x="0" d="M-725 1530q0 35 22.5 58.5t55.5 23.5q31 0 53.5 -21.5t22.5 -52.5q0 -47 47 -80t118 -33q76 0 122 32t46 81q0 33 22.5 53.5t55.5 20.5t54.5 -23.5t21.5 -56.5q-4 -104 -97 -172t-225 -68q-86 0 -159.5 32t-116.5 86t-43 120z" />
<glyph unicode="&#x307;" horiz-adv-x="0" d="M-416 1446q0 49 33 79.5t80 30.5q45 0 77.5 -30.5t32.5 -79.5q0 -47 -32.5 -80t-79.5 -33t-79 33t-32 80z" />
<glyph unicode="&#x308;" horiz-adv-x="0" d="M-825 1438q0 47 32.5 79.5t79.5 32.5t80 -32.5t33 -79.5t-33 -80t-80 -33t-79.5 33t-32.5 80zM-397 1438q0 47 32.5 79.5t79.5 32.5t80 -32.5t33 -79.5t-33 -80t-80 -33t-79.5 33t-32.5 80z" />
<glyph unicode="&#x309;" horiz-adv-x="0" d="M-545 1645q0 35 25 55q80 63 180 63q104 0 172 -60.5t68 -156.5q0 -90 -57.5 -140t-149.5 -65l16 -26q0 -41 -20.5 -65.5t-50.5 -24.5q-31 0 -52.5 21.5t-21.5 51.5v58q0 66 65 80l52 10q84 20 83 90q0 45 -28.5 69.5t-73.5 24.5q-47 0 -90 -33q-18 -18 -51 -18 q-27 0 -46.5 18.5t-19.5 47.5z" />
<glyph unicode="&#x30a;" horiz-adv-x="0" d="M-483 1415q0 86 58 143.5t142 57.5q86 0 143.5 -57.5t57.5 -143.5t-57.5 -143.5t-143.5 -57.5q-84 0 -142 57.5t-58 143.5zM-389 1415q0 -45 30.5 -76.5t75.5 -31.5t77 31.5t32 76.5q0 47 -32 78t-77 31t-75.5 -32t-30.5 -77z" />
<glyph unicode="&#x30b;" horiz-adv-x="0" d="M-637 1337q0 16 4 25l86 278q8 23 28.5 36.5t45.5 13.5q35 0 58.5 -24t23.5 -56q0 -12 -6 -29l-125 -264q-20 -39 -58 -39q-22 0 -39.5 16.5t-17.5 42.5zM-328 1337q0 8 4 25l91 278q6 20 26.5 35t44.5 15q35 0 57.5 -24t22.5 -56q0 -12 -6 -29l-125 -264 q-20 -39 -57 -39q-23 0 -40.5 16.5t-17.5 42.5z" />
<glyph unicode="&#x30c;" horiz-adv-x="0" d="M-725 1546q0 27 17.5 43.5t45.5 16.5q31 0 66 -23l190 -129l191 127q35 25 68 25q29 0 45 -17.5t16 -42.5q0 -41 -39 -67l-240 -160q-14 -10 -41 -10q-26 0 -38 10l-242 160q-39 27 -39 67z" />
<glyph unicode="&#x30f;" horiz-adv-x="0" d="M-633 1610q0 33 22.5 56.5t57.5 23.5q25 0 45.5 -14.5t26.5 -35.5l90 -278q4 -16 4 -25q0 -27 -17.5 -43t-39.5 -16q-40 0 -58 39l-125 264q-6 16 -6 29zM-324 1610q0 33 24 56.5t58 23.5q25 0 45.5 -14.5t28.5 -35.5l86 -278q4 -8 4 -25q0 -27 -17.5 -43t-39.5 -16 q-40 0 -58 39l-124 264q-6 16 -7 29z" />
<glyph unicode="&#x311;" horiz-adv-x="0" d="M-743 1372q0 66 43 120t116.5 86t159.5 32q131 0 224.5 -67.5t97.5 -172.5q0 -33 -21.5 -56.5t-54.5 -23.5t-55.5 20.5t-22.5 53.5q0 49 -46 81t-122 32q-72 0 -119 -33t-47 -80q0 -31 -22.5 -52.5t-53.5 -21.5q-33 0 -55 23.5t-22 58.5z" />
<glyph unicode="&#x312;" horiz-adv-x="0" d="M-360 1513q0 76 28.5 160t74.5 139.5t91 55.5q43 0 43 -41q0 -18 -8 -35.5t-27 -40.5q-20 -31 -30.5 -53.5t-10.5 -50.5q0 -33 12.5 -55.5t36.5 -51.5q25 -29 36.5 -49.5t11.5 -50.5q0 -51 -34 -82t-85 -31q-66 0 -102.5 49t-36.5 137z" />
<glyph unicode="&#x31b;" horiz-adv-x="0" d="M-426 975v145h90q37 0 62.5 32t25.5 81v43q0 35 19.5 56.5t52.5 21.5q35 0 54.5 -25.5t19.5 -64.5v-31q0 -111 -67 -184.5t-167 -73.5h-90z" />
<glyph unicode="&#x323;" horiz-adv-x="0" d="M-326 -315q0 49 33 79.5t80 30.5q45 0 78 -30.5t33 -79.5q0 -47 -33 -80t-80 -33t-79 33t-32 80z" />
<glyph unicode="&#x324;" horiz-adv-x="0" d="M-753 -303q0 47 32.5 79.5t79.5 32.5t80 -32.5t33 -79.5t-33 -80t-80 -33t-79.5 33t-32.5 80zM-325 -303q0 47 32.5 79.5t79.5 32.5t80 -32.5t33 -79.5t-33 -80t-80 -33t-79.5 33t-32.5 80z" />
<glyph unicode="&#x326;" horiz-adv-x="0" d="M-559 -342q0 27 16.5 42t42.5 15q23 0 39.5 -8t38.5 -26q25 -23 51.5 -36.5t69.5 -13.5q119 0 119 88q0 39 -35 61.5t-107 22.5q-43 0 -67.5 14.5t-24.5 41.5q0 29 24.5 45t72.5 16q113 0 185.5 -56.5t72.5 -144.5q0 -94 -72 -150t-178 -56q-90 0 -169 40.5t-79 104.5z " />
<glyph unicode="&#x327;" horiz-adv-x="0" d="M-578 -326q0 31 23 53.5t53 22.5q39 0 72 -43q33 -49 104 -49q47 0 78 20.5t31 57.5q0 39 -24.5 61.5t-82.5 36.5q-39 8 -59 23.5t-20 42.5q0 16 10 47l33 84q20 61 90 61q31 0 49 -17.5t18 -43.5q0 -14 -6 -31l-31 -74q102 -27 146.5 -74t44.5 -116q0 -57 -37 -106.5 t-100.5 -78t-141.5 -28.5q-106 0 -178 45t-72 106z" />
<glyph unicode="&#x328;" horiz-adv-x="0" d="M-561 -236q0 113 100 197q53 39 70 80q25 41 69 41q33 0 55.5 -21.5t24.5 -56.5q0 -82 -127 -174q-33 -25 -32 -66q0 -35 22.5 -57t56.5 -22q25 0 43 12l70 51q23 16 47 16q33 0 56.5 -23.5t23.5 -55.5q0 -37 -27 -64l-81 -53q-61 -43 -132 -43q-98 0 -168.5 70.5 t-70.5 168.5z" />
<glyph unicode="&#x32e;" horiz-adv-x="0" d="M-721 -252q0 35 22.5 58.5t55.5 23.5q31 0 53.5 -21.5t22.5 -52.5q0 -47 47 -80t118 -33q76 0 122 32t46 81q0 33 22.5 53.5t55.5 20.5t54.5 -23.5t21.5 -56.5q-4 -104 -97 -172t-225 -68q-86 0 -159.5 32t-116.5 86t-43 120z" />
<glyph unicode="&#x331;" horiz-adv-x="0" d="M-790 -262q0 33 22.5 53.5t57.5 20.5h530q33 0 56.5 -20.5t23.5 -53.5t-23.5 -53.5t-56.5 -20.5h-530q-35 0 -57.5 20.5t-22.5 53.5z" />
<glyph unicode="&#x335;" horiz-adv-x="0" d="M-934 645q0 33 20.5 51.5t55.5 18.5h655q33 0 54.5 -19.5t21.5 -50.5t-21.5 -50.5t-54.5 -19.5h-655q-35 0 -55.5 18.5t-20.5 51.5z" />
<glyph unicode="&#x336;" horiz-adv-x="0" d="M-1741 645q0 61 76 62h1497q35 0 56.5 -15.5t21.5 -46.5t-21.5 -46t-56.5 -15h-1497q-76 0 -76 61z" />
<glyph unicode="&#x384;" horiz-adv-x="559" d="M94 1403q0 33 19 53l231 232q23 23 55 22q35 0 57.5 -23.5t22.5 -58.5q0 -33 -22 -53l-230 -232q-20 -20 -53 -20t-56.5 23.5t-23.5 56.5z" />
<glyph unicode="&#x385;" horiz-adv-x="1054" d="M102 1460q0 41 30 71t71 30t69.5 -30t28.5 -71t-28.5 -69.5t-69.5 -28.5t-71 28.5t-30 69.5zM362 1374q0 29 15 45l209 242q24 31 61 31q33 0 55.5 -23.5t22.5 -56.5t-14 -49l-209 -242q-27 -27 -60 -27t-56.5 23.5t-23.5 56.5zM752 1460q0 41 28.5 71t71.5 30 q41 0 70.5 -30t29.5 -71t-29.5 -69.5t-70.5 -28.5q-43 0 -71.5 28.5t-28.5 69.5z" />
<glyph unicode="&#x386;" horiz-adv-x="1447" d="M47 80q0 20 6 35l602 1429q23 55 78 55t76 -55l604 -1431q8 -15 8 -33q0 -33 -23.5 -56.5t-56.5 -23.5q-53 0 -76 49l-137 332h-792l-138 -332q-16 -49 -73 -49q-35 0 -56.5 23.5t-21.5 56.5zM57 1292q0 33 19 53l231 232q23 23 55 22q35 0 57.5 -23.5t22.5 -58.5 q0 -33 -22 -53l-230 -232q-20 -20 -53 -20t-56.5 23.5t-23.5 56.5zM393 518h680l-340 821z" />
<glyph unicode="&#x387;" horiz-adv-x="399" d="M80 1000q0 51 34.5 86t86.5 35q49 0 82.5 -36t33.5 -85t-33.5 -84t-82.5 -35q-50 0 -85.5 35t-35.5 84z" />
<glyph unicode="&#x388;" horiz-adv-x="1699" d="M0 1292q0 33 19 53l231 232q23 23 55 22q35 0 57.5 -23.5t22.5 -58.5q0 -33 -22 -53l-230 -232q-20 -20 -53 -20t-56.5 23.5t-23.5 56.5zM490 80v1440q0 35 23.5 57t56.5 22h960q35 0 57.5 -22.5t22.5 -54.5q0 -33 -22.5 -54.5t-57.5 -21.5h-880v-565h641q35 0 57 -22.5 t22 -55.5t-23.5 -55.5t-55.5 -22.5h-641v-571h880q35 0 57.5 -21.5t22.5 -54.5t-22.5 -55.5t-57.5 -22.5h-960q-33 0 -56.5 23.5t-23.5 56.5z" />
<glyph unicode="&#x389;" horiz-adv-x="1990" d="M0 1292q0 33 19 53l231 232q23 23 55 22q35 0 57.5 -23.5t22.5 -58.5q0 -33 -22 -53l-230 -232q-20 -20 -53 -20t-56.5 23.5t-23.5 56.5zM469 80v1440q0 35 23.5 57t56.5 22q35 0 57.5 -22.5t22.5 -56.5v-639h999v639q0 35 23.5 57t56.5 22q35 0 57.5 -22.5t22.5 -56.5 v-1440q0 -33 -22.5 -56.5t-57.5 -23.5q-33 0 -56.5 23.5t-23.5 56.5v657h-999v-657q0 -33 -23 -56.5t-57 -23.5q-33 0 -56.5 23.5t-23.5 56.5z" />
<glyph unicode="&#x38a;" horiz-adv-x="835" d="M0 1292q0 33 19 53l231 232q23 23 55 22q35 0 57.5 -23.5t22.5 -58.5q0 -33 -22 -53l-230 -232q-20 -20 -53 -20t-56.5 23.5t-23.5 56.5zM471 80v1440q0 35 23.5 57t56.5 22q35 0 57.5 -22.5t22.5 -56.5v-1440q0 -33 -23 -56.5t-57 -23.5q-33 0 -56.5 23.5t-23.5 56.5z " />
<glyph unicode="&#x38c;" horiz-adv-x="1982" d="M0 1292q0 33 19 53l231 232q23 23 55 22q35 0 57.5 -23.5t22.5 -58.5q0 -33 -22 -53l-230 -232q-20 -20 -53 -20t-56.5 23.5t-23.5 56.5zM223 801q0 233 105.5 419.5t292 293t419.5 106.5q231 0 418.5 -106.5t293 -293t105.5 -419.5t-105.5 -420.5t-292.5 -294 t-419 -106.5q-233 0 -419.5 106.5t-292 293.5t-105.5 421zM379 801q0 -188 86 -341t236.5 -241t338.5 -88q186 0 337 88t237 240.5t86 341.5q0 186 -86 338.5t-237 240.5t-337 88q-188 0 -338.5 -88t-236.5 -240.5t-86 -338.5z" />
<glyph unicode="&#x38e;" horiz-adv-x="1755" d="M0 1292q0 33 19 53l231 232q23 23 55 22q35 0 57.5 -23.5t22.5 -58.5q0 -33 -22 -53l-230 -232q-20 -20 -53 -20t-56.5 23.5t-23.5 56.5zM438 1526q0 31 22.5 52t55.5 21q23 0 38 -9t30 -29l510 -822l508 817q16 23 32.5 33t40.5 10q31 0 50.5 -21.5t19.5 -51.5 q0 -29 -14 -51l-560 -883v-512q0 -33 -22.5 -56.5t-56.5 -23.5q-33 0 -56.5 23.5t-23.5 56.5v512l-557 883q-16 27 -17 51z" />
<glyph unicode="&#x38f;" horiz-adv-x="1974" d="M20 1292q0 33 19 53l231 232q23 23 55 22q35 0 57.5 -23.5t22.5 -58.5q0 -33 -22 -53l-230 -232q-20 -20 -53 -20t-56.5 23.5t-23.5 56.5zM250 80q0 33 23.5 56.5t56.5 23.5h203q-154 111 -218.5 269.5t-64.5 371.5q0 219 106.5 401t289 289.5t403.5 107.5 q217 0 400 -107.5t291.5 -290.5t108.5 -400t-57 -366.5t-217 -274.5h195q33 0 56 -23.5t23 -56.5t-22.5 -56.5t-56.5 -23.5h-482q-33 0 -55.5 23.5t-22.5 56.5t23 56.5t55 23.5q109 0 201 87t146.5 234.5t54.5 319.5t-87 318.5t-234.5 233.5t-319.5 87t-318.5 -86 t-233.5 -233.5t-87 -319.5t53 -319.5t145.5 -234.5t200.5 -87q33 0 56.5 -23.5t23.5 -56.5t-22.5 -56.5t-57.5 -23.5h-479q-33 0 -56.5 23.5t-23.5 56.5z" />
<glyph unicode="&#x390;" horiz-adv-x="591" d="M-105 1460q0 41 30 71t71 30t69.5 -30t28.5 -71t-28.5 -69.5t-69.5 -28.5t-71 28.5t-30 69.5zM155 1374q0 29 15 45l209 242q24 31 61 31q33 0 55.5 -23.5t22.5 -56.5t-14 -49l-209 -242q-27 -27 -60 -27t-56.5 23.5t-23.5 56.5zM217 80v960q0 35 22.5 57.5t57.5 22.5 t56.5 -22.5t21.5 -57.5v-960q0 -35 -21.5 -57.5t-56.5 -22.5t-57.5 22.5t-22.5 57.5zM545 1460q0 41 28.5 71t71.5 30q41 0 70.5 -30t29.5 -71t-29.5 -69.5t-70.5 -28.5q-43 0 -71.5 28.5t-28.5 69.5z" />
<glyph unicode="&#x391;" horiz-adv-x="1439" d="M39 80q0 20 6 35l602 1429q23 55 78 55t76 -55l604 -1431q8 -15 8 -33q0 -33 -23.5 -56.5t-56.5 -23.5q-53 0 -76 49l-137 332h-792l-138 -332q-16 -49 -73 -49q-35 0 -56.5 23.5t-21.5 56.5zM385 518h680l-340 821z" />
<glyph unicode="&#x392;" horiz-adv-x="1423" d="M205 80v1440q0 35 22.5 57t57.5 22h497q123 0 222.5 -52t158 -144t58.5 -207q0 -109 -58.5 -195t-156.5 -133q141 -39 223 -140t82 -255q0 -137 -63.5 -244.5t-175 -168t-255.5 -60.5h-522q-41 0 -65.5 21.5t-24.5 58.5zM365 154h452q150 0 243 87t93 232q0 139 -93 222 t-243 83h-452v-624zM365 932h417q125 0 204 70.5t79 193.5q0 119 -78 184.5t-205 65.5h-417v-514z" />
<glyph unicode="&#x393;" horiz-adv-x="1280" d="M80 80v1440q0 33 23.5 56t56.5 23h962q33 0 56.5 -23.5t23.5 -55.5q0 -33 -23.5 -56.5t-56.5 -23.5h-882v-1360q0 -33 -22.5 -56.5t-57.5 -23.5q-33 0 -56.5 23.5t-23.5 56.5z" />
<glyph unicode="&#x394;" horiz-adv-x="1439" d="M41 80q0 18 10 45l602 1436q8 25 27.5 37t44.5 12t45.5 -12.5t30.5 -36.5l600 -1436q10 -27 10 -45q0 -33 -22.5 -56.5t-57.5 -23.5h-1208q-35 0 -58.5 23.5t-23.5 56.5zM238 162h974l-487 1147z" />
<glyph unicode="&#x395;" horiz-adv-x="1417" d="M205 80v1440q0 35 23.5 57t56.5 22h960q35 0 57.5 -22.5t22.5 -54.5q0 -33 -22.5 -54.5t-57.5 -21.5h-880v-565h641q35 0 57 -22.5t22 -55.5t-23.5 -55.5t-55.5 -22.5h-641v-571h880q35 0 57.5 -21.5t22.5 -54.5t-22.5 -55.5t-57.5 -22.5h-960q-33 0 -56.5 23.5 t-23.5 56.5z" />
<glyph unicode="&#x396;" horiz-adv-x="1482" d="M100 80q0 31 17 49l1059 1327h-988q-37 0 -57 18.5t-20 51.5q0 31 22.5 52t56.5 21h1110q37 0 58.5 -24.5t21.5 -56.5q0 -27 -14 -43l-1063 -1332h997q35 0 57.5 -19.5t22.5 -51.5q0 -31 -22.5 -51.5t-57.5 -20.5h-1120q-35 0 -57.5 24.5t-22.5 55.5z" />
<glyph unicode="&#x397;" horiz-adv-x="1728" d="M205 80v1440q0 35 23.5 57t56.5 22q35 0 57.5 -22.5t22.5 -56.5v-639h999v639q0 35 23.5 57t56.5 22q35 0 57.5 -22.5t22.5 -56.5v-1440q0 -33 -22.5 -56.5t-57.5 -23.5q-33 0 -56.5 23.5t-23.5 56.5v657h-999v-657q0 -33 -23 -56.5t-57 -23.5q-33 0 -56.5 23.5 t-23.5 56.5z" />
<glyph unicode="&#x398;" horiz-adv-x="1886" d="M127 801q0 233 105.5 419.5t292 293t419.5 106.5q231 0 418.5 -106.5t293 -293t105.5 -419.5t-105.5 -420.5t-292.5 -294t-419 -106.5q-233 0 -419.5 106.5t-292 293.5t-105.5 421zM283 801q0 -188 86 -341t236.5 -241t338.5 -88q186 0 337 88t237 240.5t86 341.5 q0 186 -86 338.5t-237 240.5t-337 88q-188 0 -338.5 -88t-236.5 -240.5t-86 -338.5zM530 799q0 33 22.5 53t57.5 20h660q35 0 57.5 -20.5t22.5 -52.5q0 -33 -22.5 -54.5t-57.5 -21.5h-660q-35 0 -57.5 21.5t-22.5 54.5z" />
<glyph unicode="&#x399;" horiz-adv-x="569" d="M205 80v1440q0 35 23.5 57t56.5 22q35 0 57.5 -22.5t22.5 -56.5v-1440q0 -33 -23 -56.5t-57 -23.5q-33 0 -56.5 23.5t-23.5 56.5z" />
<glyph unicode="&#x39a;" horiz-adv-x="1341" d="M205 80v1440q0 33 23.5 56t56.5 23q35 0 57.5 -22.5t22.5 -56.5v-697l747 748q29 29 64 28q35 0 54 -20t19 -51q0 -37 -26 -66l-561 -561l567 -774q16 -27 16 -49q0 -31 -21.5 -54.5t-52.5 -23.5q-45 0 -67 35l-557 753l-182 -184v-524q0 -33 -23 -56.5t-57 -23.5 q-33 0 -56.5 23.5t-23.5 56.5z" />
<glyph unicode="&#x39b;" horiz-adv-x="1445" d="M39 80q0 18 8 35l602 1429q23 55 76 55t78 -55l604 -1431q8 -17 8 -35q0 -31 -22.5 -54.5t-57.5 -23.5q-51 0 -73 49l-533 1286l-536 -1286q-8 -25 -29 -37t-45 -12q-35 0 -57.5 23.5t-22.5 56.5z" />
<glyph unicode="&#x39c;" horiz-adv-x="2009" d="M205 80v1440q0 35 23.5 57t56.5 22q47 0 71 -40l656 -1303l643 1303q25 41 71 40q33 0 55.5 -22.5t22.5 -56.5v-1440q0 -33 -22.5 -56.5t-55.5 -23.5q-35 0 -58 23.5t-23 56.5v1159l-570 -1163q-25 -39 -69 -39q-51 0 -74 49l-567 1135v-1141q0 -33 -23 -56.5t-57 -23.5 q-33 0 -56.5 23.5t-23.5 56.5z" />
<glyph unicode="&#x39d;" horiz-adv-x="1689" d="M205 80v1440q0 35 22.5 57t57.5 22q37 0 61 -28l979 -1286v1235q0 35 23.5 57t56.5 22q35 0 57.5 -22.5t22.5 -56.5v-1440q0 -33 -22.5 -56.5t-57.5 -23.5q-41 0 -59 27l-981 1286v-1233q0 -33 -23 -56.5t-57 -23.5q-35 0 -57.5 22.5t-22.5 57.5z" />
<glyph unicode="&#x39e;" horiz-adv-x="1280" d="M80 80q0 33 23.5 56.5t56.5 23.5h960q33 0 56.5 -23.5t23.5 -56.5t-23.5 -56.5t-56.5 -23.5h-960q-33 0 -56.5 23.5t-23.5 56.5zM80 1520q0 35 23.5 57t56.5 22h960q33 0 56.5 -23.5t23.5 -55.5q0 -33 -23.5 -56.5t-56.5 -23.5h-960q-33 0 -56.5 23.5t-23.5 56.5z M162 801q0 31 22.5 53.5t55.5 26.5h800q35 0 57.5 -22.5t22.5 -57.5t-23.5 -58.5t-56.5 -23.5h-800q-29 2 -53.5 25.5t-24.5 56.5z" />
<glyph unicode="&#x39f;" horiz-adv-x="1886" d="M127 801q0 233 105.5 419.5t292 293t419.5 106.5q231 0 418.5 -106.5t293 -293t105.5 -419.5t-105.5 -420.5t-292.5 -294t-419 -106.5q-233 0 -419.5 106.5t-292 293.5t-105.5 421zM283 801q0 -188 86 -341t236.5 -241t338.5 -88q186 0 337 88t237 240.5t86 341.5 q0 186 -86 338.5t-237 240.5t-337 88q-188 0 -338.5 -88t-236.5 -240.5t-86 -338.5z" />
<glyph unicode="&#x3a0;" horiz-adv-x="1359" d="M80 80v1440q0 33 23.5 56t56.5 23h1040q35 0 57.5 -22.5t22.5 -56.5v-1440q0 -33 -22.5 -56.5t-57.5 -23.5q-33 0 -56.5 23.5t-23.5 56.5v1360h-880v-1360q0 -33 -22.5 -56.5t-57.5 -23.5q-33 0 -56.5 23.5t-23.5 56.5z" />
<glyph unicode="&#x3a1;" horiz-adv-x="1253" d="M205 80v1440q0 35 22.5 57t57.5 22h409q150 0 267.5 -66.5t183 -184t65.5 -269.5q0 -150 -65.5 -266.5t-183 -182t-267.5 -65.5h-329v-485q0 -35 -23 -57.5t-57 -22.5q-35 0 -57.5 22.5t-22.5 57.5zM365 719h329q104 0 186.5 46t128.5 128t46 186q0 106 -46 189.5 t-128 130.5t-187 47h-329v-727z" />
<glyph unicode="&#x3a3;" horiz-adv-x="1280" d="M80 80q0 29 12 43l526 678l-526 676q-12 18 -12 43q0 35 23.5 57t56.5 22h960q33 0 56.5 -23.5t23.5 -55.5q0 -33 -23.5 -56.5t-56.5 -23.5h-796l460 -594q14 -16 15 -45q0 -31 -15 -47l-460 -594h796q33 0 56.5 -23.5t23.5 -56.5t-23.5 -56.5t-56.5 -23.5h-960 q-33 0 -56.5 23.5t-23.5 56.5z" />
<glyph unicode="&#x3a4;" horiz-adv-x="1341" d="M31 1526q0 33 20.5 53t52.5 20h1133q33 0 53.5 -20t20.5 -53q0 -31 -20.5 -51.5t-53.5 -20.5h-487v-1374q0 -33 -22.5 -56.5t-57.5 -23.5q-33 0 -56.5 23.5t-23.5 56.5v1374h-486q-33 0 -53 20.5t-20 51.5z" />
<glyph unicode="&#x3a5;" horiz-adv-x="1327" d="M10 1526q0 31 22.5 52t55.5 21q23 0 38 -9t30 -29l510 -822l508 817q16 23 32.5 33t40.5 10q31 0 50.5 -21.5t19.5 -51.5q0 -29 -14 -51l-560 -883v-512q0 -33 -22.5 -56.5t-56.5 -23.5q-33 0 -56.5 23.5t-23.5 56.5v512l-557 883q-16 27 -17 51z" />
<glyph unicode="&#x3a6;" horiz-adv-x="1767" d="M127 801q0 166 85 302t237.5 221t345.5 99v97q0 35 23.5 57t55.5 22q35 0 57.5 -22.5t22.5 -56.5v-95q199 -14 355.5 -98t244.5 -221t88 -305t-88 -306.5t-244.5 -222.5t-355.5 -98v-94q0 -33 -22.5 -56.5t-57.5 -23.5q-33 0 -56 23.5t-23 56.5v96q-193 14 -345.5 99 t-237.5 222.5t-85 303.5zM283 801q0 -127 66.5 -231.5t184 -170t267.5 -80.5v961q-150 -14 -267.5 -78.5t-184 -169t-66.5 -231.5zM948 317q156 13 279 78.5t191.5 171t68.5 234.5t-68.5 233.5t-191.5 170t-279 77.5v-965z" />
<glyph unicode="&#x3a7;" horiz-adv-x="1447" d="M96 74q0 31 19 55l506 688l-474 658q-16 27 -16 49q0 31 20.5 53t53.5 22q41 0 61 -28l465 -643l471 643q23 29 62 28q33 0 53 -23.5t20 -53.5q0 -27 -14 -47l-483 -656l497 -690q19 -24 19 -51q0 -33 -20.5 -55.5t-55.5 -22.5q-41 0 -61 29l-490 678l-500 -682 q-20 -25 -57 -25q-35 0 -55.5 21.5t-20.5 52.5z" />
<glyph unicode="&#x3a8;" horiz-adv-x="1439" d="M80 1120v400q0 34 23.5 56.5t56.5 22.5q35 0 57.5 -22.5t22.5 -56.5v-400q0 -111 50 -212t140 -170.5t209 -90.5v873q0 35 23.5 57t56.5 22q35 0 57.5 -22.5t22.5 -56.5v-873q119 20 210 90t141 170.5t50 212.5v400q0 35 23.5 57t56.5 22q35 0 57.5 -22.5t22.5 -56.5 v-400q0 -156 -71.5 -293t-199.5 -229t-290 -115v-403q0 -33 -22.5 -56.5t-57.5 -23.5q-33 0 -56.5 23.5t-23.5 56.5v403q-162 23 -289 115t-198.5 229.5t-71.5 292.5z" />
<glyph unicode="&#x3a9;" horiz-adv-x="1851" d="M127 80q0 33 23.5 56.5t56.5 23.5h203q-154 111 -218.5 269.5t-64.5 371.5q0 219 106.5 401t289 289.5t403.5 107.5q217 0 400 -107.5t291.5 -290.5t108.5 -400t-57 -366.5t-217 -274.5h195q33 0 56 -23.5t23 -56.5t-22.5 -56.5t-56.5 -23.5h-482q-33 0 -55.5 23.5 t-22.5 56.5t23 56.5t55 23.5q109 0 201 87t146.5 234.5t54.5 319.5t-87 318.5t-234.5 233.5t-319.5 87t-318.5 -86t-233.5 -233.5t-87 -319.5t53 -319.5t145.5 -234.5t200.5 -87q33 0 56.5 -23.5t23.5 -56.5t-22.5 -56.5t-57.5 -23.5h-479q-33 0 -56.5 23.5t-23.5 56.5z" />
<glyph unicode="&#x3aa;" horiz-adv-x="569" d="M-41 1917q0 47 32.5 79.5t79.5 32.5t80 -32.5t33 -79.5t-33 -80t-80 -33t-79.5 33t-32.5 80zM205 80v1440q0 35 23.5 57t56.5 22q35 0 57.5 -22.5t22.5 -56.5v-1440q0 -33 -23 -56.5t-57 -23.5q-33 0 -56.5 23.5t-23.5 56.5zM387 1917q0 47 32.5 79.5t79.5 32.5t80 -32.5 t33 -79.5t-33 -80t-80 -33t-79.5 33t-32.5 80z" />
<glyph unicode="&#x3ab;" horiz-adv-x="1327" d="M10 1526q0 31 22.5 52t55.5 21q23 0 38 -9t30 -29l510 -822l508 817q16 23 32.5 33t40.5 10q31 0 50.5 -21.5t19.5 -51.5q0 -29 -14 -51l-560 -883v-512q0 -33 -22.5 -56.5t-56.5 -23.5q-33 0 -56.5 23.5t-23.5 56.5v512l-557 883q-16 27 -17 51zM338 1917 q0 47 32.5 79.5t79.5 32.5t80 -32.5t33 -79.5t-33 -80t-80 -33t-79.5 33t-32.5 80zM766 1917q0 47 32.5 79.5t79.5 32.5t80 -32.5t33 -79.5t-33 -80t-80 -33t-79.5 33t-32.5 80z" />
<glyph unicode="&#x3ac;" horiz-adv-x="1439" d="M80 559q0 152 75.5 281t204.5 204.5t279 75.5q158 0 279.5 -71.5t214.5 -225.5l73 244q6 25 26.5 39t47.5 14q35 0 57.5 -22.5t22.5 -57.5q0 -12 -2 -18l-135 -461l135 -463q2 -6 2 -18q0 -33 -22.5 -56.5t-57.5 -23.5q-27 0 -46.5 14.5t-27.5 40.5l-71 244 q-96 -156 -217 -227.5t-279 -71.5q-150 0 -279 76t-204.5 205t-75.5 278zM240 559q0 -109 53 -200t145 -145t201 -54q135 0 241.5 77.5t147.5 219.5l31 102l-31 109q-39 131 -147.5 212t-241.5 81q-109 0 -201 -54.5t-145 -146.5t-53 -201zM526 1403q0 33 19 53l231 232 q23 23 55 22q35 0 57.5 -23.5t22.5 -58.5q0 -33 -22 -53l-230 -232q-20 -20 -53 -20t-56.5 23.5t-23.5 56.5z" />
<glyph unicode="&#x3ad;" horiz-adv-x="880" d="M80 319q0 135 110 240q-111 109 -110 242q0 86 43 159.5t116.5 116.5t159.5 43q231 0 396 -164q27 -25 26 -59q0 -33 -22.5 -56.5t-57.5 -23.5q-31 0 -63 33q-117 111 -279 111q-66 0 -112.5 -47.5t-46.5 -112.5q0 -68 47 -115t112 -47h80q35 0 57.5 -22.5t22.5 -57.5 q0 -33 -22.5 -55.5t-57.5 -22.5h-80q-65 0 -112 -47t-47 -115q0 -66 47 -112.5t112 -46.5q166 0 279 110q31 31 63 31q35 0 57.5 -22.5t22.5 -55.5q0 -35 -26 -59q-164 -164 -396 -164q-86 0 -159.5 43t-116.5 116.5t-43 159.5zM246 1403q0 33 19 53l231 232q23 23 55 22 q35 0 57.5 -23.5t22.5 -58.5q0 -33 -22 -53l-230 -232q-20 -20 -53 -20t-56.5 23.5t-23.5 56.5z" />
<glyph unicode="&#x3ae;" d="M184 78v962q0 35 22.5 57.5t57.5 22.5t56.5 -22.5t21.5 -57.5v-69q68 76 164 119t209 43q145 0 261 -61.5t181.5 -179.5t65.5 -282v-1009q0 -33 -22.5 -56.5t-55.5 -23.5t-56.5 22.5t-23.5 57.5v1009q0 182 -101.5 277.5t-265.5 95.5q-100 0 -181 -39t-128 -107.5 t-47 -152.5v-606q0 -35 -21.5 -56.5t-56.5 -21.5t-57.5 21.5t-22.5 56.5zM536 1403q0 33 19 53l231 232q23 23 55 22q35 0 57.5 -23.5t22.5 -58.5q0 -33 -22 -53l-230 -232q-20 -20 -53 -20t-56.5 23.5t-23.5 56.5z" />
<glyph unicode="&#x3af;" horiz-adv-x="591" d="M102 1403q0 33 19 53l231 232q23 23 55 22q35 0 57.5 -23.5t22.5 -58.5q0 -33 -22 -53l-230 -232q-20 -20 -53 -20t-56.5 23.5t-23.5 56.5zM217 80v960q0 35 22.5 57.5t57.5 22.5t56.5 -22.5t21.5 -57.5v-960q0 -35 -21.5 -57.5t-56.5 -22.5t-57.5 22.5t-22.5 57.5z" />
<glyph unicode="&#x3b0;" horiz-adv-x="1200" d="M82 520v520q0 35 22.5 57.5t55.5 22.5q35 0 57.5 -22.5t22.5 -57.5v-520q0 -98 49 -181t131 -131t178 -48q98 0 181 48t132.5 131t49.5 181v520q0 35 23.5 57.5t55.5 22.5q33 0 56.5 -23.5t23.5 -56.5v-520q0 -139 -70.5 -259t-190.5 -190.5t-261 -70.5q-139 0 -257 69.5 t-188.5 189.5t-70.5 261zM198 1460q0 41 30 71t71 30t69.5 -30t28.5 -71t-28.5 -69.5t-69.5 -28.5t-71 28.5t-30 69.5zM458 1374q0 29 15 45l209 242q24 31 61 31q33 0 55.5 -23.5t22.5 -56.5t-14 -49l-209 -242q-27 -27 -60 -27t-56.5 23.5t-23.5 56.5zM848 1460 q0 41 28.5 71t71.5 30q41 0 70.5 -30t29.5 -71t-29.5 -69.5t-70.5 -28.5q-43 0 -71.5 28.5t-28.5 69.5z" />
<glyph unicode="&#x3b1;" horiz-adv-x="1439" d="M80 559q0 152 75.5 281t204.5 204.5t279 75.5q158 0 279.5 -71.5t214.5 -225.5l73 244q6 25 26.5 39t47.5 14q35 0 57.5 -22.5t22.5 -57.5q0 -12 -2 -18l-135 -461l135 -463q2 -6 2 -18q0 -33 -22.5 -56.5t-57.5 -23.5q-27 0 -46.5 14.5t-27.5 40.5l-71 244 q-96 -156 -217 -227.5t-279 -71.5q-150 0 -279 76t-204.5 205t-75.5 278zM240 559q0 -109 53 -200t145 -145t201 -54q135 0 241.5 77.5t147.5 219.5l31 102l-31 109q-39 131 -147.5 212t-241.5 81q-109 0 -201 -54.5t-145 -146.5t-53 -201z" />
<glyph unicode="&#x3b2;" horiz-adv-x="1120" d="M80 -401v1611q0 109 54 201t146.5 146.5t200.5 54.5q109 0 201 -54.5t146.5 -146.5t54.5 -201q0 -160 -117 -286q84 -41 137 -97q141 -141 141 -342q0 -131 -65.5 -241.5t-176 -176t-241.5 -65.5q-170 0 -319 125v-528q0 -33 -24.5 -56.5t-57.5 -23.5t-56.5 22.5 t-23.5 57.5zM242 483q0 -88 43 -161.5t116.5 -116.5t159.5 -43q88 0 162 44t118 118.5t44 160.5t-44 160t-118 118t-162 44h-80q-35 0 -57.5 23.5t-22.5 58.5q0 33 22.5 55.5t57.5 22.5q100 0 171 71.5t71 171.5q0 63 -34 119.5t-89 89.5t-119 33q-98 0 -168.5 -71.5 t-70.5 -170.5v-727z" />
</font>
</defs>
</svg>
