<svg xmlns="http://www.w3.org/2000/svg" xmlns:xlink="http://www.w3.org/1999/xlink" viewBox="0 0 1481.34 439.53"><defs><linearGradient id="a" x1="236.21" y1="276.97" x2="672.28" y2="118.25" gradientUnits="userSpaceOnUse"><stop offset="0" stop-color="#931348"/><stop offset="0.17" stop-color="#690f35"/><stop offset="0.65" stop-color="#33338a"/><stop offset="1" stop-color="#2c2f79"/></linearGradient><linearGradient id="b" x1="-15.85" y1="53.86" x2="418.6" y2="304.69" gradientUnits="userSpaceOnUse"><stop offset="0" stop-color="#e95f32"/><stop offset="0.22" stop-color="#e3312d"/><stop offset="0.59" stop-color="#e62053" stop-opacity="0.8"/><stop offset="1" stop-color="#eb5a9c" stop-opacity="0.9"/></linearGradient></defs><title>logo</title><path d="M262.79,74.5,258,77.83a104.42,104.42,0,0,0-41,105.5c.55,2.76,1.24,5.55,2,8.29l0,.08,68.57,226.57.13.35a33.93,33.93,0,0,0,31.55,21.19,41.46,41.46,0,0,0,16.73-4L590.81,298.11a104,104,0,0,0,48.54-88.25l.22-175.48A34.08,34.08,0,0,0,585.28,6.92l-1.56,1-142,97.78a18.53,18.53,0,0,1-22.12,0L377.86,75.78a9.8,9.8,0,0,0-.85-.58,107.82,107.82,0,0,0-16.57-9l-.51-.21a119,119,0,0,0-20.37-6.19,105.12,105.12,0,0,0-33.43-1.14l-.93.1a114.12,114.12,0,0,0-36.25,12Z" transform="translate(-0.66 -0.28)" style="fill:url(#a)"/><path d="M377.44,74.5l4.81,3.33a104.42,104.42,0,0,1,41,105.5c-.56,2.76-1.25,5.55-2,8.29l0,.08L352.58,418.27l-.13.35a33.93,33.93,0,0,1-31.55,21.19,41.46,41.46,0,0,1-16.73-4L49.42,298.11A104,104,0,0,1,.88,209.86L.66,34.38A34.07,34.07,0,0,1,54.94,6.92l1.57,1,142,97.78a18.53,18.53,0,0,0,22.12,0l41.72-29.88a9.8,9.8,0,0,1,.85-.58,107.82,107.82,0,0,1,16.57-9l.51-.21a119,119,0,0,1,20.37-6.19,105.12,105.12,0,0,1,33.43-1.14l.93.1a114.12,114.12,0,0,1,36.25,12Z" transform="translate(-0.66 -0.28)" style="fill:url(#b)"/><path d="M919,219.23V304a35.9,35.9,0,0,1-35.69-35.69V219.23A50.56,50.56,0,0,0,868.77,183a49.39,49.39,0,0,0-71.27,0,50.33,50.33,0,0,0-14.66,36.22v49.08A35.54,35.54,0,0,1,747.15,304V219.23q0-35.26,25.38-60.23t60.66-25A84.2,84.2,0,0,1,871,142.86a88.6,88.6,0,0,1,30.38,24.54A86.22,86.22,0,0,1,931.55,143,84.42,84.42,0,0,1,969.37,134q35.26,0,60.54,25t25.29,60.23V304a35.9,35.9,0,0,1-35.69-35.69V219.23A50.56,50.56,0,0,0,1005,183a49.39,49.39,0,0,0-71.27,0A50.33,50.33,0,0,0,919,219.23Z" transform="translate(-0.66 -0.28)" style="fill:#1d1d1b"/><path d="M1157.6,134q35.25,0,60.65,25t25.39,60.23q0,35.27-25.39,60T1157.6,304q-35.28,0-60.55-24.75t-25.28-60q0-35.26,25.28-60.23T1157.6,134Zm0,33.78A47.41,47.41,0,0,0,1122,183a50.55,50.55,0,0,0-14.55,36.22,49.82,49.82,0,0,0,14.55,36,49.89,49.89,0,0,0,71.28,0,49.64,49.64,0,0,0,14.66-36A50.37,50.37,0,0,0,1193.29,183,47.76,47.76,0,0,0,1157.6,167.82Z" transform="translate(-0.66 -0.28)" style="fill:#1d1d1b"/><path d="M1429.74,219.23V304h-86.25q-35.28,0-60.66-24.75t-25.38-60q0-35.26,25.38-60.23t60.66-25q35.25,0,60.76,25T1429.74,219.23Zm-36.11,51v-51A50.51,50.51,0,0,0,1379,183a49.45,49.45,0,0,0-71.32,0,50.5,50.5,0,0,0-14.58,36.22,49.77,49.77,0,0,0,14.58,36,47.84,47.84,0,0,0,35.66,15Z" transform="translate(-0.66 -0.28)" style="fill:#1d1d1b"/><path d="M1482,304a35.92,35.92,0,0,1-35.69-35.69V134A35.92,35.92,0,0,1,1482,169.73Z" transform="translate(-0.66 -0.28)" style="fill:#1d1d1b"/></svg>