<svg xmlns="http://www.w3.org/2000/svg" viewBox="0 0 1481.33 439.31"><title>logo_outline</title><path d="M919,219.23V304a35.9,35.9,0,0,1-35.69-35.69V219.23A50.56,50.56,0,0,0,868.77,183a49.39,49.39,0,0,0-71.27,0,50.33,50.33,0,0,0-14.66,36.22v49.08A35.54,35.54,0,0,1,747.15,304V219.23q0-35.26,25.38-60.23t60.66-25A84.2,84.2,0,0,1,871,142.86a88.6,88.6,0,0,1,30.38,24.54A86.22,86.22,0,0,1,931.55,143,84.42,84.42,0,0,1,969.37,134q35.26,0,60.54,25t25.29,60.23V304a35.9,35.9,0,0,1-35.69-35.69V219.23A50.56,50.56,0,0,0,1005,183a49.39,49.39,0,0,0-71.27,0A50.33,50.33,0,0,0,919,219.23Z" transform="translate(-0.67 0.01)" style="fill:#1d1d1b"/><path d="M1157.6,134q35.25,0,60.65,25t25.39,60.23q0,35.27-25.39,60T1157.6,304q-35.28,0-60.55-24.75t-25.28-60q0-35.26,25.28-60.23T1157.6,134Zm0,33.78A47.41,47.41,0,0,0,1122,183a50.55,50.55,0,0,0-14.55,36.22,49.82,49.82,0,0,0,14.55,36,49.89,49.89,0,0,0,71.28,0,49.64,49.64,0,0,0,14.66-36A50.37,50.37,0,0,0,1193.29,183,47.76,47.76,0,0,0,1157.6,167.82Z" transform="translate(-0.67 0.01)" style="fill:#1d1d1b"/><path d="M1429.74,219.23V304h-86.25q-35.28,0-60.66-24.75t-25.38-60q0-35.26,25.38-60.23t60.66-25q35.25,0,60.76,25T1429.74,219.23Zm-36.11,51v-51A50.51,50.51,0,0,0,1379,183a49.45,49.45,0,0,0-71.32,0,50.5,50.5,0,0,0-14.58,36.22,49.77,49.77,0,0,0,14.58,36,47.84,47.84,0,0,0,35.66,15Z" transform="translate(-0.67 0.01)" style="fill:#1d1d1b"/><path d="M1482,304a35.92,35.92,0,0,1-35.69-35.69V134A35.92,35.92,0,0,1,1482,169.73Z" transform="translate(-0.67 0.01)" style="fill:#1d1d1b"/><path d="M225.25,114.71l40.44-28.94c13.66-10,35.52-16.1,51.76-16.1s37.41,5.69,52.28,15.9l42,30.16a25.4,25.4,0,0,0,28,0L578.85,19.54A25.11,25.11,0,0,1,594.65,14,25.37,25.37,0,0,1,620,39.37l-.21,170.4a93.68,93.68,0,0,1-56.52,86l-234,126.51a26.17,26.17,0,0,1-11.81,2.78,28.13,28.13,0,0,1-12.25-2.78L58.43,288.93a93.62,93.62,0,0,1-43.55-79.16l-.21-170.4A25.34,25.34,0,0,1,56.55,20.14l.23-.11,137.62,94.7a25.36,25.36,0,0,0,30.85,0Z" transform="translate(-0.67 0.01)" style="fill:none;stroke:#1d1d1b;stroke-miterlimit:10;stroke-width:28px"/><path d="M407.84,189.87q1.08-3.66,1.84-7.43A93.73,93.73,0,0,0,369.73,85.6v0c-.92-.64-1.88-1.26-2.86-1.86-.67-.41-1.34-.82-2-1.21a0,0,0,0,0,0,0,102.52,102.52,0,0,0-34.37-11.76l-.67-.08a94.92,94.92,0,0,0-11.87-.75,92.82,92.82,0,0,0-18.07,1.76,106.09,106.09,0,0,0-18.41,5.59l-.36.16a93.55,93.55,0,0,0-14.88,8,5.36,5.36,0,0,0-.49.34l-4.77,3.4-35.67,25.53a25.43,25.43,0,0,1-30.86,0L56.79,20l-.23.11A25.33,25.33,0,0,0,14.69,39.36l.2,170.4a93.62,93.62,0,0,0,43.55,79.16L305.22,422.28a23.38,23.38,0,0,0,5,1.86c.05,0,.07,0,.1,0a25.44,25.44,0,0,0,31-14.64Z" transform="translate(-0.67 0.01)" style="fill:none;stroke:#1d1d1b;stroke-miterlimit:10;stroke-width:28px"/></svg>