<?xml version="1.0" encoding="utf-8"?>
<!-- Generator: Adobe Illustrator 22.1.0, SVG Export Plug-In . SVG Version: 6.00 Build 0)  -->
<svg version="1.1" id="Layer_1" xmlns="http://www.w3.org/2000/svg" xmlns:xlink="http://www.w3.org/1999/xlink" x="0px" y="0px"
	 viewBox="0 0 1481.3 439.5" style="enable-background:new 0 0 1481.3 439.5;" xml:space="preserve">
<style type="text/css">
	.st0{fill:#1D1D1B;}
</style>
<g>
	<g>
		<path class="st0" d="M438.9,252.2v145.4c0,10-3.5,19-10.1,25.9c-4.6,4.9-13.1,11-26.8,11c-10.3,0-19.3-3.7-26.3-10.7
			c-6.9-6.9-10.6-16-10.6-26.2V252.2c0-20.7-5.1-36.9-15.5-49.4c-9.6-11.5-21.1-16.8-36.1-16.8c-17.3,0-30.7,5.3-40.9,16.2
			c-10.5,11.2-15.3,26.2-14.8,45.9v149.5c0,10-3.5,19-10.1,25.9c-4.6,4.9-13.1,11-26.8,11c-10.3,0-19.3-3.7-26.3-10.7
			c-6.9-6.9-10.6-16-10.6-26.2V252.2c0-20.7-5.1-36.9-15.5-49.4c-9.6-11.5-21.1-16.8-36.1-16.8c-17.3,0-30.8,5.2-41.4,15.8
			c-10.6,10.6-15.8,24.3-15.8,41.9v154c0,10-3.5,19-10,25.8c-4.6,5-13.2,11.1-26.9,11.1c-10.3,0-19.3-3.7-26.3-10.7
			c-6.9-6.9-10.6-16-10.6-26.2v-245c0-13.6,6.1-22.1,11.1-26.9c6.8-6.5,15.8-10,25.8-10c13.3,0,21.7,5.7,26.5,10.4
			c1.1,1.1,2.3,2.4,3.4,4c3.3-2,6.8-4,10.3-5.7c16.7-8.2,34.8-12.3,53.8-12.3c23.5,0,45,5.9,63.8,17.6c9.4,5.8,17.9,12.8,25.4,20.9
			c7.7-8.2,16.6-15.2,26.5-21.1c19.4-11.5,41.5-17.4,65.5-17.4c24.3,0,46.3,6.2,65.6,18.5c19.1,12.2,34.1,29.3,44.6,50.8
			C433.8,202.5,438.9,226.3,438.9,252.2z"/>
	</g>
	<g>
		<path class="st0" d="M784.5,192.6c-14.2-24.8-33.9-44.5-58.7-58.7c-24.7-14.1-52.4-21.2-82.3-21.2c-30.2,0-58.1,7.1-82.8,21.2
			c-24.8,14.2-44.6,33.9-58.7,58.7c-14.1,24.7-21.2,52.5-21.2,82.8c0,29.9,7.1,57.6,21.2,82.3c7,12.4,15.5,23.5,25.3,33.3
			c9.8,9.8,21,18.3,33.4,25.4c24.7,14.1,52.5,21.2,82.8,21.2c29.9,0,57.6-7.1,82.3-21.2c24.8-14.2,44.5-33.9,58.7-58.7
			c14.1-24.7,21.2-52.4,21.2-82.3C805.7,245.2,798.6,217.3,784.5,192.6z M706.8,340.4c-5.2,5.3-11.1,9.9-17.9,13.8
			c-13.5,7.8-28.4,11.6-45.4,11.6c-17,0-31.9-3.8-45.4-11.6c-13.5-7.8-23.9-18.3-31.7-32.2c-7.9-13.9-11.7-29.2-11.7-46.6
			c0-17.5,3.8-32.7,11.7-46.6c7.9-13.9,18.3-24.5,31.9-32.5c13.5-8,28.3-11.8,45.3-11.8c17,0,31.8,3.9,45.3,11.8
			c13.5,8,23.8,18.6,31.5,32.4c7.8,13.9,11.6,29.2,11.6,46.7c0,17.5-3.8,32.8-11.6,46.7C716.5,329,712,335,706.8,340.4z"/>
	</g>
	<g>
		<path class="st0" d="M1141.2,192.6c-7.1-12.4-15.6-23.5-25.4-33.3c-9.8-9.8-20.9-18.3-33.3-25.4c-24.7-14.1-52.4-21.2-82.3-21.2
			c-30.2,0-58.1,7.1-82.8,21.2c-24.8,14.2-44.6,33.9-58.7,58.7c-14.1,24.7-21.2,52.5-21.2,82.8c0,29.9,7.1,57.6,21.2,82.3
			c14.1,24.8,33.9,44.5,58.7,58.7c24.7,14.1,52.5,21.2,82.8,21.2c27.3,0,52.5-6,74.9-17.9c5.4-2.9,10.6-6.1,15.6-9.5
			c1.7,5.1,4.7,9.7,8.6,13.7c7,7,16.1,10.7,26.3,10.7c13.6,0,22.1-6.1,26.9-11.1c6.5-6.9,10-15.8,10-25.8V275.4
			C1162.5,245.2,1155.3,217.3,1141.2,192.6z M1000.3,365.8c-17.1,0-31.9-3.8-45.4-11.6c-13.5-7.8-23.9-18.3-31.7-32.2
			c-7.9-13.9-11.7-29.2-11.7-46.6c0-17.5,3.8-32.7,11.7-46.6c7.9-13.9,18.3-24.5,31.9-32.5c13.5-8,28.3-11.8,45.3-11.8
			c17,0,31.8,3.9,45.3,11.8c13.5,8,23.9,18.6,31.6,32.4c7.8,13.9,11.6,29.2,11.6,46.7c0,17.5-3.8,32.8-11.6,46.7
			c-3.8,6.9-8.3,12.9-13.6,18.2c-5.2,5.3-11.1,9.9-17.8,13.8C1032.2,362,1017.3,365.8,1000.3,365.8z"/>
	</g>
	<g>
		<path class="st0" d="M1301.3,45.9c0,12.5-7.5,23-13.1,32.3c-10.4,16.9-32.3,33.9-32.3,33.9s-22-17.9-32.3-34.2
			c-6.4-10.1-12.6-19.6-12.6-32c0-17.4,7.9-27.9,14.7-33.7c8.6-7.4,19.3-11.3,30.8-11.3c11.6,0,22.3,4,30.8,11.5
			C1293.7,18.3,1301.3,28.7,1301.3,45.9z"/>
		<path class="st0" d="M1293.3,186.2v211.5c0,9.9-3.5,18.9-10,25.8c-4.8,5.1-13.4,11.1-26.9,11.1c-10.2,0-19.3-3.7-26.3-10.7
			c-7-7-10.6-16-10.6-26.2V186.2c0-13.6,6-22.1,11.1-26.9c6.9-6.5,15.8-10,25.8-10c13.2,0,21.7,5.6,26.4,10.4
			C1287.6,164.5,1293.3,172.9,1293.3,186.2z"/>
	</g>
</g>
</svg>
