<svg xmlns="http://www.w3.org/2000/svg" viewBox="0 0 95.97 96"><defs><style>.cls-1{fill:#1d1d1c;}</style></defs><g id="Layer_2" data-name="Layer 2"><g id="Layer_1-2" data-name="Layer 1"><path class="cls-1" d="M74.79,35.28A26.84,26.84,0,0,0,49.35,8.51V1.37a1.37,1.37,0,1,0-2.73,0V8.51A26.84,26.84,0,0,0,21.18,35.28c0,13.56-1.95,17.64-4,22C15,61.83,12.7,66.57,12.7,81.91a1.37,1.37,0,0,0,1.37,1.37H38.14v2.87a9.85,9.85,0,1,0,19.69,0V83.28H81.9a1.37,1.37,0,0,0,1.37-1.37c0-15.64-2.27-20.24-4.47-24.69C76.74,53.05,74.79,49.1,74.79,35.28ZM55.1,86.15a7.11,7.11,0,0,1-14.22,0V83.28H55.1Zm1.36-5.6h-41c.12-13.64,2.19-17.95,4.18-22.12,2.11-4.41,4.29-9,4.29-23.15a24.07,24.07,0,0,1,48.13,0c0,14.46,2.19,18.88,4.3,23.16,2,4,4.05,8.2,4.17,22.11Z"/><path class="cls-1" d="M91.36,28a1.37,1.37,0,0,0-2,1.9,14,14,0,0,1,0,19.3,1.37,1.37,0,1,0,2,1.9A16.77,16.77,0,0,0,91.36,28Z"/><path class="cls-1" d="M6.54,27.94a1.36,1.36,0,0,0-1.93,0,16.77,16.77,0,0,0,0,23.1,1.37,1.37,0,0,0,1,.42,1.33,1.33,0,0,0,1-.39,1.36,1.36,0,0,0,0-1.93,14,14,0,0,1,0-19.3A1.36,1.36,0,0,0,6.54,27.94Z"/></g></g></svg>