<svg xmlns="http://www.w3.org/2000/svg" width="68.6mm" height="22.93mm" viewBox="0 0 194.45 65"><defs><style>.cls-1{fill:#a6a6a6;}.cls-2{fill:#fff;}</style></defs><g id="Layer_2" data-name="Layer 2"><g id="Layer_1-2" data-name="Layer 1"><path class="cls-1" d="M179,0H13.71L12.22,0A22.3,22.3,0,0,0,9,.31a10.9,10.9,0,0,0-3.09,1A10.23,10.23,0,0,0,3.25,3.25,9.94,9.94,0,0,0,1.33,5.88,10.88,10.88,0,0,0,.32,9,21,21,0,0,0,0,12.23c0,.49,0,1,0,1.49V51.28c0,.51,0,1,0,1.5A20.78,20.78,0,0,0,.32,56a10.94,10.94,0,0,0,1,3.1,9.89,9.89,0,0,0,1.92,2.62,10,10,0,0,0,2.63,1.92,10.9,10.9,0,0,0,3.09,1,21,21,0,0,0,3.25.29l1.49,0h167l1.5,0a20.77,20.77,0,0,0,3.25-.29,11.07,11.07,0,0,0,3.1-1,10.61,10.61,0,0,0,4.55-4.54,10.61,10.61,0,0,0,1-3.1,22.07,22.07,0,0,0,.31-3.25v-1.5c0-.59,0-1.17,0-1.77v-34c0-.6,0-1.19,0-1.78V12.23A22.34,22.34,0,0,0,194.13,9a10.55,10.55,0,0,0-1-3.09,10.4,10.4,0,0,0-1.92-2.63,10.58,10.58,0,0,0-2.63-1.92,11.07,11.07,0,0,0-3.1-1A22.05,22.05,0,0,0,182.23,0l-1.5,0Z"/><path d="M13.72,63.58l-1.47,0a20.91,20.91,0,0,1-3-.26,9.85,9.85,0,0,1-2.7-.89,8.84,8.84,0,0,1-2.27-1.66A8.64,8.64,0,0,1,2.6,58.48a9.25,9.25,0,0,1-.89-2.69,19.72,19.72,0,0,1-.27-3c0-.34,0-1.48,0-1.48V13.72s0-1.12,0-1.45a19.49,19.49,0,0,1,.27-3,9.51,9.51,0,0,1,.88-2.7A9,9,0,0,1,4.24,4.25,9.25,9.25,0,0,1,6.52,2.59a9.65,9.65,0,0,1,2.69-.88,19.72,19.72,0,0,1,3-.27l1.46,0h167l1.49,0a19.46,19.46,0,0,1,3,.27,9.48,9.48,0,0,1,2.71.89,8.69,8.69,0,0,1,2.26,1.65,9.06,9.06,0,0,1,1.67,2.28,9.8,9.8,0,0,1,.87,2.68,23.2,23.2,0,0,1,.28,3.07v1.44c0,.61,0,1.19,0,1.78v34c0,.59,0,1.16,0,1.74v1.51a22.77,22.77,0,0,1-.28,3,9.58,9.58,0,0,1-.88,2.71,9.17,9.17,0,0,1-3.92,3.91,9.93,9.93,0,0,1-2.71.9,20.8,20.8,0,0,1-3,.26l-1.46,0h-167Z"/><path class="cls-2" d="M40.25,33a8,8,0,0,1,3.83-6.75,8.24,8.24,0,0,0-6.49-3.5c-2.73-.29-5.37,1.63-6.76,1.63S27.27,22.76,25,22.81a8.65,8.65,0,0,0-7.26,4.43c-3.15,5.45-.8,13.44,2.21,17.84,1.5,2.15,3.26,4.56,5.57,4.47s3.09-1.43,5.81-1.43,3.49,1.43,5.84,1.38,3.94-2.16,5.4-4.34a17.52,17.52,0,0,0,2.46-5A7.79,7.79,0,0,1,40.25,33Z"/><path class="cls-2" d="M35.81,19.84a7.92,7.92,0,0,0,1.81-5.67,8,8,0,0,0-5.21,2.7,7.51,7.51,0,0,0-1.86,5.46A6.63,6.63,0,0,0,35.81,19.84Z"/><path class="cls-2" d="M68.74,44.1H61.05L59.2,49.56H55.94l7.29-20.18h3.38L73.9,49.56H70.59Zm-6.89-2.51h6.09l-3-8.86h-.09Z"/><path class="cls-2" d="M89.63,42.2c0,4.57-2.44,7.51-6.14,7.51a5,5,0,0,1-4.62-2.57H78.8v7.28h-3V34.84H78.7v2.45h0a5.22,5.22,0,0,1,4.69-2.6C87.17,34.69,89.63,37.64,89.63,42.2Zm-3.1,0c0-3-1.54-4.94-3.89-4.94s-3.86,2-3.86,4.94,1.56,4.95,3.86,4.95S86.53,45.21,86.53,42.2Z"/><path class="cls-2" d="M105.83,42.2c0,4.57-2.45,7.51-6.14,7.51a5,5,0,0,1-4.63-2.57H95v7.28H92V34.84h2.92v2.45H95a5.22,5.22,0,0,1,4.68-2.6C103.37,34.69,105.83,37.64,105.83,42.2Zm-3.11,0c0-3-1.54-4.94-3.88-4.94S95,39.26,95,42.2s1.55,4.95,3.86,4.95S102.72,45.21,102.72,42.2Z"/><path class="cls-2" d="M116.53,43.93c.22,2,2.17,3.32,4.82,3.32s4.38-1.32,4.38-3.12c0-1.57-1.1-2.5-3.72-3.15l-2.61-.63c-3.71-.89-5.43-2.62-5.43-5.44,0-3.48,3-5.87,7.34-5.87s7.19,2.39,7.29,5.87h-3c-.18-2-1.85-3.23-4.28-3.23s-4.1,1.23-4.1,3c0,1.43,1.07,2.27,3.67,2.91l2.22.55c4.14,1,5.86,2.64,5.86,5.59,0,3.78-3,6.14-7.79,6.14-4.48,0-7.5-2.31-7.69-6Z"/><path class="cls-2" d="M135.44,31.36v3.48h2.8v2.4h-2.8v8.11c0,1.26.56,1.84,1.79,1.84a8.49,8.49,0,0,0,1-.07V49.5a8.6,8.6,0,0,1-1.68.14c-3,0-4.14-1.12-4.14-4V37.24h-2.14v-2.4h2.14V31.36Z"/><path class="cls-2" d="M139.86,42.2c0-4.63,2.72-7.54,7-7.54s7,2.91,7,7.54-2.7,7.54-7,7.54S139.86,46.84,139.86,42.2Zm10.88,0c0-3.17-1.46-5.05-3.91-5.05s-3.9,1.89-3.9,5.05,1.46,5,3.9,5S150.74,45.39,150.74,42.2Z"/><path class="cls-2" d="M156.3,34.84h2.88v2.51h.07a3.51,3.51,0,0,1,3.54-2.66,5.15,5.15,0,0,1,1,.11v2.83a4.15,4.15,0,0,0-1.36-.19c-1.94,0-3.15,1.32-3.15,3.39v8.73h-3Z"/><path class="cls-2" d="M177.75,45.23c-.41,2.68-3,4.51-6.34,4.51-4.28,0-6.93-2.87-6.93-7.47s2.67-7.61,6.81-7.61,6.63,2.8,6.63,7.26v1H167.53v.19a3.83,3.83,0,0,0,3.95,4.16,3.32,3.32,0,0,0,3.4-2.07Zm-10.21-4.39h7.36a3.54,3.54,0,0,0-3.61-3.73A3.72,3.72,0,0,0,167.54,40.84Z"/><path class="cls-2" d="M61.47,14.19C64.34,14.19,66,16,66,19s-1.67,4.87-4.56,4.87H58V14.19Zm-2,8.32H61.3c2,0,3.2-1.26,3.2-3.48s-1.19-3.47-3.2-3.47H59.47Z"/><path class="cls-2" d="M67.73,20.22c0-2.36,1.32-3.79,3.45-3.79s3.45,1.43,3.45,3.79S73.32,24,71.18,24,67.73,22.59,67.73,20.22Zm5.42,0c0-1.58-.72-2.51-2-2.51s-2,.93-2,2.51.71,2.52,2,2.52S73.15,21.81,73.15,20.22Z"/><path class="cls-2" d="M83.81,23.88h-1.5L80.8,18.49h-.12l-1.5,5.39H77.69l-2-7.31h1.46l1.31,5.58h.11l1.5-5.58h1.39L83,22.15h.12l1.3-5.58h1.45Z"/><path class="cls-2" d="M87.51,16.57H88.9v1.16H89a2.19,2.19,0,0,1,2.18-1.3c1.64,0,2.54,1,2.54,2.72v4.73H92.28V19.51c0-1.18-.51-1.76-1.58-1.76A1.67,1.67,0,0,0,89,19.6v4.28H87.51Z"/><path class="cls-2" d="M96,13.71h1.44V23.88H96Z"/><path class="cls-2" d="M99.48,20.22c0-2.36,1.32-3.79,3.45-3.79s3.45,1.43,3.45,3.79S105.07,24,102.93,24,99.48,22.59,99.48,20.22Zm5.42,0c0-1.58-.72-2.51-2-2.51s-2,.93-2,2.51.71,2.52,2,2.52S104.9,21.81,104.9,20.22Z"/><path class="cls-2" d="M107.9,21.81c0-1.31,1-2.07,2.72-2.18l2-.11v-.64c0-.77-.52-1.2-1.5-1.2-.81,0-1.37.29-1.53.81h-1.4c.15-1.26,1.33-2.06,3-2.06,1.84,0,2.87.91,2.87,2.45v5h-1.39v-1h-.11a2.47,2.47,0,0,1-2.2,1.14A2.21,2.21,0,0,1,107.9,21.81Zm4.71-.62v-.61l-1.79.11c-1,.07-1.47.41-1.47,1.06s.57,1,1.36,1A1.73,1.73,0,0,0,112.61,21.19Z"/><path class="cls-2" d="M115.94,20.22c0-2.31,1.19-3.77,3-3.77a2.39,2.39,0,0,1,2.24,1.28h.11v-4h1.44V23.88h-1.38V22.73h-.11A2.54,2.54,0,0,1,119,24C117.12,24,115.94,22.54,115.94,20.22Zm1.49,0c0,1.55.73,2.49,2,2.49s2-.95,2-2.48-.76-2.49-2-2.49S117.43,18.68,117.43,20.22Z"/><path class="cls-2" d="M128.75,20.22c0-2.36,1.32-3.79,3.45-3.79s3.45,1.43,3.45,3.79S134.34,24,132.2,24,128.75,22.59,128.75,20.22Zm5.41,0c0-1.58-.71-2.51-2-2.51s-2,.93-2,2.51.71,2.52,2,2.52S134.16,21.81,134.16,20.22Z"/><path class="cls-2" d="M137.59,16.57H139v1.16h.11a2.18,2.18,0,0,1,2.18-1.3c1.63,0,2.53,1,2.53,2.72v4.73h-1.44V19.51c0-1.18-.51-1.76-1.58-1.76A1.68,1.68,0,0,0,139,19.6v4.28h-1.44Z"/><path class="cls-2" d="M152,14.74V16.6h1.59v1.22H152v3.76c0,.77.32,1.1,1,1.1a4.8,4.8,0,0,0,.55,0v1.2a4.84,4.84,0,0,1-.79.07c-1.6,0-2.24-.56-2.24-2V17.82h-1.17V16.6h1.17V14.74Z"/><path class="cls-2" d="M155.52,13.71H157v4h.12a2.24,2.24,0,0,1,2.23-1.31,2.41,2.41,0,0,1,2.52,2.73v4.72h-1.45V19.52c0-1.17-.54-1.76-1.56-1.76A1.71,1.71,0,0,0,157,19.61v4.27h-1.44Z"/><path class="cls-2" d="M170.24,21.91A3,3,0,0,1,167.07,24c-2.1,0-3.38-1.44-3.38-3.78s1.31-3.82,3.37-3.82,3.26,1.39,3.26,3.68v.51h-5.16v.08a1.93,1.93,0,0,0,2,2.1,1.76,1.76,0,0,0,1.74-.89Zm-5.08-2.36h3.69a1.77,1.77,0,0,0-1.8-1.9A1.87,1.87,0,0,0,165.16,19.55Z"/></g></g></svg>