<svg xmlns="http://www.w3.org/2000/svg" viewBox="0 0 75.15 102.21"><defs><style>.cls-1{fill:#1d1d1c;}</style></defs><g id="Layer_2" data-name="Layer 2"><g id="Layer_1-2" data-name="Layer 1"><path class="cls-1" d="M5,102.21H70.16a5,5,0,0,0,5-5V21.45a5,5,0,0,0-5-5H58.32V12.82a1.5,1.5,0,0,0-1.5-1.5H50.38a12.9,12.9,0,0,0-25.61,0H18.33a1.5,1.5,0,0,0-1.5,1.5v3.65H5a5.05,5.05,0,0,0-5,4.91V97.3A5.05,5.05,0,0,0,5,102.21ZM19.83,14.32h6.35a1.5,1.5,0,0,0,1.5-1.49,9.9,9.9,0,0,1,19.79,0A1.5,1.5,0,0,0,49,14.32h6.35V21.7H19.83ZM3,21.45a2,2,0,0,1,2-2H16.83V23.2a1.5,1.5,0,0,0,1.5,1.5H56.82a1.5,1.5,0,0,0,1.5-1.5V19.47H70.16a2,2,0,0,1,2,2V97.23a2,2,0,0,1-2,2H5a2,2,0,0,1-2-2Z"/><path class="cls-1" d="M13.37,41.69l4.1,3.07a1.49,1.49,0,0,0,.89.3,1.53,1.53,0,0,0,1.2-.59l6.06-7.92a1.5,1.5,0,0,0-2.39-1.82l-5.15,6.74-2.91-2.18a1.5,1.5,0,1,0-1.8,2.4Z"/><path class="cls-1" d="M30.64,41.1H57.53a1.5,1.5,0,0,0,0-3H30.64a1.5,1.5,0,0,0,0,3Z"/><path class="cls-1" d="M13.37,56.11l4.1,3.07a1.48,1.48,0,0,0,.89.29,1.52,1.52,0,0,0,1.2-.58L25.62,51a1.5,1.5,0,0,0-2.39-1.82l-5.15,6.73-2.91-2.17a1.5,1.5,0,0,0-1.8,2.4Z"/><path class="cls-1" d="M30.64,56H56.82a1.5,1.5,0,0,0,0-3H30.64a1.5,1.5,0,1,0,0,3Z"/><path class="cls-1" d="M13.37,70.53l4.1,3.06a1.43,1.43,0,0,0,.89.3,1.52,1.52,0,0,0,1.2-.58l6.06-7.92a1.5,1.5,0,0,0-2.39-1.82L18.08,70.3l-2.91-2.18a1.5,1.5,0,0,0-1.8,2.41Z"/><path class="cls-1" d="M30.64,70.49H57.53a1.5,1.5,0,0,0,0-3H30.64a1.5,1.5,0,0,0,0,3Z"/><path class="cls-1" d="M13.37,85,17.47,88a1.5,1.5,0,0,0,2.09-.29l6.06-7.91A1.5,1.5,0,0,0,23.23,78l-5.15,6.73-2.91-2.18A1.5,1.5,0,0,0,13.37,85Z"/><path class="cls-1" d="M30.64,84.91H57.53a1.5,1.5,0,0,0,0-3H30.64a1.5,1.5,0,0,0,0,3Z"/><path class="cls-1" d="M37.57,7.43A5.42,5.42,0,1,0,43,12.84,5.42,5.42,0,0,0,37.57,7.43Zm0,7.83A2.42,2.42,0,1,1,40,12.84,2.42,2.42,0,0,1,37.57,15.26Z"/></g></g></svg>