<svg xmlns="http://www.w3.org/2000/svg" viewBox="0 0 102.21 96.71"><defs><style>.cls-1{fill:#fff;}</style></defs><g id="Layer_2" data-name="Layer 2"><g id="Layer_1-2" data-name="Layer 1"><path class="cls-1" d="M100.71,93.71H85.27a12.93,12.93,0,0,0-1.88-24.45L88.3,46.81a1.49,1.49,0,0,0-.18-1.08h4.33a3.88,3.88,0,0,0,3.88-3.87V36.25a3.88,3.88,0,0,0-3.88-3.88H87.38c-1.25-3.54-9.58-18.5-14.9-24.09-2.1-2.21-3.79-3.22-5.43-3.2-3.14.07-5.24.74-6.44,2.06A3.91,3.91,0,0,0,60,8c-.79-.53-1.82-1.29-2.71-1.95C52.75,2.69,47.1-1.5,43.07.53c-2.35,1.19-3.49,4.12-3.49,9,0,2.51-4,3.38-9.59,4.35l-2.51.44C23.91,15,14.48,26,13,30a3.31,3.31,0,0,0-.36,2.41H8.79a3.88,3.88,0,0,0-3.87,3.88v5.61a3.87,3.87,0,0,0,3.87,3.87h5.39a1.52,1.52,0,0,0-.28,1.16l4,22.54a12.93,12.93,0,0,0-.79,24.28H1.5a1.5,1.5,0,0,0,0,3h99.21a1.5,1.5,0,0,0,0-3ZM90.17,81.79a9.95,9.95,0,1,1-10-9.94A10,10,0,0,1,90.17,81.79ZM15.56,31.54a1.43,1.43,0,0,0,.21-.64C16.6,28.71,25.33,17.78,28,17.26l2.46-.44c5.66-1,12.08-2.06,12.08-7.3,0-3.47.65-5.71,1.84-6.31,2.37-1.2,7.83,2.84,11.1,5.26,2.88,2.13,4.32,3.15,5.56,3.15A1.51,1.51,0,0,0,62.57,10a1,1,0,0,1,.26-.85c.27-.3,1.24-1,4.28-1.08h0c3.76,0,14.17,18.36,17,24.29H15.68A4.6,4.6,0,0,1,15.56,31.54ZM7.92,41.86V36.25a.89.89,0,0,1,.87-.88H92.45a.89.89,0,0,1,.88.88v5.61a.89.89,0,0,1-.88.87H8.79A.88.88,0,0,1,7.92,41.86Zm8.94,4.5a1.51,1.51,0,0,0-.28-.63h69a1.67,1.67,0,0,0-.17.44l-5,22.69h-.18A13,13,0,0,0,67.38,80.24H34.84A13,13,0,0,0,22,68.77a10,10,0,0,0-1.11.06ZM12.05,81.71a9.94,9.94,0,0,1,7.47-9.62.8.8,0,0,0,.15,0,1.24,1.24,0,0,0,.27,0,1.44,1.44,0,0,0,.5-.19A9.82,9.82,0,0,1,22,71.77a9.95,9.95,0,1,1-9.94,9.94Zm22.79,1.52H67.36a13,13,0,0,0,7.81,10.47H26.82A13,13,0,0,0,34.84,83.23Z"/><path class="cls-1" d="M28.35,81.71A6.36,6.36,0,1,0,22,88.07,6.37,6.37,0,0,0,28.35,81.71Zm-9.72,0A3.36,3.36,0,1,1,22,85.07,3.37,3.37,0,0,1,18.63,81.71Z"/><path class="cls-1" d="M73.86,81.79a6.36,6.36,0,1,0,6.36-6.36A6.37,6.37,0,0,0,73.86,81.79Zm9.72,0a3.36,3.36,0,1,1-3.36-3.36A3.35,3.35,0,0,1,83.58,81.79Z"/></g></g></svg>