<svg xmlns="http://www.w3.org/2000/svg" viewBox="0 0 102.21 101.33"><defs><style>.cls-1{fill:#1d1d1c;}</style></defs><g id="Layer_2" data-name="Layer 2"><g id="Layer_1-2" data-name="Layer 1"><path class="cls-1" d="M19.27,76.85c5.78,0,10.14-4.73,10.14-11s-5.15-9.57-10.24-9.57c-4.84,0-10,3-10,9.57C9.13,72.12,13.49,76.85,19.27,76.85Zm-.1-17.56a8.08,8.08,0,0,1,5,1.69,6.1,6.1,0,0,1,2.19,4.88c0,4.55-3.07,8-7.14,8s-7.14-3.44-7.14-8S15.66,59.29,19.17,59.29Z"/><path class="cls-1" d="M1.5,101.33H37a1.5,1.5,0,0,0,1.5-1.5V89.92A10.25,10.25,0,0,0,28.3,79.69H10.24A10.24,10.24,0,0,0,0,89.92v9.91A1.5,1.5,0,0,0,1.5,101.33ZM3,89.92a7.24,7.24,0,0,1,7.24-7.23H28.3a7.24,7.24,0,0,1,7.24,7.23v8.41H29.72v-9a1.5,1.5,0,0,0-3,0v9H11.81v-9a1.5,1.5,0,0,0-3,0v9H3Z"/><path class="cls-1" d="M51.17,52.1h0a1.5,1.5,0,0,0-1.5,1.49l-.1,13.32L39.17,72.83a1.5,1.5,0,0,0,1.48,2.61l10.29-5.86,10.61,6.21a1.5,1.5,0,1,0,1.51-2.59l-10.5-6.15.1-13.44A1.5,1.5,0,0,0,51.17,52.1Z"/><path class="cls-1" d="M51.11,20.56c5.78,0,10.14-4.73,10.14-11S56.1,0,51,0C46.17,0,41,3,41,9.57,41,15.83,45.33,20.56,51.11,20.56Zm-5-15.91A7.66,7.66,0,0,1,51,3c3.49,0,7.24,2.06,7.24,6.57s-3.07,8-7.14,8S44,14.12,44,9.57A6.1,6.1,0,0,1,46.09,4.65Z"/><path class="cls-1" d="M33.34,45H68.88a1.5,1.5,0,0,0,1.5-1.5V33.63A10.25,10.25,0,0,0,60.14,23.4H42.08A10.24,10.24,0,0,0,31.84,33.63v9.91A1.5,1.5,0,0,0,33.34,45Zm1.5-11.41a7.24,7.24,0,0,1,7.24-7.23H60.14a7.24,7.24,0,0,1,7.24,7.23V42H61.56V33.09a1.5,1.5,0,1,0-3,0V42H43.65V33.09a1.5,1.5,0,1,0-3,0V42H34.84Z"/><path class="cls-1" d="M83,76.85c5.78,0,10.14-4.73,10.14-11s-5.15-9.57-10.24-9.57c-4.84,0-10,3-10,9.57C72.8,72.12,77.16,76.85,83,76.85Zm-.1-17.56A8.08,8.08,0,0,1,87.9,61a6.1,6.1,0,0,1,2.19,4.88c0,4.55-3.07,8-7.14,8s-7.15-3.44-7.15-8S79.34,59.29,82.85,59.29Z"/><path class="cls-1" d="M73.92,79.69A10.24,10.24,0,0,0,63.68,89.92v9.91a1.5,1.5,0,0,0,1.5,1.5h35.53a1.5,1.5,0,0,0,1.5-1.5V89.92A10.24,10.24,0,0,0,92,79.69ZM99.21,89.92v8.41H93.4v-9a1.5,1.5,0,0,0-3,0v9H75.49v-9a1.5,1.5,0,0,0-3,0v9H66.68V89.92a7.24,7.24,0,0,1,7.24-7.23H92A7.24,7.24,0,0,1,99.21,89.92Z"/></g></g></svg>