<svg xmlns="http://www.w3.org/2000/svg" viewBox="0 0 93.76 96"><defs><style>.cls-1{fill:#1d1d1c;}</style></defs><g id="Layer_2" data-name="Layer 2"><g id="Layer_1-2" data-name="Layer 1"><path class="cls-1" d="M65.37,39.21a28.3,28.3,0,0,0-7.64,1V24H72.27a1.36,1.36,0,0,0,1.37-1.36V12a1.37,1.37,0,0,0-1.37-1.37h-9V1.37A1.37,1.37,0,0,0,61.93,0h-55A1.37,1.37,0,0,0,5.57,1.37V12a1.37,1.37,0,0,0,1.37,1.37h9v7.89H1.37A1.37,1.37,0,0,0,0,22.62V86.36a1.37,1.37,0,0,0,1.37,1.37h44a28.39,28.39,0,1,0,20-48.51ZM2.74,66.48H37c0,.37,0,.75,0,1.13a27.93,27.93,0,0,0,.82,6.76H2.74Zm34.51-2.74H2.74V55.86H39.53A28.29,28.29,0,0,0,37.25,63.74ZM41,53.12H2.74V45.23H47.92A28.73,28.73,0,0,0,41,53.12ZM52.11,42.51l-.14,0H2.74V34.61H55V41a1.11,1.11,0,0,0,0,.19A28.1,28.1,0,0,0,52.11,42.51ZM8.31,2.74H60.56v7.88H8.31ZM18.65,13.36H70.91v7.89H18.65ZM55,24v7.89H2.74V24ZM2.74,77.1H38.62A28.41,28.41,0,0,0,42.94,85H2.74ZM65.37,93.26A25.66,25.66,0,1,1,91,67.61,25.69,25.69,0,0,1,65.37,93.26Z"/><path class="cls-1" d="M65.51,66.24h-.13c-4,0-6.95-1.18-8-3.17a3.07,3.07,0,0,1,.23-3.3c1.39-2.05,4.57-3,8.52-2.56A33.7,33.7,0,0,1,73,59l.48.16a1.37,1.37,0,1,0,.87-2.6l-.48-.16a38.39,38.39,0,0,0-7.09-1.87v-5.6a1.37,1.37,0,1,0-2.74,0v5.45c-3.87.07-7,1.43-8.65,3.84A5.85,5.85,0,0,0,55,64.36C56.52,67.3,60.32,69,65.38,69a.29.29,0,0,1,.13,0c3.85,0,6.78,1.18,7.84,3.18a3.19,3.19,0,0,1-.22,3.36c-1.36,2-4.49,2.92-8.39,2.48A34.25,34.25,0,0,1,58,76.21l-.5-.16a1.37,1.37,0,0,0-.87,2.59l.51.17A38.74,38.74,0,0,0,64,80.65v5.62a1.37,1.37,0,0,0,2.74,0V80.84c3.88,0,7-1.39,8.65-3.78a5.91,5.91,0,0,0,.38-6.19C74.2,67.93,70.47,66.24,65.51,66.24Z"/></g></g></svg>