<svg xmlns="http://www.w3.org/2000/svg" width="28.6mm" height="29.28mm" viewBox="0 0 81.08 83"><defs><style>.cls-1{fill:none;stroke:#fff;stroke-linecap:round;stroke-linejoin:round;stroke-width:3px;}</style></defs><g id="Layer_2" data-name="Layer 2"><g id="Layer_1-2" data-name="Layer 1"><line class="cls-1" x1="56.4" y1="42.31" x2="56.4" y2="47.34"/><line class="cls-1" x1="56.4" y1="69.3" x2="56.4" y2="74.33"/><path class="cls-1" d="M56.4,35.14A23.18,23.18,0,1,1,33.22,58.32,23.18,23.18,0,0,1,56.4,35.14Z"/><path class="cls-1" d="M63.7,50a32.6,32.6,0,0,0-6.51-1.74C45.88,47,44.43,58.36,56.46,58.32c11.7,0,10.6,11.36-.73,10.08a33,33,0,0,1-6.5-1.73"/><polyline class="cls-1" points="15.33 10.61 6.28 10.61 6.28 1.5 53.45 1.5 53.45 10.61"/><polyline class="cls-1" points="15.15 19.73 15.15 10.61 62.32 10.61 62.32 19.73 48.88 19.73"/><polyline class="cls-1" points="1.5 28.84 1.5 19.73 48.67 19.73 48.67 28.84"/><polyline class="cls-1" points="1.5 37.95 1.5 28.84 48.67 28.84 48.67 35.49"/><polyline class="cls-1" points="1.5 47.06 1.5 37.95 44.91 37.95"/><polyline class="cls-1" points="1.5 56.18 1.5 47.06 35.9 47.06"/><polyline class="cls-1" points="1.5 65.29 1.5 56.18 32.87 56.18"/><polyline class="cls-1" points="39.2 74.4 1.5 74.4 1.5 65.29 34.03 65.29"/></g></g></svg>