<svg xmlns="http://www.w3.org/2000/svg" viewBox="0 0 102.21 75.15"><defs><style>.cls-1{fill:#1d1d1c;}</style></defs><g id="Layer_2" data-name="Layer 2"><g id="Layer_1-2" data-name="Layer 1"><path class="cls-1" d="M31.57,37.58a1.5,1.5,0,0,0,3,0A16.56,16.56,0,0,1,51.11,21a1.5,1.5,0,0,0,0-3A19.55,19.55,0,0,0,31.57,37.58Z"/><path class="cls-1" d="M102,36.78c-7.71-12.26-14.84-20.09-22.86-25.1l9.12-9.12A1.5,1.5,0,1,0,86.12.44L62.8,23.76h0L37.29,49.27h0L14,72.59a1.5,1.5,0,0,0,2.12,2.13L25.8,65c7.18,3.82,15.25,5.64,25.31,5.64,22.27,0,36.06-8.75,50.87-32.27A1.49,1.49,0,0,0,102,36.78ZM63.81,27a16.38,16.38,0,0,1,3.84,10.58,16.54,16.54,0,0,1-27.13,12.7ZM51.11,67.65C42,67.65,34.56,66.08,28,62.78L38.4,52.4A19.52,19.52,0,0,0,65.93,24.87l11-11c7.69,4.63,14.55,12,22,23.71C84.8,59.76,72.19,67.65,51.11,67.65Z"/><path class="cls-1" d="M15.29,56.85a1.48,1.48,0,0,0,1.07-.45,1.5,1.5,0,0,0,0-2.12A93,93,0,0,1,3.28,37.58C17.42,15.4,30,7.51,51.11,7.51a61.11,61.11,0,0,1,12.1,1.1A1.5,1.5,0,0,0,65,7.43,1.5,1.5,0,0,0,63.8,5.67,64,64,0,0,0,51.11,4.51C28.83,4.51,15,13.26.23,36.78a1.49,1.49,0,0,0,0,1.6,98.67,98.67,0,0,0,14,18A1.51,1.51,0,0,0,15.29,56.85Z"/></g></g></svg>