<svg xmlns="http://www.w3.org/2000/svg" xmlns:xlink="http://www.w3.org/1999/xlink" width="77.39mm" height="22.93mm" viewBox="0 0 219.37 65"><defs><style>.cls-1{fill:#a6a6a6;}.cls-10,.cls-2,.cls-3{fill:#fff;}.cls-2{stroke:#fff;stroke-miterlimit:10;stroke-width:0.2px;}.cls-4{fill:url(#linear-gradient);}.cls-5{fill:url(#linear-gradient-2);}.cls-6{fill:url(#linear-gradient-3);}.cls-7{fill:url(#linear-gradient-4);}.cls-8{opacity:0.2;}.cls-10,.cls-8,.cls-9{isolation:isolate;}.cls-9{opacity:0.12;}.cls-10{opacity:0.25;}</style><linearGradient id="linear-gradient" x1="35.42" y1="-223.85" x2="8.15" y2="-251.12" gradientTransform="matrix(1, 0, 0, -1, 0, -209.7)" gradientUnits="userSpaceOnUse"><stop offset="0" stop-color="#1799c4"/><stop offset="0.01" stop-color="#159ac4"/><stop offset="0.26" stop-color="#1ea8cb"/><stop offset="0.51" stop-color="#1caacc"/><stop offset="0.76" stop-color="#27adcd"/><stop offset="1" stop-color="#27aecd"/></linearGradient><linearGradient id="linear-gradient-2" x1="54.98" y1="-242.2" x2="15.66" y2="-242.2" gradientTransform="matrix(1, 0, 0, -1, 0, -209.7)" gradientUnits="userSpaceOnUse"><stop offset="0" stop-color="#f7e016"/><stop offset="0.41" stop-color="#f7bd0e"/><stop offset="0.78" stop-color="#f9a50e"/><stop offset="1" stop-color="#f79c0f"/></linearGradient><linearGradient id="linear-gradient-3" x1="40.34" y1="-245.93" x2="3.36" y2="-282.91" gradientTransform="matrix(1, 0, 0, -1, 0, -209.7)" gradientUnits="userSpaceOnUse"><stop offset="0" stop-color="#f73944"/><stop offset="1" stop-color="#c31762"/></linearGradient><linearGradient id="linear-gradient-4" x1="11.86" y1="-209.98" x2="28.37" y2="-226.5" gradientTransform="matrix(1, 0, 0, -1, 0, -209.7)" gradientUnits="userSpaceOnUse"><stop offset="0" stop-color="#2e9d70"/><stop offset="0.07" stop-color="#2ca26f"/><stop offset="0.48" stop-color="#189960"/><stop offset="0.8" stop-color="#1b9a56"/><stop offset="1" stop-color="#179652"/></linearGradient></defs><g id="Layer_2" data-name="Layer 2"><g id="Layer_1-2" data-name="Layer 1"><rect width="219.37" height="65" rx="8.12"/><path class="cls-1" d="M211.25,1.3a6.83,6.83,0,0,1,6.82,6.83V56.88a6.83,6.83,0,0,1-6.82,6.82H8.12A6.83,6.83,0,0,1,1.3,56.88V8.13A6.83,6.83,0,0,1,8.12,1.3H211.25m0-1.3H8.12A8.15,8.15,0,0,0,0,8.13V56.88A8.15,8.15,0,0,0,8.12,65H211.25a8.15,8.15,0,0,0,8.12-8.12V8.13A8.15,8.15,0,0,0,211.25,0Z"/><path class="cls-2" d="M77.05,16.65a4.38,4.38,0,0,1-1.21,3.25,4.72,4.72,0,0,1-3.58,1.44,5,5,0,0,1-5.06-5.09,5,5,0,0,1,5.06-5.09,4.87,4.87,0,0,1,2,.41,4,4,0,0,1,1.53,1.08l-.86.86a3.28,3.28,0,0,0-2.67-1.15,3.76,3.76,0,0,0-3.78,3.89A3.84,3.84,0,0,0,75,19.06a3.07,3.07,0,0,0,.81-2H72.26V15.91H77A4.71,4.71,0,0,1,77.05,16.65Z"/><path class="cls-2" d="M84.54,12.57H80.1v3.09h4v1.18h-4v3.09h4.44v1.2H78.85V11.38h5.69Z"/><path class="cls-2" d="M89.83,21.13H88.57V12.57H85.85V11.38h6.7v1.19H89.83Z"/><path class="cls-2" d="M97.4,21.13V11.38h1.25v9.75Z"/><path class="cls-2" d="M104.21,21.13H103V12.57h-2.72V11.38h6.7v1.19h-2.72Z"/><path class="cls-2" d="M119.61,19.87a5.07,5.07,0,0,1-7.14,0A5,5,0,0,1,111,16.25a5,5,0,0,1,1.44-3.61,5,5,0,0,1,7.14,0,5,5,0,0,1,1.44,3.61A5,5,0,0,1,119.61,19.87Zm-6.22-.82a3.77,3.77,0,0,0,5.3,0,3.83,3.83,0,0,0,1.08-2.8,3.83,3.83,0,0,0-1.08-2.8,3.77,3.77,0,0,0-5.3,0,3.83,3.83,0,0,0-1.08,2.8A3.83,3.83,0,0,0,113.39,19.05Z"/><path class="cls-2" d="M122.81,21.13V11.38h1.52L129.07,19h.06l-.06-1.88v-5.7h1.26v9.75H129l-5-8h0l0,1.88v6.08Z"/><path class="cls-3" d="M110.72,35.35a6.91,6.91,0,1,0,6.94,6.91A6.81,6.81,0,0,0,110.72,35.35Zm0,11.1a4.2,4.2,0,1,1,3.9-4.19A4,4,0,0,1,110.72,46.45ZM95.59,35.35a6.91,6.91,0,1,0,6.93,6.91A6.81,6.81,0,0,0,95.59,35.35Zm0,11.1a4.2,4.2,0,1,1,3.9-4.19A4,4,0,0,1,95.59,46.45Zm-18-9V40.4h7A6.11,6.11,0,0,1,83,44.09a7.19,7.19,0,0,1-5.42,2.15,7.81,7.81,0,0,1,0-15.61,7.48,7.48,0,0,1,5.29,2.1l2.07-2.07a10.2,10.2,0,0,0-7.36-3,10.74,10.74,0,1,0,0,21.47,9.81,9.81,0,0,0,7.49-3,9.68,9.68,0,0,0,2.54-6.86,9.1,9.1,0,0,0-.16-1.83Zm73.63,2.27a6.43,6.43,0,0,0-5.92-4.39,6.57,6.57,0,0,0-6.52,6.91,6.77,6.77,0,0,0,6.86,6.91,6.89,6.89,0,0,0,5.76-3.06L149,44.54a4,4,0,0,1-3.41,1.91,3.52,3.52,0,0,1-3.35-2.1l9.24-3.82Zm-9.43,2.31a3.8,3.8,0,0,1,3.62-4A2.67,2.67,0,0,1,148,39.48Zm-7.51,6.7h3V28.44h-3Zm-5-11.86h-.11a4.79,4.79,0,0,0-3.64-1.54,6.92,6.92,0,0,0,0,13.82,4.7,4.7,0,0,0,3.64-1.57h.11v1c0,2.65-1.42,4.06-3.69,4.06a3.83,3.83,0,0,1-3.49-2.46l-2.64,1.1a6.58,6.58,0,0,0,6.13,4.08c3.56,0,6.57-2.09,6.57-7.2V35.77H129.3Zm-3.49,9.56A4,4,0,0,1,122,42.28a4,4,0,0,1,3.84-4.21c2.07,0,3.7,1.78,3.7,4.21A3.87,3.87,0,0,1,125.81,46.45Zm39.62-18h-7.26V48.75h3v-7.7h4.23a6.31,6.31,0,1,0,0-12.61Zm.08,9.79H161.2v-7h4.31a3.49,3.49,0,1,1,0,7Zm18.74-2.92a5.7,5.7,0,0,0-5.41,3.11l2.69,1.12a2.89,2.89,0,0,1,2.77-1.49c1.57,0,3.17.94,3.19,2.62v.21a6.6,6.6,0,0,0-3.16-.79c-2.9,0-5.86,1.6-5.86,4.58,0,2.71,2.38,4.46,5.05,4.46a4.28,4.28,0,0,0,3.87-2h.1v1.57h2.93V40.93C190.42,37.32,187.73,35.31,184.25,35.31Zm-.37,11.13c-1,0-2.37-.49-2.37-1.72,0-1.57,1.72-2.17,3.21-2.17a5.43,5.43,0,0,1,2.77.68A3.67,3.67,0,0,1,183.88,46.44Zm17.2-10.69-3.47,8.81h-.11l-3.61-8.81h-3.26L196,48.06,193,54.91h3.17l8.33-19.16Zm-27.31,13h3V28.44h-3Z"/><path class="cls-4" d="M17,12.25a3.22,3.22,0,0,0-.75,2.28V50.47A3.2,3.2,0,0,0,17,52.75l.12.12L37.21,32.74v-.48L17.08,12.13Z"/><path class="cls-5" d="M43.92,39.45l-6.71-6.71v-.48l6.71-6.71.15.09,8,4.52c2.27,1.29,2.27,3.4,0,4.69l-8,4.52Z"/><path class="cls-6" d="M44.07,39.37,37.21,32.5,17,52.75c.75.8,2,.89,3.37.1L44.07,39.37"/><path class="cls-7" d="M44.07,25.64,20.33,12.15c-1.39-.79-2.62-.69-3.37.1L37.21,32.5Z"/><path class="cls-8" d="M43.92,39.21,20.33,52.62c-1.32.75-2.49.7-3.25,0h0l-.12.12h0l.12.12h0c.76.68,1.93.73,3.25,0L44.07,39.37Z"/><path class="cls-9" d="M17,52.52a3.23,3.23,0,0,1-.75-2.29v.24A3.2,3.2,0,0,0,17,52.75l.12-.12Z"/><path class="cls-9" d="M52,34.61l-8.1,4.6.15.16,8-4.52a2.86,2.86,0,0,0,1.71-2.35h0A3,3,0,0,1,52,34.61Z"/><path class="cls-10" d="M20.33,12.39,52,30.39a3.06,3.06,0,0,1,1.71,2.11h0A2.84,2.84,0,0,0,52,30.16l-31.69-18c-2.27-1.29-4.12-.22-4.12,2.38v.24C16.21,12.17,18.06,11.1,20.33,12.39Z"/></g></g></svg>