<svg xmlns="http://www.w3.org/2000/svg" viewBox="0 0 102.21 102.21"><defs><style>.cls-1{fill:#fff;}</style></defs><g id="Layer_2" data-name="Layer 2"><g id="Layer_1-2" data-name="Layer 1"><path class="cls-1" d="M73.65,18a10.52,10.52,0,1,0,7.44,3.08A10.41,10.41,0,0,0,73.65,18ZM79,33.88a7.53,7.53,0,1,1,2.2-5.32A7.51,7.51,0,0,1,79,33.88Z"/><path class="cls-1" d="M45.54,45.54,18.48,72.59a1.49,1.49,0,0,0,0,2.12,1.5,1.5,0,0,0,2.12,0l27.06-27a1.51,1.51,0,0,0,0-2.12A1.49,1.49,0,0,0,45.54,45.54Z"/><path class="cls-1" d="M69.15,0A33.1,33.1,0,0,0,36.08,33.07a34.76,34.76,0,0,0,.2,3.68L.44,72.59A1.53,1.53,0,0,0,0,73.65v27.06a1.5,1.5,0,0,0,1.5,1.5H28.56a1.5,1.5,0,0,0,1.5-1.5V93.19h7.52a1.5,1.5,0,0,0,1.5-1.5V84.17H46.6a1.5,1.5,0,0,0,1.5-1.5V75.15h7.52a1.47,1.47,0,0,0,1.06-.44l8.78-8.78a32.47,32.47,0,0,0,3.69.21A33.07,33.07,0,0,0,69.15,0Zm0,63.14a30,30,0,0,1-4-.27,1.51,1.51,0,0,0-1.26.42L55,72.15H46.6a1.5,1.5,0,0,0-1.5,1.5v7.52H37.58a1.5,1.5,0,0,0-1.5,1.5v7.52H28.56a1.5,1.5,0,0,0-1.5,1.5v7.52H3V74.28L38.92,38.36a1.48,1.48,0,0,0,.42-1.26,32,32,0,0,1-.26-4A30.07,30.07,0,1,1,69.15,63.14Z"/></g></g></svg>