<?xml version="1.0" encoding="utf-8"?>
<svg version="1.1" id="Layer_1" xmlns="http://www.w3.org/2000/svg" xmlns:xlink="http://www.w3.org/1999/xlink" x="0px" y="0px"
	 viewBox="0 0 1293.6 428.3" style="enable-background:new 0 0 1293.6 428.3;" xml:space="preserve">
<g>
	<g>
		<path d="M435.3,246.3v142.3c0,9.8-3.5,18.6-10,25.4c-4.6,4.8-13,10.8-26.7,10.8c-10.2,0-19.2-3.6-26.2-10.5
			c-6.9-6.8-10.5-15.7-10.5-25.6V246.3c0-20.3-5.1-36.1-15.4-48.4c-9.6-11.3-21-16.4-35.9-16.4c-17.2,0-30.5,5.2-40.7,15.9
			c-10.4,11-15.2,25.6-14.7,44.9v146.4c0,9.8-3.5,18.6-10,25.4c-4.6,4.8-13,10.8-26.7,10.8c-10.2,0-19.2-3.6-26.2-10.5
			c-6.9-6.8-10.5-15.7-10.5-25.6V246.3c0-20.3-5.1-36.1-15.4-48.4c-9.6-11.3-21-16.4-35.9-16.4c-17.2,0-30.6,5.1-41.2,15.5
			s-15.7,23.8-15.7,41v150.8c0,9.8-3.5,18.6-9.9,25.3c-4.6,4.9-13.1,10.9-26.8,10.9c-10.2,0-19.2-3.6-26.2-10.5
			c-6.9-6.8-10.5-15.7-10.5-25.6v-240c0-13.3,6.1-21.6,11-26.3c6.8-6.4,15.7-9.8,25.7-9.8c13.2,0,21.6,5.6,26.4,10.2
			c1.1,1.1,2.3,2.3,3.4,3.9c3.3-2,6.8-3.9,10.2-5.6c16.6-8,34.6-12,53.5-12c23.4,0,44.8,5.8,63.5,17.2c9.4,5.7,17.8,12.5,25.3,20.5
			c7.7-8,16.5-14.9,26.4-20.7c19.3-11.3,41.3-17,65.2-17c24.2,0,46.1,6.1,65.3,18.1c19,11.9,33.9,28.7,44.4,49.7
			C430.1,197.6,435.3,220.9,435.3,246.3z"/>
	</g>
	<g>
		<path d="M779,187.9c-14.1-24.3-33.7-43.6-58.4-57.5c-24.6-13.8-52.1-20.8-81.9-20.8c-30,0-57.8,7-82.4,20.8
			c-24.7,13.9-44.4,33.2-58.4,57.5c-14,24.2-21.1,51.4-21.1,81.1c0,29.3,7.1,56.4,21.1,80.6c7,12.1,15.4,23,25.2,32.6
			s20.9,17.9,33.2,24.9c24.6,13.8,52.2,20.8,82.4,20.8c29.7,0,57.3-7,81.9-20.8c24.7-13.9,44.3-33.2,58.4-57.5
			c14-24.2,21.1-51.3,21.1-80.6C800.2,239.4,793.2,212.1,779,187.9z M701.8,332.5c-5.2,5.2-11,9.7-17.8,13.5
			c-13.4,7.6-28.3,11.4-45.2,11.4s-31.7-3.7-45.2-11.4s-23.8-17.9-31.5-31.5c-7.9-13.6-11.6-28.6-11.6-45.6c0-17.1,3.8-32,11.6-45.6
			s18.2-24,31.7-31.8c13.4-7.8,28.2-11.6,45.1-11.6s31.6,3.8,45.1,11.6c13.4,7.8,23.7,18.2,31.3,31.7c7.8,13.6,11.5,28.6,11.5,45.7
			s-3.8,32.1-11.5,45.7C711.5,321.5,707,327.4,701.8,332.5z"/>
	</g>
	<g>
		<path d="M1133.9,187.9c-7.1-12.1-15.5-23-25.3-32.6c-9.8-9.6-20.8-17.9-33.1-24.9c-24.6-13.8-52.1-20.8-81.9-20.8
			c-30,0-57.8,7-82.4,20.8c-24.7,13.9-44.4,33.2-58.4,57.5c-14,24.2-21.1,51.4-21.1,81.1c0,29.3,7.1,56.4,21.1,80.6
			c14,24.3,33.7,43.6,58.4,57.5c24.6,13.8,52.2,20.8,82.4,20.8c27.2,0,52.2-5.9,74.5-17.5c5.4-2.8,10.5-6,15.5-9.3
			c1.7,5,4.7,9.5,8.6,13.4c7,6.9,16,10.5,26.2,10.5c13.5,0,22-6,26.8-10.9c6.5-6.8,9.9-15.5,9.9-25.3V269
			C1155.2,239.4,1147.9,212.1,1133.9,187.9z M993.8,357.5c-17,0-31.7-3.7-45.2-11.4s-23.8-17.9-31.5-31.5
			c-7.9-13.6-11.6-28.6-11.6-45.6c0-17.1,3.8-32,11.6-45.6c7.9-13.6,18.2-24,31.7-31.8c13.4-7.8,28.2-11.6,45.1-11.6
			s31.6,3.8,45.1,11.6c13.4,7.8,23.8,18.2,31.4,31.7c7.8,13.6,11.5,28.6,11.5,45.7s-3.8,32.1-11.5,45.7c-3.8,6.8-8.3,12.6-13.5,17.8
			c-5.2,5.2-11,9.7-17.7,13.5C1025.6,353.8,1010.7,357.5,993.8,357.5z"/>
	</g>
	<g>
		<path d="M1293.3,44.3c0,12.2-7.5,22.5-13,31.6c-10.3,16.5-32.1,33.2-32.1,33.2s-21.9-17.5-32.1-33.5c-6.4-9.9-12.5-19.2-12.5-31.3
			c0-17,7.9-27.3,14.6-33c8.6-7.2,19.2-11.1,30.6-11.1c11.5,0,22.2,3.9,30.6,11.3C1285.7,17.3,1293.3,27.5,1293.3,44.3z"/>
		<path d="M1285.3,181.6v207c0,9.7-3.5,18.5-9.9,25.3c-4.8,5-13.3,10.9-26.8,10.9c-10.1,0-19.2-3.6-26.2-10.5s-10.5-15.7-10.5-25.6
			v-207c0-13.3,6-21.6,11-26.3c6.9-6.4,15.7-9.8,25.7-9.8c13.1,0,21.6,5.5,26.3,10.2C1279.7,160.4,1285.3,168.6,1285.3,181.6z"/>
	</g>
</g>
</svg>
