<svg xmlns="http://www.w3.org/2000/svg" viewBox="0 0 102.21 102.18"><defs><style>.cls-1{fill:#fff;}</style></defs><g id="Layer_2" data-name="Layer 2"><g id="Layer_1-2" data-name="Layer 1"><path class="cls-1" d="M77.44,65.7a42.32,42.32,0,1,0-11.7,11.71l24.33,24.33a1.5,1.5,0,0,0,2.12,0l9.58-9.58a1.49,1.49,0,0,0,0-2.12ZM3,42.27A39.27,39.27,0,1,1,42.27,81.54,39.32,39.32,0,0,1,3,42.27ZM91.13,98.56,68.66,76.09l7.58-7.34L98.59,91.1Z"/><path class="cls-1" d="M74.94,44.09a1.5,1.5,0,0,0,1.5-1.5A34.62,34.62,0,0,0,41.86,8a1.5,1.5,0,0,0,0,3A31.62,31.62,0,0,1,73.44,42.59,1.5,1.5,0,0,0,74.94,44.09Z"/></g></g></svg>