<svg xmlns="http://www.w3.org/2000/svg" width="27.39mm" height="29.28mm" viewBox="0 0 77.63 83">
  <defs>
    <style>
      .cls-1 {
        fill: none;
        stroke: #000;
        stroke-linecap: round;
        stroke-linejoin: round;
        stroke-width: 3px;
      }
    </style>
  </defs>
  <g id="Layer_2" data-name="Layer 2">
    <g id="Layer_1-2" data-name="Layer 1">
      <g>
        <polyline class="cls-1" points="64.84 25.33 75.17 14.99 61.69 1.5 22.23 40.97 35.71 54.45 50.38 39.78"/>
        <line class="cls-1" x1="30.16" y1="58.62" x2="18.05" y2="46.52"/>
        <path class="cls-1" d="M57.28,22.82A9.39,9.39,0,1,1,47.9,32.2a9.38,9.38,0,0,1,9.38-9.38Z"/>
        <path class="cls-1" d="M66.29,39.81c9.61,12.08,7.2,19.86,1.31,31.8h1.19a7.11,7.11,0,0,1,7.34,6.82V81.5H1.5V78.43a7.11,7.11,0,0,1,7.34-6.82H51.66c7-10.22,9.88-17.63,4.61-29.2"/>
      </g>
    </g>
  </g>
</svg>
