<svg xmlns="http://www.w3.org/2000/svg" viewBox="0 0 232.14 75.9"><defs><style>.cls-1{fill:#1d1d1c;}</style></defs><g id="Layer_2" data-name="Layer 2"><g id="Layer_1-2" data-name="Layer 1"><path class="cls-1" d="M145.11,47.62a27,27,0,0,1-8.28,20,28.31,28.31,0,0,1-40,0,27.26,27.26,0,0,1-8.28-20,27.24,27.24,0,0,1,8.28-20,28.28,28.28,0,0,1,40,0A27.78,27.78,0,0,1,143,36.76,29.05,29.05,0,0,1,145.11,47.62ZM116.83,29.89a17,17,0,0,0-7,1.42,17.74,17.74,0,0,0-5.61,3.81,17.93,17.93,0,0,0-3.76,5.63,17.67,17.67,0,0,0,0,13.74,18,18,0,0,0,3.76,5.63,17.74,17.74,0,0,0,5.61,3.81,17.81,17.81,0,0,0,13.89,0,18,18,0,0,0,9.41-9.47,17.52,17.52,0,0,0,0-13.68,17.86,17.86,0,0,0-9.41-9.47A17,17,0,0,0,116.83,29.89Z"/><path class="cls-1" d="M199.21,70.65v-1A29.16,29.16,0,0,1,191,74.29a27.73,27.73,0,0,1-9.49,1.61,27.26,27.26,0,0,1-20-8.28,27.23,27.23,0,0,1-8.29-20,27.21,27.21,0,0,1,8.29-20,28.27,28.27,0,0,1,40,0,27.24,27.24,0,0,1,8.28,20v23a5.26,5.26,0,0,1-5.25,5.25,5.13,5.13,0,0,1-3.77-1.54A5.07,5.07,0,0,1,199.21,70.65ZM181.48,29.89a17,17,0,0,0-7,1.42,17.74,17.74,0,0,0-5.61,3.81,17.93,17.93,0,0,0-3.76,5.63,17.67,17.67,0,0,0,0,13.74,18,18,0,0,0,3.76,5.63,17.74,17.74,0,0,0,5.61,3.81,17.81,17.81,0,0,0,13.89,0A17.92,17.92,0,0,0,194,60.09a18.18,18.18,0,0,0,3.79-5.63,17.52,17.52,0,0,0,0-13.68A18.35,18.35,0,0,0,194,35.14a18.06,18.06,0,0,0-5.63-3.83A17,17,0,0,0,181.48,29.89Z"/><path class="cls-1" d="M220.67,70.6v-46a5.25,5.25,0,0,1,9-3.76,5.32,5.32,0,0,1,1.59,3.76v46a5.36,5.36,0,0,1-1.59,3.76,5.25,5.25,0,0,1-7.43,0A5.15,5.15,0,0,1,220.67,70.6Z"/><path class="cls-1" d="M77.71,33.15a22.75,22.75,0,0,0-12-12A21.54,21.54,0,0,0,57,19.33a22,22,0,0,0-17.22,8,22,22,0,0,0-17.22-8,21.46,21.46,0,0,0-8.71,1.8A23.06,23.06,0,0,0,6.64,26a23.26,23.26,0,0,0-4.85,7.18A21.62,21.62,0,0,0,0,41.86V70.6a5.11,5.11,0,0,0,1.54,3.76A5.06,5.06,0,0,0,5.25,75.9,5,5,0,0,0,9,74.36a5.17,5.17,0,0,0,1.52-3.76V41.86a11.57,11.57,0,0,1,.93-4.6,12.11,12.11,0,0,1,6.36-6.41,11.7,11.7,0,0,1,4.73-1,11.31,11.31,0,0,1,4.64,1A12.9,12.9,0,0,1,31,33.42a11.83,11.83,0,0,1,2.57,3.79,11.54,11.54,0,0,1,.94,4.65V70.6A5.11,5.11,0,0,0,36,74.36a5.24,5.24,0,0,0,7.42,0A5.11,5.11,0,0,0,45,70.6V41.86a11.54,11.54,0,0,1,.94-4.65,11.83,11.83,0,0,1,2.57-3.79,12.9,12.9,0,0,1,3.82-2.57,11.31,11.31,0,0,1,4.64-1,11.7,11.7,0,0,1,4.73,1,12.11,12.11,0,0,1,6.36,6.41,11.57,11.57,0,0,1,.93,4.6V70.6a5.17,5.17,0,0,0,1.52,3.76,5.28,5.28,0,0,0,7.45,0A5.11,5.11,0,0,0,79.5,70.6V41.86A21.62,21.62,0,0,0,77.71,33.15Z"/><path class="cls-1" d="M232.14,6.21c0,5.52-6.22,9.28-6.22,9.28s-6.21-3.76-6.21-9.28a6,6,0,0,1,1.82-4.39,6.22,6.22,0,0,1,8.79,0A6,6,0,0,1,232.14,6.21Z"/></g></g></svg>