<svg xmlns="http://www.w3.org/2000/svg" viewBox="0 0 102.21 102.21"><defs><style>.cls-1{fill:#1d1d1c;}</style></defs><g id="Layer_2" data-name="Layer 2"><g id="Layer_1-2" data-name="Layer 1"><path class="cls-1" d="M1.5,43.79H42.29a1.5,1.5,0,0,0,1.5-1.5V1.5A1.5,1.5,0,0,0,42.29,0H1.5A1.5,1.5,0,0,0,0,1.5V42.29A1.5,1.5,0,0,0,1.5,43.79ZM3,3H40.79V40.79H3Z"/><path class="cls-1" d="M28.56,13.73H15.23a1.5,1.5,0,0,0-1.5,1.5V28.56a1.5,1.5,0,0,0,1.5,1.5H28.56a1.5,1.5,0,0,0,1.5-1.5V15.23A1.5,1.5,0,0,0,28.56,13.73Zm-1.5,13.33H16.73V16.73H27.06Z"/><path class="cls-1" d="M1.5,102.21H42.29a1.5,1.5,0,0,0,1.5-1.5V59.92a1.5,1.5,0,0,0-1.5-1.5H1.5A1.5,1.5,0,0,0,0,59.92v40.79A1.5,1.5,0,0,0,1.5,102.21ZM3,61.42H40.79V99.21H3Z"/><path class="cls-1" d="M28.56,72.15H15.23a1.5,1.5,0,0,0-1.5,1.5V87a1.5,1.5,0,0,0,1.5,1.5H28.56a1.5,1.5,0,0,0,1.5-1.5V73.65A1.5,1.5,0,0,0,28.56,72.15Zm-1.5,13.33H16.73V75.15H27.06Z"/><path class="cls-1" d="M100.71.07H59.92a1.5,1.5,0,0,0-1.5,1.5V42.36a1.51,1.51,0,0,0,1.5,1.5h40.79a1.5,1.5,0,0,0,1.5-1.5V1.57A1.5,1.5,0,0,0,100.71.07Zm-1.5,40.79H61.42V3.07H99.21Z"/><path class="cls-1" d="M73.66,30.12H87a1.5,1.5,0,0,0,1.5-1.5V15.3A1.5,1.5,0,0,0,87,13.8H73.66a1.5,1.5,0,0,0-1.5,1.5V28.62A1.5,1.5,0,0,0,73.66,30.12Zm1.5-13.32H85.48V27.12H75.16Z"/><path class="cls-1" d="M100.71,58.42H59.92a1.51,1.51,0,0,0-1.5,1.5v40.79a1.5,1.5,0,0,0,1.5,1.5h40.79a1.5,1.5,0,0,0,1.5-1.5V59.92A1.5,1.5,0,0,0,100.71,58.42Zm-1.5,40.79H61.42V61.42H99.21Z"/><path class="cls-1" d="M73.66,88.48H87a1.5,1.5,0,0,0,1.5-1.5V73.65a1.5,1.5,0,0,0-1.5-1.5H73.66a1.5,1.5,0,0,0-1.5,1.5V87A1.5,1.5,0,0,0,73.66,88.48Zm1.5-13.33H85.48V85.48H75.16Z"/></g></g></svg>