<svg xmlns="http://www.w3.org/2000/svg" viewBox="0 0 89.76 96"><defs><style>.cls-1{fill:#1d1d1c;}</style></defs><g id="Layer_2" data-name="Layer 2"><g id="Layer_1-2" data-name="Layer 1"><path class="cls-1" d="M33.81,68.92A1.37,1.37,0,0,0,35.75,67L21.64,52.88a1.37,1.37,0,1,0-1.94,1.93Z"/><path class="cls-1" d="M80.61,81.75C86.67,69.14,89.29,59.38,78,45.17a1.37,1.37,0,1,0-2.14,1.71c10.54,13.24,8.39,21.39,1.37,35.61a1.37,1.37,0,0,0,1.23,2h1.39c4,0,7.19,3,7.19,6.59v2.21H2.74V91.05c0-3.63,3.22-6.59,7.18-6.59H59.85A1.35,1.35,0,0,0,61,83.87c8.4-12.3,11.65-21.11,5.91-34.43a12.28,12.28,0,0,0,9.47-19.51L88.24,18a1.37,1.37,0,0,0,0-1.93L72.52.39a1.4,1.4,0,0,0-1.94,0l-46,46a1.35,1.35,0,0,0,0,1.94L40.29,64.06a1.38,1.38,0,0,0,1.94,0l17-17a12.2,12.2,0,0,0,4.68,2.1,1.63,1.63,0,0,0,.11.42c5.71,12.54,3,20.44-4.85,32.11H9.92C4.45,81.73,0,85.91,0,91.05v3.58A1.37,1.37,0,0,0,1.37,96h87a1.37,1.37,0,0,0,1.37-1.37V91.05A9.61,9.61,0,0,0,80.61,81.75Zm-14.2-35A9.58,9.58,0,1,1,76,37.15,9.59,9.59,0,0,1,66.41,46.73ZM41.26,61.16,27.47,47.37,71.55,3.29,85.34,17.08,74.51,27.91A12.29,12.29,0,0,0,57.16,45.25Z"/></g></g></svg>