<svg xmlns="http://www.w3.org/2000/svg" viewBox="0 0 572.9 104.26"><defs><style>.cls-1{fill:#fff;}</style></defs><g id="Layer_2" data-name="Layer 2"><g id="Layer_1-2" data-name="Layer 1"><path class="cls-1" d="M516.76,32.59h4.9v3.75l.23.1c.27-.22.54-.44.8-.67a13.59,13.59,0,0,1,8.82-3.59,13.94,13.94,0,0,1,10.82,4.62c.69.72,1.26,1.56,1.88,2.35.18.22.35.46.61.82.27-.39.46-.69.66-1a14.67,14.67,0,0,1,8-6.18,13.48,13.48,0,0,1,14.17,3.7,17.21,17.21,0,0,1,5.18,12.25c.08,6,0,12,0,18,0,.23,0,.46-.08.75H567.9V66.22c0-5.49,0-11,0-16.46a13.82,13.82,0,0,0-3.24-9.16,9,9,0,0,0-14.09,0,12.75,12.75,0,0,0-3.19,8.15c-.08,5.82,0,11.64,0,17.46v1.26a33,33,0,0,1-5.07,0V66.2c0-5.62,0-11.24,0-16.86A13.22,13.22,0,0,0,539,40.52a9,9,0,0,0-13.9-.07,13.76,13.76,0,0,0-3.39,9.4c0,5.45,0,10.9,0,16.35v1.27h-4.91Z"/><path class="cls-1" d="M361.23,52.57H331.62c.24,3.5,3.59,8.23,8.49,9.66s10.9.1,14.6-6.23c1.5.74,3,1.47,4.52,2.32A16.91,16.91,0,0,1,354,64.5a17.44,17.44,0,0,1-27.5-10.8c-1.52-7.55,1-13.87,7.28-18.48A17.58,17.58,0,0,1,361.22,49.8C361.23,50.67,361.23,51.53,361.23,52.57Zm-29.63-5.2h24.09c-.23-3.83-4.69-9.81-11.31-10.07C338.17,37.05,332.09,41.82,331.6,47.37Z"/><path class="cls-1" d="M255.21,52.58H225.62c.23,3.74,3.74,8,7.87,9.45a12.17,12.17,0,0,0,8.73-.17A12.77,12.77,0,0,0,248.67,56l4.55,2.3c-.19.37-.31.67-.48.95A17.28,17.28,0,0,1,240,67.73a17.52,17.52,0,0,1-19.66-14.68c-1.09-7.41,1.38-13.44,7.46-17.87a17.58,17.58,0,0,1,27.4,14.49C255.22,50.57,255.21,51.47,255.21,52.58Zm-29.59-5.27c1,.22,23.35.18,24.06,0-.32-4-5.05-10.12-12.16-10C231.77,37.36,225.79,42.36,225.62,47.31Z"/><path class="cls-1" d="M420.35,37V32.6h5.06V67.47a34.34,34.34,0,0,1-5.07,0V62.82c-.4.31-.64.47-.85.66A17.43,17.43,0,0,1,390.82,54c-1.61-7.23.58-13.42,6.36-18.19a17.35,17.35,0,0,1,22,.46l.9.78ZM395.51,49.92a12.46,12.46,0,0,0,3.71,9.17,12.19,12.19,0,0,0,17.3.09,12.88,12.88,0,0,0,3.66-11.37c-.76-5.52-6.68-12.19-15.22-10.2A12.79,12.79,0,0,0,395.51,49.92Z"/><path class="cls-1" d="M123.9,86.23a18.08,18.08,0,1,1-18-18.13A18,18,0,0,1,123.9,86.23Zm-18.06,12.4a12.46,12.46,0,1,0,0-24.91,12.46,12.46,0,1,0,0,24.91Z"/><path class="cls-1" d="M37.15,36.13a18.07,18.07,0,1,1,18.12-17.9A18.1,18.1,0,0,1,37.15,36.13Zm0-5.58A12.48,12.48,0,1,0,24.7,18,12.5,12.5,0,0,0,37.18,30.55Z"/><path class="cls-1" d="M87.75,18.11a18.08,18.08,0,1,1,18.08,18A18,18,0,0,1,87.75,18.11Zm18,12.44A12.48,12.48,0,1,0,93.35,18,12.44,12.44,0,0,0,105.8,30.55Z"/><path class="cls-1" d="M182.28,58.11c1.66,0,3.28,0,4.95,0,.06.23.12.41.16.6a5.49,5.49,0,0,0,5.22,4.34c1.57.06,3.15,0,4.72,0,2,0,4.08,0,6.12,0a5.67,5.67,0,0,0,4.19-1.87,4.58,4.58,0,0,0,1.12-4.46,3.33,3.33,0,0,0-1.45-2.09A8.93,8.93,0,0,0,202.16,53c-2.71,0-5.42,0-8.13,0a13.36,13.36,0,0,1-9.06-3.5c-2.37-2.06-3-4.84-2.69-7.84a10.44,10.44,0,0,1,9.9-9c3.47-.08,7-.09,10.43,0a10.5,10.5,0,0,1,9.71,8.18,16.58,16.58,0,0,1,.18,1.85h-5a3.15,3.15,0,0,1-.14-.39c-.21-2.55-2.87-4.5-5.14-4.53-3.21,0-6.42-.07-9.63,0a5.44,5.44,0,0,0-5.12,4.08,4,4,0,0,0,1.82,4.5,8.81,8.81,0,0,0,5.11,1.51c2.84-.06,5.69,0,8.53,0,3.74,0,6.68,1.72,9.16,4.32A7.79,7.79,0,0,1,214,56.93a10.32,10.32,0,0,1-8.31,11,12.43,12.43,0,0,1-2.19.23c-3.58,0-7.16,0-10.74,0a10.67,10.67,0,0,1-9.2-5.2,9.11,9.11,0,0,1-1.32-4.06A5.07,5.07,0,0,1,182.28,58.11Z"/><path class="cls-1" d="M501.26,32.53h4c.3,0,.59,0,.86,0,.27.8.33,33.7.05,34.92-1.55.07-3.14.07-4.87,0V63.71l-.21-.09c-.43.36-.86.7-1.28,1.06a13.84,13.84,0,0,1-17.5.1A18,18,0,0,1,477.12,58a20,20,0,0,1-1.5-7.92c0-5.52,0-11,0-16.56,0-.32.05-.65.07-1h5V50.33a13.34,13.34,0,0,0,3.34,9.2,9.18,9.18,0,0,0,5.65,3.18,8.61,8.61,0,0,0,7.46-2.4,12.81,12.81,0,0,0,4.12-9.58c0-5.62,0-11.24,0-16.86Z"/><path class="cls-1" d="M294.68,39.49l-4.11,2.93a12.25,12.25,0,0,0-19-1.19,13,13,0,0,0,.39,18c4.66,4.64,13.84,5.13,18.66-1.61l4,2.87a7.9,7.9,0,0,1-.44.72,16.31,16.31,0,0,1-12.92,6.63A17.52,17.52,0,0,1,263.64,55a17.89,17.89,0,0,1,9.57-21.27A17.12,17.12,0,0,1,294.39,39C294.47,39.14,294.53,39.26,294.68,39.49Z"/><path class="cls-1" d="M378.32,32.51h5v4.93c-1.6.22-3.23-.06-5,.17-.06,2.52,0,5,0,7.45s0,4.95,0,7.42V67.3a14.09,14.09,0,0,1-5,.06V47.55c0-3.29,0-6.59,0-10h-4.91a17.94,17.94,0,0,1-.08-5l5,0c.1-4.09,0-8.06.07-12a19,19,0,0,1,5-.08C378.33,24.38,378.28,28.34,378.32,32.51Z"/><path class="cls-1" d="M440.89,67.47h-5V32.6h4.95q0,2.49.06,4.95l.19.11c3-3.21,6.45-5.24,11-5.12v4.88l-1.76.24a9.67,9.67,0,0,0-6.57,4,14.53,14.53,0,0,0-2.87,8.71q0,7.88,0,15.75Z"/><path class="cls-1" d="M303.54,32.59h4.86c.31,1.63,0,3.31.24,5.16l.85-.85a13.94,13.94,0,0,1,8-4.25,14.91,14.91,0,0,1,1.5-.11,5.65,5.65,0,0,1,.75.07v4.82l-1.64.22a9.75,9.75,0,0,0-6.86,4.26,15.1,15.1,0,0,0-2.73,8.87c0,5.12,0,10.23,0,15.35,0,.43,0,.85-.06,1.34h-4.91Z"/><path class="cls-1" d="M129.35,37.41c.41.44.78.87,1.17,1.28q5.39,5.54,10.77,11.07a2.87,2.87,0,0,1,0,4.36q-5.7,5.87-11.43,11.7a6.83,6.83,0,0,1-.58.51l-4-3.83c3.39-3.47,6.79-7,10.28-10.54L125.21,41.31Z"/><path class="cls-1" d="M57.05,41.56l3.83-4.05L71.43,47.78c3.6-3.48,7.11-6.9,10.65-10.33l3.81,4a3.34,3.34,0,0,1-.39.49c-4,3.87-8,7.75-12,11.61a2.82,2.82,0,0,1-4.2,0c-4-3.88-8-7.8-12-11.7A3.32,3.32,0,0,1,57.05,41.56Z"/><path class="cls-1" d="M464.91,67.53c-1.73,0-3.32,0-5,0V32.71a18.12,18.12,0,0,1,5,0Z"/><path class="cls-1" d="M13.47,37.49l3.8,4c-.17.19-.32.4-.51.58L5,53.53a2.81,2.81,0,0,1-2.91.87A2.8,2.8,0,0,1,.54,50.05,3.73,3.73,0,0,1,1,49.53L12.94,37.94C13.08,37.8,13.24,37.68,13.47,37.49Z"/><path class="cls-1" d="M462.35,26.48a3,3,0,0,1-3-3.08,3.12,3.12,0,0,1,3.1-3,3,3,0,0,1,3,3.17A2.94,2.94,0,0,1,462.35,26.48Z"/></g></g></svg>