<svg xmlns="http://www.w3.org/2000/svg" viewBox="0 0 102.21 102.21"><defs><style>.cls-1{fill:#fff;}</style></defs><g id="Layer_2" data-name="Layer 2"><g id="Layer_1-2" data-name="Layer 1"><path class="cls-1" d="M51.11,0a51.11,51.11,0,1,0,51.1,51.11A51.17,51.17,0,0,0,51.11,0Zm1.5,99.18V83.92a1.5,1.5,0,0,0-3,0V99.18A48.15,48.15,0,0,1,3,52.61H18.29a1.5,1.5,0,1,0,0-3H3A48.14,48.14,0,0,1,49.61,3V18.29a1.5,1.5,0,1,0,3,0V3A48.14,48.14,0,0,1,99.17,49.61H83.92a1.5,1.5,0,0,0,0,3H99.17A48.15,48.15,0,0,1,52.61,99.18Z"/><path class="cls-1" d="M85.87,74.71c-.78-4.43-2.13-9.94-5.72-13.2a12.39,12.39,0,0,0-4.86-2.67A8.56,8.56,0,0,1,72,57.15c-2.21-2-2.37-3.23-.74-5.85a21.49,21.49,0,0,0,3.19-10.61c0-6.45-4.56-11.51-10.39-11.51a9.62,9.62,0,0,0-3.41.62,12.44,12.44,0,0,0-19.15,0,9.58,9.58,0,0,0-3.41-.62c-5.82,0-10.38,5.06-10.38,11.51A21.58,21.58,0,0,0,30.92,51.3c1.63,2.62,1.47,3.87-.74,5.85a8.42,8.42,0,0,1-3.26,1.69,12.53,12.53,0,0,0-4.86,2.67c-3.59,3.25-4.94,8.76-5.72,13.2a1.51,1.51,0,0,0,1.22,1.74l.26,0a1.5,1.5,0,0,0,1.48-1.24c.69-4,1.87-8.86,4.78-11.5a9.64,9.64,0,0,1,3.82-2,11.41,11.41,0,0,0,4.28-2.29c3.3-3,3.68-5.84,1.28-9.68a18.61,18.61,0,0,1-2.72-9c0-4.77,3.24-8.51,7.38-8.51a7.06,7.06,0,0,1,1.66.21A15.63,15.63,0,0,0,38,39.69,27,27,0,0,0,42.1,53.13c2.27,3.58,1.93,6.59-1,9.21A15.93,15.93,0,0,1,35.71,65a20.19,20.19,0,0,0-7.2,3.75C23.77,73,24.09,80.82,24.44,84a1.5,1.5,0,0,0,1.66,1.32,1.49,1.49,0,0,0,1.32-1.65c-.3-2.72-.61-9.4,3.09-12.71A17.39,17.39,0,0,1,36.7,67.8,18.36,18.36,0,0,0,43,64.59c4.08-3.61,4.65-8.25,1.59-13.07A24.17,24.17,0,0,1,41,39.69c0-6.39,4.43-11.39,10.1-11.39s10.09,5,10.09,11.39a24.14,24.14,0,0,1-3.62,11.83c-3.06,4.83-2.49,9.46,1.59,13.07a18.36,18.36,0,0,0,6.34,3.21A17.39,17.39,0,0,1,71.7,71c3.7,3.3,3.39,10,3.09,12.71a1.49,1.49,0,0,0,1.32,1.65h.17A1.5,1.5,0,0,0,77.77,84c.35-3.18.67-11-4.06-15.28A20.32,20.32,0,0,0,66.5,65a15.78,15.78,0,0,1-5.34-2.63c-3-2.62-3.32-5.63-1-9.21A27.09,27.09,0,0,0,64.2,39.69a15.51,15.51,0,0,0-1.77-7.3,7.06,7.06,0,0,1,1.66-.21c4.14,0,7.39,3.74,7.39,8.51a18.62,18.62,0,0,1-2.73,9c-2.4,3.84-2,6.73,1.28,9.68a11.44,11.44,0,0,0,4.29,2.29,9.61,9.61,0,0,1,3.81,2c2.92,2.64,4.09,7.53,4.78,11.5a1.5,1.5,0,0,0,1.48,1.24l.26,0A1.5,1.5,0,0,0,85.87,74.71Z"/></g></g></svg>