<svg xmlns="http://www.w3.org/2000/svg" viewBox="0 0 102.21 98.03"><defs><style>.cls-1{fill:#1d1d1c;}</style></defs><g id="Layer_2" data-name="Layer 2"><g id="Layer_1-2" data-name="Layer 1"><path class="cls-1" d="M96,14.29a1.53,1.53,0,0,0-2.12,0l-9.55,9.55a41,41,0,0,0-18.81-7.95V3h8.21a1.5,1.5,0,0,0,0-3H45a1.5,1.5,0,0,0,0,3h8.2V15.89a40.58,40.58,0,0,0-6.52,1.52,1.5,1.5,0,1,0,.92,2.85,38.22,38.22,0,0,1,10.24-1.8V23.8a1.5,1.5,0,0,0,3,0V18.47A38.11,38.11,0,0,1,85.29,28.6l-3.61,3.62a1.5,1.5,0,0,0,1.06,2.56,1.53,1.53,0,0,0,1.06-.44l3.62-3.62A38.15,38.15,0,0,1,97.59,55.18H92.21a1.5,1.5,0,0,0,0,3h5.38A38.13,38.13,0,0,1,87.46,82.69L83.75,79a1.5,1.5,0,1,0-2.12,2.12l3.71,3.71A38.16,38.16,0,0,1,60.83,95V89.56a1.5,1.5,0,0,0-3,0V95a38.23,38.23,0,0,1-10.24-1.81,1.5,1.5,0,0,0-.92,2.86A41.29,41.29,0,0,0,92.22,31.78l9.55-9.55a1.49,1.49,0,0,0,0-2.12ZM56.19,3h6.28V15.56c-1-.08-2.08-.13-3.14-.13s-2.1,0-3.14.12ZM90.31,29.45a43.06,43.06,0,0,0-3.7-3.7l8.28-8.28,3.7,3.7Z"/><path class="cls-1" d="M21.34,36.82h7.84a1.5,1.5,0,0,0,0-3H21.34a1.5,1.5,0,1,0,0,3Z"/><path class="cls-1" d="M29.18,76.36H21.34a1.5,1.5,0,0,0,0,3h7.84a1.5,1.5,0,0,0,0-3Z"/><path class="cls-1" d="M29.18,65.72H10a1.5,1.5,0,0,0,0,3H29.18a1.5,1.5,0,1,0,0-3Z"/><path class="cls-1" d="M10,47.45H29.18a1.5,1.5,0,0,0,0-3H10a1.5,1.5,0,0,0,0,3Z"/><path class="cls-1" d="M1.5,58.09H29.18a1.5,1.5,0,1,0,0-3H1.5a1.5,1.5,0,0,0,0,3Z"/><path class="cls-1" d="M77.67,39.59a1.52,1.52,0,0,0-2-.14L61.42,50.62a6.53,6.53,0,1,0,4.7,6.27A6.46,6.46,0,0,0,66,55.71L77.74,41.59A1.5,1.5,0,0,0,77.67,39.59ZM59.58,60.42a3.53,3.53,0,1,1,3.54-3.53A3.54,3.54,0,0,1,59.58,60.42Zm5-7.71a5.92,5.92,0,0,0-.41-.45l2.23-1.75Z"/></g></g></svg>